<svg id="OBJECT" xmlns="http://www.w3.org/2000/svg" viewBox="0 0 78.02 125.5"><path d="M403.11,319.33c-1.05,11.85-1.92,26.39,3.49,37.41,4.89,10,15.53,14.79,26.23,15.37s22.67-2.86,27.08-13.34c5-11.82,4.2-25,3.41-37.56-.13-2-3.27-2-3.15,0,.62,10.4,1.29,21.16-1.49,31.32-1.67,6.06-4.09,10.9-10.09,13.59a34.22,34.22,0,0,1-15.76,2.82c-11.15-.61-21-6.23-24.9-17-3.7-10.25-2.23-21.9-2.87-32.58a1,1,0,0,0-1.95,0Z" transform="translate(-393.52 -283.69)" fill="#1e1e1e"/><path d="M404.17,337.46a5.17,5.17,0,0,0-5.58-3c-2.85.39-4.53,2.79-4.94,5.49-1,6.64,4.3,12.74,10.51,14.16,1.61.37,2.3-2.11.69-2.47a11.18,11.18,0,0,1-8.27-7.26c-1.42-4.38,1.25-10.05,6-6.05.62.52,1.93.05,1.55-.9Z" transform="translate(-393.52 -283.69)" fill="#1e1e1e"/><path d="M463.23,339.24c2.86-1.53,5.93-1.68,6,2.47a10.1,10.1,0,0,1-1.28,4.74c-1.51,2.79-4.13,5.93-7.3,6.68-1.53.37-.88,2.73.65,2.36,5.49-1.35,10.31-8.2,10.26-13.78-.05-6-5.17-7.41-9.4-3.87-.8.67.23,1.87,1.09,1.4Z" transform="translate(-393.52 -283.69)" fill="#1e1e1e"/><path d="M431.31,350.18c2.3,1.4,8.43,1,9.54-2.08.74-2-.64-4.67-.75-6.73-.17-3.56.07-7.18,0-10.75a1.25,1.25,0,0,0-2.49,0c0,4.25-.28,8.72.22,12.94a15.86,15.86,0,0,1,.44,2.2c-.12,2.52-1.22,2.08-2.91,2.34-1.9.29-2.87.24-4.17,1.58a.32.32,0,0,0,.07.5Z" transform="translate(-393.52 -283.69)" fill="#1e1e1e"/><path d="M420.82,341a1.94,1.94,0,1,0-1.94-1.94,2,2,0,0,0,1.94,1.94Z" transform="translate(-393.52 -283.69)" fill="#1e1e1e"/><path d="M446.78,341a1.74,1.74,0,0,0,0-3.48,1.74,1.74,0,0,0,0,3.48Z" transform="translate(-393.52 -283.69)" fill="#1e1e1e"/><path d="M432.86,358.25c1.93.43,4.62.51,6.41-.44a.69.69,0,0,0-.16-1.25,8.52,8.52,0,0,0-2.85-.22,30.05,30.05,0,0,0-3.15.12c-.93.12-1.35,1.55-.25,1.79Z" transform="translate(-393.52 -283.69)" fill="#1e1e1e"/><path d="M434.13,361.42a2.78,2.78,0,0,0,3-.16.56.56,0,0,0-.14-1,2.77,2.77,0,0,0-2.9.6.48.48,0,0,0,.07.57Z" transform="translate(-393.52 -283.69)" fill="#1e1e1e"/><path d="M442,369.19c-.75,2.54-.61,5.26-.62,7.87,0,2.32-.49,5,.77,7a.93.93,0,0,0,1.59,0c1.15-2.1.58-4.68.54-7,0-2.61.14-5.31-.52-7.87a.92.92,0,0,0-1.76,0Z" transform="translate(-393.52 -283.69)" fill="#1e1e1e"/><path d="M443.84,380.69c7,2.92,12.25,6.67,16.43,13.06a29.65,29.65,0,0,1,3.18,6.28c.67,1.89,1.67,3.76-.62,4.9-1.63.82-5.62.29-7.48.4-18.53,1.07-37.2,1.38-55.35-3,.36.65.73,1.29,1.1,1.94,2.4-12.52,13.61-19,24.63-23.23a1.66,1.66,0,0,0,1.18-1.55c0-3.21-.06-6.42-.06-9.63a1.56,1.56,0,0,0-3.11,0c0,3.21-.06,6.42-.06,9.63l1.19-1.56c-12,4.63-24.2,11.84-26.82,25.5a1.61,1.61,0,0,0,1.11,2,147.33,147.33,0,0,0,33.68,3.84c5.63,0,11.26-.15,16.88-.44,5.25-.27,11.45.16,16.45-1.55a1.35,1.35,0,0,0,.95-.94c1-5.67-3.11-12.32-6.48-16.66-4-5.16-9.8-10.26-16.5-11.14-1.39-.18-1.35,1.78-.3,2.23Z" transform="translate(-393.52 -283.69)" fill="#1e1e1e"/><path d="M416.79,382.52c.34,6.28,9.5,8.57,14.46,9.23,8.14,1.09,16-.54,22.58-5.41,1.68-1.24-.4-3.62-1.67-2.17-4.42,5-12.5,6-18.84,5.56a26,26,0,0,1-8.79-2c-3-1.32-4.49-3.49-6.82-5.59a.55.55,0,0,0-.92.38Z" transform="translate(-393.52 -283.69)" fill="#1e1e1e"/><path d="M404.11,341.14c-.65-2.16-3.47-3.67-5.53-2.44a3.43,3.43,0,0,0-1.53,2.4c-.15.86-.12,2.37.61,3a.51.51,0,0,0,.79-.1c.69-1,0-2.52.86-3.43,1.24-1.28,2.82.76,3.81,1.36a.68.68,0,0,0,1-.76Z" transform="translate(-393.52 -283.69)" fill="#1e1e1e"/><path d="M463.1,342.9a9.46,9.46,0,0,1,1.35-.58,2.72,2.72,0,0,1,1.46-.17c.48.2.23.93.86,1.09a.78.78,0,0,0,.74-.2c1-1-.07-2.6-1.36-2.61a4.67,4.67,0,0,0-3.4,2.12c-.16.23.14.45.35.35Z" transform="translate(-393.52 -283.69)" fill="#1e1e1e"/><path d="M418.94,383.6c1.76,5.3,8.49,7.15,13.47,7.55a31.84,31.84,0,0,0,19.95-5.25c2.15-1.42.19-4.85-2-3.48a28.82,28.82,0,0,1-15.53,4.69c-5.67,0-9.47-2-14.22-4.77a1.13,1.13,0,0,0-1.64,1.26Z" transform="translate(-393.52 -283.69)" fill="#1e1e1e"/><path d="M413,330.92c1.69,0,3.23-1.64,4.92-2.06,2.21-.55,4,.37,6.13.23a1.05,1.05,0,0,0,.74-1.77c-1.69-1.71-5.07-1.46-7.23-.94-1.86.45-5.09,1.67-5.22,3.88a.67.67,0,0,0,.66.66Z" transform="translate(-393.52 -283.69)" fill="#1e1e1e"/><path d="M444.12,329.77a10.07,10.07,0,0,1,6.12-.22c1.42.34,3.08,1.22,4.26,0a.76.76,0,0,0,.2-.76c-.68-1.95-4-2-5.79-2.19a6.28,6.28,0,0,0-5.56,1.83c-.46.56,0,1.57.77,1.31Z" transform="translate(-393.52 -283.69)" fill="#1e1e1e"/><path d="M443.07,340.12a8.69,8.69,0,0,1,.93-1.42,3.68,3.68,0,0,1,2.81-.76c1.66,0,2.95.39,3.7,1.95.6,1.27,2.49.16,1.88-1.1-1.23-2.54-4-3.28-6.64-2.93-1.83.23-5,2-3.59,4.26a.54.54,0,0,0,.91,0Z" transform="translate(-393.52 -283.69)" fill="#1e1e1e"/><path d="M415.54,340.26a5.41,5.41,0,0,1,3.72-2.78,3.92,3.92,0,0,1,4.83,2.38.91.91,0,0,0,1.76-.48,5.79,5.79,0,0,0-7.43-3.82,6.72,6.72,0,0,0-3.83,2.61c-.44.81-.54,2,.54,2.26a.37.37,0,0,0,.41-.17Z" transform="translate(-393.52 -283.69)" fill="#1e1e1e"/><path d="M401.06,336.57c.94-2.51.45-5.5.26-8.13a44.17,44.17,0,0,0-1.08-8.19,1.26,1.26,0,0,0-2.47.33c.08,2.82.59,5.65.81,8.47.2,2.48-.06,5.2.87,7.52a.84.84,0,0,0,1.61,0Z" transform="translate(-393.52 -283.69)" fill="#1e1e1e"/><path d="M465.8,337.89c2.24-4.84,3-12,2.86-17.29,0-1.21-2-1.6-2.21-.3-.51,2.7-.61,5.46-.93,8.19-.36,3.05-1,6.05-.73,9.13,0,.48.76.81,1,.27Z" transform="translate(-393.52 -283.69)" fill="#1e1e1e"/><path d="M397.9,321.63c11.08-2.92,22.65-3.2,34.05-3.45,12.26-.27,24.48.35,36.44,3.26,1.71.41,2.44-2.23.73-2.63-12.51-3-25.31-3.66-38.13-3.38-10.94.24-23.75-.47-33.79,4.53-.94.47-.28,1.93.7,1.67Z" transform="translate(-393.52 -283.69)" fill="#1e1e1e"/><path d="M398.89,320.09c.22-9.09-2.8-20.44,5.09-27.16,7.45-6.35,19.49-6.78,28.76-6.73,8.64.05,21.48.4,28.29,6.66,7.07,6.49,7.07,17.09,7.1,25.94a1.42,1.42,0,0,0,2.83,0c0-9.65-.47-20.74-8.1-27.78s-21.34-7.39-31.06-7.32c-9.9.07-22.36,1-30,8s-6.4,19.42-4.78,28.62c.19,1.09,1.85.79,1.88-.26Z" transform="translate(-393.52 -283.69)" fill="#1e1e1e"/><path d="M422.11,316.1c.32-3.1.13-6.18.35-9.27.25-3.4.54-6.08,3.9-7.41a19.71,19.71,0,0,1,5.11-.95c5-.49,9.16.58,9.72,6.36.33,3.47.33,7,.48,10.51.09,1.85,3,1.84,2.89,0-.33-4.52.44-11-1.82-15.14-2.1-3.82-6.62-4.67-10.61-4.38-3.79.27-8.8.87-11.08,4.38-2.6,4-1.23,11.47-.72,15.9a.89.89,0,0,0,1.78,0Z" transform="translate(-393.52 -283.69)" fill="#1e1e1e"/><path d="M421.2,310.83c7.09.36,14.14-.64,21.27-.06,1.79.15,1.82-2.74,0-2.81-6.9-.28-14.81-.68-21.45,1.48a.71.71,0,0,0,.18,1.39Z" transform="translate(-393.52 -283.69)" fill="#1e1e1e"/><path d="M426,310a8.61,8.61,0,0,0-.37,3.08,4.87,4.87,0,0,0,.36,2.78.5.5,0,0,0,.85,0,5,5,0,0,0,.35-2.78,8.83,8.83,0,0,0-.36-3.08.43.43,0,0,0-.83,0Z" transform="translate(-393.52 -283.69)" fill="#1e1e1e"/><path d="M428.81,310a16.43,16.43,0,0,0-.1,2.53,4.67,4.67,0,0,0,.38,2.31.48.48,0,0,0,.87-.11,4.47,4.47,0,0,0,0-2.21,16.61,16.61,0,0,0-.44-2.52c-.1-.33-.69-.4-.75,0Z" transform="translate(-393.52 -283.69)" fill="#1e1e1e"/><path d="M429.66,304.55c5.14-3.33,14.32-6.91,19.16-1,.27-.64.53-1.27.79-1.91a15.71,15.71,0,0,0-6.47,1.89,1.12,1.12,0,0,0,.27,2c5.79,1.66,7.28,5.65,8.08,11l1.84-1.42c-1.73-1.05-3.42-2.16-5.09-3.32-1-.67-1.88.44-1.75,1.35.07.5.61,9.45-2.49,7.91a13.1,13.1,0,0,1-.8-2.54,19.27,19.27,0,0,0-2.87-5,20.69,20.69,0,0,0-9.27-6.54c-1.65-.63-2.45,2.12-.74,2.67A17,17,0,0,1,442,323.07a1.2,1.2,0,0,0,1.16.88c5.84-.59,6.35-6.23,5.71-11.05l-1.79,1c1.64,1.2,3.31,2.34,5,3.43,1,.64,2-.41,1.84-1.42-1.05-6.52-3.19-10.8-9.91-12.51l.26,2a10.24,10.24,0,0,1,5.35-1.57,1.14,1.14,0,0,0,.8-1.91c-5.19-6.4-16.67-4-21.57,1.51-.49.55.14,1.5.82,1.06Z" transform="translate(-393.52 -283.69)" fill="#1e1e1e"/><path d="M423.55,306.26c.36-.88.73-1.77,1.11-2.65a1.13,1.13,0,0,0-2-1.13,8.9,8.9,0,0,0-1.82,5.84c0,1,1.6,1.63,2.06.56,1.25-2.88,2.48-5.77,3.74-8.65l-1.54.4c.4.27-1.68,5.26-1.84,5.63l2.05.86q.93-2.31,1.91-4.59c.17-.39,1.84-3.5.61-3.34l.3,2.26c2.51-.6,5-1.18,7.54-1.76,1.49-.34.82-2.42-.61-2.22a15.59,15.59,0,0,0-6.75,2.62c-1.05.72-.44,2.61.92,2.18a44,44,0,0,0,4.66-1.81l-1.2-2.06c-3.67,1.94-7.64,4.16-9.37,8.14-.41.93.54,2.41,1.6,1.61,2.38-1.8,4.82-3.5,7.23-5.24l-1.38-1.8c-2,2.05-4,4.09-5.93,6.15-.9.94.27,2.63,1.44,1.86,2.72-1.79,5.6-3.37,8.42-5l-1.64-1.26c-.27,1.13-4.49,3.07-5.47,3.74a.67.67,0,0,0,.51,1.21c2.28-.57,6.5-1.76,7.11-4.36a1.13,1.13,0,0,0-1.64-1.26c-2.82,1.65-5.6,3.4-8.49,4.9l1.44,1.87q2.94-3.09,5.86-6.21c.85-.9-.28-2.58-1.38-1.79-2.42,1.73-4.81,3.5-7.26,5.18l1.6,1.61c1.87-3.57,5.09-5.46,8.55-7.27,1.38-.73.16-2.68-1.2-2.06a40.7,40.7,0,0,1-4.1,1.57c.31.73.62,1.45.92,2.18a14,14,0,0,1,6.16-2.46c-.2-.74-.4-1.48-.61-2.22q-3.76.9-7.54,1.76c-1.48.34-.81,2.42.61,2.22s3-.76,3.14-2.4a2,2,0,0,0-1.7-2.21c-1.39-.29-2.38.67-3,1.77-1.37,2.31-2.18,5.19-3.28,7.65-.58,1.31,1.36,2.45,1.94,1.13.94-2.11,3.71-6.94,1-8.7a1.15,1.15,0,0,0-1.66.67c-1.17,2.81-2.39,5.6-3.59,8.4l2.07.56a7.51,7.51,0,0,1,1.55-4.71l-2.1-.57c-.09,1-.19,2-.29,3-.08.79,1,.78,1.28.17Z" transform="translate(-393.52 -283.69)" fill="#1e1e1e"/><path d="M427,307.6a89.73,89.73,0,0,1,16.12-5.3l-.6-2.17a36.81,36.81,0,0,1-9.51,1.45l.54,2c1.05-.48,9.42-4.17,10.43-2.41l.67-1.66a22.5,22.5,0,0,0-6.68,2.24,1.15,1.15,0,0,0-.24,1.81l3.28,2.54.81-2a46.56,46.56,0,0,1-9.41-1,1.15,1.15,0,0,0-.88,2.09l8.17,5.34,1.2-2a63,63,0,0,0-8.81-3.48,1.23,1.23,0,0,0-.94,2.25c2.87,1.48,5.73,3,8.61,4.43,1.22.62,2.65-1,1.53-2-3.47-3.15-8.09-5.27-12.8-4.09-.74.18-.82,1.45,0,1.57,4.14.63,7.8,1.39,11,4.31l1.53-2c-2.87-1.47-5.76-2.92-8.64-4.38l-.95,2.25a59.32,59.32,0,0,1,8.26,3.16,1.19,1.19,0,0,0,1.2-2l-8.22-5.26-.88,2.08a52.82,52.82,0,0,0,10,1.1c.91,0,1.64-1.32.82-2l-3.27-2.55-.24,1.81a22.3,22.3,0,0,1,6.12-2.05,1.14,1.14,0,0,0,.68-1.66c-2.29-3.88-10.68.44-13.45,1.73-1,.45-.47,2,.53,2a43.6,43.6,0,0,0,10.11-1.39c1.41-.37.81-2.46-.6-2.17a41.61,41.61,0,0,0-15.89,6.6c-.4.29-.17,1.09.37.87Z" transform="translate(-393.52 -283.69)" fill="#1e1e1e"/><path d="M424,308.26c1.68.27,3.37.43,5.06.59a19.07,19.07,0,0,0,5.11.18c.9-.16.76-1.45,0-1.69a18.26,18.26,0,0,0-4.73-.45c-1.75-.06-3.5-.13-5.25-.08-.79,0-1.05,1.31-.19,1.45Z" transform="translate(-393.52 -283.69)" fill="#1e1e1e"/><path d="M435.91,306.07l0-.08a1,1,0,0,0-1.31-.34l-.1.06a1,1,0,0,0-.19,1.5c1.39,1.74,5,2.78,7,3.78a1.15,1.15,0,0,0,1.16-2,20.9,20.9,0,0,1-5.18-4.56c-.41.69-.81,1.38-1.21,2.07a25.71,25.71,0,0,1,9,5.2l1.69-2.19a30.28,30.28,0,0,1-5.89-4.22l-1.4,2.41a29.7,29.7,0,0,1,9,4.8l1.47-2.51a17.16,17.16,0,0,1-4.1-4.52l-2.28,1.76a36,36,0,0,1,6.28,6.3c1.12,1.45,3.61.12,2.53-1.48a15.17,15.17,0,0,0-5.66-5.45,1.23,1.23,0,0,0-1.48,1.92,36.48,36.48,0,0,1,4.61,5l2.3-1.77a37.65,37.65,0,0,0-6.52-6.59c-1.2-.94-3.26.25-2.29,1.77a21.43,21.43,0,0,0,5.14,5.56c1.49,1.13,2.93-1.39,1.47-2.51a31.83,31.83,0,0,0-9.71-5.07,1.45,1.45,0,0,0-1.4,2.41,26.76,26.76,0,0,0,6.52,4.59c1.34.64,3-1.09,1.69-2.2a24.75,24.75,0,0,0-10.35-5.6,1.25,1.25,0,0,0-1.2,2.07,24.79,24.79,0,0,0,5.77,4.78c.38-.66.77-1.32,1.16-2L439,307.43c-1-.45-2.69-.83-3.39-1.57-.06.5-.13,1-.19,1.5l.09-.06-1.15-.15.05.07c.66.85,2.08-.26,1.49-1.15Z" transform="translate(-393.52 -283.69)" fill="#1e1e1e"/><path d="M439.93,309.37a43.74,43.74,0,0,1,5.52,8l1.47-1.91c-3.26-.9-3.75-5.47-5.53-7.9a1.26,1.26,0,0,0-2.32.62c-.35,3,1.9,4.82,2.9,7.46l2.37-1a20.12,20.12,0,0,0-5.25-6.17,1.31,1.31,0,0,0-2.17,1.26,11.57,11.57,0,0,0,3.33,6.12c1,1,2.93-.34,2-1.57l-1.53-2.08-1.11,1.95a18.65,18.65,0,0,1,5.91,1.84c1.05.52,2.57-.63,1.77-1.77a4.83,4.83,0,0,1-.94-3.5l-2.53.34c.79,2.7,1.56,5.42-.12,7.95-.92,1.37,1.27,2.62,2.19,1.28l.95-1.38c.79-1.17-1.05-2.62-2-1.52a10.33,10.33,0,0,0-1.71,2.83l2.39.66c.18-.94.36-1.88.53-2.82l-2.42-.33a10,10,0,0,1-.16,3l2.06-.54a12.07,12.07,0,0,1-2.69-5.08,1.24,1.24,0,0,0-2.42.32,6,6,0,0,0,2.48,5.14c1.08.82,2.24-.89,1.39-1.81A4.37,4.37,0,0,1,443,315.4l-2.41.33a14.5,14.5,0,0,0,3.32,6.17,1.25,1.25,0,0,0,2.06-.55,13.38,13.38,0,0,0,.25-3.63c-.09-1.3-2.14-1.78-2.43-.32l-.54,2.81c-.25,1.27,1.68,2.34,2.27,1a6.91,6.91,0,0,1,1.21-2l-2-1.52-1,1.37,2.19,1.28c2.13-3.06,1.4-6.56.41-9.91a1.29,1.29,0,0,0-2.53.34,6.93,6.93,0,0,0,1.29,4.8l1.76-1.77A21.47,21.47,0,0,0,440,311.6c-1-.13-2.22.87-1.46,1.9l1.52,2.08,2-1.57a9.28,9.28,0,0,1-2.66-5l-2.17,1.26a18.81,18.81,0,0,1,4.85,5.65c.7,1.24,2.94.39,2.37-1-.91-2.22-3.18-4.25-2.91-6.77l-2.32.63c2.39,3.2,2.57,7.88,7,9.15a1.31,1.31,0,0,0,1.47-1.9,29.32,29.32,0,0,0-6.53-7.92.88.88,0,0,0-1.24,1.24Z" transform="translate(-393.52 -283.69)" fill="#1e1e1e"/><path d="M441.92,304.33a7.65,7.65,0,0,1,3.7-2.18l-.87-2.06a16.7,16.7,0,0,1-4.53,1.73c-1.37.28-1,2.29.32,2.35,2,.11,4.07.23,6.11.31a1.23,1.23,0,0,0,.62-2.28,2.92,2.92,0,0,0-1.57-.57,1,1,0,0,0-.83,1.45,2.56,2.56,0,0,0,.91,1.05l.87-2.1c-2-.1-4.07-.17-6.11-.25.11.78.21,1.57.32,2.35a13.13,13.13,0,0,0,5-2.09,1.13,1.13,0,0,0-1.14-2,9.43,9.43,0,0,0-4,3.31c-.5.72.61,1.55,1.2.93Z" transform="translate(-393.52 -283.69)" fill="#1e1e1e"/><path d="M432.91,298.93c6.73-.62,13.4,1.13,18.21,6l1.27-2.18c-2.42-.86-4.69-1.44-7.18-.71a.87.87,0,0,0,0,1.66c2.16.62,4.35.8,6.49,1.56,1.26.46,2.13-1.29,1.26-2.17-5.28-5.37-13-7.71-20.12-4.73-.26.11-.28.58.07.55Z" transform="translate(-393.52 -283.69)" fill="#1e1e1e"/><path d="M443.19,305.83c3.25-.24,6.17-.4,9.36.53a1.2,1.2,0,0,0,1.16-2c-2.69-2.87-7.22-5.21-11.15-3.56a.52.52,0,0,0,0,1c3.5,1,6.73,1.6,9.47,4.25.38-.67.77-1.33,1.15-2-3.38-.69-7.09-.72-10.24.83a.5.5,0,0,0,.25.93Z" transform="translate(-393.52 -283.69)" fill="#1e1e1e"/><path d="M446.69,312.71c1.73,2.51,3.38,5.75,5.9,7.55a1.08,1.08,0,0,0,1.11,0c3.12-1.72.54-7-.68-9.2-1.83-3.25-4.35-7.38-8.56-7.3a1.27,1.27,0,0,0-.34,2.49c3.81,1.1,6.09,4.65,7.67,8.13a6.23,6.23,0,0,1,.85,2.52c-.2,1-.59-.19-1.06-.7-1.32-1.44-2.79-2.68-4.21-4-.34-.32-1,.11-.68.53Z" transform="translate(-393.52 -283.69)" fill="#1e1e1e"/><path d="M445.1,305.81c2.37.87,4.82,1.37,7.14,2.39.82.36,1.7,1,2.64.84,2.07-.37,1.71-2.51.83-3.83-3.09-4.63-11.3-8.6-16.78-7.15a1,1,0,0,0,0,2c4.58,1.41,8.78,1.72,12.71,4.9a14.26,14.26,0,0,1,1.1,1,1.64,1.64,0,0,0,1.43.62c-.72-.63-2.25-.84-3.18-1.07a13,13,0,0,0-5.89-.25c-.34.07-.27.52,0,.62Z" transform="translate(-393.52 -283.69)" fill="#1e1e1e"/><path d="M422.69,309.53c2-.13,4.45-.06,6.19-1.1a.82.82,0,0,0-.2-1.48c-1.95-.53-4.33.21-6.26.61a1,1,0,0,0,.27,2Z" transform="translate(-393.52 -283.69)" fill="#1e1e1e"/><path d="M398.29,322.59c0,.82,0,1.64,0,2.47a1,1,0,0,0,1.84.5c.57-1,1.13-2,1.7-3.05l-2-.54c0,1.21,0,2.42,0,3.62a1.14,1.14,0,0,0,2.23.3c.42-1.31.83-2.63,1.27-3.94h-2.22a5.14,5.14,0,0,1,0,2.64l2.29.31a4.29,4.29,0,0,1,.54-2.59l-2.29-.63c-.56,2.61-1,5.25-1.5,7.88l2.45.33c0-1.17,0-2.34.05-3.51h-2.42c0,2.08,0,4.17,0,6.25,0,1.59,2.21,1.49,2.4,0,.07-.29.15-.59.22-.88l-2.35-.32a14.68,14.68,0,0,0,.28,4.19c.23.9,1.79,1,1.93,0a34.38,34.38,0,0,0,.19-4.19,1.21,1.21,0,0,0-2.36-.32,7.89,7.89,0,0,0-.31,1.52h2.4c0-2.08,0-4.17,0-6.25a1.21,1.21,0,0,0-2.42,0l-.13,3.51c-.05,1.38,2.2,1.74,2.46.33.49-2.63,1-5.27,1.38-7.91a1.19,1.19,0,0,0-2.29-.63,10.77,10.77,0,0,0-.59,3.22,1.18,1.18,0,0,0,2.3.31,7.26,7.26,0,0,0,0-3.87,1.16,1.16,0,0,0-2.22,0c-.39,1.32-.82,2.63-1.23,4l2.22.3c0-1.21-.09-2.41-.15-3.62-.05-1-1.47-1.52-2-.53s-1,2.08-1.58,3.12l1.81.24c-.12-.81-.26-1.62-.41-2.42s-1.55-.67-1.55.21Z" transform="translate(-393.52 -283.69)" fill="#1e1e1e"/><path d="M464.67,321.34l-.06-.11a.69.69,0,0,0-.76-.31,1.37,1.37,0,0,0-1,1.25,18,18,0,0,0,.07,3.81,1.08,1.08,0,0,0,2.16,0,17,17,0,0,0-1-6.44c-.52-1.31-2.59-.81-2.16.59a19.12,19.12,0,0,1,1,5.85h2.16c-.06-.79-.15-1.58-.24-2.38,0-.31-.06-.63-.1-1s.06-.75-.25-.57a.55.55,0,0,0,.19-.74Z" transform="translate(-393.52 -283.69)" fill="#1e1e1e"/><path d="M462.66,320.45c.27.84.55,1.67.83,2.51a1.28,1.28,0,0,0,2.16.89,12.31,12.31,0,0,0,2.13-3.07l-2.34-.63a13.12,13.12,0,0,1-.32,3.12,1.35,1.35,0,0,0,2.45,1l1.44-2.47-2.45-1c-1,3.68-2.3,7.61-2.29,11.47h2.85c0-2.71-.07-5.41-.11-8.11a1.29,1.29,0,0,0-2.57,0c-.06,3.17-.2,6.34-.31,9.52h2.51c-.19-2.57-.26-5.12-.21-7.69,0-1.35-2.23-1.73-2.42-.33A57,57,0,0,0,463.5,336h2.44c-.5-4-.17-8.19-.74-12.2-.14-1-1.71-.9-1.92,0-.89,3.87-.26,8.3.22,12.2.18,1.52,2.51,1.61,2.44,0a53.32,53.32,0,0,1,.45-9.7L464,326a75.92,75.92,0,0,0,.17,7.69,1.26,1.26,0,0,0,2.51,0c.12-3.18.2-6.35.37-9.52h-2.57c-.06,2.7-.11,5.4-.17,8.11a1.43,1.43,0,0,0,2.85,0c0-3.65,1.29-7.21,2-10.76a1.35,1.35,0,0,0-2.46-1c-.47.83-1,1.65-1.44,2.47l2.46,1a16.47,16.47,0,0,0,.24-3.84c-.06-1.12-1.79-1.87-2.34-.63a8.07,8.07,0,0,1-1.75,2.54l2.17.9a8.66,8.66,0,0,0-1.26-3.74,1.22,1.22,0,0,0-2.11,1.23Z" transform="translate(-393.52 -283.69)" fill="#1e1e1e"/><path d="M435.36,316.42a6.11,6.11,0,0,1,0-1.13c0-.32,0-.64-.08-1a4.24,4.24,0,0,0-.37-1.91.85.85,0,0,0-1.32-.17,3.15,3.15,0,0,0-.51,2.23,4.6,4.6,0,0,0,.18,1.1c.13.47.44.8.6,1.24a.77.77,0,0,0,1.48-.4Z" transform="translate(-393.52 -283.69)" fill="#1e1e1e"/><path d="M417.93,315.09c0-.72.16-2.42-1-2.42s-1,1.69-1,2.42a1,1,0,0,0,2,0Z" transform="translate(-393.52 -283.69)" fill="#1e1e1e"/><path d="M417.18,311.87a4,4,0,0,0,.31-1.49,1.71,1.71,0,0,0-.39-1.43.57.57,0,0,0-.8,0,1.71,1.71,0,0,0-.39,1.43,4,4,0,0,0,.31,1.49.55.55,0,0,0,1,0Z" transform="translate(-393.52 -283.69)" fill="#1e1e1e"/><path d="M416.9,306.79a1.89,1.89,0,0,0-.35-1.8.5.5,0,0,0-.7,0,1.89,1.89,0,0,0-.35,1.8.73.73,0,0,0,1.4,0Z" transform="translate(-393.52 -283.69)" fill="#1e1e1e"/><path d="M417.46,302.34a2.18,2.18,0,0,1,.3-1.11.71.71,0,0,0-.57-1c-.53-.06-.92.44-1.09.88a2.55,2.55,0,0,0-.12,1.42c.13.84,1.58.65,1.48-.2Z" transform="translate(-393.52 -283.69)" fill="#1e1e1e"/><path d="M419,298.74c-.06.15.28-.15.31-.16a.74.74,0,0,0-.2-1.44,1.15,1.15,0,0,0-1.14,1.6.54.54,0,0,0,1,0Z" transform="translate(-393.52 -283.69)" fill="#1e1e1e"/><path d="M421.86,296.43c.63-.18,1.42-.52,1.62-1.2a.56.56,0,0,0-.39-.68,2.1,2.1,0,0,0-1.84.84.63.63,0,0,0,.61,1Z" transform="translate(-393.52 -283.69)" fill="#1e1e1e"/><path d="M426.6,294.87c.84-.11,1.93.07,2.64-.48a.43.43,0,0,0,0-.58c-.73-.84-2.23-.33-3.06.07-.61.29-.14,1.07.42,1Z" transform="translate(-393.52 -283.69)" fill="#1e1e1e"/><path d="M431.54,294.43c.8.28,2.1.57,2.65-.3a.58.58,0,0,0,0-.57c-.55-.88-1.85-.58-2.65-.3a.61.61,0,0,0,0,1.17Z" transform="translate(-393.52 -283.69)" fill="#1e1e1e"/><path d="M436.59,294.71a3.89,3.89,0,0,0,1.47.82c.51.11,1.24.22,1.6-.24a.68.68,0,0,0,.1-.79c-.28-.42-.64-.44-1.08-.58a4.66,4.66,0,0,1-1.09-.49c-.77-.5-1.72.69-1,1.28Z" transform="translate(-393.52 -283.69)" fill="#1e1e1e"/><path d="M441.28,296.49c.4.77,1.2,1.88,2.18,1.82a.48.48,0,0,0,.44-.35c.21-1-.8-2-1.58-2.51s-1.35.42-1,1Z" transform="translate(-393.52 -283.69)" fill="#1e1e1e"/><path d="M403.23,395.19c2,4.13,4.86,7.85,7.58,11.51a1.12,1.12,0,0,0,1.71.22c4.09-3.27,8.1-6.64,12.14-10l-1.81-.23c2.55,3.37,5.09,6.76,7.64,10.14a1.21,1.21,0,0,0,1.88.25q5.07-5.3,10.47-10.22h-1.72a72.71,72.71,0,0,0,10.07,9.7,1.29,1.29,0,0,0,1.8,0c3.12-3.37,6.21-6.75,9.31-10.14,1.13-1.22-.7-3.05-1.82-1.82-3.1,3.38-6.21,6.76-9.29,10.16H453a71.62,71.62,0,0,1-10.15-9.62,1.23,1.23,0,0,0-1.72,0c-3.61,3.29-7.09,6.69-10.45,10.24l1.89.24q-3.87-5-7.72-10.1a1.18,1.18,0,0,0-1.81-.23c-4,3.34-8.08,6.65-12,10.06h1.54c-2.85-3.59-5.32-7.48-8.27-11-.5-.6-1.32.17-1,.79Z" transform="translate(-393.52 -283.69)" fill="#1e1e1e"/><path d="M405.36,392.35c16.62,7.44,38,5.6,55.05.65a1.41,1.41,0,0,0-.74-2.71,96.69,96.69,0,0,1-26.77,3.91c-9.23,0-17.89-2-26.95-3.24-.77-.11-1.46,1-.59,1.39Z" transform="translate(-393.52 -283.69)" fill="#1e1e1e"/></svg>