<svg id="OBJECT" xmlns="http://www.w3.org/2000/svg" viewBox="0 0 78.02 110.53"><path d="M563.51,152.63c-1.61,18.28-21.77,25.12-37.44,19.28-19.82-7.4-18.62-32.79-17.66-50.3.46-8.34,10.25-12,17.23-13.47,10-2.06,25.58-3.18,32.13,6.57,6.85,10.23,5.12,26.3,5.14,37.92a1.58,1.58,0,0,0,3.15,0c0-12.54,1.84-30.13-6.43-40.8-7.85-10.11-24.41-9.08-35.48-6.63-8.93,2-18.85,7.11-18.92,17.32-.11,18.52-2.09,43.28,18.57,51.77,16.84,6.92,41.9-.52,41.66-21.66A1,1,0,0,0,563.51,152.63Z" transform="translate(-496.26 -103.55)" fill="#1e1e1e"/><path d="M506.91,142.35a5.18,5.18,0,0,0-5.58-3c-2.85.39-4.53,2.8-4.94,5.5-1,6.64,4.3,12.73,10.51,14.16,1.61.37,2.3-2.11.68-2.48a11.17,11.17,0,0,1-8.26-7.25c-1.43-4.38,1.25-10.06,6-6.05.62.51,1.93,0,1.55-.9Z" transform="translate(-496.26 -103.55)" fill="#1e1e1e"/><path d="M566,144.13c2.86-1.54,5.93-1.68,6,2.46a10.07,10.07,0,0,1-1.28,4.74c-1.51,2.8-4.13,5.93-7.3,6.69-1.53.36-.88,2.73.65,2.35,5.49-1.34,10.31-8.2,10.26-13.78,0-6-5.18-7.4-9.4-3.87-.8.68.23,1.88,1.09,1.41Z" transform="translate(-496.26 -103.55)" fill="#1e1e1e"/><path d="M534.05,155.07c2.3,1.4,8.43,1,9.54-2.08.74-2-.65-4.68-.75-6.73-.18-3.57.07-7.18,0-10.76a1.25,1.25,0,0,0-2.49,0c0,4.26-.28,8.73.22,12.95a15.86,15.86,0,0,1,.44,2.2c-.12,2.51-1.22,2.08-2.91,2.34-1.9.29-2.87.24-4.17,1.58a.32.32,0,0,0,.07.5Z" transform="translate(-496.26 -103.55)" fill="#1e1e1e"/><path d="M545.85,135.37c2.17.16,4.35.1,6.51.21s4,.55,6,.25c1.4-.22,1.54-2.36.39-3-1.8-1-3.9-1-5.9-1.27a28.12,28.12,0,0,0-7-.13,2,2,0,0,0,0,3.92Z" transform="translate(-496.26 -103.55)" fill="#1e1e1e"/><path d="M531.51,134.05c-.85-2.91-6.15-2.39-8.5-2.46s-7-.92-8.06,2a1.89,1.89,0,0,0,1.82,2.39,51,51,0,0,1,9.81-.1c.95.06,5.64.64,4.93-1.83Z" transform="translate(-496.26 -103.55)" fill="#1e1e1e"/><path d="M523.56,145.84a2,2,0,0,0,1.94-1.94,1.95,1.95,0,1,0-1.94,1.94Z" transform="translate(-496.26 -103.55)" fill="#1e1e1e"/><path d="M549.52,145.9a1.74,1.74,0,0,0,0-3.48,1.74,1.74,0,0,0,0,3.48Z" transform="translate(-496.26 -103.55)" fill="#1e1e1e"/><path d="M535.6,163.14c1.93.42,4.62.51,6.41-.44a.69.69,0,0,0-.16-1.25,8.52,8.52,0,0,0-2.85-.23c-1,0-2.11,0-3.15.13s-1.35,1.55-.25,1.79Z" transform="translate(-496.26 -103.55)" fill="#1e1e1e"/><path d="M536.87,166.3a2.76,2.76,0,0,0,3-.15.56.56,0,0,0-.14-1,2.75,2.75,0,0,0-2.9.6.45.45,0,0,0,.07.56Z" transform="translate(-496.26 -103.55)" fill="#1e1e1e"/><path d="M544.73,174.08c-.75,2.53-.61,5.25-.62,7.87,0,2.31-.49,5,.76,7a.93.93,0,0,0,1.6,0c1.15-2.09.58-4.67.54-7,0-2.62.14-5.32-.52-7.87a.92.92,0,0,0-1.76,0Z" transform="translate(-496.26 -103.55)" fill="#1e1e1e"/><path d="M546.58,185.57c6.95,2.93,12.25,6.67,16.43,13.07a29.42,29.42,0,0,1,3.18,6.28c.67,1.89,1.66,3.75-.62,4.9-1.63.82-5.62.29-7.48.4-18.53,1.07-37.2,1.37-55.35-3,.36.65.73,1.3,1.1,1.95,2.4-12.52,13.6-19,24.62-23.23a1.68,1.68,0,0,0,1.19-1.56c0-3.21-.06-6.41-.06-9.62a1.56,1.56,0,0,0-3.11,0c0,3.21-.06,6.41-.06,9.62.4-.52.79-1,1.19-1.55-12,4.63-24.2,11.83-26.82,25.5a1.6,1.6,0,0,0,1.1,1.94,146.93,146.93,0,0,0,33.69,3.85c5.63,0,11.26-.15,16.88-.44,5.25-.27,11.45.16,16.45-1.55a1.38,1.38,0,0,0,1-1c1-5.66-3.11-12.32-6.48-16.65-4-5.16-9.8-10.27-16.5-11.14-1.39-.18-1.36,1.78-.3,2.22Z" transform="translate(-496.26 -103.55)" fill="#1e1e1e"/><path d="M519.53,187.41c.34,6.28,9.5,8.56,14.46,9.23,8.14,1.09,16-.54,22.58-5.42,1.68-1.23-.4-3.61-1.67-2.17-4.42,5-12.5,6-18.84,5.57a26.35,26.35,0,0,1-8.8-2c-3-1.32-4.48-3.5-6.81-5.59a.55.55,0,0,0-.92.38Z" transform="translate(-496.26 -103.55)" fill="#1e1e1e"/><path d="M506.85,146c-.65-2.16-3.47-3.67-5.53-2.44a3.43,3.43,0,0,0-1.53,2.4c-.15.86-.12,2.38.61,3a.52.52,0,0,0,.79-.11c.69-.95,0-2.52.85-3.42,1.25-1.29,2.83.76,3.82,1.36a.68.68,0,0,0,1-.77Z" transform="translate(-496.26 -103.55)" fill="#1e1e1e"/><path d="M565.84,147.79a8.08,8.08,0,0,1,1.35-.58,2.73,2.73,0,0,1,1.46-.18c.48.21.23.94.86,1.09a.75.75,0,0,0,.73-.19c1-1.05-.06-2.6-1.35-2.61a4.65,4.65,0,0,0-3.4,2.12c-.16.23.14.44.35.35Z" transform="translate(-496.26 -103.55)" fill="#1e1e1e"/><path d="M521.67,188.49c1.76,5.3,8.5,7.14,13.48,7.54a31.71,31.71,0,0,0,20-5.25c2.15-1.41.19-4.85-2-3.47A29,29,0,0,1,537.53,192c-5.66,0-9.47-2-14.22-4.77a1.13,1.13,0,0,0-1.64,1.26Z" transform="translate(-496.26 -103.55)" fill="#1e1e1e"/><path d="M517.21,144.45a15.75,15.75,0,0,1,7.35-1.64c2,.13,3.38,1.47,5.29,1.2a.61.61,0,0,0,.43-.76c-1.94-4.79-11.22-3-14,0a.76.76,0,0,0,.92,1.19Z" transform="translate(-496.26 -103.55)" fill="#1e1e1e"/><path d="M545.34,144.47a28,28,0,0,1,4.74-.92,5.84,5.84,0,0,1,3.08.52,13.86,13.86,0,0,0,2.07,1,1.14,1.14,0,0,0,.88-2.08,17.93,17.93,0,0,0-3.17-1.77,10.16,10.16,0,0,0-3.81-.15c-1.88.18-4,.67-4.63,2.61-.19.52.37.94.84.84Z" transform="translate(-496.26 -103.55)" fill="#1e1e1e"/><path d="M506.29,147c0,2.31,1.17,3.69,3,5,4.63,3.42,8.12,5.43,10.33,11.18,1.06,2.78,2,5.75,4.57,7.51,3.05,2.06,7.42,1.63,10.89,1.67,5.7.06,15.62,2.55,17.88-4.54.69-2.18.57-4.27,2-6.19s3.34-2.91,5.12-4.2c2.37-1.72,4.32-3.46,5.39-6.24.66-1.7-2.11-2.85-2.94-1.24-2.47,4.83-8.4,6.08-11,10.75-1.28,2.28-.84,5.36-2.63,7.22-2.19,2.28-8.72,1.08-11.93,1.06-3.58,0-9,.95-11.85-1.68-2.53-2.36-3-6.93-5-9.82-3.23-4.71-10-5.91-12.53-10.82a.66.66,0,0,0-1.23.33Z" transform="translate(-496.26 -103.55)" fill="#1e1e1e"/><path d="M506.63,149.52c-1.68,8.73-2.16,19,3.55,26.44s15.91,7.64,24.6,7.76c7.59.11,20.1,1.55,25.7-5,2.35-2.74,3.14-6.38,3.59-9.86a119.44,119.44,0,0,0,1.4-17.07,1.29,1.29,0,0,0-2.52-.34c-1.64,6.91-1,14.43-3.21,21.2-2.94,9-15.41,7.51-23.06,7.52s-17.45.71-23.17-5.14c-6.58-6.74-5.24-16.75-5.13-25.31,0-1-1.55-1.24-1.75-.23Z" transform="translate(-496.26 -103.55)" fill="#1e1e1e"/><path d="M510.43,154.26c-1.3,1-1,2.29-.94,3.86.06,3.65.12,7.31.34,11l2.2-.3c-1.49-5.64-2.8-11.28-1.48-17.09l-1.3.53a19.68,19.68,0,0,1,6.23,7.46c.61,1.3,2.06,4.64,1.67,6.13-2.59,2.32-4.25,2.38-5,.15a16.4,16.4,0,0,1-1.14-2.78,6.83,6.83,0,0,1-.45-2q2.69-.73,2.9,1.76a19.06,19.06,0,0,1,.56,2c-.67,2.42-1.23,2.76-1.71,1a6.61,6.61,0,0,1-.89-3.18q8.67-1.87,2.23.29c-1.36-.88-.46-5.71-1.63-6a1.4,1.4,0,0,0,1.08-2.55l-1.94-1.45c-.66-.52-2-.5-2.16.57-.4,2.74.46,4.58,1.5,7.08a38.79,38.79,0,0,1,2.31,9.44c.19,1.29,2.12.89,2.18-.29a20.36,20.36,0,0,0-.82-6.44c-.8-2.85-3.16-6.1-2.68-9.1l-2.15.57a10.85,10.85,0,0,0,2.07,1.81l1.36-2.33c-6.95-1.54-1.59,18.54,5.23,11.75,2.63-2.61.72-8-2.64-9.07-3.55-1.13-6.59,2.37-6.6,5.69,0,2.74,2,8.82,5.83,7.14,3.6-1.59,1.83-7.22.34-9.69-1.31-2.16-4.58-3.73-6.12-.87s1.42,9.2,3.79,11.12c4.45,3.58,7.25-2.24,6.73-6.08-.79-5.75-4.46-10.6-9.21-13.71a.89.89,0,0,0-1.3.53c-1.13,6.16-.12,12.09,1,18.16.23,1.24,2.25,1,2.2-.3-.08-2.44-.28-4.87-.45-7.31-.09-1.3-1.14-5.44-.28-6.32.58-.59-.21-1.73-.91-1.19Z" transform="translate(-496.26 -103.55)" fill="#1e1e1e"/><path d="M508.93,164.24c-1.46,4.21.29,12.51,6,12.82a2.71,2.71,0,0,0,3-2.2c.3-2.4-6.16-5.86-5-7.51l-1.31.53c1.86.39,6,7.38,3.32,8.74l1.64.43c-1-2.06-2-5.06-1.3-7.34-.2-1.12.29-1.49,1.49-1.11.84-.46,1.36-.36,1.58.32a10.73,10.73,0,0,1,1.43,3.19c-.29.58-.57,1.16-.86,1.75L518.1,172a10.36,10.36,0,0,1-.42-3.08c.05-1.67.64-2.54,2.22-1.08,1.17,1.08,1.06,4.3.48,5.25h2.32a19.87,19.87,0,0,1-2.54-10.9l-2.2.91c2,2.55,2.67,6,3.6,9l.63,2.06c-.83,2.66-1.86,3.24-3.06,1.74a18.44,18.44,0,0,1-1.94-1.7q2.94,2.31-.7,2l-1.23,2.15c1.9,0,3.79,0,5.69.19,1.59.12,5.62-.15,6.53,1.3a1.33,1.33,0,0,0,2.3-1.34c-1.88-3.84-11.1-3-14.52-3a1.45,1.45,0,0,0-1.24,2.15c1,1.86,2.83,3.54,5.14,3a3.52,3.52,0,0,0,2.68-4.09c-.48-2.84-7.5-8.11-8.32-3.17-.36,2.2,3.05,4.31,4.53,5.41,1.82,1.34,4.41,2.52,6.29.58,2.26-2.35.5-6.08-.3-8.63-1.06-3.36-1.94-6.67-4.26-9.39a1.3,1.3,0,0,0-2.2.91,28.46,28.46,0,0,0,2.8,12.26,1.36,1.36,0,0,0,2.32,0c1.69-2.68.94-5.77-.7-8.36-1.12-1.76-3.14-3.27-5.18-1.85-3.43,2.39-1.91,13.83,3.13,12.71,5.37-1.19,1.1-11-2.48-12.15-7-2.17-4.45,10.55-3.06,13.44a1.24,1.24,0,0,0,1.65.43c4.76-2.43.31-12.14-3.91-13a1.19,1.19,0,0,0-1.3.53c-1.31,1.87.78,4.27,2,5.65.19.22,2,1.92,1.95,1.93-.51,1.1-2.58-1.1-2.8-1.4a9.55,9.55,0,0,1-1.61-7.72.76.76,0,0,0-1.47-.41Z" transform="translate(-496.26 -103.55)" fill="#1e1e1e"/><path d="M527.68,178.74c.39-.15,3.32-1.49,3.78-1.14l-.63-1.55a5,5,0,0,1-3.71,1.23q-1.14-6.92,3.2-2.7c-.12,1.75-6.24,2.15-3.88.21,1-.84,4-.73,5.27-.67a14.55,14.55,0,0,1,3.82.76c1.48.82,1.61,1.28.4,1.38-.54.74-6,1.67-5.63-.63.13-.88,5.93-.87,6.35-.54,3,2.36-1.35,2.86-2.83,3.15-1.84.36-6.19.93-7.71-.55-.21.82-.43,1.63-.64,2.45a72.14,72.14,0,0,1,18.85-.63c1.91.17,1.84-2.72,0-2.94a67,67,0,0,0-19.63.74,1.47,1.47,0,0,0-.65,2.45c3.36,3.28,12.55,2.11,15.82-.89,3.66-3.33-.37-6.4-3.87-6.78-2.72-.29-11.47.5-10.44,5.16s11.56,2.5,14,.75c4.4-3.16-2.87-5.93-5.33-6.4s-12.43-.9-12,3.73c.4,3.95,7.63,4.48,10,2.49,3.84-3.15-1.3-7-4.52-7.64-4.26-.8-9.1,3.68-5.87,7.77,2.48,3.12,10.21,3,11.56-1.17a1.43,1.43,0,0,0-.63-1.55c-1.64-1.22-4.28.24-5.89.86s-.92,3.29.73,2.65Z" transform="translate(-496.26 -103.55)" fill="#1e1e1e"/><path d="M540.64,179.56c-1.8-2.22,2.35-3.86,4-3.52,1.4.29,1.24,1.18.15,1.84a6.55,6.55,0,0,1-2.76.72h-.77l-.76-2.83c.21-.37,1.91-.54,2.36-.59.87-.1,4.84-.26,4.57,1.19s-4.23.71-5.37.14a3.7,3.7,0,0,1-1.83-1.68c-.33-.88-.27-.61.75-.61a22.44,22.44,0,0,1,9.8,2.18c.12-.94.25-1.89.37-2.83-3.48,1.16-6.59.94-10.17.82-1.58-.06-1.63,2.06-.35,2.57,3.57,1.41,7.81.8,11.34-.4,1.15-.39,1.67-2.23.37-2.84-2.88-1.34-18.64-6-15.13,2,1.47,3.33,5.22,4.55,8.62,4.36,2.29-.13,6.8-1.07,5.55-4.43-1.94-5.18-14.62-4.74-14.84,1.42-.27,7.23,14.08,4.37,12.53-.73-2-6.72-15.34-1.09-10,4.76,1,1.05,2.4-.47,1.54-1.54Z" transform="translate(-496.26 -103.55)" fill="#1e1e1e"/><path d="M552.86,174.42a2.76,2.76,0,0,0-1,2.84c-1.86-1-1.94-1.66-.24-1.94,1.12-1.14,4.37-1.74,5.87-2.33a1.47,1.47,0,0,0,.64-2.42q-3.23-2.62-1.5-6.79l-2.67-.34a6.08,6.08,0,0,1-2.13,6.79l2.17.88a9.82,9.82,0,0,1,1.14-6.35L556.5,163c2.54.62,2.46,1.82-.22,3.6l2.28,1.3a31.92,31.92,0,0,1,1.59-7.6q1.15-2.39.1-.69a8.61,8.61,0,0,1-1.52,5l2.9.78a19.39,19.39,0,0,1,2.22-9.15l-2.85-.37c.94,6.21-2,13.27-3.77,19.14h3.12c-.61-1.63-1.39-3.76-.71-5.5l-1.51,1.15a5.6,5.6,0,0,1-3.37,4c-1.82.92-.22,3.68,1.61,2.74,2.46-1.26,4.48-3.59,4.47-6.51,0-1.75-.74-3.39-2.71-3.31a1.64,1.64,0,0,0-1.51,1.15c-.92,2.26-.19,5,.61,7.18a1.63,1.63,0,0,0,3.12,0c2-6.61,4.75-13.83,3.66-20.82-.2-1.33-2.28-1.51-2.86-.37a23.3,23.3,0,0,0-2.63,10.72,1.56,1.56,0,0,0,2.89.79c1.67-3,3-7.5.92-10.65a1.5,1.5,0,0,0-1.3-.75c-4.49.53-5.35,9.86-5.5,13.17a1.53,1.53,0,0,0,2.28,1.31c2.55-1.78,6.31-9.8,1-10.7-2.31-.38-4.73,2.55-5.8,4.21a12.9,12.9,0,0,0-1.77,9.19,1.48,1.48,0,0,0,2.17.88,9,9,0,0,0,3.45-10.12,1.47,1.47,0,0,0-2.66-.35c-2.48,3.69-.73,7.27,2,10.31.21-.81.43-1.61.64-2.42-2.73,1.09-8.66,2.14-9.79,5.4-.72,2.09.54,3.49,2.4,4.14,2.25.8,6.28.42,7.77-1.76A3.31,3.31,0,0,0,556,173.2c-3.58-2.07-11.47,3.14-7.33,6.82,3.89,3.44,9.82-3,5.53-6.63-.71-.6-1.87.15-1.34,1Z" transform="translate(-496.26 -103.55)" fill="#1e1e1e"/><path d="M550.79,171.57c-.95.5-1.3,1.81-1.64,2.77a4.93,4.93,0,0,0-.41,3.28.85.85,0,0,0,1.52.2,8.79,8.79,0,0,0,1-2.71c.29-.86,1-1.81.89-2.74a.94.94,0,0,0-1.39-.8Z" transform="translate(-496.26 -103.55)" fill="#1e1e1e"/><path d="M527.82,168.92c.35-2.48.33-5.19,1.58-7.44,1.83-3.3,5.28-2.95,8.45-2.76,2.89.18,5.66.48,7.1,3.41,1.21,2.46,1.06,6.14,1.17,8.77a1.71,1.71,0,0,0,3.41,0c0-3.78-.29-9.09-2.69-12.23-2-2.6-5.4-2.77-8.42-2.87-3.44-.11-7-.33-9.63,2.31s-3.23,6.9-3,10.53c.06,1.1,1.88,1.51,2.06.28Z" transform="translate(-496.26 -103.55)" fill="#1e1e1e"/><path d="M529.63,171.15a35.71,35.71,0,0,1,2-9.81c.51-1.37-1.68-2-2.19-.6a39.13,39.13,0,0,0-2.25,10.85h2.47c-.32-2.69-.58-5.43.89-7.83,2.06-3.34,5.72-2.6,9-2.54,2.82,0,4.54-.07,5.69,3a22,22,0,0,1,1.29,7.71c0,2.25,3.54,2.25,3.5,0-.08-3.82-.67-8.43-3-11.58-2-2.73-5.06-2.35-8.18-2.27-3.47.09-6.74.07-9.27,2.79-2.69,2.88-2.77,7.07-2.41,10.75a1.24,1.24,0,0,0,2.47,0,48.24,48.24,0,0,1,2-10.25l-2.19-.6a27.14,27.14,0,0,0-1,10.41.59.59,0,0,0,1.18,0Z" transform="translate(-496.26 -103.55)" fill="#1e1e1e"/><path d="M528.49,165.05c-1.44,2.07-.38,4.56,1.51,6,2.54,1.91,6.81,2.06,9.84,1.91,2.88-.15,5.77-1.09,7.54-3.49,1.63-2.19,2.28-5.63.12-7.65a1,1,0,0,0-1.65.44c-.31,1.34-.2,2.77-.74,4-.91,2.16-3.05,3-5.27,3.16-3.32.31-9.66.61-9.63-3.93a.93.93,0,0,0-1.72-.47Z" transform="translate(-496.26 -103.55)" fill="#1e1e1e"/><path d="M530,163c-1.67,1.31-.75,4.23.26,5.76,1.55,2.35,4,2.75,6.66,2.88,2.83.15,6-.11,8.16-2.12,1.5-1.38,2.67-3.74,1.54-5.62a.54.54,0,0,0-.93,0c-.82,1.55-1.29,3.06-3,4a11,11,0,0,1-5.81.87c-2.17-.11-4-.47-4.93-2.66-.47-1.18-.32-2.22-1.27-3.09a.52.52,0,0,0-.72,0Z" transform="translate(-496.26 -103.55)" fill="#1e1e1e"/><path d="M515.37,210.86c-.29-1.42-1-2.63-1.41-4a13.12,13.12,0,0,1-.49-2.91c-.07-1.79,0-2.42,1.51-3.62s2-1.27,2.77.38a10.24,10.24,0,0,1,.38,3.18c.11,1.74,0,3.49,0,5.23,0,1.06,1.68,1.33,1.88.26a8.43,8.43,0,0,1,2.09-4.42c.75-.8,2.76-2.45,3.9-2.07,3.58,1.19-1.69,6.21-2.73,7.19-1.22,1.15.67,3.05,1.84,1.84,2.09-2.16,7.13-8.41,2.7-10.78-4.6-2.45-9.11,3.95-9.65,7.73l1.88.25c.12-3.56,1.19-14.1-5.22-11.3-4.92,2.14-4.26,10.7-.55,13.72a.68.68,0,0,0,1.13-.66Z" transform="translate(-496.26 -103.55)" fill="#1e1e1e"/><path d="M551.55,192.52a12.11,12.11,0,0,0-7.36,2.87c-1.12,1-3.46,3.16-3.31,4.89.49,5.71,9-.46,10.75-1.38l-1.48-1.48c-1.52,2-5.8,8.81-1.64,10.55s6.64-6.37,7.21-8.93l-2.22-.3c0,3.35,3.06,8.51,7.21,7.11,5.09-1.71.67-8.25-.86-10.73l-1.63,1.63a6.87,6.87,0,0,0,5.13,1.5c1.53-.11,1.54-2.51,0-2.39a4.29,4.29,0,0,1-3.93-1.16c-1-.73-2.22.67-1.62,1.62.76,1.23,2.15,2.86,2.42,4.31,1,5.11-4.28,1.55-4.46-1.89-.06-1.21-2-1.62-2.22-.31-.36,1.81-1.15,5.91-3.3,5.73-1.61-.13-.68-1.1-.13-2.36a18.88,18.88,0,0,1,1.9-3.29c.65-.93-.59-2-1.48-1.48s-6.8,4.7-5.87,1c.53-2.1,5.37-3.55,7.09-4,.79-.22.67-1.54-.2-1.48Z" transform="translate(-496.26 -103.55)" fill="#1e1e1e"/><path d="M555.56,195.39c2.56,0,2.56-4,0-4s-2.56,4,0,4Z" transform="translate(-496.26 -103.55)" fill="#1e1e1e"/><path d="M525.21,211.53c1.82-.4,3.57-1,5.38-1.45,2.18-.49,1.84,1.45,3.27,2.31a.84.84,0,0,0,1.15-.3c.77-1.75-.8-4.1-2.6-4.53-2.4-.57-5.93,1.11-7.91,2.29a.92.92,0,0,0,.71,1.68Z" transform="translate(-496.26 -103.55)" fill="#1e1e1e"/><path d="M506.07,208.31c.53-2.65,3.6.08,4.5.95s2.06,2,3.54,1.66a.82.82,0,0,0,.36-1.36c-.92-.94-2.13-1.65-3.13-2.54a6.21,6.21,0,0,0-3.11-1.77c-1.69-.25-3.58,1.07-3.33,2.9.08.6,1,.89,1.17.16Z" transform="translate(-496.26 -103.55)" fill="#1e1e1e"/><path d="M517.56,197a1.8,1.8,0,1,0-1.8-1.8,1.82,1.82,0,0,0,1.8,1.8Z" transform="translate(-496.26 -103.55)" fill="#1e1e1e"/><path d="M536.46,205.07a1.21,1.21,0,0,0,0-1.34,1.33,1.33,0,1,0,0,1.34Z" transform="translate(-496.26 -103.55)" fill="#1e1e1e"/><path d="M562.56,209.52a1.37,1.37,0,0,0,0-2.74,1.37,1.37,0,0,0,0,2.74Z" transform="translate(-496.26 -103.55)" fill="#1e1e1e"/></svg>