<svg id="OBJECT" xmlns="http://www.w3.org/2000/svg" viewBox="0 0 82.05 121.76"><path d="M73.28,124.21c-1,11.86-1.92,26.4,3.49,37.41,4.89,10,15.53,14.8,26.24,15.38s22.66-2.86,27.07-13.34c5-11.82,4.2-25.06,3.41-37.56-.13-2-3.27-2-3.15,0,.62,10.4,1.3,21.16-1.49,31.32-1.66,6.05-4.09,10.89-10.09,13.59A34.2,34.2,0,0,1,103,173.83c-11.16-.62-21-6.24-24.9-17-3.71-10.25-2.24-21.9-2.88-32.59a1,1,0,0,0-2,0Z" transform="translate(-59.66 -92.32)" fill="#1e1e1e"/><path d="M74.34,142.35a5.17,5.17,0,0,0-5.58-3c-2.85.39-4.53,2.8-4.94,5.5-1,6.64,4.3,12.73,10.52,14.16,1.6.37,2.29-2.11.68-2.48a11.16,11.16,0,0,1-8.27-7.25c-1.42-4.38,1.25-10.06,6-6.05.62.51,1.93,0,1.54-.9Z" transform="translate(-59.66 -92.32)" fill="#1e1e1e"/><path d="M133.4,144.13c2.86-1.54,5.94-1.68,6,2.46a10.07,10.07,0,0,1-1.28,4.74c-1.5,2.8-4.13,5.93-7.3,6.69-1.52.36-.88,2.73.65,2.35,5.49-1.34,10.31-8.2,10.26-13.78-.05-6-5.17-7.4-9.39-3.87-.81.68.22,1.88,1.08,1.41Z" transform="translate(-59.66 -92.32)" fill="#1e1e1e"/><path d="M101.48,155.07c2.3,1.4,8.43,1,9.54-2.08.74-2-.64-4.68-.74-6.73-.18-3.57.07-7.18,0-10.76a1.25,1.25,0,0,0-2.5,0c0,4.26-.27,8.73.23,12.95a17.42,17.42,0,0,1,.43,2.2c-.12,2.51-1.22,2.08-2.91,2.34-1.9.29-2.86.24-4.16,1.58a.32.32,0,0,0,.06.5Z" transform="translate(-59.66 -92.32)" fill="#1e1e1e"/><path d="M113.28,135.37c2.17.16,4.35.1,6.52.21,2,.1,4,.55,6,.25,1.4-.22,1.55-2.36.39-3-1.8-1-3.89-1-5.9-1.27a28.11,28.11,0,0,0-7-.13,2,2,0,0,0,0,3.92Z" transform="translate(-59.66 -92.32)" fill="#1e1e1e"/><path d="M98.94,134.05c-.85-2.91-6.14-2.39-8.49-2.46s-7-.92-8.06,2A1.89,1.89,0,0,0,84.2,136a51,51,0,0,1,9.81-.1c1,.06,5.65.64,4.93-1.83Z" transform="translate(-59.66 -92.32)" fill="#1e1e1e"/><path d="M91,145.84a2,2,0,0,0,1.94-1.94A2,2,0,0,0,91,142a1.94,1.94,0,1,0,0,3.88Z" transform="translate(-59.66 -92.32)" fill="#1e1e1e"/><path d="M117,145.9a1.74,1.74,0,0,0,0-3.48,1.74,1.74,0,0,0,0,3.48Z" transform="translate(-59.66 -92.32)" fill="#1e1e1e"/><path d="M103,163.14c1.93.42,4.62.51,6.4-.44a.69.69,0,0,0-.16-1.25,8.52,8.52,0,0,0-2.85-.23c-1,0-2.11,0-3.15.13s-1.35,1.55-.24,1.79Z" transform="translate(-59.66 -92.32)" fill="#1e1e1e"/><path d="M104.31,166.3a2.74,2.74,0,0,0,3-.15.56.56,0,0,0-.13-1,2.76,2.76,0,0,0-2.91.6.46.46,0,0,0,.08.56Z" transform="translate(-59.66 -92.32)" fill="#1e1e1e"/><path d="M112.16,174.08c-.75,2.53-.61,5.25-.62,7.87,0,2.31-.48,5,.77,7a.92.92,0,0,0,1.59,0c1.15-2.09.58-4.67.55-7,0-2.62.14-5.32-.53-7.87a.92.92,0,0,0-1.76,0Z" transform="translate(-59.66 -92.32)" fill="#1e1e1e"/><path d="M114,185.57c6.95,2.93,12.25,6.67,16.44,13.07a29.38,29.38,0,0,1,3.17,6.28c.67,1.89,1.67,3.75-.62,4.9-1.63.82-5.62.29-7.48.4-18.53,1.07-37.2,1.37-55.35-3,.37.65.74,1.3,1.1,1.95,2.41-12.52,13.61-19,24.63-23.23a1.68,1.68,0,0,0,1.18-1.56c0-3.21-.06-6.41-.06-9.62a1.56,1.56,0,0,0-3.11,0c0,3.21-.06,6.41-.06,9.62.4-.52.79-1,1.19-1.55-12,4.63-24.2,11.83-26.82,25.5a1.61,1.61,0,0,0,1.11,1.94A146.79,146.79,0,0,0,103,214.08c5.63,0,11.26-.15,16.88-.44,5.25-.27,11.46.16,16.45-1.55a1.34,1.34,0,0,0,.95-1c1-5.66-3.11-12.32-6.47-16.65-4-5.16-9.81-10.27-16.51-11.14-1.39-.18-1.35,1.78-.3,2.22Z" transform="translate(-59.66 -92.32)" fill="#1e1e1e"/><path d="M87,187.41c.34,6.28,9.5,8.56,14.46,9.23,8.14,1.09,16-.54,22.59-5.42,1.67-1.23-.41-3.61-1.68-2.17-4.42,5-12.5,6-18.84,5.57a26.29,26.29,0,0,1-8.79-2c-3-1.32-4.49-3.5-6.82-5.59a.55.55,0,0,0-.92.38Z" transform="translate(-59.66 -92.32)" fill="#1e1e1e"/><path d="M91.59,122.82c-3.3,1.78-6.54,3.84-10.46,3.52s-4.94-2.61-7.48-5.06a4.69,4.69,0,0,0-3.14-1.71c-.75,0-.85.34-1.82.38l-.25.11c-2.26,1.94-4.14.67-5.67-3.8l-1.53.4a5.38,5.38,0,0,0,7-.43c1.36-1.46.54-3.33,1.33-4.74L75,107.16a17.89,17.89,0,0,1,2.15.68,9.27,9.27,0,0,0,2.2.58c4,.15,4.43-3.23,5.34-6.23,1.38-4.53,5.33-7,10.08-7,3.63,0,4.82,2.77,7.76,3.82a5.41,5.41,0,0,0,4-.25,27.85,27.85,0,0,0,2.93-2c2.93-1.69,5.28-1.11,7.85.55a15.29,15.29,0,0,1,6.46,8.3,12.5,12.5,0,0,1,0,6.94l-1,2.49c-.8,2.13-2.31,2.78-4.55,2-3,0-4.58-1.4-7.38-1.66a5.4,5.4,0,0,0-3.94.94c-1.47,1.2-1.12,2.47-1.81,4.07-2.77,6.35-9.45,4.49-14.14,1.86a1.41,1.41,0,0,0-1.42,2.43c4.82,2.87,11.27,4.93,16,.61,2.2-2,2.34-7.14,6-6.63,2.9.41,4.62,3.14,7.8,2.86,5.91-.54,8.48-8.23,8.11-13.19a18,18,0,0,0-8-13.18c-2.14-1.46-4.84-2.78-7.51-2.51-4.43.44-4.76,4.42-9.94,2.28-2.41-1-3.68-2.44-6.52-2.6a15.76,15.76,0,0,0-8.15,1.88,10.05,10.05,0,0,0-4.66,4.24c-1.22,2.55-.38,2.91-2.47,5.12-2.39,2.53-1.87,1.32-4.8.86A7.82,7.82,0,0,0,69,105.71a5.91,5.91,0,0,0-1.8,2.47c-.6,1.5,0,9.76-4.82,6.55a1.13,1.13,0,0,0-1.53.4c-1.59,2.36-1.75,5.59.64,7.55,3.81,3.13,7.45-2.21,10.84-.07,1.26.8,2.12,2.83,3.34,3.79a9.93,9.93,0,0,0,5.33,2c4.29.36,8.28-1.86,11.19-4.84a.49.49,0,0,0-.59-.76Z" transform="translate(-59.66 -92.32)" fill="#1e1e1e"/><path d="M125.56,104.28c3.61,1.14,7,1.6,9.15,5.06,1.87,3,1.94,6.63,2.14,10.09a87.92,87.92,0,0,1-.93,21.19c-.4,2.17,2.93,3.08,3.3.91a80.85,80.85,0,0,0,.17-28c-1.36-7.28-6.13-11.39-13.63-10.73a.74.74,0,0,0-.2,1.45Z" transform="translate(-59.66 -92.32)" fill="#1e1e1e"/><path d="M124.62,115.68c-1,6.26,0,17,7.15,19.54,1.11.39,1.92-1,1.44-1.87-1.53-2.92-4.5-4.09-5.49-7.58-.92-3.28-1-6.78-1.8-10.09-.15-.61-1.2-.68-1.3,0Z" transform="translate(-59.66 -92.32)" fill="#1e1e1e"/><path d="M79,126.32c-.48,1.16-.37,2.45-.87,3.61s-1.88,2.25-2.77,3.33c-1.3,1.59-2.76,3.51-2.67,5.65,0,.94,1.34,1.7,2,.84.93-1.14,1.39-2.5,2.23-3.71s2-2.2,2.9-3.4a6.07,6.07,0,0,0,.58-6.51.8.8,0,0,0-1.44.19Z" transform="translate(-59.66 -92.32)" fill="#1e1e1e"/><path d="M68.45,121.61a31.7,31.7,0,0,0-.3,9.28c.19,3.07.22,6.42,1.29,9.32a1.11,1.11,0,0,0,2.16-.3c.09-3.22-.77-6.49-1-9.72a68.33,68.33,0,0,0-.73-8.58.72.72,0,0,0-1.38,0Z" transform="translate(-59.66 -92.32)" fill="#1e1e1e"/><path d="M69.22,126.6a25.47,25.47,0,0,0,.79,5.13,1,1,0,0,0,2-.27c-.08-1.5-.17-3-.18-4.5,0-.63-.38-3.59.28-3.91l-1.35-.55a9.46,9.46,0,0,1,.58,3.46,1,1,0,0,0,1.86.25,18.05,18.05,0,0,1,1-2.59l-1.69-.22c.63,2.76-.66,5.51-.13,8.3.13.71,1.08.56,1.29,0l.09-.24a.55.55,0,0,0-.67-.67l-.25.09.85.65c0-2.93,1.22-5.69.6-8.63a.93.93,0,0,0-1.68-.22,20.88,20.88,0,0,0-1.25,3l1.87.26A9.71,9.71,0,0,0,72.5,122a.94.94,0,0,0-1.35-.55c-1.18.63-1.17,1.88-1.15,3.08,0,2.31,0,4.61,0,6.92l2-.26a25,25,0,0,0-1.42-4.95c-.28-.65-1.32-.3-1.3.35Z" transform="translate(-59.66 -92.32)" fill="#1e1e1e"/><path d="M74.35,126.06a14.31,14.31,0,0,0-.51,6.62c.12.55.85.36.91-.12a15.52,15.52,0,0,1,1.78-5.3l-1-.25a22.67,22.67,0,0,1-.14,4.94.75.75,0,0,0,1.44.4c.43-1.19.87-2.36,1.38-3.52l-1.62-.44c-.08.76-.09,1.5-.11,2.26,0,1.27,1.87,1.24,2,0,.26-3.7-4-4.83-6.85-5.52-.71-.18-1.64.51-1.32,1.32,1.24,3.1.12,5.68.36,8.8.09,1.19,1.95,1.21,1.88,0a11.91,11.91,0,0,1,.24-3.36L71,131.65c-.32,2.39-.53,4.8-.75,7.21-.08,1,1.36,1.28,1.8.48a14.41,14.41,0,0,0,1.62-4.64l-1.84-.25c-.06,1-.12,2.08-.16,3.12s1.37,1.35,1.77.48c.63-1.38,1.26-2.74,1.93-4.1a17.39,17.39,0,0,1,2.69-3.69,3.79,3.79,0,0,0,.42-4.39l-1.33,1.33.37.25c.6.4,1.32-.27,1.16-.9,0-.15-.07-.3-.11-.44a1,1,0,0,0-1.86.51c.61,2.08-1.55,3.53-2.4,5.22s-1.65,3.51-2.51,5.25l1.77.48c.06-1,.1-2.08.14-3.12s-1.68-1.31-1.85-.25a11.88,11.88,0,0,1-1.47,4.17l1.79.49c.25-2.4.51-4.81.66-7.21.06-1-1.63-1.27-1.81-.25a24.81,24.81,0,0,0-.34,3.85h1.88c0-3.4,1.1-6-.17-9.37l-1.32,1.32c1.64.4,5.53,1.11,5.46,3.45h2c0-.76,0-1.5-.12-2.26a.87.87,0,0,0-1.7-.23c-.36,1.28-.79,2.53-1.23,3.79l1.46.2a12.07,12.07,0,0,0-.32-5.28c-.13-.44-.9-.52-1,0a15.56,15.56,0,0,1-1.71,5.45l.86.24c.18-2.11.13-4.15.51-6.25.11-.59-.75-.85-.91-.25Z" transform="translate(-59.66 -92.32)" fill="#1e1e1e"/><path d="M126.05,116.1a11.51,11.51,0,0,0,4.54,11.32c.74.59,2,.07,1.71-1-1-3.37-3-6.37-2.85-10l-1.69.46c1,2.3,2.07,4.6,3.08,6.91.43,1,2,.28,1.7-.71-1.09-3.72-2.25-7.41-3.4-11.11l-1.8.76,1.75,2.87a1,1,0,0,0,1.7-1,35,35,0,0,1-2.09-5.78l-1.37,1.06a20.9,20.9,0,0,1,3.07,2.23,1,1,0,0,0,1.64-1c-.45-2.16-2-3.59-2.72-5.65l-1.52,1.17a24.07,24.07,0,0,1,4.4,3.91l1.27-1.65a8.62,8.62,0,0,1-2.85-3c-.55.42-1.1.84-1.64,1.27,4.68,3.77,5.81,12,4.81,17.67H136c-.84-4.82-1.56-9.65-2.08-14.52l-2,.26a50.7,50.7,0,0,1,2.55,8.27,1,1,0,0,0,2-.27,32,32,0,0,0-2-9.76c-.26-.73-1.42-.43-1.17.32a24.17,24.17,0,0,1,1.14,9.44l2-.27a45.37,45.37,0,0,0-2.56-8.26c-.38-.93-2.08-1-2,.27.49,5,1.11,10.1,1.9,15.12a1.14,1.14,0,0,0,2.18,0c1-6.36-.2-15.49-5.51-19.75-.86-.69-2.35.18-1.65,1.27a13.79,13.79,0,0,0,3.6,3.78c1,.73,2-.8,1.27-1.64a26.66,26.66,0,0,0-4.84-4.22,1,1,0,0,0-1.52,1.17c.7,2,2.34,3.53,2.83,5.62l1.63-.95a41,41,0,0,0-3.51-2.47,1,1,0,0,0-1.37,1.06,36.69,36.69,0,0,0,2.19,6.27l1.7-1L129,111.76a1,1,0,0,0-1.8.76c1.16,3.69,2.3,7.39,3.51,11.07l1.7-.72c-1.06-2.28-2.09-4.59-3.13-6.89-.39-.86-1.67-.37-1.69.46-.09,3.77,1.68,7,2.69,10.52l1.72-1c-3.16-2.53-4.37-5.69-4.52-9.66,0-.8-1.31-1.06-1.47-.2Z" transform="translate(-59.66 -92.32)" fill="#1e1e1e"/><path d="M132.79,108.1a28,28,0,0,1,2.12,9.73h2.29c-.58-4.69-1.49-9.48-6.16-11.62a1,1,0,0,0-1.33,1.33,32.33,32.33,0,0,1,3.45,16.19l1.5-.4c-.93-2.2-1.75-4.39-2.52-6.65a1,1,0,0,0-1.88.26,40.14,40.14,0,0,0,.91,11l1.87-.79-3.35-4.67c-.56-.78-2.06-.62-2,.53a14,14,0,0,0,1.28,5.12l1.79-1c-.18-.41-.36-.82-.55-1.23-.48-1.06-2.26-.3-1.88.8.73,2.1,1.74,4.34,3.81,5.41a1.09,1.09,0,0,0,1.25-.16c2.12-1.74.79-6.5.57-8.81l-2.07.28c.67,3.3,1.35,6.6,2,9.9a1,1,0,0,0,2-.27c-.13-3.37-.2-6.72,0-10.09l-2.1.28a44,44,0,0,1,1.51,8.6,1.08,1.08,0,0,0,2.16,0c.17-2.38.23-4.73.18-7.12a1.1,1.1,0,0,0-2.19,0c0,4.75-.28,9.43-.69,14.15h2.11c-.06-1.46-.13-2.93-.19-4.4,0-1.06-1.73-1.41-1.95-.26a37,37,0,0,0-.58,5H136l-.12-1.78a.9.9,0,0,0-1.79,0l-.34,1.92,1.8.25c0-.35,0-.69,0-1l-1.81.24c.13.68.24,1.36.32,2,.14,1,1.67.7,1.7-.23a71.14,71.14,0,0,0-1-13c-.2-1.24-2.07-.71-1.88.52A117.79,117.79,0,0,1,134,140.68h1.73c-.09-.69-.16-1.37-.21-2.06-.09-1.17-1.9-1.2-1.84,0l.05,1c.05,1,1.56,1.29,1.79.24a13.13,13.13,0,0,0,.37-2.41h-1.79l.07,1.78a.92.92,0,0,0,1.84,0,20.8,20.8,0,0,1,.65-4.52l-1.94-.27.06,4.4c0,1.14,1.9,1.5,2.07.28a94,94,0,0,0,.81-14.43h-2.19c.06,2.39,0,4.74-.15,7.12h2.16a46.13,46.13,0,0,0-1.61-9.17,1.07,1.07,0,0,0-2.1.29c-.14,3.37,0,6.72.13,10.09l2-.27c-.66-3.3-1.3-6.61-1.94-9.92-.22-1.14-2.18-.9-2.06.28s.64,3,.33,4.25c-.46,1.87-1.22.71-1.87-1.24l-1.89.79.54,1.23c.54,1.23,2.32.17,1.79-1-.31-1.36-.63-2.72-.95-4.08l-2,.54,3.42,4.64a1,1,0,0,0,1.88-.79,37.57,37.57,0,0,1-1-10.5l-1.79.48c1,2.17,1.89,4.34,2.8,6.52a.81.81,0,0,0,1.58-.21,38.54,38.54,0,0,0-3.38-17.18l-1.33,1.33c3.85,2,4.48,6,4.85,10,.14,1.44,2.38,1.48,2.29,0a24.53,24.53,0,0,0-2.93-10.35c-.42-.79-1.83-.24-1.48.62Z" transform="translate(-59.66 -92.32)" fill="#1e1e1e"/><path d="M137.41,126.4c.7-4.59-2.06-11.65-6.45-13.72-.79-.37-1.91.45-1.32,1.31l1.56,2.26,1.78-1a42.43,42.43,0,0,0-3.51-4.18,1.1,1.1,0,0,0-1.53,0c-1.78,1.65-.54,5.71-.25,7.82l1.77-1c-.51-.59-3-2.81-2.75-3.5a.86.86,0,0,0-.23-.86l-.25-.21a.54.54,0,0,0-.72,0c-2.39,1.86,1.34,4.73,2.45,6.06a1.06,1.06,0,0,0,1.8-.74c-.11-.9-1-5.31-.29-6h-1.53a39.44,39.44,0,0,1,3.26,3.69c.8,1,2.58,0,1.78-1L131.3,113l-1.08,1.41c3.54,1.47,5.52,8.46,5.6,11.76,0,.87,1.45,1.15,1.59.21Z" transform="translate(-59.66 -92.32)" fill="#1e1e1e"/><path d="M125.61,106.16c.27.61,1.2.73,1.76,1s1.36.57,2,.92c.39.21.88-.22.63-.62a4.53,4.53,0,0,0-1.89-1.84c-.71-.32-1.78-.79-2.44-.18a.59.59,0,0,0-.09.71Z" transform="translate(-59.66 -92.32)" fill="#1e1e1e"/><path d="M120.87,119.06c-3-3.18-8.79-8.64-13.69-6.52a7.79,7.79,0,0,0-3.79,4.41c-1.26,2.92-2.62,6.57-6.6,5.44-1.43-.41-2.59-1.51-4-2a6.37,6.37,0,0,0-5.59.52c-2,1-3,2.12-5.45,2-3.64-.1-4.74-2.44-7.34-4.17a10.15,10.15,0,0,0-12.54,1.42.64.64,0,0,0,.77,1c2.09-.93,4.1-2.11,6.48-2,4.63.14,4.33,1.75,6.77,3.67a9.67,9.67,0,0,0,10.2,1.34c.65-.3,1.19-.83,1.82-1.12,2.88-1.3,4.91-.24,7.27.92,2.94,1.44,6,2.08,8.19-.84,1.44-1.89,1.11-4.67,2.54-6.6,4.22-5.7,10.72,1.71,14.11,3.62a.71.71,0,0,0,.86-1.12Z" transform="translate(-59.66 -92.32)" fill="#1e1e1e"/><path d="M61.83,118.45c3.9,1.51,5.6.55,9.48-.13a7.4,7.4,0,0,1,6.3,1.72c1,.81,1.64,1.82,3,2.29a6.33,6.33,0,0,0,5-.63c1.91-.93,3.61-3.18,5.77-3.53,2.55-.4,3.23,1.31,5.14,2.12,3.91,1.67,7.45-.51,8.87-4.22.25-1,.49-2.09.72-3.13q4.09-6.81,8.88-.8c.92,1.1,1.32,2.64,2.19,3.8a6.64,6.64,0,0,0,5,3.06c1.21.13,1.36-1.72.28-2.06-5.93-1.82-5.54-11.56-13.38-9.75a7,7,0,0,0-4.53,3.35c-.6,1.07-.52,2.31-1,3.35-.26,2.94-2.38,4.32-6.34,4.16-.65-.43-1.27-.89-1.88-1.38-6.31-3.45-10.07,6.53-16.13,1.83-1.53-1.19-2.3-2.71-4.39-3a6.61,6.61,0,0,0-3,.49c-3.56,1-5.78,2.38-9.72,1.73a.39.39,0,0,0-.2.75Z" transform="translate(-59.66 -92.32)" fill="#1e1e1e"/><path d="M125.21,116.61c-3.64-5-6.91-13.48-14.35-13.44a7.5,7.5,0,0,0-6.1,3c-3.12,4.44.36,10.68-9,7.58-2.65-.87-5.72-3.49-8.71-2.73s-2.65,3.73-5.23,4.54c-3,.92-2.17-.84-4.34-2.29a6,6,0,0,0-3.22-1c-3.14-.07-5.69,2.16-7.75,4.27-.82.83.4,2,1.27,1.26a35.7,35.7,0,0,1,3-2.43q5.28-1.47,7.51,2.12c.48.29.8,1,1.32,1.25a3.65,3.65,0,0,0,4.21.05c1.17-.86,1-2.29,1.82-3.27,3.65-4.49,9,1.12,12.88,1.82,4.27.77,6-2.11,6.88-5.73.62-2.54,1.18-4.74,4-5.56,3-.86,5.43.92,7.39,3,2.59,2.68,4.31,6.09,6.77,8.89.76.87,2.3-.3,1.61-1.25Z" transform="translate(-59.66 -92.32)" fill="#1e1e1e"/><path d="M66.33,116.67c3.1-2.21,5.84-6.85,9.94-3.93,1.36,1,2,2.46,3.83,2.8,7.07,1.36,4.06-11.92,13.17-5.79,3.69,2.48,6.48,4.34,10.22.35,2.56-2.75,3.22-8.17,7.93-8.48,5.37-.35,9.09,7.15,11.23,11,.76,1.36,2.85.14,2.1-1.23-2.86-5.19-8.17-14.37-15.57-11.82-2.76,1-4,3.32-5.43,5.69a12.63,12.63,0,0,1-2,3.11c-4.53,3.92-5.18.88-7.26-.77-1.18-.93-2-2.07-3.5-2.62a4.71,4.71,0,0,0-5.82,1.58c-.82,1.06-.86,2.63-1.62,3.64L79.85,113l-1.28-1.1a14.45,14.45,0,0,1-1.42-1.5c-4.86-4.43-8.89,1.47-11.36,5.73-.19.32.2.78.54.54Z" transform="translate(-59.66 -92.32)" fill="#1e1e1e"/><path d="M126,110.84c0-6.06-3.73-12.16-9.65-14.19a7.47,7.47,0,0,0-7,.93,21.4,21.4,0,0,0-2.88,2.91c-1.64,1.65-.13,1-3.44,2.35-3,1.2-3.44.74-6.08-.65-4.36-2.3-10.83-4.24-13.74,1.4-.44.85-.28,2.81-.73,3.45-.92,1.3-2.91,1.16-4,.84-.62-.18-1.28-.78-1.92-1a8.24,8.24,0,0,0-7.44.88c-.84.54-.31,2.11.72,1.7,2.24-.88,4.74-1.32,7-.11.67.35,2,2,3,2.31a3.2,3.2,0,0,0,3.13-.18c1.22-.78,1-1.73,1.57-2.82q-.19-4.62,5.3-6.57l3.39.87c1.52.62,2.86,1.66,4.35,2.36,3.5,1.63,6.78,1.62,9.42-1.33,1.13-1.26,1.7-2.91,3.16-3.91,2.89-2,6-1.08,8.57.91a17.17,17.17,0,0,1,5.94,10,.7.7,0,0,0,1.38-.18Z" transform="translate(-59.66 -92.32)" fill="#1e1e1e"/><path d="M84.27,102c2.28-2.22,3.93-3.21,7.06-3.29,2.68-.07,2.69.31,4.51,1.65,2,1.51,4.36,2.64,7,2.36a10.68,10.68,0,0,0,5-2.34,33.57,33.57,0,0,1,2.92-2.27c2.92-1.66,5.25-.4,7.8.94.7.37,1.6-.39,1.14-1.13-1.49-2.35-3.8-4.06-6.72-3.76-3.68.39-5.4,3.94-8.61,5.14-5.93,2.21-8-4.55-13.25-3.6-3.25.6-5.73,3.13-7.63,5.65-.37.5.42,1.07.84.65Z" transform="translate(-59.66 -92.32)" fill="#1e1e1e"/><path d="M95,124.71c-3.15-2.52-5.6-4.63-8.83-2.15-5,3.86-6.8,1.07-11.75-.75-1.84-.67-3.15-.75-4.81.33a.91.91,0,0,0,.46,1.67c5.47.26,8.74,4.71,14.6,3.11,1.47-.41,1.76-1.19,2.87-2,2.71-2,4.23-.24,6.88.77.54.21,1-.63.58-1Z" transform="translate(-59.66 -92.32)" fill="#1e1e1e"/><path d="M100.73,121.27A16.76,16.76,0,0,1,93,119.75a10.93,10.93,0,0,0-3.91-1.25c-2.65-.25-5.74.48-7.2,2.83a.7.7,0,0,0,.78,1c3.83-1.25,6.15-2.21,10-.25,2.51,1.27,5.28.85,8,.68a.76.76,0,0,0,0-1.51Z" transform="translate(-59.66 -92.32)" fill="#1e1e1e"/><path d="M104,121.92c2.23-1.39,2.67-4.19,4.42-6a4.37,4.37,0,0,1,2.36-1.41c1.81-.41,2.59.31,3.68,1.59a4.29,4.29,0,0,0,2.63,1.88.54.54,0,0,0,.6-.77c-1.41-3.1-4.37-5.81-7.93-4.54-3.81,1.36-4.46,5.56-6.52,8.53-.32.46.31,1,.76.76Z" transform="translate(-59.66 -92.32)" fill="#1e1e1e"/><path d="M109.34,112.07c4.65-.84,7.08,8.23,11.92,5.23a.51.51,0,0,0-.12-.93,9.8,9.8,0,0,1-4.41-2.35,19.85,19.85,0,0,0-2.76-2.43,5,5,0,0,0-5-.42c-.53.27-.14,1,.38.9Z" transform="translate(-59.66 -92.32)" fill="#1e1e1e"/><path d="M115.32,109.45c1.16,3.4,4.16,7.75,8.17,7.66.69,0,1.47-.76,1.15-1.51a25.6,25.6,0,0,0-4.83-7.41c-.91-1-2.49.28-1.84,1.42a9.28,9.28,0,0,0,5.85,4.25,1.24,1.24,0,0,0,1.33-.54c1.31-2.07-1.81-5.58-3.09-7-1-1.18-2.65.52-1.7,1.7a9.71,9.71,0,0,0,2.41,2.11,1.23,1.23,0,0,0,1.79-1.37,25,25,0,0,0-2.53-5.2l-2,1.52c1.65,1.46,3.46,3.74,5.53,4.56a1.21,1.21,0,0,0,1.21-.32c.92-1,.62-2.92.46-4.18s-2-1.67-2.2-.3c-.06.34,0,2.71,0,2.71l1.21-.33c-.73-.28-1.51-1.34-2.1-1.86l-2.31-2c-1-.91-2.78.25-2,1.52a28.18,28.18,0,0,1,2.35,4.57L124,108a7.09,7.09,0,0,1-1.94-1.71l-1.7,1.7c.24.25,3.1,3.6,2.76,4.14l1.33-.54a6.88,6.88,0,0,1-4.45-3.18l-1.84,1.42a28.86,28.86,0,0,1,4.3,6.68l1-1.79c-3.06.22-5.5-3.77-7.39-5.74a.47.47,0,0,0-.78.46Z" transform="translate(-59.66 -92.32)" fill="#1e1e1e"/><path d="M127.27,106.79a2.79,2.79,0,0,0-1.24-1.3c-.6-.28-1.46.19-1.22.94a8.84,8.84,0,0,0,2.3,3.09c.9,1,2.85,0,2.34-1.36a7.31,7.31,0,0,0-1.27-2.15l-1.4,2.41,1.66.33a1.4,1.4,0,0,0,1.35-2.32,11.13,11.13,0,0,0-3.64-2.34c-1.36-.55-2.25,1.66-1,2.35a7.9,7.9,0,0,1,2.8,2.74,11.05,11.05,0,0,0,2.26,2.9c.48.35,1.11-.14,1.12-.65.07-2.83-2.55-5.91-4.89-7.21l-1.29,2.22a8.4,8.4,0,0,1,2.66,2l1.35-2.32-1.63-.43a1.45,1.45,0,0,0-1.4,2.41,4.2,4.2,0,0,1,.75,1.19c.53-.68,1.06-1.37,1.58-2.06a5.05,5.05,0,0,1-2.27-1.56l-.17,1.3c.29-.23.57-.18.87.15a.23.23,0,0,0,.37-.28Z" transform="translate(-59.66 -92.32)" fill="#1e1e1e"/><path d="M125.53,115.6c1.37,1,1.53,2.48,1.49,4a1.15,1.15,0,0,0,2.24.3c.85-2.37-1-5-3.14-5.71-.87-.3-1.23.91-.59,1.38Z" transform="translate(-59.66 -92.32)" fill="#1e1e1e"/><path d="M72.94,119.93c.17,2.94,5.82,3.46,7.84,4.07a.91.91,0,0,0,.88-1.5c-1.13-1.23-2.25-2.45-3.36-3.69-.4.52-.8,1-1.19,1.55a12.58,12.58,0,0,0,4.71,1.51,1,1,0,0,0,.72-1.74,17.46,17.46,0,0,0-5.11-2.93l-.56,2a16.94,16.94,0,0,0,5.34.69,1.08,1.08,0,0,0,.92-1.61,11.52,11.52,0,0,0-3-3.52c-.35.62-.71,1.23-1.07,1.84a12.15,12.15,0,0,0,3.35.34,1.14,1.14,0,0,0,.57-2.1L79.4,112.2l-.58,2.16a12,12,0,0,0,4.83-.64,1.18,1.18,0,0,0,.28-2.13l-5.75-3.28c-.09.72-.18,1.43-.28,2.14a6,6,0,0,1,3.11-.39v-2.33l-2.16-.17.27,2.09a10.32,10.32,0,0,0,3.38-2.29c.77-.8-.28-2.32-1.24-1.61a13.15,13.15,0,0,1-3,1.81c-.91.37-1.25,2,0,2.21a16.17,16.17,0,0,0,2.77.29c1.54,0,1.45-2.16,0-2.33a7.1,7.1,0,0,0-3.73.47,1.18,1.18,0,0,0-.28,2.13l5.75,3.27c.09-.71.19-1.42.28-2.13a11.18,11.18,0,0,1-4.21.57c-1.26-.06-1.45,1.54-.59,2.17l3.57,2.6.57-2.1a7.15,7.15,0,0,1-2.76-.21,1.11,1.11,0,0,0-.85,2,9.51,9.51,0,0,1,2.53,2.87l.92-1.61a14.86,14.86,0,0,1-4.78-.57,1,1,0,0,0-.56,2,13.52,13.52,0,0,1,4.23,2.35l.72-1.74a8.73,8.73,0,0,1-3.72-1.17,1,1,0,0,0-1.19,1.54l3.48,3.57.87-1.5c-1.55-.38-7-.84-7.64-2.43-.13-.33-.7-.33-.68.09Z" transform="translate(-59.66 -92.32)" fill="#1e1e1e"/><path d="M74.31,119.53c2.52,2.29,12.84,5,11.6-1.41a1,1,0,0,0-1.39-.57,6.39,6.39,0,0,1-4.89,1.24c-.09.63-.17,1.26-.26,1.89a9.83,9.83,0,0,0,5.09-1.09c.91-.57,2.14-1.77,1.89-3s-1.19-1.24-2.09-1c-1.17.35-2.19,1-3.41,1.21s-2.34.34-3.49.7a.61.61,0,0,0,0,1.16,6.7,6.7,0,0,0,3.66.12,15.21,15.21,0,0,0,2.1-.59,7.94,7.94,0,0,1,2.09-.79l-.85-.48c.31.59-1.94,1.43-2.25,1.51a11.43,11.43,0,0,1-2.74.27c-1,0-1.37,1.72-.25,1.89a8.25,8.25,0,0,0,6.36-1.45l-1.4-.56c.61,3.17-8,.14-9.14-.18a.65.65,0,0,0-.63,1.08Z" transform="translate(-59.66 -92.32)" fill="#1e1e1e"/><path d="M95.45,118.07c1.09,3.37,4.49,2,7.24,2.68l-.24-1.89c-3.17,2-6.13,0-9.37-.55a.94.94,0,0,0-.5,1.82c2.26.8,9.09,2.89,10-.64a1,1,0,0,0-.25-1c-1.84-1.44-4.31-2.37-6.36-3.44l-.48,1.77c1.87.16,4.73,1.13,6.39-.11a1,1,0,0,0,.44-1.07c-.63-2.3-3.9-2.65-5.85-3.37l-.27,2a35.5,35.5,0,0,0,6.52-.13c1-.11,1.48-1.72.27-2-2.76-.63-5.53-1.16-7.14-3.81l-1.42,1.42c2.54,1.69,7.55,4.52,9.95,1.36a1,1,0,0,0-.35-1.36c-3-2.1-6.3-1.44-8.17-5.41l-1.33,1.34a18.15,18.15,0,0,0,7.84,2.93c1.22.16,1.78-1.67.52-1.89a13.84,13.84,0,0,1-5.87-2.5l-.78,1.87c2.06.34,7.31,2.07,8.25-.65,1.3-3.73-7.22-3.13-7.29-6.44l-1.48.85c1.69,1.28,8.38,5.69,10.31,2.67s-6-5.07-7.48-5.76l-.75,1.77c3.28,1.31,6.54,2.28,9.49-.08.81-.64-.22-1.72-1-1.34-2.76,1.31-5.27.58-7.94-.45-1-.38-1.74,1.32-.75,1.77,1.42.65,4.08,1.44,5,2.52.08.65-.36.6-1.32-.14a12.71,12.71,0,0,1-4.31-2.51,1,1,0,0,0-1.68.7,4.56,4.56,0,0,0,2.47,4.62,10.1,10.1,0,0,0,2.36.8c3.76,1.09-3.34-.31-3.28-.3A1,1,0,0,0,96,106a13.69,13.69,0,0,0,6.38,2.62c.09-.64.18-1.29.26-1.93A15.08,15.08,0,0,1,95.48,104c-.89-.61-1.68.55-1.33,1.34,1.95,4.49,5.34,3.68,8.84,6.13-.12-.45-.23-.9-.35-1.35-1.38,1.8-5.94-1.28-7.19-2.16-.89-.62-1.91.57-1.42,1.42,1.8,3.15,5,4.14,8.39,4.73l.27-2a35.51,35.51,0,0,1-6.52.15c-1.19-.08-1.28,1.62-.27,2,.85.3,3.7.71,4.35,1.11-1-.61-3.69-.31-4.79-.4a1,1,0,0,0-.48,1.77c.47.25,4.2,1.86,4.36,2.33.12.32-5.58-.51-6.26-.75l-.5,1.82c4.36.71,6.62,3.19,10.91.51a1,1,0,0,0-.25-1.89c-2.15-.55-5.43.64-7.1-1.09a.42.42,0,0,0-.69.41Z" transform="translate(-59.66 -92.32)" fill="#1e1e1e"/><path d="M101.47,95.83c-1.67.42-3.41-.21-5-.6-.66-.15-1.35.76-.73,1.25,1.58,1.26,3.89,2.84,6,2.86a.6.6,0,0,0,.3-1.1c-.84-.47-1.81-.67-2.67-1.11a13.79,13.79,0,0,1-2.57-1.7l-.91,1.17c1.94.85,4.24,1.38,5.89-.24a.32.32,0,0,0-.3-.53Z" transform="translate(-59.66 -92.32)" fill="#1e1e1e"/><path d="M92.82,103.63a26.61,26.61,0,0,0,2.24,2.14c.62.51,1.29,1.37,2.16,1.11a.55.55,0,0,0,.39-.51c-.06-.93-1-1.24-1.73-1.67a29.41,29.41,0,0,0-2.81-1.4c-.21-.09-.43.15-.25.33Z" transform="translate(-59.66 -92.32)" fill="#1e1e1e"/><path d="M93.25,106.31c1.37,1.59,3,3.27,5,3.88a.37.37,0,0,0,.36-.62c-1.51-1.4-3.41-2.34-5-3.64a.27.27,0,0,0-.38.38Z" transform="translate(-59.66 -92.32)" fill="#1e1e1e"/><path d="M91.7,112.91c.86.4,1.7.84,2.54,1.27.66.33,1.32.86,2.08.71a.37.37,0,0,0,.22-.54c-.35-.67-1.24-.86-1.91-1.11-.88-.34-1.79-.59-2.69-.87-.32-.1-.55.4-.24.54Z" transform="translate(-59.66 -92.32)" fill="#1e1e1e"/><path d="M92.58,111.53c1.49,1.71,4.47,3.87,6.81,3.58a.47.47,0,0,0,.33-.79,9.52,9.52,0,0,0-3.08-1.78c-1.17-.55-2.27-1.25-3.44-1.81a.51.51,0,0,0-.62.8Z" transform="translate(-59.66 -92.32)" fill="#1e1e1e"/><path d="M71.54,139a.12.12,0,0,1,0,.13c.11.22.12.27,0,.14,0,.52.58,1.08,1.12.85a1.17,1.17,0,0,0,.85-1.21,1.12,1.12,0,0,0-.77-1.15.77.77,0,0,0-.93.93c0,.07.11.44.09.17l.11-.41c0-.06-.09.09,0,0l1.3.53a1.21,1.21,0,0,0-1.26-1,.68.68,0,0,0-.58,1Z" transform="translate(-59.66 -92.32)" fill="#1e1e1e"/><path d="M74.29,146c-.65-2.16-3.48-3.67-5.54-2.44a3.42,3.42,0,0,0-1.52,2.4c-.16.86-.13,2.38.6,3a.52.52,0,0,0,.79-.11c.69-.95,0-2.52.86-3.42,1.24-1.29,2.82.76,3.81,1.36a.69.69,0,0,0,1-.77Z" transform="translate(-59.66 -92.32)" fill="#1e1e1e"/><path d="M133.27,147.79a8.45,8.45,0,0,1,1.35-.58,2.74,2.74,0,0,1,1.46-.18c.48.21.24.94.86,1.09a.77.77,0,0,0,.74-.19c1-1.05-.06-2.6-1.35-2.61a4.67,4.67,0,0,0-3.41,2.12c-.16.23.14.44.35.35Z" transform="translate(-59.66 -92.32)" fill="#1e1e1e"/><path d="M70.27,207.44c5.37.25,10.69,0,16.06.47,5.7.49,11.37,1.22,17.07,1.66a139.73,139.73,0,0,0,31.32-1.33c1.51-.23,1.17-2.82-.37-2.7-11,.92-21.77,1.91-32.85.93-10.08-.9-21.48-3.4-31.42-.49a.75.75,0,0,0,.19,1.46Z" transform="translate(-59.66 -92.32)" fill="#1e1e1e"/><path d="M72.6,202c4.55,1.1,9.51.84,14.17,1.17,5.31.38,10.6.91,15.9,1.31,10,.77,20,1,30-.77,1.52-.27.88-2.59-.64-2.33-10.35,1.82-20.77,1.43-31.2.61-8.85-.71-19.48-3.24-28.2-1.1a.58.58,0,0,0,0,1.11Z" transform="translate(-59.66 -92.32)" fill="#1e1e1e"/><path d="M75.93,198c10.48,1.15,21,1.7,31.57,2.38,7.86.52,18.61,2.6,25.88-1.24a.71.71,0,0,0-.35-1.31c-4.79,0-9.48,1.08-14.33,1-4.39-.1-8.79-.45-13.17-.72-9.86-.62-19.73-1.36-29.6-1.53-1,0-.91,1.36,0,1.46Z" transform="translate(-59.66 -92.32)" fill="#1e1e1e"/><path d="M79.92,194.58a44.82,44.82,0,0,0,7.24.54c2.75.16,5.5.42,8.24.7,1.15.12,1.43-1.88.27-2-4.88-.67-10.93-1.63-15.75-.3a.57.57,0,0,0,0,1.09Z" transform="translate(-59.66 -92.32)" fill="#1e1e1e"/><path d="M93.4,195.39a9.55,9.55,0,0,0,4.64.53.24.24,0,0,0,0-.46c-1.5-.27-3.08-.23-4.59-.38a.16.16,0,0,0,0,.31Z" transform="translate(-59.66 -92.32)" fill="#1e1e1e"/><path d="M111.82,196.35c5.49.81,11.28-.51,16.84-.07,1.38.11,1.39-2.25,0-2.14-5.43.41-11.61-.41-16.84,1.29-.4.13-.5.84,0,.92Z" transform="translate(-59.66 -92.32)" fill="#1e1e1e"/><path d="M89.11,188.49c1.76,5.3,8.49,7.14,13.47,7.54a31.69,31.69,0,0,0,20-5.25c2.15-1.41.19-4.85-2-3.47A29,29,0,0,1,105,192c-5.67,0-9.47-2-14.22-4.77a1.13,1.13,0,0,0-1.64,1.26Z" transform="translate(-59.66 -92.32)" fill="#1e1e1e"/><path d="M84.64,144.45A15.75,15.75,0,0,1,92,142.81c2,.13,3.38,1.47,5.29,1.2a.62.62,0,0,0,.44-.76c-1.94-4.79-11.23-3-14,0a.76.76,0,0,0,.92,1.19Z" transform="translate(-59.66 -92.32)" fill="#1e1e1e"/><path d="M112.77,144.47a28,28,0,0,1,4.74-.92,5.84,5.84,0,0,1,3.08.52,14.45,14.45,0,0,0,2.08,1,1.14,1.14,0,0,0,.87-2.08,17.84,17.84,0,0,0-3.16-1.77,10.22,10.22,0,0,0-3.82-.15c-1.87.18-4,.67-4.63,2.61-.18.52.37.94.84.84Z" transform="translate(-59.66 -92.32)" fill="#1e1e1e"/></svg>