<svg id="OBJECT" xmlns="http://www.w3.org/2000/svg" viewBox="0 0 78.02 118.36"><path d="M505.81,336c-.51,7.66.75,16.09,4.71,22.77,4.89,8.23,14.1,12.34,23.37,13.22,8.59.83,20.15-1,25.9-8.12,6.7-8.32,7-21.56,7-31.68a1.57,1.57,0,0,0-3.14,0c-.07,8.92-.27,19.71-5,27.64s-16.21,9.86-24.76,9c-9-.91-17.75-5.26-21.93-13.62-3-6-3.35-12.69-4.19-19.21a1,1,0,0,0-2,0Z" transform="translate(-496.26 -290.83)" fill="#1e1e1e"/><path d="M506.91,337.46a5.17,5.17,0,0,0-5.58-3c-2.85.39-4.53,2.79-4.94,5.49-1,6.64,4.3,12.74,10.51,14.16,1.61.37,2.3-2.11.68-2.47a11.18,11.18,0,0,1-8.26-7.26c-1.43-4.38,1.25-10.05,6-6.05.62.52,1.93.05,1.55-.9Z" transform="translate(-496.26 -290.83)" fill="#1e1e1e"/><path d="M566,339.24c2.86-1.53,5.93-1.68,6,2.47a10.1,10.1,0,0,1-1.28,4.74c-1.51,2.79-4.13,5.93-7.3,6.68-1.53.37-.88,2.73.65,2.36,5.49-1.35,10.31-8.2,10.26-13.78,0-6-5.18-7.41-9.4-3.87-.8.67.23,1.87,1.09,1.4Z" transform="translate(-496.26 -290.83)" fill="#1e1e1e"/><path d="M534.05,350.18c2.3,1.4,8.43,1,9.54-2.08.74-2-.65-4.67-.75-6.73-.18-3.56.07-7.18,0-10.75a1.25,1.25,0,0,0-2.49,0c0,4.25-.28,8.72.22,12.94a15.86,15.86,0,0,1,.44,2.2c-.12,2.52-1.22,2.08-2.91,2.34-1.9.29-2.87.24-4.17,1.58a.32.32,0,0,0,.07.5Z" transform="translate(-496.26 -290.83)" fill="#1e1e1e"/><path d="M523.56,341A2,2,0,0,0,525.5,339a1.95,1.95,0,1,0-1.94,1.94Z" transform="translate(-496.26 -290.83)" fill="#1e1e1e"/><path d="M549.52,341a1.74,1.74,0,0,0,0-3.48,1.74,1.74,0,0,0,0,3.48Z" transform="translate(-496.26 -290.83)" fill="#1e1e1e"/><path d="M535.6,358.25c1.93.43,4.62.51,6.41-.44a.69.69,0,0,0-.16-1.25,8.52,8.52,0,0,0-2.85-.22,30.05,30.05,0,0,0-3.15.12c-.93.12-1.35,1.55-.25,1.79Z" transform="translate(-496.26 -290.83)" fill="#1e1e1e"/><path d="M536.87,361.42a2.78,2.78,0,0,0,3-.16.56.56,0,0,0-.14-1,2.77,2.77,0,0,0-2.9.6.47.47,0,0,0,.07.57Z" transform="translate(-496.26 -290.83)" fill="#1e1e1e"/><path d="M544.73,369.19c-.75,2.54-.61,5.26-.62,7.87,0,2.32-.49,5,.76,7a.94.94,0,0,0,1.6,0c1.15-2.1.58-4.68.54-7,0-2.61.14-5.31-.52-7.87a.92.92,0,0,0-1.76,0Z" transform="translate(-496.26 -290.83)" fill="#1e1e1e"/><path d="M546.58,380.69c6.95,2.92,12.25,6.67,16.43,13.06a29.65,29.65,0,0,1,3.18,6.28c.67,1.89,1.66,3.76-.62,4.9-1.63.82-5.62.29-7.48.4-18.53,1.07-37.2,1.38-55.35-3,.36.65.73,1.29,1.1,1.94,2.4-12.52,13.6-19,24.62-23.23a1.66,1.66,0,0,0,1.19-1.55c0-3.21-.06-6.42-.06-9.63a1.56,1.56,0,0,0-3.11,0c0,3.21-.06,6.42-.06,9.63l1.19-1.56c-12,4.63-24.2,11.84-26.82,25.5a1.62,1.62,0,0,0,1.1,2,147.48,147.48,0,0,0,33.69,3.84c5.63,0,11.26-.15,16.88-.44,5.25-.27,11.45.16,16.45-1.55a1.36,1.36,0,0,0,1-.94c1-5.67-3.11-12.32-6.48-16.66-4-5.16-9.8-10.26-16.5-11.14-1.39-.18-1.36,1.78-.3,2.23Z" transform="translate(-496.26 -290.83)" fill="#1e1e1e"/><path d="M506.85,341.14c-.65-2.16-3.47-3.67-5.53-2.44a3.43,3.43,0,0,0-1.53,2.4c-.15.86-.12,2.37.61,3a.51.51,0,0,0,.79-.1c.69-1,0-2.52.85-3.43,1.25-1.28,2.83.76,3.82,1.36a.68.68,0,0,0,1-.76Z" transform="translate(-496.26 -290.83)" fill="#1e1e1e"/><path d="M565.84,342.9a9,9,0,0,1,1.35-.58,2.72,2.72,0,0,1,1.46-.17c.48.2.23.93.86,1.09a.75.75,0,0,0,.73-.2c1-1-.06-2.6-1.35-2.61a4.65,4.65,0,0,0-3.4,2.12c-.16.23.14.45.35.35Z" transform="translate(-496.26 -290.83)" fill="#1e1e1e"/><path d="M545.81,340.12a8.08,8.08,0,0,1,.93-1.42,3.68,3.68,0,0,1,2.81-.76c1.66,0,3,.39,3.7,1.95.6,1.27,2.49.16,1.88-1.1-1.23-2.54-4-3.28-6.65-2.93-1.82.23-5,2-3.58,4.26a.54.54,0,0,0,.91,0Z" transform="translate(-496.26 -290.83)" fill="#1e1e1e"/><path d="M518.28,340.26a5.41,5.41,0,0,1,3.72-2.78,3.92,3.92,0,0,1,4.83,2.38.91.91,0,0,0,1.76-.48,5.79,5.79,0,0,0-7.43-3.82,6.78,6.78,0,0,0-3.84,2.61c-.43.81-.53,2,.54,2.26a.38.38,0,0,0,.42-.17Z" transform="translate(-496.26 -290.83)" fill="#1e1e1e"/><path d="M517.27,351c-8.87-.39-13.72-11.34-11.28-19.1,2.77-8.76,17.11-9.92,22-2.7,4.76,7,.29,20.27-8.92,20.87a12.86,12.86,0,0,1-9.71-3.85c-3.64-3.64-3.83-7.82-3.81-12.63a1.2,1.2,0,0,0-2.35-.32c-4.4,11,8,23.3,19,19.68,10.42-3.4,14.31-18.51,7.31-26.63-6.49-7.53-21.62-5.79-25.66,3.61-3.69,8.6,2.3,25,13.55,22.82,1-.2.73-1.7-.23-1.75Z" transform="translate(-496.26 -290.83)" fill="#1e1e1e"/><path d="M555,352.7c11.26,2.14,17.25-14.23,13.55-22.82-4-9.38-19.19-11.17-25.65-3.61-7,8.14-3.15,23.22,7.3,26.63,11.06,3.61,23.46-8.68,19.06-19.68-.48-1.18-2.36-1.13-2.35.32,0,4.42-.12,8.63-3.31,12.12A13.18,13.18,0,0,1,553.33,350c-9.29-.51-13.56-13.93-8.91-20.87,4.92-7.36,19.21-5.94,22,2.7,2.54,7.74-2.48,18.72-11.27,19.1-1,.05-1.27,1.55-.24,1.75Z" transform="translate(-496.26 -290.83)" fill="#1e1e1e"/><path d="M531.12,337c1,1.09,2.55.87,3.93.89l5.64.1a1.35,1.35,0,0,0,0-2.7l-5.64.05c-1.38,0-2.92-.22-3.93.86a.57.57,0,0,0,0,.8Z" transform="translate(-496.26 -290.83)" fill="#1e1e1e"/><path d="M515.92,332c1.38.7,3.17.31,4.68.36,1.71.06,3.49.86,5,0a.94.94,0,0,0,.19-1.48c-1.37-1.28-3.48-.81-5.24-.67-1.56.13-3.61.16-4.73,1.37a.24.24,0,0,0,0,.38Z" transform="translate(-496.26 -290.83)" fill="#1e1e1e"/><path d="M547.45,330.91a6.94,6.94,0,0,0,3,.71,10.72,10.72,0,0,0,3.53,0,1.13,1.13,0,0,0,0-2.17,10.72,10.72,0,0,0-3.53,0,6.94,6.94,0,0,0-3,.71.47.47,0,0,0,0,.8Z" transform="translate(-496.26 -290.83)" fill="#1e1e1e"/><path d="M527.85,380.05c1.8,2.09,5.1,2.27,7.72,2.49a26.05,26.05,0,0,0,10.36-.87c1.39-.47,1.27-2.88-.37-2.73a71.57,71.57,0,0,1-9.36.75c-2.69-.11-5.55-1.22-8.15-.4a.46.46,0,0,0-.2.76Z" transform="translate(-496.26 -290.83)" fill="#1e1e1e"/><path d="M532.14,374.09a7.18,7.18,0,0,0-.65,2.67,4.81,4.81,0,0,0,.09,2.79.75.75,0,0,0,1.29,0,5.33,5.33,0,0,0,.36-2.61,8.93,8.93,0,0,0-.14-2.73.53.53,0,0,0-1-.12Z" transform="translate(-496.26 -290.83)" fill="#1e1e1e"/><path d="M534.58,374.42a6.45,6.45,0,0,0-.58,2.67,5.68,5.68,0,0,0,.2,2.9,1,1,0,0,0,1.64,0,5.68,5.68,0,0,0,.2-2.9,6.29,6.29,0,0,0-.58-2.67.51.51,0,0,0-.88,0Z" transform="translate(-496.26 -290.83)" fill="#1e1e1e"/><path d="M537.94,375a14.88,14.88,0,0,0-.37,2.57,11.17,11.17,0,0,0-.08,2.45,1.14,1.14,0,0,0,.8.79l.11,0a1.06,1.06,0,0,0,1.32-1,18.66,18.66,0,0,0-.19-4.84.83.83,0,0,0-1.59,0Z" transform="translate(-496.26 -290.83)" fill="#1e1e1e"/><path d="M525.64,379.12c-1.1,5.21-1,10.71-1.24,16-.12,3-1.66,9.18.4,11.62a1.35,1.35,0,0,0,2.25-.6,1.4,1.4,0,0,0,0-.54c-.1-.78-1.17-1.57-1.81-.75l-.1.12,1.89.5c-.41-1.22.24-4.32.29-5.7q.12-3.72.18-7.44c.07-4.42.36-8.86-.28-13.24-.12-.83-1.45-.77-1.61,0Z" transform="translate(-496.26 -290.83)" fill="#1e1e1e"/><path d="M546.06,379c-1.49,4.08-1.13,8.69-1.14,13,0,4.94,0,9.91.39,14.82a1.53,1.53,0,1,0,3-.41l-.07-.42c-.17-1-1.5-1.15-2.15-.57l-.35.32,2.62,1.08c.06-4.93-.21-9.88-.3-14.82-.08-4.29.34-8.86-1-13a.52.52,0,0,0-1,0Z" transform="translate(-496.26 -290.83)" fill="#1e1e1e"/><path d="M520.16,383.17c-1,7.54-1.14,15.25-1.56,22.84-.09,1.63,2.51,1.65,2.55,0,.16-7.52.69-15.15.23-22.67,0-.65-1.12-.9-1.22-.17Z" transform="translate(-496.26 -290.83)" fill="#1e1e1e"/><path d="M551.35,382.11c-1.12,7.64.19,16.87,1.12,24.51.28,2.37,3.62,1.07,2.53-.69l-.29-.45a1.07,1.07,0,0,0-1.84,0c-.07.15-.14.3-.22.45l2.53.69c-.07-7.67,0-17.15-2.3-24.51-.21-.68-1.41-.82-1.53,0Z" transform="translate(-496.26 -290.83)" fill="#1e1e1e"/><path d="M519.37,312.46c-2.71,8.22-5.68,16-12.83,21.42-1.56,1.2.23,3.48,1.64,2.13,6.39-6.13,12.26-14.14,12.69-23.35,0-.89-1.24-1-1.5-.2Z" transform="translate(-496.26 -290.83)" fill="#1e1e1e"/><path d="M519.91,312.34c3.94,8.44,11.17,16.6,20.47,18.92,1.09.28,2.26-1,1.55-2a30.23,30.23,0,0,1-4.29-9.61l-2,1.17C544,328.62,553.77,332,565,333c2.29.21,2.35-3.7,0-3.6-10.1.45-20.1-3.81-27.68-10.3a1.21,1.21,0,0,0-2,1.17,40.41,40.41,0,0,0,4.23,10.35l1.55-2c-9.65-2.68-13.76-10.27-20.15-17.09-.55-.58-1.35.16-1.05.81Z" transform="translate(-496.26 -290.83)" fill="#1e1e1e"/><path d="M501.94,334.34c.17-9.91-1.63-22.65,2.81-31.83,1.85-3.81,4.79-6.28,9.13-6.65a32.23,32.23,0,0,0,5-.51,66.82,66.82,0,0,1,15.43-1.67A69.36,69.36,0,0,1,549.68,295c6.55,1.44,11.93,3.83,14.39,10.47,3.74,10.1,4.89,21.06,4.35,31.76-.1,2.1,3.17,2.09,3.27,0,.59-11.68-.38-26.79-6.58-37.09-5.59-9.3-21.32-9.45-30.79-9.19a80.46,80.46,0,0,0-16.84,2c-5.38,1.3-9.49.86-13.24,5.65-2.93,3.75-3.77,8.55-4.19,13.17a128,128,0,0,0-.31,22.66,1.1,1.1,0,0,0,2.2,0Z" transform="translate(-496.26 -290.83)" fill="#1e1e1e"/><path d="M520.83,312.17c-.15-5.54-.88-11.11-1.18-16.66,0-1-1.61-1-1.54,0,.39,5.53.34,11.15.88,16.66.11,1.16,1.88,1.21,1.84,0Z" transform="translate(-496.26 -290.83)" fill="#1e1e1e"/><path d="M527.88,374.11c4.66,2.49,11.79,2.61,16.82,1.32a1.35,1.35,0,0,0-.71-2.6c-5.43,1.46-10.36-.12-15.76,0a.69.69,0,0,0-.35,1.28Z" transform="translate(-496.26 -290.83)" fill="#1e1e1e"/><path d="M541.14,374.68a34.79,34.79,0,0,0,.05,5,.93.93,0,0,0,1.85,0,36.5,36.5,0,0,0-.24-5.23c-.18-1-1.56-.63-1.66.23Z" transform="translate(-496.26 -290.83)" fill="#1e1e1e"/><path d="M518.36,296.17c-6.64-.59-11,5.56-13.25,11.06-3.3,8.15-3.44,18-2.43,26.6a.68.68,0,0,0,1.35,0c.19-11.64-2.22-34.51,14.33-36a.82.82,0,0,0,0-1.64Z" transform="translate(-496.26 -290.83)" fill="#1e1e1e"/><path d="M503.81,333.34c1.54-12.13,4.07-27.54,15.09-34.69.46-.3.17-1.17-.4-.95-5.49,2.12-8.47,7.87-10.63,13a57.56,57.56,0,0,0-4.68,22.65c0,.41.57.39.62,0Z" transform="translate(-496.26 -290.83)" fill="#1e1e1e"/><path d="M518.58,300.05c-3.85,3.94-6.07,9.63-8.08,14.7a133.78,133.78,0,0,0-6.1,19.06.85.85,0,0,0,1.64.45c2-5.75,3.5-11.68,5.66-17.39s5.42-10.75,7.73-16.32c.2-.49-.52-.84-.85-.5Z" transform="translate(-496.26 -290.83)" fill="#1e1e1e"/><path d="M518.21,308c-4,9.56-9.17,18-14.36,26.91-.51.89.78,2,1.47,1.13,6.51-7.89,11-18,14-27.72.24-.75-.86-1-1.15-.32Z" transform="translate(-496.26 -290.83)" fill="#1e1e1e"/><path d="M519.85,308.35c2,3.71,5.39,6.74,8.22,9.81,3.19,3.43,6.25,7.1,9.7,10.28.87.8,2-.38,1.26-1.27-2.9-3.69-6.3-7-9.48-10.49-2.81-3.07-5.55-6.7-9.09-8.94-.39-.26-.81.23-.61.61Z" transform="translate(-496.26 -290.83)" fill="#1e1e1e"/><path d="M537.79,325.92a34.69,34.69,0,0,0-15.31-20.69.7.7,0,0,0-.84,1.09c2.54,2.94,5.73,5.24,8.27,8.22a33.39,33.39,0,0,1,6.66,11.71.63.63,0,0,0,1.22-.33Z" transform="translate(-496.26 -290.83)" fill="#1e1e1e"/><path d="M518.81,303.08c11.81,2.1,19.27,13.47,28.3,20.35,1.85,1.4,3.95,2.32,5.84,3.68a21.15,21.15,0,0,0,4.28,2.51c3.32,1.36,7.84,2.3,11,.29a.74.74,0,0,0-.18-1.33c-2-.39-4-.07-6-.31-3.43-.4-5.81-1.84-8.59-3.69-2.12-1.42-4.25-2.24-6.22-4s-4.06-3.76-6.15-5.59c-3.75-3.28-7.59-6.5-11.62-9.43-3.26-2.36-6.63-4.41-10.69-3.25-.34.1-.38.66,0,.73Z" transform="translate(-496.26 -290.83)" fill="#1e1e1e"/><path d="M568.71,328.05c-8.31-6.11-15.31-13.55-24.17-19-6.58-4.08-16.66-9.89-24.66-9.07-.6.06-1,.94-.34,1.26,4,1.9,8.61,2.45,12.75,4.16a80.69,80.69,0,0,1,13.28,7.11A140.67,140.67,0,0,1,558.21,322c3,2.52,6.06,6.3,9.94,7.42.84.25,1.19-.87.56-1.33Z" transform="translate(-496.26 -290.83)" fill="#1e1e1e"/><path d="M518.65,299.22c10.46-.11,19.94,1.21,29.43,5.86,9,4.4,17.39,10.06,20,20.21a1.23,1.23,0,0,0,2.37-.65c-3-10.47-11.13-16.4-20.51-21.09s-21-8.16-31.45-5.23a.46.46,0,0,0,.12.9Z" transform="translate(-496.26 -290.83)" fill="#1e1e1e"/><path d="M519.85,297.15c10.21-.91,20.48-2.28,30,2.44a68.14,68.14,0,0,1,9.84,6.21c2.57,1.88,4,3.94,6,6.25,1,1.09.52,1,1.75,1.77a.71.71,0,0,0,1-1c-2-3.07-3.39-5.46-6.41-7.74a65.43,65.43,0,0,0-12.79-7.93c-8.88-3.92-20.38-3.76-29.49-.7-.34.11-.31.69.09.66Z" transform="translate(-496.26 -290.83)" fill="#1e1e1e"/><path d="M546.45,306.68c3.84,3,8,5.63,12.08,8.35,5.56,3.72,8.24,7.42,10.13,13.73.27.91,1.83.79,1.73-.23-.47-4.79-3.27-8.87-6.93-11.88A97.78,97.78,0,0,0,546.9,306.1c-.35-.19-.8.3-.45.58Z" transform="translate(-496.26 -290.83)" fill="#1e1e1e"/></svg>