<svg id="OBJECT" xmlns="http://www.w3.org/2000/svg" viewBox="0 0 78.02 119.15"><path d="M183.33,337c-.52,8.72,1.28,18.46,7.1,25.3,5.48,6.44,14.35,9.42,22.59,9.85,7.86.41,17.78-1.39,23.42-7.34,6.22-6.57,7.19-17.73,7.55-26.3.09-2-3.05-2-3.14,0-.35,7.34-1.17,16.36-5.51,22.6-4.72,6.79-15.55,8.39-23.17,7.81s-15.62-3.62-20.39-9.89c-5-6.52-5.45-14.48-6.53-22.29-.16-1.14-1.85-.78-1.92.26Z" transform="translate(-173.71 -290.04)" fill="#1e1e1e"/><path d="M184.35,337.46a5.17,5.17,0,0,0-5.58-3c-2.85.39-4.53,2.79-4.94,5.49-1,6.64,4.3,12.74,10.51,14.16,1.61.37,2.3-2.11.69-2.47a11.18,11.18,0,0,1-8.27-7.26c-1.42-4.38,1.25-10.05,6.05-6.05.61.52,1.92.05,1.54-.9Z" transform="translate(-173.71 -290.04)" fill="#1e1e1e"/><path d="M243.41,339.24c2.86-1.53,5.93-1.68,6,2.47a10.1,10.1,0,0,1-1.28,4.74c-1.5,2.79-4.13,5.93-7.3,6.68-1.53.37-.88,2.73.65,2.36,5.49-1.35,10.31-8.2,10.26-13.78-.05-6-5.17-7.41-9.39-3.87-.81.67.22,1.87,1.08,1.4Z" transform="translate(-173.71 -290.04)" fill="#1e1e1e"/><path d="M211.49,350.18c2.3,1.4,8.43,1,9.54-2.08.74-2-.64-4.67-.75-6.73-.17-3.56.08-7.18.05-10.75a1.25,1.25,0,0,0-2.49,0c0,4.25-.27,8.72.22,12.94a15.86,15.86,0,0,1,.44,2.2c-.12,2.52-1.22,2.08-2.91,2.34-1.9.29-2.86.24-4.16,1.58a.32.32,0,0,0,.06.5Z" transform="translate(-173.71 -290.04)" fill="#1e1e1e"/><path d="M201,341a1.94,1.94,0,1,0-1.94-1.94A2,2,0,0,0,201,341Z" transform="translate(-173.71 -290.04)" fill="#1e1e1e"/><path d="M228,340.62a1.74,1.74,0,0,0,0-3.48,1.74,1.74,0,0,0,0,3.48Z" transform="translate(-173.71 -290.04)" fill="#1e1e1e"/><path d="M223.41,354.9c-5.12-.77-10.34-.46-15.53-.6a1.07,1.07,0,0,0-1.06,1.06c-.32,8.86,16.66,8.22,17.19-.15.06-.88-1.32-.88-1.37,0-.36,5.7-13.92,6.26-13.69.15l-1.07,1.07c5.2.14,10.48.36,15.53-.91C223.7,355.45,223.74,355,223.41,354.9Z" transform="translate(-173.71 -290.04)" fill="#1e1e1e"/><path d="M214.61,363.73a2.77,2.77,0,0,0,3-.16.56.56,0,0,0-.13-1,2.74,2.74,0,0,0-2.9.61.45.45,0,0,0,.07.56Z" transform="translate(-173.71 -290.04)" fill="#1e1e1e"/><path d="M222.17,369.19c-.75,2.54-.61,5.26-.62,7.87,0,2.32-.49,5,.77,7a.93.93,0,0,0,1.59,0c1.15-2.1.58-4.68.54-7,0-2.61.15-5.31-.52-7.87a.92.92,0,0,0-1.76,0Z" transform="translate(-173.71 -290.04)" fill="#1e1e1e"/><path d="M224,380.69c6.95,2.92,12.25,6.67,16.44,13.06a29.61,29.61,0,0,1,3.17,6.28c.67,1.89,1.67,3.76-.62,4.9-1.63.82-5.62.29-7.48.4-18.53,1.07-37.2,1.38-55.35-3l1.1,1.94c2.41-12.52,13.61-19,24.63-23.23a1.66,1.66,0,0,0,1.18-1.55c0-3.21-.06-6.42-.06-9.63a1.56,1.56,0,0,0-3.11,0c0,3.21-.06,6.42-.06,9.63l1.19-1.56c-12,4.63-24.2,11.84-26.82,25.5a1.61,1.61,0,0,0,1.11,2A147.33,147.33,0,0,0,213,409.19c5.63,0,11.26-.15,16.88-.44,5.25-.27,11.45.16,16.45-1.55a1.35,1.35,0,0,0,1-.94c1-5.67-3.11-12.32-6.47-16.66-4-5.16-9.81-10.26-16.51-11.14-1.39-.18-1.35,1.78-.3,2.23Z" transform="translate(-173.71 -290.04)" fill="#1e1e1e"/><path d="M184.43,341.76c-1.14-1.26-3-2.81-4.84-2.51-1.22.2-2.8,1.77-2,3.06a.4.4,0,0,0,.44.19c.95-.17,1.19-1.42,2.19-1.32a6.82,6.82,0,0,1,3.07,1.7.79.79,0,0,0,1.12-1.12Z" transform="translate(-173.71 -290.04)" fill="#1e1e1e"/><path d="M243.68,343.92a1.83,1.83,0,0,1,1.81-.42c.56.15.91.63,1.45.85a.91.91,0,0,0,1.14-.87,2.57,2.57,0,0,0-2.53-2.05,3,3,0,0,0-2.71,1.84c-.28.51.44,1.13.84.65Z" transform="translate(-173.71 -290.04)" fill="#1e1e1e"/><path d="M194.63,340.05c1.86-1,2.94-2.64,5.25-2.86,2.58-.25,4.57,1.09,6.09,3.05.6.76,1.85-.23,1.34-1a8.18,8.18,0,0,0-7.19-3.86c-2.36.07-5.83,1.44-6.35,4a.6.6,0,0,0,.86.67Z" transform="translate(-173.71 -290.04)" fill="#1e1e1e"/><path d="M222.57,340.42c1.56-1.31,3-3,5.13-3.16,2.43-.21,3.66,1.43,4.52,3.43.43,1,2.13.3,1.78-.75-2-6.1-9.88-6.06-12.59-.41a.74.74,0,0,0,1.16.89Z" transform="translate(-173.71 -290.04)" fill="#1e1e1e"/><path d="M221.67,330.38l.31-.06-1.51-1.15a7.8,7.8,0,0,0,.1,1.45,1.14,1.14,0,0,0,2.11.57c.61-.84,1.2-1.68,1.76-2.55l-2-.86a9,9,0,0,0-.47,2.3c-.13,1,1.32,1.49,2,.81s1.23-1.28,1.89-1.89l-1.68-1.3a7.2,7.2,0,0,0-.79,2.34,1.12,1.12,0,0,0,1.86,1.08,17.13,17.13,0,0,1,3.42-2.07L227,327.49c-.24.51-.47,1-.69,1.54a1.21,1.21,0,0,0,1.34,1.75,15.9,15.9,0,0,1,4.37-.8,40.4,40.4,0,0,0,4.26.11c1.05-.11,1.44-1.66.26-2a23.76,23.76,0,0,0-5.06-.54c-1.76-.07-2.75.57-4.46.91l1.46,1.46c.21-.53.41-1.05.61-1.58.36-1-.87-1.76-1.68-1.29-1.24.72-2.45,1.47-3.62,2.29l1.63,1.26a11,11,0,0,1,.61-2.1c.42-1-1.08-1.72-1.79-1s-1.3,1.2-2,1.77l2,.82c.11-.57.21-1.14.32-1.71a1.12,1.12,0,0,0-2-.85,16.78,16.78,0,0,1-1.63,2.3l1.93.8a8.76,8.76,0,0,0,0-1.45c-.06-2.07-3.26-1-2.22.61l.17.25a.81.81,0,0,0,.87.35Z" transform="translate(-173.71 -290.04)" fill="#1e1e1e"/><path d="M208.19,328.89a9.91,9.91,0,0,0,.14,2.55l2.39-.66a10.34,10.34,0,0,0-1.61-3.13,1.29,1.29,0,0,0-2.38.64,11.22,11.22,0,0,0,.24,3.22l1.71-1.31c-1.65-.72-1.6-3.07-3.67-3a1.24,1.24,0,0,0-1.13.86,4.59,4.59,0,0,0-.22,2.27l1.91-.79c-1.9-1.65-2.88-2.11-5.25-2-2,.12-4.16-.94-5.66.82-.36.43-.31,1.3.38,1.41,2.89.45,6.57-.65,9,1.32a1.13,1.13,0,0,0,1.9-.79,3.57,3.57,0,0,1,.24-1.65l-1.12.86a26.76,26.76,0,0,0,2.49,2.66c.71.35,1.85-.06,1.75-1a11.88,11.88,0,0,1,0-2.92l-2.37.64a10.17,10.17,0,0,1,1.42,2.51c.57,1.46,2.82.92,2.39-.66a9.64,9.64,0,0,0-.88-2.33c-.4-.85-1.61-.37-1.65.44Z" transform="translate(-173.71 -290.04)" fill="#1e1e1e"/><path d="M222.49,379.81c.39,5.6-3.69,8.82-8,11.59a1.19,1.19,0,0,0,.6,2.19A25.29,25.29,0,0,1,228,398.16a1.36,1.36,0,0,0,2-1.17,35.28,35.28,0,0,0-4-16.88c-.84-1.63-3.3-.19-2.46,1.43A33.42,33.42,0,0,1,227.34,397l2-1.16a26.19,26.19,0,0,0-14.23-4.59l.59,2.19c4.49-3.23,10-7.59,8.26-13.82-.23-.81-1.57-.68-1.5.2Z" transform="translate(-173.71 -290.04)" fill="#1e1e1e"/><path d="M214.25,392.18c-6-2.36-12.54.81-15.87,6l2.31.62a18.84,18.84,0,0,1,2-10.53c1.34-2.53,3.2-4.6,4.07-7.38l-2.19-.29a16.12,16.12,0,0,0,8.76,13c1.44.73,2.7-1.46,1.26-2.16a13.55,13.55,0,0,1-7.8-10.84,1.12,1.12,0,0,0-2.18-.3c-1.1,3.35-3.76,5.87-5,9.15a21.29,21.29,0,0,0-1.37,9.35,1.25,1.25,0,0,0,2.31.62c3.13-4.62,8.2-6.17,13.55-5.87.84,0,.86-1.1.18-1.36Z" transform="translate(-173.71 -290.04)" fill="#1e1e1e"/><path d="M214.32,391.77a8.19,8.19,0,0,0-.51,3.27c-.09,1.5-.33,3-.54,4.45s2,2.21,2.34.65a22,22,0,0,0,.39-4.5c0-1.28,0-2.8-.74-3.87a.55.55,0,0,0-.94,0Z" transform="translate(-173.71 -290.04)" fill="#1e1e1e"/><path d="M187.58,307.65c-1.55-2.67-2.19-5.49-.44-8.37.64-1.07,5.88-5.69,4.1-1.1-.45,1.16,1.13,1.74,1.9,1.1a42.18,42.18,0,0,1,6.37-4.67c2.15-1.18,9.36-4.37,10.34.43a1.18,1.18,0,0,0,1.72.7,17.37,17.37,0,0,1,9.63-2.27c1.06,0,8.53.21,8.5,1.78A1.26,1.26,0,0,0,231,296.5a33.12,33.12,0,0,1,7.24.56,18.42,18.42,0,0,1,2.46.61c2.93.25,4,2,3.23,5.16a1.29,1.29,0,0,0-.65,2.39c3.33,1.85,3.72,1.38,1.6,5.5q-.22,4.3-3.21,3a16.36,16.36,0,0,1-3.17-.72c-1.25-.35-2.45,1.4-1.34,2.31l-2.4,1.46-2.84-.4a26.88,26.88,0,0,1-4.48-1.35,32.9,32.9,0,0,1-6.93-3.8c-1.43-1-2.7,1.3-1.35,2.3,5,3.75-2.6,2.31-4.62,2a24.8,24.8,0,0,1-6.59-1.86c-1-.43-2.14,1.05-1.49,1.94,1,1.38,2.86,2.49.35,2.7-1.19.1-3.33-1.34-4.41-1.77l-9.7-3.88c-1.66-.67-2.41,2.05-.74,2.69l10.62,4.09c1.75.68,4.47,2.29,6.48,1.63,3.92-1.29,1.26-4.58-.32-6.79l-1.49,1.93c3.79,1.55,14.3,4.67,16.93-.28a1.25,1.25,0,0,0,0-1.28,19.06,19.06,0,0,0-3.4-3.25l-1.62,2.09c4.43,3.38,11.43,6.92,17.24,6,3-.47,5.75-3.71,2.71-6.19l-1.34,2.31c4.17,1.16,10.43,2.14,12.7-2.84,2.09-4.59-2.43-7.9-5.9-9.86-.21.8-.43,1.59-.64,2.39,3.68.26,5.42-3.82,3.41-6.72-3.15-4.56-11.5-4.8-16.34-4.68.42.42.84.83,1.25,1.25,0-3.54-4.39-3.53-7.06-3.86-5.22-.62-10.16-.41-14.75,2.32l1.72.71c-2.13-10.17-16.86.15-20.58,3.26l1.9,1.1c1.87-4.5-1.47-6.92-5.27-4.06-4.71,3.55-6.08,9.49-2.15,14.15.74.88,2.13-.25,1.57-1.22Z" transform="translate(-173.71 -290.04)" fill="#1e1e1e"/><path d="M236.78,318c-.87,3,.45,5.6,1.73,8.3,1.92,4,1.8,7.76,2.46,12.05.25,1.6,2.73.94,2.44-.67-.61-3.48-.36-6.7-1.71-10.05-.5-1.25-1.21-2.37-1.79-3.58-1-2-1.23-4-1.95-6.05a.62.62,0,0,0-1.18,0Z" transform="translate(-173.71 -290.04)" fill="#1e1e1e"/><path d="M246,315c.24,7.11.12,14.22.14,21.34a1.42,1.42,0,0,0,2.84,0c.16-4.44.08-8.89-.13-13.32-.13-3,.15-6-1.81-8.45a.61.61,0,0,0-1,.43Z" transform="translate(-173.71 -290.04)" fill="#1e1e1e"/><path d="M184.22,336.87c2.22-2.74,5.28-4.49,6.52-8,1.46-4.12.61-8.67,1.75-12.87a1,1,0,0,0-1.92-.53c-1.07,3.42-.81,6.93-1.42,10.42-.77,4.36-4.28,6.35-6,10.11-.29.64.55,1.48,1.08.83Z" transform="translate(-173.71 -290.04)" fill="#1e1e1e"/><path d="M186.66,310.17c.31.39.72.67,1,1.07s.67,1,1,1.44l2.35,3.23a1.11,1.11,0,1,0,1.74-1.35c-1-1.31-2-2.71-3.11-4-.7-.8-1.62-1.65-2.75-1.43a.61.61,0,0,0-.27,1Z" transform="translate(-173.71 -290.04)" fill="#1e1e1e"/><path d="M185.31,307.36c-4,1.2-5.24,4.69-5.85,8.55-1,6.13-.92,12.39-.93,18.57,0,1.88,3,1.84,2.88,0-.57-6.86-2.19-21.53,4.6-25.47a.91.91,0,0,0-.7-1.65Z" transform="translate(-173.71 -290.04)" fill="#1e1e1e"/><path d="M185,312.32c-.71-.21-1.36.65-1.68,1.16a2.33,2.33,0,0,0-.3,2.2.44.44,0,0,0,.69.09,6.93,6.93,0,0,0,.81-1.58c.23-.45.79-1,.73-1.54a.36.36,0,0,0-.25-.33Z" transform="translate(-173.71 -290.04)" fill="#1e1e1e"/><path d="M185.57,313.65c-.43.5-1,1.28-.72,2a.71.71,0,0,0,1,.42,2.12,2.12,0,0,0,.8-1.93.65.65,0,0,0-1.1-.46Z" transform="translate(-173.71 -290.04)" fill="#1e1e1e"/><path d="M187.5,315.71c-.59.68-1.31,2.35-.2,2.92a.6.6,0,0,0,.72-.09c.39-.5.2-1.2.61-1.7a.82.82,0,0,0,0-1.13.81.81,0,0,0-1.13,0Z" transform="translate(-173.71 -290.04)" fill="#1e1e1e"/><path d="M182.47,318.75a6.93,6.93,0,0,0-.46,1.42,1.9,1.9,0,0,0,.07,1.5.76.76,0,0,0,1,.27c.86-.54.88-2.07.89-3a.77.77,0,0,0-.67-.76.8.8,0,0,0-.86.56Z" transform="translate(-173.71 -290.04)" fill="#1e1e1e"/><path d="M184.45,320a5,5,0,0,0-.44,1.7,2.68,2.68,0,0,0,0,1.75.67.67,0,0,0,1,.14,2.61,2.61,0,0,0,.43-1.67,5.06,5.06,0,0,0-.06-1.78.56.56,0,0,0-1-.14Z" transform="translate(-173.71 -290.04)" fill="#1e1e1e"/><path d="M186.46,322.26c-.41.95-1.14,2.1-.68,3.13a.55.55,0,0,0,.73.19c.92-.49,1.05-1.84,1.27-2.76.18-.76-1-1.33-1.32-.56Z" transform="translate(-173.71 -290.04)" fill="#1e1e1e"/><path d="M182,326.81a4.45,4.45,0,0,0-.19,1.5,2.07,2.07,0,0,0,.28,1.42.54.54,0,0,0,.91,0,2.18,2.18,0,0,0,.28-1.42,4.73,4.73,0,0,0-.2-1.5.57.57,0,0,0-1.08,0Z" transform="translate(-173.71 -290.04)" fill="#1e1e1e"/><path d="M183.69,327.7c-.49.83-1.1,2.36-.14,3a.69.69,0,0,0,.72,0,1.28,1.28,0,0,0,.52-1.08,3.35,3.35,0,0,1,.35-1.11.84.84,0,0,0-1.45-.85Z" transform="translate(-173.71 -290.04)" fill="#1e1e1e"/><path d="M240.38,320.63a2.66,2.66,0,0,0,1.23,2.56c.39.17.72-.24.75-.58a2.91,2.91,0,0,0-.27-1.07c-.11-.37-.23-.73-.35-1.1a.7.7,0,0,0-1.36.19Z" transform="translate(-173.71 -290.04)" fill="#1e1e1e"/><path d="M242.34,319.35a19.61,19.61,0,0,1,.77,2,7,7,0,0,0,.61,2,.65.65,0,0,0,1.11,0c.78-1.39-.06-3.68-1.27-4.64-.51-.41-1.48-.06-1.22.71Z" transform="translate(-173.71 -290.04)" fill="#1e1e1e"/><path d="M242.84,326.8c.06.54.12,1.07.2,1.6s.18,1.06.69,1.33a.73.73,0,0,0,.86-.11,1.59,1.59,0,0,0,.25-1.51c-.08-.52-.2-1-.31-1.54-.21-.93-1.81-.74-1.69.23Z" transform="translate(-173.71 -290.04)" fill="#1e1e1e"/><path d="M185.77,308.17c.36.8,1,2.16,2,2.22a.64.64,0,0,0,.64-.64c0-.52-.35-.78-.65-1.17a7.79,7.79,0,0,1-.76-1.14c-.46-.83-1.62-.1-1.25.73Z" transform="translate(-173.71 -290.04)" fill="#1e1e1e"/><path d="M186.92,307.78c.44-1.88.81-3.78,1.41-5.62.36-1.09,2.73-7.24.61-2.46-1.21,2.72-2.51,5.13-2.46,8.18,0,.91,1.37,1.4,1.81.49,1.59-3.33,3.13-6.82,5.61-9.6l-1.82-1.06Q190,302.84,188,308c-.45,1.16,1.12,1.74,1.9,1.1,1.79-1.49,2.56-3.38,3.68-5.38A17,17,0,0,1,200,297l-1.48-.85c-.26,2.28-2.34,3.53-3.7,5.09l1.57,1.21c.66-.85,7.93-9.1,9.39-6,.45,1,1.79.25,1.61-.68-1.33-6.68-11,3.52-12.57,5.48-.78,1,.56,2.4,1.42,1.41,1.88-2.18,3.92-3.52,4.25-6.5a1,1,0,0,0-1.48-.85,17.23,17.23,0,0,0-4.78,4.05c-2,2.5-3,6.1-5.65,8l1.67,1.28c1.35-3.42,2.66-6.86,4-10.3a1.09,1.09,0,0,0-1.82-1.06c-2.54,3-4,6.66-5.75,10.17l1.81.48c0-3.2,1.58-5.68,2.68-8.56.48-1.24,1.07-2.49.52-3.76a.89.89,0,0,0-.8-.46c-4,.12-5.17,9.53-5.14,12.51a.63.63,0,0,0,1.24.17Z" transform="translate(-173.71 -290.04)" fill="#1e1e1e"/><path d="M202.78,298.84a45.61,45.61,0,0,0-7.28,4.48c-1.24.95-4,2.47-3.87,4.3.23,4.45,7.74-2.39,8.54-3a1,1,0,0,0-1-1.68c-3.49,1.78-7.3,3.46-10.48,5.76l1.43.82a1.19,1.19,0,0,0-1.86-1.14.79.79,0,0,0,.61,1.44c.87-.21,1.74-.45,2.61-.7l1-.3c.66-.13.69-.19.1-.18.06.59-.71,1.8-.7,2.6l1.56-.9a26.83,26.83,0,0,1-3.07-1.88c-.9-.64-2,.8-1.19,1.54a14,14,0,0,1,2.72,3.22c.73,1.18,2.63,0,1.84-1.07a20.9,20.9,0,0,0-3.18-3.53l-1.18,1.53c1,.7,2,1.38,3,2a1.05,1.05,0,0,0,1.57-.9c-.07-1.24.86-2.1.85-3.33a.92.92,0,0,0-.47-.82c-1.85-.83-4.18.54-5.93,1.22l.76,1.31v.05l-.72-.72.2-.25a1,1,0,0,0,1,1.64c3.62-1.57,7-3.84,10.5-5.72l-1-1.68c-1.3,1-2.62,2-3.93,2.94-.4.29-1.72.84-1.41,1.49-.07-.15,1.62-1.48,1.76-1.6a36.41,36.41,0,0,1,8.17-5.26c1.13-.54.14-2.27-1-1.7Z" transform="translate(-173.71 -290.04)" fill="#1e1e1e"/><path d="M192.41,313.55a31.26,31.26,0,0,1,11.85,3.24l.78-1.85-6.83-2-.55,2a88.53,88.53,0,0,1,10.18,3.24c1.13.44,1.66-1.24.78-1.85A70.41,70.41,0,0,0,194,308.53c-.93-.36-1.79,1.09-1,1.71,4.26,3.35,12.56,1.42,17.41.32.93-.21,1-1.79,0-1.95-6.26-1-12.27-.11-18.41,1.25-1.19.27-.87,2,.28,2.07,3.43.11,6.6-1.2,9.88-2,4.16-1.06,8.57-1.45,12.61-2.9a.69.69,0,0,0-.19-1.34c-7.68-.4-14.79,4.38-22.3,4.18.1.69.19,1.38.28,2.06,5.74-1.3,11.45-2.26,17.32-1.33v-1.95c-3.66.84-12.09,2.85-15.43.18l-1,1.71a71.9,71.9,0,0,1,14.17,7.55l.78-1.85a91.24,91.24,0,0,0-10.17-3.28,1,1,0,0,0-.55,2l6.84,2c1.07.31,1.84-1.37.78-1.85a30.12,30.12,0,0,0-12.87-2.81.66.66,0,0,0,0,1.32Z" transform="translate(-173.71 -290.04)" fill="#1e1e1e"/><path d="M197.26,308.76c5.49-1.62,11-3.29,16.42-5.05a1.13,1.13,0,0,0-.6-2.17c-5,1.36-10,2.75-15.05,4.13.3.71.61,1.43.91,2.15,6.66-3.15,14.11-5.78,19.95-10.34,1-.8-.15-2.08-1.12-1.93a49.65,49.65,0,0,0-11.54,3.12c.27.66.55,1.31.83,2,5.35-2.33,11.14-3.23,16.83-4.35a1.22,1.22,0,0,0-.32-2.39c-4.71.39-9.38,1.05-14,1.86.19.72.39,1.44.59,2.15,6.17-1.35,12.82-2.49,18.85-.17.88.34,1.69-1,1-1.62-5.34-4.21-14.35-1.59-20.39-.36-1.42.29-.81,2.39.59,2.15a132,132,0,0,1,13.44-1.57c-.11-.8-.21-1.6-.32-2.39-5.88,1.26-11.75,2.38-17.28,4.83-1.1.49-.31,2.41.83,2a48.16,48.16,0,0,1,11.28-2.93c-.2-.72-.39-1.44-.59-2.16-5.77,4.45-13.19,7-19.74,10.12-1.22.58-.35,2.51.91,2.16,5-1.41,10-2.8,15-4.23l-.6-2.17q-8.12,2.93-16.14,6.07c-.7.27-.43,1.37.32,1.15Z" transform="translate(-173.71 -290.04)" fill="#1e1e1e"/><path d="M227,297.1l.72.61.54-1.3c-5.69,2.36-12,2.94-17.39,5.92a1.07,1.07,0,0,0,.25,1.93c4.06,1.48,8.29.36,12.43,1.37v-2.1q-7.17,1.88-14.37,3.64a1.12,1.12,0,0,0-.78,1.38c1,3.08,5.37,2.84,7.95,4.14l.27-2.1c-3.17,1.32-6.66.28-10,.8-1.42.23-.89,2.19.32,2.32L218.52,315v-2.4l-2.9.15a1.22,1.22,0,0,0,0,2.44l5,.65-1.19-1.57c.32-.81-4.38-.44-4.67-.39-1.27.2-1,2.31.31,2.24,2.19-.11,5.67,1.42,6.74-1.19.34-.83-.5-1.47-1.19-1.56l-5-.62v2.44l2.9-.19a1.2,1.2,0,0,0,0-2.4L207,311.35c.1.77.21,1.55.31,2.32,3.54-.58,6.87.46,10.26-1a1.17,1.17,0,0,0,0-2c-1.28-.63-6.6-1.75-7-2.75l-.78,1.39q7.19-1.81,14.35-3.71a1.1,1.1,0,0,0,0-2.1c-4.12-1-8.43.14-12.45-1.31.09.65.17,1.29.26,1.93,5.35-3,11.68-3.11,17-6.12a.9.9,0,0,0,.18-1.4,3.58,3.58,0,0,0-1.53-.94c-.81-.32-1.37,1-.59,1.41Z" transform="translate(-173.71 -290.04)" fill="#1e1e1e"/><path d="M229.45,314.76l-.69-.66-1.07,1.84a53.8,53.8,0,0,0,5.9,1.54,1.28,1.28,0,0,0,.68-2.47l-2.76-.84-.67,2.44a19,19,0,0,0,7.72.2c1.18-.2,1.09-1.74.3-2.31a17.58,17.58,0,0,0-7.4-3.12,1.28,1.28,0,0,0-.68,2.47l2.88,1c.22-.82.45-1.65.68-2.47a100.79,100.79,0,0,0-11.63-2.89c-1.57-.29-2.26,2-.67,2.43a58.83,58.83,0,0,0,8.64,1.46c1.57.14,1.51-2.24,0-2.43-6-.73-11.75-2.18-17.78-2.49-1.35-.07-1.29,1.92,0,2.06,3.07.34,13,.89,14.88,4.06.51-.52,1-1,1.54-1.54a9.42,9.42,0,0,0-3.8-1.52,1.05,1.05,0,0,0-.56,2,13.08,13.08,0,0,1,3.22,1.43c.92.54,2.21-.58,1.54-1.54-3-4.27-11.89-4.22-16.54-4.95-.1.68-.19,1.36-.28,2a71.28,71.28,0,0,1,17.46,2.81l.32-2.38a67.28,67.28,0,0,1-8-1.46c-.22.81-.45,1.62-.67,2.43a101.31,101.31,0,0,1,11.62,2.93c1.58.5,2.23-1.95.68-2.47l-2.88-1-.68,2.47a16.17,16.17,0,0,1,6.81,2.83l.3-2.3a11.92,11.92,0,0,1-6.38-.21,1.27,1.27,0,0,0-.67,2.44c.91.3,1.83.59,2.75.87.22-.82.45-1.64.68-2.47-2-.34-4-.77-6-1.2a1.09,1.09,0,1,0,0,2.13l.91-.17a.61.61,0,0,0,.27-1Z" transform="translate(-173.71 -290.04)" fill="#1e1e1e"/><path d="M218.42,308.14A99.53,99.53,0,0,1,232,309.41c3.4.56,9.49,1,12.15,3.38l.88-2.13c-4.29-.24-8.19-2.17-12.51-2.23a1.26,1.26,0,0,0-.63,2.34,27.93,27.93,0,0,0,9.93,2.76c1.18.1,1.52-1.4.89-2.15-1-1.21-1.88-2.95,0-3.32,1.28-.26,3,1.21,4,1.79,1.41.82,2.5-1.2,1.25-2.13a53.43,53.43,0,0,0-5.65-3.66,1.22,1.22,0,0,0-1.23,2.11l5.23,3.21,1.28-2.18c-4.77-2.37-9.78-3.87-15.14-3.29-.9.1-1.32,1.6-.23,1.76,4.93.72,9.54,1.55,14.09,3.71,1.45.69,2.69-1.34,1.28-2.18l-5.28-3.14L241,306.17a53.9,53.9,0,0,1,5.63,3.68l1.25-2.13c-2.39-1.4-5.09-4.37-7.51-2-2.73,2.65-1.48,5.13.5,7.45.29-.72.59-1.43.89-2.15a23.53,23.53,0,0,1-8.66-2.41c-.21.78-.43,1.56-.64,2.34,4.31.07,8.21,2,12.51,2.21,1.34.06,1.56-1.65.63-2.32-3.29-2.35-8.33-2.68-12.21-3.22a81.87,81.87,0,0,0-15-.54.54.54,0,0,0,0,1.07Z" transform="translate(-173.71 -290.04)" fill="#1e1e1e"/><path d="M223.76,304.57c6.32-.18,12.63-.75,18.93-1.28a1.2,1.2,0,0,0,0-2.4c-4.54-.33-9.07-.57-13.6-1.07v2.42a48.56,48.56,0,0,1,13.61.66,1.3,1.3,0,0,0,1-2.36,34.44,34.44,0,0,0-11.57-4.27c-.12.85-.23,1.7-.35,2.54,2.25-.24,8.7-1,10.21,1.24.4-.68.79-1.37,1.19-2.06-8.88.88-17.39,1.7-25.89,4.66a1.27,1.27,0,0,0,.34,2.49,24.91,24.91,0,0,0,6.09-.39c2.26-.41,8.13-2.64,9.88-.65a.91.91,0,0,0,1.51-.88c-.61-1.85-1.83-2.32-3.79-2.34-4.64-.05-8.95,2.08-13.69,1.73.11.83.22,1.65.34,2.48,8.11-2.73,16.59-4.87,25.21-4.36a1.37,1.37,0,0,0,1.18-2.06c-2.6-3.77-8.61-2.75-12.58-2.44-1.35.1-1.87,2.25-.34,2.54a35.07,35.07,0,0,1,11,4l1-2.36a55.23,55.23,0,0,0-14.3-.59,1.21,1.21,0,0,0,0,2.42c4.52.51,9,.85,13.6,1.05v-2.4c-6.39.6-12.8,1.15-19.15,2.11-.89.13-.67,1.59.22,1.57Z" transform="translate(-173.71 -290.04)" fill="#1e1e1e"/><path d="M226.62,305.22l-.9-.3c-.15.55-.31,1.1-.46,1.65,4.7.89,9.47,1.43,14.2,2.08,1.47.2,2.14-2,.63-2.28a86.42,86.42,0,0,0-14.43-1.47c-1.35,0-1.75,2.22-.33,2.43,6.67,1,14.18,1.75,20.23,4.9.94.48,2.41-.34,2-1.51-.7-1.84-1.89-2.37-3.58-3.34-2.84-1.63-5.66-3.46-8.78-4.47a.77.77,0,0,0-.74,1.28,29.63,29.63,0,0,0,4.76,3.37c1.42.87,5.13,2.27,5.77,3.87l2-1.5c-6.4-3.2-13.92-4-20.92-5l-.33,2.44a91.37,91.37,0,0,1,13.8,1.27c.11-.78.21-1.55.32-2.32-4.75-.53-9.52-1.16-14.29-1.44-1-.06-1.19,1.54-.23,1.68l1,.13a.77.77,0,0,0,.41-1.48Z" transform="translate(-173.71 -290.04)" fill="#1e1e1e"/><path d="M235.58,303.48a39.71,39.71,0,0,1,4.35.39c.25,0,3.38.56,3.38.62l1.56-1.19c-.41-.11-2.11-.32-2.32-.73v1.23a18.18,18.18,0,0,1,1.64-2.22h-1c.26.23.67.71.18,0l1.81-1.81c-1.35-.71-3.41-.62-3.84,1.12a.82.82,0,0,0,.77,1,6.78,6.78,0,0,1,2,.29c1.54.65,2.41-2.19.71-2.55a1.52,1.52,0,0,0-1.63.45,1,1,0,0,0-.28,1l0,.11.34-.83c-1,.78-3.24,1.43-3,3.08s2.63,1.87,3.89,2.16a1.24,1.24,0,0,0,1.51-1.51c-.46-1.55-2-1.68-3.47-1.87a43.88,43.88,0,0,0-6.68-.39.79.79,0,0,0,0,1.58Z" transform="translate(-173.71 -290.04)" fill="#1e1e1e"/><path d="M232.26,310.17c-1-2.14-3.68-2.22-5.75-2.51-3.52-.5-7.66-1.2-11.12-.22a.73.73,0,0,0,0,1.39c5.06,1.14,11.43-.65,16.07,2.13.54.33,1-.29.8-.79Z" transform="translate(-173.71 -290.04)" fill="#1e1e1e"/><path d="M196.81,298.09a4.7,4.7,0,0,0,2.42-1c1-.6.36-2.25-.79-1.88a12.93,12.93,0,0,0-7.27,6.54c-.74,1.36-3.17,5.07-.88,6.17,2.49,1.21,3.87-3.48,4.59-4.81,1.31-2.41,2.89-4.91,5.29-6.37,2.62-1.6,5.92-1.48,8.88-1.75V292.7c-1.45.19-2.67-1.48-4.18-1.41s-2.43,1.12-3.6,1.73-.15,2.35,1,1.8c2.44-1.1,7.78-1.94,5.35,1.8a.7.7,0,0,0,1.09.85c1.15-1.15,3.5-3,2.09-4.72-1.77-2.13-7.22-.29-9.33.17.26.63.53,1.27.8,1.9,1.84-.8,1.93-1.21,4.23-.41,1.42.5,1,.72,2.5.53s1.46-2.37,0-2.24c-5.72.51-10.22.87-14,5.72-.56.74-4.81,6.75-3.46,7.78-.6-.46,3-5.83,3.37-6.23a11.56,11.56,0,0,1,4.22-2.93L198,295.43a4.24,4.24,0,0,0-1.58,2.26c-.1.25.19.46.4.4Z" transform="translate(-173.71 -290.04)" fill="#1e1e1e"/><path d="M207.4,294.11c-1.89.65-12.45,3.11-11.22,6.82.31.94,1,1.07,1.91.94,2.72-.4,6-3.09,8.51-4.21,1-.43.28-2-.73-1.72a8.55,8.55,0,0,0-5.25,4.35c-.43.8.29,2,1.26,1.64a49.62,49.62,0,0,0,5.33-2.36c2.93-1.43,5.19-1.58,8.38-1.66a.47.47,0,0,0,.33-.79c-4.2-3.69-10.36,1.76-14.64,2.66l1.26,1.64a10,10,0,0,1,4.06-3.76l-.95-1.63c-1.49.85-3,1.6-4.55,2.37-.29.14-3.17,1.37-1.89,1.17,2.9-.45,6.18-2.58,8.87-3.84.91-.42.27-1.94-.68-1.62Z" transform="translate(-173.71 -290.04)" fill="#1e1e1e"/><path d="M211.57,296.25c5.39-.6,14.32-3.53,18.29,1.11l.48-1.83c-2.47.46-7.58,1.49-8.57,4.26a1,1,0,0,0,.26,1c1.42,1.64,4.64.88,6.55.89a1,1,0,0,0,0-2c-6.43-.19-13-.52-19.1,1.86a1,1,0,0,0-.44,1.66c1.45,1.43,3.92-.54,5.3-1.1,3.87-1.57,7.51-3.65,11.72-4.1,1.4-.14,1.44-2.33,0-2.21-4.05.33-8.5.39-12.35,1.81A1.23,1.23,0,0,0,214,300c4.14-.05,8.25-.15,12.37-.6,1.24-.13,1.31-2,0-2-4.12,0-8.25.13-12.37.13.11.8.22,1.61.32,2.41,3.78-1.4,8-1.43,12-2l-.59-2.13c-1.89.47-14.74,7.19-15.07,6.4l-.69,1.23c6.15-1.73,12.23-1.95,18.57-1.75v-2c-1.39,0-4.71.83-2.58-.61,1.37-.93,3.33-1.14,4.92-1.4a1.1,1.1,0,0,0,.48-1.83c-5-5.39-13.91-1.8-20-.45-.49.11-.4.95.12.89Z" transform="translate(-173.71 -290.04)" fill="#1e1e1e"/><path d="M228.87,297.92c-6.34,1.14-12.47,2.35-18.92,3a55.92,55.92,0,0,0-16,3.47c.29.69.59,1.39.88,2.09a74.46,74.46,0,0,1,12.21-7L205.93,298a29.59,29.59,0,0,1-6.52,5.7,1.05,1.05,0,0,0,0,1.79c3.2,2.05,9.25-1.5,12.15-3.07.77-.42.21-1.47-.56-1.33-2.24.39-8.61,3.85-10.54,2.61v1.79a31.12,31.12,0,0,0,6.81-6.15,1,1,0,0,0-1.15-1.49c-4.31,1.91-8.3,4.35-12.4,6.63-1.11.61-.35,2.58.88,2.09,6.29-2.48,12.94-2.93,19.61-3.64,5.1-.54,10.76-1,15.17-3.83a.66.66,0,0,0-.51-1.2Z" transform="translate(-173.71 -290.04)" fill="#1e1e1e"/><path d="M189.66,312a13.06,13.06,0,0,0,6.39,2.47,10.51,10.51,0,0,1,4.2.95c1.46.68,2.77,1.54,4.29,2.1,1,.37,1.43-1.07.68-1.6-1.75-1.23-4.79-3.41-7-3.67-1.27-.16-2.37.41-3.74.19a12.52,12.52,0,0,1-4-1.84.81.81,0,0,0-.82,1.4Z" transform="translate(-173.71 -290.04)" fill="#1e1e1e"/><path d="M205,318.41l.2.13a.61.61,0,0,0,.65,0l.23-.12a.69.69,0,0,0,.36-.62c-.33-2.75-3.55-4.83-5.74-6.08-.26.62-.52,1.25-.79,1.87a41.2,41.2,0,0,0,9.3,1.36c1.25,0,1.3-1.63.28-2a30.66,30.66,0,0,0-7.71-1.91v2.21a29.35,29.35,0,0,0,8-1.31,1.15,1.15,0,0,0,.5-1.9c-2.72-2.19-6.13-1.64-9.07-3.31l-.6,2.21c5.11-.1,10.1-.32,15-1.79a1.27,1.27,0,0,0,.75-1.85,10.32,10.32,0,0,0-3.61-3.24c-.09.73-.19,1.45-.28,2.17,3-1.12,6-.61,9.12-.56.82,0,.87-1.08.19-1.35a14.11,14.11,0,0,0-10-.38,1.21,1.21,0,0,0-.28,2.17,6.84,6.84,0,0,1,2.63,2.46c.25-.62.51-1.23.76-1.85-4.69,1.44-9.48,1.7-14.35,1.85a1.2,1.2,0,0,0-.6,2.21c2.69,1.48,6.24.95,8.67,2.87.16-.64.33-1.27.5-1.9a27.23,27.23,0,0,1-7.39,1.29,1.11,1.11,0,0,0,0,2.21,30.23,30.23,0,0,1,7.16,1.69l.27-2a39.25,39.25,0,0,1-8.75-1.27,1,1,0,0,0-.79,1.87c1.5.82,3.87,3.73,5.63,3.84-.62,0-.73.78-.3,1.08Z" transform="translate(-173.71 -290.04)" fill="#1e1e1e"/><path d="M222,306.75a35.26,35.26,0,0,0,6.47,2.95c1.3.45,2.23-1.67.95-2.24-4.23-1.9-8.38-3.57-13-4-1.47-.14-1.71,2.15-.34,2.53a65.06,65.06,0,0,0,8.74,1.77c2.45.33,5.63,1.11,8,.38a1.44,1.44,0,0,0,1-1.71c-.56-3.05-4.53-3.72-7.09-3.86v2.79c1.84,0,6-.72,7.73,0-.2-.48-.4-1-.59-1.44l-.22.62a.85.85,0,0,0,.81,1.07l.64-.07a1.3,1.3,0,0,0,.91-2.19c-1.68-1.95-7-.83-9.28-.83a1.4,1.4,0,0,0,0,2.79c1.06.06,4.12.23,4.41,1.81l1-1.71c-2.14.68-6.17-.25-8.31-.57-2.36-.35-4.69-.85-7-1.38l-.34,2.52c4.2.31,8,1.89,11.79,3.56.31-.75.63-1.5,1-2.25a32.48,32.48,0,0,1-6.13-2.28c-1.13-.55-2.1,1.06-1,1.7Z" transform="translate(-173.71 -290.04)" fill="#1e1e1e"/><path d="M179.07,346.58c.4,1.44,2,2,3.25,2.42,1,.32,2.36.5,3-.54a.63.63,0,0,0-.7-.91c-.86.23-1.62.54-2.4-.13S181,346,180.05,345.6c-.58-.24-1.13.45-1,1Z" transform="translate(-173.71 -290.04)" fill="#1e1e1e"/><path d="M242.45,350.11a3.54,3.54,0,0,0,2.38-.09c.72-.32,1.43-.94,1.23-1.81a.45.45,0,0,0-.53-.3c-1,.21-1.66,1.42-2.8,1.16-.67-.14-1,.89-.28,1Z" transform="translate(-173.71 -290.04)" fill="#1e1e1e"/></svg>