<svg id="OBJECT" xmlns="http://www.w3.org/2000/svg" viewBox="0 0 118.17 142.95"><path d="M677.92,335.21c-.76,7.62-.82,15.6-3.91,22.75-2.68,6.22-8.71,9.12-15.22,10.36-10.83,2.07-24.4-.65-30.78-10.46-4.38-6.74-5-15.06-5.23-22.87-.06-2-3.2-2-3.15,0,.23,9,1.1,18.64,6.75,26.09,6.88,9.06,19.71,12.17,30.55,10.74,7.34-1,15.45-3.81,19-10.78,3.87-7.6,4.65-17.5,3.94-25.83a1,1,0,0,0-2,0Z" transform="translate(-590.81 -266.25)" fill="#1e1e1e"/><path d="M621.32,337.46a5.17,5.17,0,0,0-5.58-3c-2.85.39-4.53,2.79-4.94,5.49-1,6.64,4.3,12.74,10.52,14.16,1.6.37,2.29-2.11.68-2.47a11.15,11.15,0,0,1-8.26-7.26c-1.43-4.38,1.24-10.05,6-6.05.62.52,1.93.05,1.54-.9Z" transform="translate(-590.81 -266.25)" fill="#1e1e1e"/><path d="M680.38,339.24c2.86-1.53,5.94-1.68,6,2.47a10.1,10.1,0,0,1-1.28,4.74c-1.5,2.79-4.13,5.93-7.3,6.68-1.52.37-.88,2.73.65,2.36,5.49-1.35,10.31-8.2,10.26-13.78-.05-6-5.17-7.41-9.39-3.87-.81.67.22,1.87,1.08,1.4Z" transform="translate(-590.81 -266.25)" fill="#1e1e1e"/><path d="M648.46,351.18c2.3,1.4,8.43,1,9.54-2.08.74-2-.64-4.67-.74-6.73-.18-3.56.07-7.18,0-10.75a1.25,1.25,0,0,0-2.5,0c0,4.25-.27,8.72.23,12.94a17.42,17.42,0,0,1,.43,2.2c-.12,2.52-1.22,2.08-2.91,2.34-1.9.29-2.86.24-4.16,1.58a.32.32,0,0,0,.06.5Z" transform="translate(-590.81 -266.25)" fill="#1e1e1e"/><path d="M638,343.6a2.59,2.59,0,1,0-2.59-2.59A2.62,2.62,0,0,0,638,343.6Z" transform="translate(-590.81 -266.25)" fill="#1e1e1e"/><path d="M664.94,343.59c3,0,3-4.64,0-4.64s-3,4.64,0,4.64Z" transform="translate(-590.81 -266.25)" fill="#1e1e1e"/><path d="M651.29,361.42a2.77,2.77,0,0,0,3-.16.56.56,0,0,0-.13-1,2.78,2.78,0,0,0-2.91.6.47.47,0,0,0,.08.57Z" transform="translate(-590.81 -266.25)" fill="#1e1e1e"/><path d="M659.14,369.19c-.75,2.54-.61,5.26-.62,7.87,0,2.32-.48,5,.77,7a.93.93,0,0,0,1.59,0c1.15-2.1.58-4.68.55-7,0-2.61.14-5.31-.53-7.87a.92.92,0,0,0-1.76,0Z" transform="translate(-590.81 -266.25)" fill="#1e1e1e"/><path d="M661,380.69c7,2.92,12.25,6.67,16.44,13.06A29.61,29.61,0,0,1,680.6,400c.67,1.89,1.67,3.76-.62,4.9-1.63.82-5.62.29-7.48.4-18.53,1.07-37.19,1.38-55.35-3l1.1,1.94c2.41-12.52,13.61-19,24.63-23.23a1.66,1.66,0,0,0,1.18-1.55c0-3.21-.06-6.42-.06-9.63a1.56,1.56,0,0,0-3.11,0c0,3.21-.06,6.42-.06,9.63L642,377.9c-12,4.63-24.2,11.84-26.82,25.5a1.62,1.62,0,0,0,1.11,2A147.33,147.33,0,0,0,650,409.19c5.63,0,11.26-.15,16.88-.44,5.25-.27,11.46.16,16.45-1.55a1.33,1.33,0,0,0,.95-.94c1-5.67-3.11-12.32-6.47-16.66-4-5.16-9.81-10.26-16.51-11.14-1.39-.18-1.35,1.78-.3,2.23Z" transform="translate(-590.81 -266.25)" fill="#1e1e1e"/><path d="M621.27,341.14c-.65-2.16-3.48-3.67-5.54-2.44a3.42,3.42,0,0,0-1.52,2.4c-.15.86-.13,2.37.6,3a.51.51,0,0,0,.79-.1c.69-1,0-2.52.86-3.43,1.24-1.28,2.82.76,3.81,1.36a.68.68,0,0,0,1-.76Z" transform="translate(-590.81 -266.25)" fill="#1e1e1e"/><path d="M680.25,342.9a9.46,9.46,0,0,1,1.35-.58,2.73,2.73,0,0,1,1.46-.17c.48.2.24.93.86,1.09a.78.78,0,0,0,.74-.2c1-1-.06-2.6-1.35-2.61a4.67,4.67,0,0,0-3.41,2.12c-.16.23.14.45.35.35Z" transform="translate(-590.81 -266.25)" fill="#1e1e1e"/><path d="M632.94,342.41c1.45-1.51,2.35-3.4,4.81-3.23a4.25,4.25,0,0,1,2.71,1.29c.66.67.87,1.42,1.76,1.85a1.17,1.17,0,0,0,1.69-.69c1-3.11-3.77-5.47-6.24-5.5-2.82,0-6.8,2.33-6.5,5.54a1.05,1.05,0,0,0,1.77.74Z" transform="translate(-590.81 -266.25)" fill="#1e1e1e"/><path d="M659.9,342.35c1.57-.36,2.07-2.35,3.66-2.93,2.13-.78,4,.69,4.85,2.54s3.38.21,2.55-1.49a6.83,6.83,0,0,0-7.3-4c-1.92.39-6.19,3.18-4.55,5.57a.72.72,0,0,0,.79.32Z" transform="translate(-590.81 -266.25)" fill="#1e1e1e"/><path d="M646,356.69c1.49,1.59,4.21,1.51,6.26,1.47a19.18,19.18,0,0,0,7.37-1.53c1.21-.54.32-2.33-.87-2.06a35.62,35.62,0,0,1-7,1.23c-1.85.06-3.9-.5-5.62.21a.41.41,0,0,0-.18.68Z" transform="translate(-590.81 -266.25)" fill="#1e1e1e"/><path d="M624.63,391c7.2,3.9,16.26,4.54,24.3,4.39,8.7-.17,18.22-1.11,26.54-3.7,1.54-.48,1.36-3.17-.39-2.95-8.17,1-16.07,3-24.33,3.36-8.79.39-16.84-1.27-25.42-2.77-1-.17-1.68,1.15-.7,1.67Z" transform="translate(-590.81 -266.25)" fill="#1e1e1e"/><path d="M622.31,335.44c-.87-16.05,15.6-19.83,28.43-18.7,6,.52,12.74,1.24,18.47,3.34,7.94,2.9,8.08,10.6,9.59,17.69.34,1.63,2.71.92,2.45-.67-1.1-6.72-1.7-14.53-8.23-18.23-6.93-3.93-17-4.57-24.79-5-7.2-.42-15.2.35-21,5-4.88,3.91-8.31,10.5-6.21,16.73.23.68,1.36.61,1.32-.18Z" transform="translate(-590.81 -266.25)" fill="#1e1e1e"/><path d="M620.77,336.29c0-9-.77-17.33,6.2-24.24,5.83-5.78,14.1-8.05,22.12-8.14,8.78-.1,17.32,1.93,23.6,8.42a27.2,27.2,0,0,1,6.61,24.95c-.39,1.72,2.25,2.46,2.64.73a29.93,29.93,0,0,0-5.25-25.23c-6.54-8.33-16.47-11.4-26.75-11.49-9.25-.09-18.86,2.48-25.39,9.36s-7.9,16.86-5.45,25.87a.85.85,0,0,0,1.67-.23Z" transform="translate(-590.81 -266.25)" fill="#1e1e1e"/><path d="M619.87,351.79c-1.83,3.81-2.74,7.94-4,12a31.55,31.55,0,0,1-6.48,11.65c-1.32,1.63-2.16,2-1.34,4s4.18,4.37,6,5.62c5.39,3.63,6.31.24,7-5.29,1.09-8.79-1-17.63.46-26.42.25-1.55-2.1-2.22-2.37-.66-1,5.7-.68,11.33-.45,17.08a58.83,58.83,0,0,1-.21,9.48c-.14,1.11-.07,4-1.77,4.24-.9.1-3.94-2.83-4.44-3.52-1.75-2.41-.48-3,1.17-5.17a25.07,25.07,0,0,0,3.22-5.44,54.79,54.79,0,0,0,4-17.3.47.47,0,0,0-.87-.23Z" transform="translate(-590.81 -266.25)" fill="#1e1e1e"/><path d="M621.36,353.27c0,9.11,3.67,19.69,8.49,27.34l.85-2.07c-3.14.58-6,1.17-8.87-.59-1.73-1.07-3.3,1.65-1.59,2.71,3.56,2.21,7.32,1.71,11.21.6a1.43,1.43,0,0,0,.84-2.07c-4.76-7.3-8-17.27-9.12-25.92-.15-1.12-1.81-1.21-1.81,0Z" transform="translate(-590.81 -266.25)" fill="#1e1e1e"/><path d="M610.69,342.52a11,11,0,0,1-7.1,1.43,7.05,7.05,0,0,1-3.39-1.05c-3.08-1.48-3-3.89.24-7.21a1.31,1.31,0,0,0,.31-2.37,17.61,17.61,0,0,1-4.24-2.36c-1.46-1.22-7.26-8.32.57-8.34a1.32,1.32,0,0,0,.66-2.44,8.36,8.36,0,0,1-3.77-4.82q-.68-6.42,5.59-6.13a1.35,1.35,0,0,0,1.5-2c-1.51-2.9-3.93-7.1-1.88-10.38,1.66-2.66,4.52-2.12,7-2.48a1.32,1.32,0,0,0,.93-1.63c-1.92-6.08,4.38-11.79,10-7.32a1.49,1.49,0,0,0,2.51-1c.25-4.26,9.42-12.3,13.35-6.34a1.58,1.58,0,0,0,2.84-.37c2.75-8.45,13.35-10.44,18.71-3.14a1.63,1.63,0,0,0,2.77,0c4.75-8.09,16-6,17.77,3.16a1.7,1.7,0,0,0,2.49,1c2.87-2,7-2.93,10.11-.77a7.29,7.29,0,0,1,1.15,10.72c-.78.9-.62,2.67.77,2.92,5.53,1,7.28,6.95,2.86,10.63a1.74,1.74,0,0,0,.76,2.89c3.48.78,13.53,5.42,6.86,10.45-1,.79-1.22,2.88.41,3.17,6.84,1.21,6.58,10.41-.39,10.79-1.64.09-2.56,2.46-.89,3.31,2.14,1.09,3.05,2.23,3.18,4.67s-2,5-5,3.28c-1.5-.87-3.64,1-2.52,2.52-1,2.45-2.58,3.11-4.78,2-.81-2.14-4.29-1.22-3.47,1,2.49,6.66,16.3,2.05,11.43-4.8L695.5,344a7.26,7.26,0,0,0,10.16-2.85c2.27-4.46-.68-9.27-4.7-11.35l-.9,3.31c10.93-.63,12.34-15.72,1.31-17.68l.42,3.16a8,8,0,0,0,2.73-9.7c-1.73-4.27-6.25-6.13-10.42-7.07l.76,2.89a9.24,9.24,0,0,0-4.37-16.45c.26,1,.51,1.95.77,2.92,9-10.42-4.87-22.83-15.44-15.34l2.48,1A12.75,12.75,0,0,0,654.5,273h2.77c-7-9.4-20.83-7.38-24.47,3.93l2.84-.37c-5.49-8.24-18.82-.39-19,7.91l2.21-1.26a9.14,9.14,0,0,0-14.36,10.32l.92-1.63c-4.11.67-7.3.27-9,4.86-1.56,4.12.49,8.27,2.38,11.9l1.5-1.95a7.36,7.36,0,0,0-8.72,4.62c-1.65,4.52,1.32,8.7,4.87,11.15l.66-2.44a6,6,0,0,0-6.26,6.42c.22,4.95,4.9,7.61,8.93,9.27v-2.5c-5.4,1.1-6.57,6.83-2.64,10.46,4.17,3.86,10.31,3.52,14.58.17.75-.6-.21-1.74-1-1.3Z" transform="translate(-590.81 -266.25)" fill="#1e1e1e"/><path d="M606,341.73c-.13-3.09-2.66-6.93-6-4.31-2.94,2.26-1.08,6.66,2.18,7.38,2.39.54,7.6-1.73,5.52-4.86a3.56,3.56,0,0,0-1.07-.86c-3.09-2.11-2.88.39-3.77-3-.6-2.27-.35-3.15,1.28-4.82s2.49-1.95,4.88-1c2.59.54,2.74,1,.43,1.32q-1.68,1.41-1.77,0a6.36,6.36,0,0,1-.48-2.47,1.62,1.62,0,0,1,.61-2q1.46-3.48,3.58,2.16c.18.42.35.84.52,1.26l3,.15c.2.69,1.39.8,1.51,0,.67-4.43-5.71-4.72-6.66-.74a1.14,1.14,0,0,0,.51,1.26c2.42,1.36,3.72-2,3.24-4a4.94,4.94,0,0,0-6.62-3.15c-4.5,2.21-1.41,14.38,4.12,12.28,2.56-1,3.17-4.13,1.89-6.32-1.61-2.77-5-3.36-7.78-2.1-3.06,1.38-5.44,5.09-4.69,8.51a5.76,5.76,0,0,0,2.55,3.63c1.07.65.9.16,2,.67.56.12.4-.1-.49-.65.3.6.58,1.21.87,1.82a.38.38,0,0,0,.7-.19Z" transform="translate(-590.81 -266.25)" fill="#1e1e1e"/><path d="M618.09,333.55c-.54-5-4.74-17.95-12-12.89a9.36,9.36,0,0,0-3.26,4.22,7.41,7.41,0,0,0-.64,2.62c.06,2.27.54,1-.15.61a13.14,13.14,0,0,1-3.55-4.63q-1.89-2.18,3.09.18a4.45,4.45,0,0,1,.88,2.63c.24,1.66-.16,2.83,1.25,3.94.71.57,1.9-.14,1.35-1-.72-1.17-.17-3.09-.51-4.43a8,8,0,0,0-1.81-3.36c-1.45-1.62-4.25-3.18-6.31-1.69s-1.06,3.35,0,5c1.52,2.22,3.58,6.36,6.48,6.68a1.19,1.19,0,0,0,1-.6c.58-.82.39-.94.58-1.9.54-2.83,1.81-9.43,7.09-5.26,2.83,2.22,3.62,7,4.3,10.25.25,1.18,2.28.94,2.15-.29Z" transform="translate(-590.81 -266.25)" fill="#1e1e1e"/><path d="M606.33,337.77a1.58,1.58,0,0,0,.39,2.17c1,.79,2.51.3,3.4-.44,2.4-2,2.17-5.94,1.79-8.68-.19-1.37-2.25-.95-2.32.31-.1,1.89.92,4.27,3,4.7s3.6-2.21,4-3.94a.51.51,0,0,0-.85-.49c-.45.49-1.54,1.82-2.19,2-1.24.33-1.61-1.41-1.57-2.27l-2.32.31a12.92,12.92,0,0,1,.08,4.07,5.23,5.23,0,0,1-.41,1.45c-.13.28-1.61,1.65-1.58,1.19a.75.75,0,0,0-1.39-.38Z" transform="translate(-590.81 -266.25)" fill="#1e1e1e"/><path d="M616.66,331.3c.3,2.11,1,2.9,2.69,4.08.79.54,1.55-.35,1.43-1.1q-1-7.09-2.23-14.17l-.75,1.32,1.69-.32a1.08,1.08,0,0,0,.47-1.79c-2.84-3.16-9.46-6.06-11.25-.06-1,3.42,2.72,7,5.95,4.75,3.92-2.67,1.1-9.22-2-11.25a6.58,6.58,0,0,0-10.25,5.14l2.05-.56c-1.12-1.6-3.68-5.2-6-4.75-2.72.53-2.69,4.67-2.49,6.63a1.07,1.07,0,0,0,2.14,0c.17-1.25.13-4.11.92-5.1,1.11-1.39,3-.31,4.45.82,2.2,1.77,3.65,4.76,4.8,7.28a1.12,1.12,0,0,0,1.74.22c2.35-2.23,3-4.91,3.41-8,.51-3.63,2.13-9.63.16-13.08-3.38-5.89-8.62,3.51-9.9,6.11l2,.54c0-1.92-.25-4.7,1.12-6.19q.2-2.43,2-.84a2.88,2.88,0,0,1,2.45,2.76l-5.66,1.15c-.38-.84-.76-1.68-1.13-2.52a12.08,12.08,0,0,1-.05-6.92,1.12,1.12,0,0,0-1.62-1.25,4.47,4.47,0,0,0-2.25,5.76c1.17,3.34,5.92,5.08,9.08,5.57,7.66,1.17,10-6.12,5.28-11.29-.59-.65-1.64.19-1.2.93a13.3,13.3,0,0,1,1.67,3.63q-1.3,5.7-5.28,4.4a9.51,9.51,0,0,1-3.1-.79q-4.71-.89-3.08-6.3l-1.63-1.25c-1.12,4.65-.44,10.51,3.55,13.74,2.75,2.22,6.46,1.7,7.6-1.92.9-2.86-1.29-9.37-5-9.33-4.26.05-4.91,7.78-4.88,10.66a1.09,1.09,0,0,0,2,.55c.67-1.34,2.08-5,3.52-5.66,4.31-2.05,3.06,2.91,2.91,5-.31,4.26-.13,10-3.54,13.06l1.73.22c-1.46-3.37-5.62-10.9-10.13-10.86-3.87,0-3.75,6.36-4.09,9h2.14c-.61-1.35-.13-2.05,1.44-2.09q2.22-1.81,3.05,1.32a1.11,1.11,0,0,0,2-.55q7.3-6.64,9.42.35a5.75,5.75,0,0,1,4.41,2.58c.16-.59.31-1.19.47-1.79l-1.69.31a1.11,1.11,0,0,0-.76,1.33q1.17,7.06,2.44,14.12l1.43-1.1a12.1,12.1,0,0,1-3.18-2.69c-.22-.24-.53,0-.5.29Z" transform="translate(-590.81 -266.25)" fill="#1e1e1e"/><path d="M603.23,295.24a4.74,4.74,0,0,0-6,4.21c-.46,4,3.21,7.6,6.84,8.42a6.24,6.24,0,0,0,7.68-4.07c1.62-4.78-1.76-8.92-4.77-12.24l-.47,1.79a6.56,6.56,0,0,1,4.37-.14q6.2,3.1-1.32.21c-1.18-1.89-.24-6.83,2.18-7.34,1.06-.23,4.82,1.31,5.43,1.63a6.73,6.73,0,0,1,3.7,3.93q1.18,2.94-.22,1.54l-1.41-1.84c-4.34,5.3-9.6,14.65-2.25,20.06,1.84,1.35,5,2.22,6.92.42,2.58-2.49.57-7.26-.94-9.69a1.21,1.21,0,0,0-2.07,0,8.51,8.51,0,0,0,1.28,11l1.73-1.73c-4-3.08-5.16,2.46-6.62,4.95l2.44.66c.22-2.17-.44-3.66-1.07-5.68-.8-2.56-1.31-2.76,1.92-3.88,1.47-.51,3-.81,4.48-1.27a.83.83,0,0,0-.22-1.62c-2.55-.27-7.67.23-9.32,2.61-2,2.86,1.9,6.74,1.59,9.84-.13,1.33,1.84,1.73,2.44.66.37-.65,2-5,2.88-4.35,1.12.85,2.44-1,1.48-1.92a6.2,6.2,0,0,1-.94-8H620.9c1.4,2.31,1.84,10.23-3.15,5.41-1.83-1.77-2.24-4.72-1.76-7.07.68-3.36,3-6.27,5.08-8.92.88-1.15-.89-2.15-1.83-1.42-6.44,5,.62,11.22,3.73,5,1.47-2.93.26-6.67-2-8.84-2-2-8.24-4.93-11-3.74-3.13,1.34-3.32,7.61-2.51,10.2.92,3,4.14,6.56,7.63,5.5,2.81-.84,2.55-3.27,1-5.25-2.39-3.18-6.59-4-10.23-3a1.08,1.08,0,0,0-.47,1.79c1.79,2,4.24,4.41,4.32,7.29q1.15,4.41-5.79,5.19-6.74-2.26-.9-9.36c.5-.05.71-.82.13-.95Z" transform="translate(-590.81 -266.25)" fill="#1e1e1e"/><path d="M624.83,306a20.16,20.16,0,0,1,7.68-3.42c-.31-.72-.61-1.45-.92-2.18A8.37,8.37,0,0,0,627,306a1.21,1.21,0,0,0,1.47,1.47c6.14-2.19,12.76-11.43,6.42-17.15-4.7-4.25-14.75,3.31-10.09,6.91,4.24,3.28,10-8.83,3.19-11.22-2.83-1-5.22,1.28-6.21,3.73-1.53,3.85,0,8,2.74,10.77a1.33,1.33,0,0,0,2-.26c3.08-4.45-6.67-9.79-9.9-4.8a5.43,5.43,0,0,0,1.55,7.32c3,2.26,6.57,1.38,9.55-.31a1.27,1.27,0,0,0-.3-2.3c-2.43-.86-15.39-5-12.59-9.8-1.78,3,7.5-1.89,8-2.16,1.75-1,4.4-1.74,5.89-3.11,2.84-2.64-.42-5.6-3.3-6.6v2c1.92-.54,3.84-1.05,5.76-1.56l-.84-1.43c-1,.93-4.71,4.62-4.91,2.07-.17-2.13,2.51-2.2,4.18-2.13A7.3,7.3,0,0,1,636.7,285c-.11.7-.22,1.4-.34,2.09q.85-5.34,4-1.9,3.38.61,1.63,3.12l-1.26-.86c-1.79-.31-3.27-2.27-5.24-2.35-6.31-.26-1.67,8.52.71,10.51,4.62,3.85,12.37,2.79,14.5-3.32,2.51-7.24-6.54-5.83-8.64-.86-.26.63.54,1.48,1.06.82a7.36,7.36,0,0,1,2.45-2.29c3.61.17,4,1.45,1.35,3.81-3,2.89-7.41,2.07-10.07-.68-1.8-1.85-4-6.13.79-4.92,1.57.39,2.62,2,4.05,2.64,3.5,1.47,4.84-1.1,3.46-4.17-1.74-3.88-6.93-6.55-10.7-3.6a5.13,5.13,0,0,0,.67,8.53,1.2,1.2,0,0,0,1.43-.19c5.49-7,.48-17.93-9-15.77-2,.46-7.26,2.91-5.9,5.91,1.74,3.82,8.32-1.36,9.91-2.84.66-.61,0-1.6-.83-1.43-2,.42-3.89.84-5.84,1.23a1,1,0,0,0-.25,1.87c4.28,2-.33,4.32-2.28,5.37a15,15,0,0,0-4,2.63c-1.41,1.53-2.24,4-1,5.93,2.64,4,8.11-.29,6.38-4.24-2-4.59-11.08-4.1-12.48.69-1.84,6.31,11.49,10.43,15.55,11.85-.1-.77-.21-1.54-.31-2.31-2.18,2-3.32,1.55-3.4-1.48q-2.4-5.42,1.24.14l2-.26c-1-1.06-3.38-4.29-2.54-6.05,3.61,1.82,4.91,2,3.92.58q-1.15-1.5,2.38-1.84l4.75,4.89a9,9,0,0,1-1.38,4.56,10.5,10.5,0,0,1-5.64,4.35l1.46,1.47a5.4,5.4,0,0,1,3.49-4.18c1.24-.63.35-2.49-.93-2.18a19.43,19.43,0,0,0-8.21,4.2c-.83.7.28,2.17,1.17,1.52Z" transform="translate(-590.81 -266.25)" fill="#1e1e1e"/><path d="M641.53,298a5,5,0,0,0-1.83,4.1,1.19,1.19,0,0,0,1.48,1.13c2.2-.46,2.17-1.84,3.82-2.93,3.7-2.44,9.91-2.7,13.82-1.36l-.28-2.1a6.51,6.51,0,0,1-8.1-.5l-.52,2A13.88,13.88,0,0,1,666,302.57l.93-2.23a8.38,8.38,0,0,1-2.45,0c-2,.18-1.73-.63.85-2.42.88-.21,3.83,1.11,4.64,1.42,2.11.83,8.81,3.61,9.56,5.85q1.66,1.14-1.05,2.9l1.53.35c1.42,1,3.93,1.32,5.54,2.19,1.14.61,4.62,2.41,4.83,3.47.42,2.19-4.88,1.8-5.94,1.71a1.39,1.39,0,0,0-1,2.35c.67.54,6,4.16,6,4.81-.3,2.34-2.6,1.28-3.81,1.57s-2.48.93-2.54,2.42c0,.7.39,1,.54,1.58a2.13,2.13,0,0,1,.84,2.65,2.59,2.59,0,0,0-.26.77c0,1.51-.16,2.38,1.36,3.17s3-1.55,1.4-2.4c1.44.77.37-4.39.32-4.66a2.83,2.83,0,0,0-1-.9,6.33,6.33,0,0,0,2.45.09,4.57,4.57,0,0,0,2.69-.85c4.88-3.74-3.66-8.33-6-10.2l-1,2.35c2.59.21,10.55-.08,9-4.69-1.41-4.09-9-6.9-12.74-7.83-2.63-.64-7.69-1.3-6.38,3.23a4.85,4.85,0,0,0,6.79,2.67c10.26-5.58-9.51-15.07-13.48-16.17-2.93-.82-8.53-2-8.63,2.64-.09,4.31,4.85,4.81,8,4.51a1.32,1.32,0,0,0,.92-2.23,16.39,16.39,0,0,0-18.6-4.67,1.19,1.19,0,0,0-.52,2,8.71,8.71,0,0,0,10.94.81,1.16,1.16,0,0,0-.28-2.1,18,18,0,0,0-11,0,22.12,22.12,0,0,0-5.7,2c-.81.51-1.22,2-2.14,2.21l1.48,1.13,1.17-2.42c1.13-1-.56-2.72-1.68-1.68Z" transform="translate(-590.81 -266.25)" fill="#1e1e1e"/><path d="M687.28,335.12c.63.94,1.26,1.87,1.9,2.8l.84,1.25.42.62c.23.53.41.41.55-.34l1.73.45a8,8,0,0,1-1.62-4.41c0-.52-.11-2.23.39-2.6.84-.63,1.86.5,2.38,1,1,.87,2.63,2.08,3,3.39.58,2.08-1.18,1.65-2.42,1.42a1,1,0,0,0-1.22.93c.07,2.88,4,2.64,5.47,1,2.42-2.75.09-5.8-2-7.79-1.84-1.76-5.56-4.61-7.52-1.25-1.69,2.91-.51,7.14,1.36,9.64a1.31,1.31,0,0,0,1.72.45,1.79,1.79,0,0,0,.71-2.47c-.74-1.85-2.45-3.63-3.58-5.27-.89-1.28-3-.08-2.11,1.23Z" transform="translate(-590.81 -266.25)" fill="#1e1e1e"/><path d="M693.37,345c-1.55.44,1.11-4.35,1.2-4.52l-2.4-.65c0,.9-.2,2.88,1.92,2.22.38-.12,1.81-3.15,2-3.52s1.53-2.89,1.15-2.72a40.57,40.57,0,0,1,.86,4.83l2.12-1.21c.88.43,1.91-5,1.8-5.73-.3-2.09-2-3.05-3.77-3.82-2.58-1.12-5.11-1.07-7.77-1.69-1.48-.35-3.25-2.48-4.88-2s-1.71,3.16-2.47,4.4c-.91,1.51-1.95,2.32-1.16,4.23a4,4,0,0,0,3.52,2.76,4.28,4.28,0,0,0,1-.14c1.32-.18,1.51-.64,2.06.3.68,1.16.31,4.46.44,5.8.16,1.59,2.61,1.65,2.53,0-.1-2.28.68-8.53-2.5-9.31-1.3-.31-4.45,1.89-4.3-1.17a13.37,13.37,0,0,0,1.19-1.56,7.33,7.33,0,0,0,.46-1.9c.2-1.12-1.08-.63.36.08a14.83,14.83,0,0,0,2,.94c2.36.76,4.9.61,7.28,1.42,6.65,2.25-1.64,7.65,2.73,9.78a1.42,1.42,0,0,0,2.11-1.22c-.1-2.61-.43-5.83-2.25-7.86a1.4,1.4,0,0,0-1.36-.36c-2.12.59-3,3.56-4,5.29-.87,1.53-3.43,4.41-2.61,6.34a2.2,2.2,0,0,0,2.85,1c2.25-.93,1.21-3.47,1.12-5.24,0-1.19-1.79-1.87-2.4-.66-.77,1.56-3.61,5.24-2.47,7.2.93,1.58,2.92,1,4.21.32a.93.93,0,0,0-.71-1.69Z" transform="translate(-590.81 -266.25)" fill="#1e1e1e"/><path d="M688.48,329.59a15.49,15.49,0,0,1-4-6.39,14.07,14.07,0,0,1-.78-3.64q5.49-3.63,6.66.41c.58.91,2.28,6.1,1.43,6.55q-6.53-1.72,1-3.59,2.67,3.6,6.75,1.05l2.28,1.33,1.79-3.37L701.4,321q.84,2.3-1.86,2.91-2.38,3.12-3.67-.85a23.43,23.43,0,0,1-2.13-4,11.38,11.38,0,0,1-.79-2c-.93-2.07.49-3.31,4.25-3.74,2.15,1.85,0,5.44-1.38,7l2,.26a7.76,7.76,0,0,1-1.54-4.72c-.53-2.29.66-3.87,3.55-4.73a1.32,1.32,0,0,0,1.6-2.07,9.55,9.55,0,0,0-6.91-3,1.35,1.35,0,0,0-1.29,1.69c-.08-.25,1.24,3.3,1.23,3,.18,7.2-3,4.56-5.42,3.15-1.31-.77-2.88-2.19-4.52-2.07-3.59.27-2.57,5-2.53,7.51l2.55-.69c-1.38-2-2.76-4-4.15-6.06a1.31,1.31,0,0,0-2.22,0c-1.82,2.57-.5,4.56,1,6.88,1.81,2.81,1.84,5.28,2.35,8.43a6.82,6.82,0,0,0,1.92,4,1.28,1.28,0,0,0,2.12-.56,45.26,45.26,0,0,0,.66-14c-.17-1.46-2.5-1.48-2.32,0a33.23,33.23,0,0,1-.79,13.35l2.13-.56c-2.32-2.5-.65-6.25-1.87-9.12-.84-2-4.77-4.7-3-7.12H678.2c1.34,2.05,2.67,4.11,4,6.15a1.38,1.38,0,0,0,2.56-.69c0-1.5-.79-4.21.77-4.44.79-.11,2.47,1.6,3.25,2,1.8,1,3.74,1.74,5.82,1.23,5.89-1.47,2.47-7.53,1.24-11.1l-1.29,1.7a6.11,6.11,0,0,1,5,2.2l1.6-2.07c-7.79-4.54-8.54,8.86-5.57,13a1.32,1.32,0,0,0,2,.26c2.6-2.79,5.14-8.75.88-11.07-3.25-1.78-8.21-1.54-8.76,3-.54,4.33,4,13.48,8.3,14.85,4.9,1.57,6.1-4.39,5.93-7.84,0-1-1.44-1.84-2.22-.92a12.8,12.8,0,0,0-2.58,4.48c-.55,1.58,1.63,2.18,2.49,1.05,4.55-6-9.25-9.37-10.08-.29-.75,8.17,11.91,4.79,5.8-1.52-2-2.09-6.65-5.74-9.47-2.85-2.08,2.14-1.57,8,.84,9.7s4.27-.28,4.75-2.59c.82-3.92-.5-10.1-3.82-12.64-2.77-2.12-6.81-1.54-8,1.92-1.65,4.64,1.93,10.78,5.12,13.91,1.09,1.07,2.77-.61,1.68-1.68Z" transform="translate(-590.81 -266.25)" fill="#1e1e1e"/><path d="M680,309.5a29.24,29.24,0,0,1-3.31-5.9c-.27-.65-1.2-2.36-1.08-3.13-.47-.85-.06-1.28,1.22-1.29.92-.89,1.71-.84,2.39.16a9.76,9.76,0,0,1,2.62,2.66l-2.06,1.85-1.86-4.34,1.45-2.62c2.24-2.49,7.4-2.8,10.4-1.74,1.67.6,1.54.43,2,2.25a8.63,8.63,0,0,1,.3,5,7.15,7.15,0,0,1-2.58,4c-1.74,1.33-1.4.76-2-.65-.12-.94-.24-1.88-.37-2.82l2.31,1.74h-2.95l.91-.87c2.84,1.11,7.14,6.68,2.65,9-1,.49-.29,2.17.76,1.78,7.24-2.68,2.28-11.54-3-13.38-6.17-2.13-4,8,.81,9,6.81,1.35,3.83-9.6-1.06-10.3-2.94-.42-3,2.54-2.84,4.68s.43,6.3,3.64,5.81c2.59-.4,5.4-4.25,6.22-6.47,1.32-3.59-.32-9.6-2.61-12.5-3.65-4.62-7.83,5.78-2.25,7.63a2.63,2.63,0,0,0,3.33-2.59c.08-2.92-3.41-3.78-5.65-4.07-6-.77-16.14,4.95-10.59,11.95,1.54,1.95,6,3.75,7.9,1.12s-2.19-6.69-4.06-8.13-6.47-3.85-7.8-.29c-1.49,4,3,10.75,5.18,13.67.88,1.19,2.9.05,2-1.18Z" transform="translate(-590.81 -266.25)" fill="#1e1e1e"/><path d="M674.66,305.58a17.14,17.14,0,0,0-4.54-1,1.09,1.09,0,0,0-.94.54c-1.42,2.93,1.93,5.61,4.21,7a1.13,1.13,0,0,0,1.54-1.54c-5.07-8-11.5-20.6-22.89-19.37-1.82.2-5.29,1.3-4.24,3.87.32.81,1.14,1,1.81,1.43,1.54.89,3.51,1.28,5.12,2a5.94,5.94,0,0,1,3.19,1.9,2,2,0,0,1,1.59,2.39c3.91,5.56,13.28.54,14.73-5.17a9.28,9.28,0,0,0-3.11-9.28,9.57,9.57,0,0,0-4.25-2c-3.23-.67-11.84,1.94-12.07-3.89l-1.35.77,9.49,4.7c1.94.95,5.87,2.17,3.62,5.88-.45,1.64-1.51,1.95-3.2.91q-3.25.54-3.35-2.81c-1.3-3.93-1.87-8.6.35-12.34.59-1,4.66-3.72,4.54-3.36,1.11.31.76-.27-1-1.72q-1.5-3,0,1.5l1.83-.49,3.72-3.1a5.41,5.41,0,0,1,3.25,2.11,7.46,7.46,0,0,1,2.52,5.45c0,4-3.25,7-6.88,8l1.54.63a13.24,13.24,0,0,1-1.79-5.37c-.1-1.08-.36-7,.57-2.07,1,5.28-5.51,6.13-9.36,5-4.44-1.34-7.36-5.47-11.77-6.74-5.57-1.61-10.73,3.12-8.87,8.87.85,2.61,8.28,9.49,9.71,4.2,1.08-4-5.07-6.94-4-10.83.66-2.52,1.63-1.81,4.06-1.33a15.39,15.39,0,0,1,2.37.64l-2.63,3.52c-1.41.36-4-2.91-4.26-3.88-.8-3.11,1.88-5.9,4.64-6.37-.33-.77-.66-1.55-1-2.32-1.75,1.06-5.63-1.74-3-.23a15.76,15.76,0,0,1,3.9,2.8l.81-1.94c-5.48-.17-11.68,2-13,8-.69,3.05.81,9.72,5.19,8.52,1.71-.47,2.35-2.1,2.64-3.7s-.15-3.28-.23-4.9a12.4,12.4,0,0,1,0-3.7q3.95-5.66,7.81-1.45a14.24,14.24,0,0,1,3.38,7.15q1.8,3.66-2.28,3.92,4.54.84,2,4.59c-3.28,6.51-11.15,3.83-15.14-.15-1.18-1.18-3,.62-1.83,1.83,3.51,3.69,8.85,6.24,14,4.3,4-1.53,7-6.1,6.14-10.47-.53-2.59-3.48-6.16-6.39-4.32-2.56,1.62-1.37,6.85,1.08,8.11,3.41,1.75,5.21-2.25,5.3-5,.15-4.72-2.34-11.22-6.79-13.43-3.51-1.74-7.67-.65-9.17,3.12-1.14,2.88.48,5.81-.21,8.55q-2.58,6.15-3.35-1.29a7,7,0,0,1,3.49-5.78,12.54,12.54,0,0,1,7.38-1.58,1.15,1.15,0,0,0,.8-1.95c-2.09-2.16-9.7-7.23-10.82-1.48-1.15,5.93,6.79,4.31,9.58,2.71,1.35-.77.36-2.51-1-2.32-8.6,1.23-8.47,13-.38,15.18,3,.79,7.46-.14,8.16-3.69.77-3.93-4.55-5-7.36-5.52s-7.53-1-7.91,2.82c-.26,2.67,2.36,4.65,3.37,6.87.52,1.15,1.1,1,.56,2.42-.7,1.76-2.16-.22-2.76-1.46-1.48-3.05-.09-4,2.46-5.14,3.12-1.44,3.25-1.38,5.85.27,4.4,2.8,8.32,6.34,13.92,5.82,4.08-.38,8.09-3.48,8.55-7.76.27-2.54-1.94-7.55-5.25-5.33-3.87,2.6-1.14,10.75.49,13.73a1.39,1.39,0,0,0,1.54.62c7.74-2.22,11.93-11.81,5.44-17.88-2.33-2.19-6.42-3.75-9.47-2a3.83,3.83,0,0,0-.86,6.39,1.1,1.1,0,0,0,1.83-.48c.72-3.1-.21-7.81-4.23-7.35a1.19,1.19,0,0,0-1.07.81c-2.2,5.77,9.28,13.15,9.68,7.48.19-2.62-3.09-3.84-5.15-3.74-3.81.19-6.55,3.47-7.75,6.82-1.43,4-.15,21.34,7.68,18.05,2.82-1.19,5.18-6.15,3.76-9-.8-1.59-2.64-2.36-4.12-3.08-3.44-1.69-6.94-3.26-10.41-4.89a.91.91,0,0,0-1.35.78c.25,4.15,3.76,5.8,7.57,6,5.07.25,11.36-.15,11.39,7a7,7,0,0,1-5.63,7l-3,.31c-1.41-.26-2-1-1.73-2.24a6.48,6.48,0,0,0-2.64-2.6,44.36,44.36,0,0,0-4.52-1.81l-2.56-1c1.06-1.94,2.6-2.33,4.61-1.19,8,2.32,12.26,11.34,16.48,17.82l1.54-1.54c-1.47-.86-3.94-3.48-.44-2.5a1.06,1.06,0,0,0,.57-2.05Z" transform="translate(-590.81 -266.25)" fill="#1e1e1e"/><path d="M634.82,287.52c-.13,2.11-.22,4.46.91,6.36a7,7,0,0,0,1.5,1.67,17.16,17.16,0,0,1,2.06,1.44c.92.4,1.09,1.15.52,2.27a1.94,1.94,0,0,1-.7,2.45c-.85.85.27,2.45,1.32,1.72a5.19,5.19,0,0,0,1.44-1.36.66.66,0,0,0-.56-1,3.81,3.81,0,0,0-1.72.34c.35.61.71,1.22,1.07,1.83,1.85-1.8,3.21-4.06,1.55-6.5-.82-1.2-2.09-1.68-3.19-2.55-2.23-1.77-2.25-4.06-2.11-6.69.07-1.35-2-1.34-2.09,0Z" transform="translate(-590.81 -266.25)" fill="#1e1e1e"/><path d="M639.92,296.73c-3.8-1.1-8.57-1.38-9.45,3.44l1.51-.62-3.45-2.24.21,1.62c1.79-1.57,3.68-3.26,4.45-5.59,1-3-2.5-9.81,1.68-11.2a.91.91,0,0,0,.22-1.64c-4.46-2.42-7.29,2.84-5.63,6.68,3.07,7.12,12.07,10.94,19.23,11.7,1.25.13,1.37-1.54.58-2.13l-.47-.34a1.13,1.13,0,0,0-1.15,0,2,2,0,0,0-1.34,1.73,1.16,1.16,0,0,0,.29,1.11c2.1,1.91,5.12,1.56,7.83,1.82,4.3.41,10.06,2,14.3,1,6.13-1.4,4.89-11.14,3.84-15.58L671,287.76a28.62,28.62,0,0,1,6.83,7.39c.32-.57.65-1.13,1-1.69-1.77,0-6.28-1.07-6.59-3.44.36-1.32.73-2.65,1.1-4q4.53-1.43,7.73,3l1.48-1.47c-1.6-.61-5.63-3.2-5.34-5.45s8-3.89,7.6-.53l1.55-1.18q-5.52-4.69-2.12-2.06c1.08.81,2.14,1.63,3.19,2.47,1.93,2.71,1.61,5.05-.19,7.67q-1.53,4.06-4.87,2c-2.18.13-3.3-.9-3.36-3.11q7.08,1.8,3.65,7.15A20.07,20.07,0,0,1,680,298l1.82,1.4,6.67,1.35a1.19,1.19,0,0,0,2.28,0,7.18,7.18,0,0,0-2.19-7,1.19,1.19,0,0,0-2,.83c0,2,.54,5.8,3,6.41s3.62-2.65,4.49-4.28l-2.16-.28a10.72,10.72,0,0,1-1.34,8.21,1.14,1.14,0,0,0,2,1.15,12.65,12.65,0,0,0,1.66-10,1.19,1.19,0,0,0-2.16-.28c-1,1.84-3.27,7.27-3-.94l-2,.84q.78,2.37,1.58,4.74h2.28c-1.51-5.64-7.6-6.42-11-1.89-.79,1.08.91,2.31,1.82,1.4,3.84-3.83,7.21-11.94.67-15.23-6.39-3.23-7,4.38-3.63,8.06,4.7,5.2,10.39-1.33,12.12-5.73,1.22-3.11.73-5.26-1.71-7.57-2-1.84-5.11-5-7.87-3.91a1.2,1.2,0,0,0-.85,1.11c-.18,3.3,2.44,5.45,5.29,6.44a1.22,1.22,0,0,0,1.5-.85c.86-5.31-9.06-6.17-11.82-3.15-3.6,3.94,3.28,9.82,6.52,11.12.89.36,1.68-.67,1.48-1.47-1.25-5-9.84-7.5-13.45-3.3-4.34,5.07,4.8,10.47,8.89,10.54a1.12,1.12,0,0,0,1-1.68,32,32,0,0,0-7.65-8.14c-.82-.61-1.8.39-1.61,1.23.65,2.77,1.47,7.22.12,10-1.92,3.91-4.89,2.71-8.09,2.42l-7.17-.64c-.93-.08-6.89.09-7.21-.14.2-.71.39-1.42.58-2.13a24.75,24.75,0,0,1-10-3.07,23.15,23.15,0,0,1-3.65-2.58,17.75,17.75,0,0,1-1.72-1.64q-3-2.66.81-7.25l.22-1.64c-2.2.61-4,1.86-4.29,4.32-.2,1.55.5,2.09.65,3.52.42,3.92-.53,6.68-3.48,9.22a1,1,0,0,0,.21,1.62l3.45,2.24a1,1,0,0,0,1.51-.62q2.76-4.33,7-2.35a.85.85,0,0,0,.45-1.63Z" transform="translate(-590.81 -266.25)" fill="#1e1e1e"/><path d="M634.49,303.93a10.36,10.36,0,0,1,7.4-3.58V298a8.23,8.23,0,0,0-5.45,2.62,1.08,1.08,0,0,0,1,1.78,61.93,61.93,0,0,1,21.17-.09,51.11,51.11,0,0,1,8.08,1.6c2.31.78,3.87,2.57,6.13,3.37a.75.75,0,0,0,.91-.91c-1.21-4.34.58-2.59,2.06.39,1,1.93.74,4.6,1.94,6.33,1.81,2.62,7,2.13,9.81,2.5.93.12,1.37-1.06,1-1.74a7.4,7.4,0,0,1-1.08-5.56l-2,.55,2.65,5.52c.66,1.37,2.6.17,2-1.18a5.74,5.74,0,0,0-4.11-3.61.84.84,0,0,0-.64,1.53l2.61,3,2.14-.9-2.78-5.44c-.54-1.06-1.94-.44-2,.55a11.1,11.1,0,0,0,1.27,6.72l1.31-1.7c-1.7-.24-5.66-.08-7.06-1-1.75-1.18-1.61-3.47-2.26-5.21-.77-2-3-6.21-5.44-6.77-4.38-1-1.65,4.89-.71,6.63.21-.37.42-.74.64-1.11-2.75.14-5-3.11-7.39-4.12a30,30,0,0,0-7.68-1.62,83.22,83.22,0,0,0-20.8.22c.25.6.5,1.21.76,1.81l3.94-1.73c1.5-.14,1.55-2.49,0-2.39a11.1,11.1,0,0,0-8.82,4.87c-.61.83.74,1.85,1.42,1.1Z" transform="translate(-590.81 -266.25)" fill="#1e1e1e"/><path d="M631.58,304c-2-1.41-5.23,2.09-6.72,3.28a27.82,27.82,0,0,0-4.31,4.3c-1.28,1.62-2.09,3.57-3.44,5.13l1.83.49a13.09,13.09,0,0,0-.46-1.87.69.69,0,0,0-1.32,0,14.94,14.94,0,0,0-.33,1.87c-.13,1,1,1.95,1.83,1.06,2-2.17,3.07-4.95,5.12-7.12.9-1,1.87-1.84,2.84-2.72.75-.69,3.55-3.63,4.52-3.38a.57.57,0,0,0,.44-1Z" transform="translate(-590.81 -266.25)" fill="#1e1e1e"/><path d="M629.57,318.7c2.82,0,2.82-4.37,0-4.37s-2.82,4.37,0,4.37Z" transform="translate(-590.81 -266.25)" fill="#1e1e1e"/><path d="M636.36,311.49l.16,0A2.11,2.11,0,0,0,638,310a2.16,2.16,0,0,0-2.65-2.65,2.14,2.14,0,0,0-1.5,1.51l0,.15a2.08,2.08,0,0,0,2.51,2.52Z" transform="translate(-590.81 -266.25)" fill="#1e1e1e"/><path d="M646.82,315a2.2,2.2,0,1,0-2.2-2.2,2.23,2.23,0,0,0,2.2,2.2Z" transform="translate(-590.81 -266.25)" fill="#1e1e1e"/><path d="M653.15,310.87a1.06,1.06,0,0,0,.35-.09,2.14,2.14,0,0,0,1.54-2,2.18,2.18,0,0,0-1.54-2,2,2,0,0,0-.35-.09,2.19,2.19,0,1,0,0,4.22Z" transform="translate(-590.81 -266.25)" fill="#1e1e1e"/><path d="M661.27,312.22l-.09.1a2.11,2.11,0,0,0,0,2.89l.09.1a2.21,2.21,0,0,0,3.74-1.55,2.3,2.3,0,0,0-1.09-1.89,2.23,2.23,0,0,0-2.65.35Z" transform="translate(-590.81 -266.25)" fill="#1e1e1e"/><path d="M644.46,306.62c-.23.24-.25.29-.08.14a1.77,1.77,0,0,0,0-2.5c-.17-.14-.15-.1.08.15a2.19,2.19,0,0,0-4.08,1.1,2.2,2.2,0,0,0,4.08,1.11Z" transform="translate(-590.81 -266.25)" fill="#1e1e1e"/><path d="M659.82,308.2a2.19,2.19,0,1,0-2.19-2.19,2.21,2.21,0,0,0,2.19,2.19Z" transform="translate(-590.81 -266.25)" fill="#1e1e1e"/><path d="M628.32,313.9c2.75,0,2.75-4.27,0-4.27s-2.75,4.27,0,4.27Z" transform="translate(-590.81 -266.25)" fill="#1e1e1e"/><path d="M624.62,320.32l.32-.33c-.28.29.24-.18.35-.29a1.63,1.63,0,0,0-.33-2.55,4.22,4.22,0,0,0-.7-.27l.17.09-.25-.1a2.33,2.33,0,0,0-2.22,0,2.19,2.19,0,1,0,2.66,3.45Z" transform="translate(-590.81 -266.25)" fill="#1e1e1e"/><path d="M668.82,312.61a2.1,2.1,0,1,0-2.09-2.1,2.12,2.12,0,0,0,2.09,2.1Z" transform="translate(-590.81 -266.25)" fill="#1e1e1e"/><path d="M671.32,316.76a1.75,1.75,0,0,0,0-3.5,1.75,1.75,0,0,0,0,3.5Z" transform="translate(-590.81 -266.25)" fill="#1e1e1e"/><path d="M675.82,319.22c2.52,0,2.53-3.92,0-3.92s-2.53,3.92,0,3.92Z" transform="translate(-590.81 -266.25)" fill="#1e1e1e"/><path d="M629.45,331.92c2.12-1.21,3.91-2.52,6.38-3,2.66-.57,4.51,0,7,.88.59.22,1-.51.77-1-2.7-4.9-12.92-1.86-15.16,2.12a.77.77,0,0,0,1,1Z" transform="translate(-590.81 -266.25)" fill="#1e1e1e"/><path d="M661.23,330.71a11.15,11.15,0,0,1,5.44-.31c1.41.28,2.73,1,4.17.74a.78.78,0,0,0,.34-1.28c-1.24-1.34-3.71-1.65-5.46-1.8a6.68,6.68,0,0,0-5.21,1.4.75.75,0,0,0,.72,1.25Z" transform="translate(-590.81 -266.25)" fill="#1e1e1e"/><path d="M666.76,294.91q-1-5.4,1.43-.63l-2.16-1q-2.6-5.76,1.67-5,5,1.88,2.29-1.46c-2-3.81-2-8.52-2.16-12.76l-1.21.93q1.74,9.88-.52.64a5.93,5.93,0,0,1,5.85.18c7,5.66-3.3,7.2-5.61,6.51a5,5,0,0,1-3.39-1.94q-3.32-2.86,1.35-5.34,5.3.76-.36,4.86-2.43-3.23,2-5.24c.16.95,1.53.64,1.59-.22.26-3.59-3.87-4.76-6-1.89-2.36,3.21-.06,9.25,3.22,10.94,3.5,1.8,7.4-.7,6.6-4.74-.77-3.89-6.29-6.63-10-5.69-4.7,1.21-2,6.29.25,8.63a9,9,0,0,0,11.58,1.17c8.73-6.28-7.57-14.87-10.61-5.93-1.49,4.38,3.34,6,6.67,4.47,5-2.32,1.69-7.06-2.15-8.26a1,1,0,0,0-1.22.92c.15,4.52-.09,11.68,3.18,15.22,1.2,1.29,4.73,3,6,.77,2-3.69-14.71-7.59-14,.16.55,5.7,13.75,9.34,12,3.31s-14.49-4.67-7.44,2.21c.54.52,1.53-.17,1.08-.83Z" transform="translate(-590.81 -266.25)" fill="#1e1e1e"/><path d="M659.71,271.65a7,7,0,0,0,3.07,13.51,1,1,0,0,0,.52-1.94,14.84,14.84,0,0,1-3.09-2.37c-1.39-1.44-3.28-7.63,1.28-1,3.43,5,.8,2.79,3.78,2.39a21,21,0,0,1,4.49-.24,16.87,16.87,0,0,1,4.43.91l3.43,1.93L675.19,282l3.58-.85c2.11-.24,3.53.76,4.25,3,2.27,1.19,2.76,2.54,1.47,4.07a11.73,11.73,0,0,1-2.6,3.73l1.9.5-.51-3.06a5.28,5.28,0,0,1,1.06,4.21,1,1,0,0,0,1.9.26c.54-2.2,0-8-3.41-8.07s-1.49,5.52-1.23,7.26c.17,1.08,1.57.95,2.07.27,2.7-3.62,6.79-11.63,0-13.89-4.38-1.45-7.68,4.3-4.18,7.33,3.28,2.85,7.14-1.05,5.46-4.66-2-4.27-9.27-3.63-12.22-.94-3.3,3-2.48,9.39,2.62,9.71,5.67.36,6.46-5.61,2.48-8.49s-14.89-4.76-17.85.38c-2,3.4,1.84,4.35,4.28,2.69,5.8-3.94.92-11.13-5-10.86-7.81.36.18,8.7,3,10.48.18-.64.35-1.29.53-1.94-5.82,0-7.56-7.06-2-9.51,1.3-.57.18-2.49-1.11-1.91Z" transform="translate(-590.81 -266.25)" fill="#1e1e1e"/><path d="M607.48,339.36c-.48-1-1.35-2.42-1-3.59s1.88-1.47,1.91.08-.28,3.91-1.84,4.79L608,341a5.07,5.07,0,0,1-.76-2.44c0-.4,0-2,.42-2.19s1.81,1.36,2,1.66c.09.13,1.05,2,.74,2.09l-1.1-.84a10.86,10.86,0,0,1-.11,3,.92.92,0,1,0,1.82.24,15.35,15.35,0,0,0,0-3.25.88.88,0,0,0-1.1-.84c-1.85.49-2.36,3.3-.23,3.83,2.72.67,2.76-2.66,2.08-4.32s-3.21-4.73-5.28-3.35c-2.23,1.49-1.42,5.58-.35,7.46a1.07,1.07,0,0,0,1.44.38c1.77-1,2.44-2.81,2.72-4.73.25-1.69.49-4.06-1.36-5a3.23,3.23,0,0,0-4,1.35c-1.29,2-.07,4.36,1.09,6.06a.81.81,0,0,0,1.39-.82Z" transform="translate(-590.81 -266.25)" fill="#1e1e1e"/><path d="M607.61,341.92c-2.3,1.49-1.49,5.38-.15,7.25a7,7,0,0,0,7.65,2.45,1.3,1.3,0,0,0-.69-2.5c-1.24.2-2.12-.71-3.2-1.12a.82.82,0,0,0-1,.79c0,2.47,3,3.2,4.92,2.83l-.69-2.5a4.46,4.46,0,0,1-5-1.44,4.78,4.78,0,0,1-.87-2.58c0-.87.27-1.7.18-2.56a.73.73,0,0,0-1.09-.62Z" transform="translate(-590.81 -266.25)" fill="#1e1e1e"/><path d="M608.08,343.84a4.42,4.42,0,0,0,.08,2.87,17.28,17.28,0,0,0,1.07,3.21c.43,1,1.77.53,2.07-.27a7.82,7.82,0,0,0,.5-3.31l-2.26.3a3.92,3.92,0,0,0,3,3.11,1.18,1.18,0,0,0,1.48-1.12,12.3,12.3,0,0,0-1.88-5.43,1.13,1.13,0,0,0-1.94,0,3.46,3.46,0,0,0,0,3.36,1.11,1.11,0,0,0,2-.55,3.33,3.33,0,0,0-.34-1.56.8.8,0,0,0-1.36,0,2.83,2.83,0,0,0-.46,1.26l2-.26a1.1,1.1,0,0,1,0-1.11h-1.94a10.22,10.22,0,0,1,1.48,4.29l1.48-1.13a1.68,1.68,0,0,1-1.41-1.47,1.16,1.16,0,0,0-2.26.31,6.06,6.06,0,0,1-.39,2.7l2.08-.27a17.73,17.73,0,0,1-1.11-2.8,5.65,5.65,0,0,0-.84-2.28.75.75,0,0,0-1.16.15Z" transform="translate(-590.81 -266.25)" fill="#1e1e1e"/><path d="M682.35,352.85a2.24,2.24,0,0,0,2.06,2.13,4.33,4.33,0,0,0,3.4-1.26,11.42,11.42,0,0,0,3.8-7.44H689c0,1.65-.27,4-1.51,5.25a.69.69,0,0,1-.61.39c-.51.27-.56.22-.14-.15a4.87,4.87,0,0,1,.93-.94l2.08-2.06a1.16,1.16,0,0,0-.5-1.92,3.69,3.69,0,0,0-2.82.28,1.12,1.12,0,0,0,.56,2.07,2,2,0,0,0,2-1.56c.11-.41-.38-.86-.77-.59l-.72.08-.27,2a2,2,0,0,1,1.35-.09l-.51-1.93c-.81.82-1.61,1.65-2.44,2.45a5,5,0,0,0-1.41,1.79,2.42,2.42,0,0,0,2.06,3c3.8.62,5.13-5.49,5.28-8.14.09-1.45-2.29-1.8-2.56-.34a11.05,11.05,0,0,1-1.62,4.33,8.28,8.28,0,0,1-1.45,1.62,1.69,1.69,0,0,1-2.33.21.88.88,0,0,0-1.3.75Z" transform="translate(-590.81 -266.25)" fill="#1e1e1e"/></svg>