<svg id="OBJECT" xmlns="http://www.w3.org/2000/svg" viewBox="0 0 108.92 136.97"><path d="M350.58,335.21c-.76,7.62-.82,15.6-3.9,22.75-2.69,6.22-8.72,9.12-15.23,10.36-10.83,2.07-24.4-.65-30.78-10.46-4.38-6.74-5-15.06-5.23-22.87-.06-2-3.2-2-3.15,0,.23,9,1.1,18.64,6.75,26.09,6.88,9.06,19.71,12.17,30.55,10.74,7.34-1,15.45-3.81,19-10.78,3.87-7.6,4.65-17.5,3.94-25.83a1,1,0,0,0-1.95,0Z" transform="translate(-269.72 -272.23)" fill="#1e1e1e"/><path d="M294,337.46a5.17,5.17,0,0,0-5.58-3c-2.85.39-4.53,2.79-4.94,5.49-1,6.64,4.3,12.74,10.52,14.16,1.6.37,2.29-2.11.68-2.47a11.15,11.15,0,0,1-8.26-7.26c-1.43-4.38,1.24-10.05,6-6.05.62.52,1.93.05,1.54-.9Z" transform="translate(-269.72 -272.23)" fill="#1e1e1e"/><path d="M353,339.24c2.86-1.53,5.94-1.68,6,2.47a10.1,10.1,0,0,1-1.28,4.74c-1.5,2.79-4.13,5.93-7.3,6.68-1.52.37-.88,2.73.65,2.36,5.49-1.35,10.31-8.2,10.26-13.78-.05-6-5.17-7.41-9.39-3.87-.81.67.22,1.87,1.08,1.4Z" transform="translate(-269.72 -272.23)" fill="#1e1e1e"/><path d="M321.12,351.18c2.3,1.4,8.43,1,9.54-2.08.74-2-.64-4.67-.74-6.73-.18-3.56.07-7.18.05-10.75a1.25,1.25,0,0,0-2.5,0c0,4.25-.27,8.72.23,12.94a15.81,15.81,0,0,1,.43,2.2c-.12,2.52-1.22,2.08-2.91,2.34-1.9.29-2.86.24-4.16,1.58a.32.32,0,0,0,.06.5Z" transform="translate(-269.72 -272.23)" fill="#1e1e1e"/><path d="M310.63,343.6A2.59,2.59,0,1,0,308,341a2.62,2.62,0,0,0,2.59,2.59Z" transform="translate(-269.72 -272.23)" fill="#1e1e1e"/><path d="M337.6,343.59c3,0,3-4.64,0-4.64s-3,4.64,0,4.64Z" transform="translate(-269.72 -272.23)" fill="#1e1e1e"/><path d="M324,361.42a2.77,2.77,0,0,0,3-.16.56.56,0,0,0-.13-1,2.78,2.78,0,0,0-2.91.6.47.47,0,0,0,.08.57Z" transform="translate(-269.72 -272.23)" fill="#1e1e1e"/><path d="M331.8,369.19c-.75,2.54-.61,5.26-.62,7.87,0,2.32-.48,5,.77,7a.93.93,0,0,0,1.59,0c1.15-2.1.58-4.68.55-7,0-2.61.14-5.31-.52-7.87a.93.93,0,0,0-1.77,0Z" transform="translate(-269.72 -272.23)" fill="#1e1e1e"/><path d="M333.65,380.69c7,2.92,12.25,6.67,16.44,13.06a29.61,29.61,0,0,1,3.17,6.28c.67,1.89,1.67,3.76-.62,4.9-1.63.82-5.62.29-7.48.4-18.53,1.07-37.19,1.38-55.35-3,.37.65.74,1.29,1.1,1.94,2.41-12.52,13.61-19,24.63-23.23a1.66,1.66,0,0,0,1.18-1.55c0-3.21-.06-6.42-.06-9.63a1.56,1.56,0,0,0-3.11,0c0,3.21-.06,6.42-.06,9.63l1.19-1.56c-12,4.63-24.2,11.84-26.82,25.5a1.62,1.62,0,0,0,1.11,2,147.35,147.35,0,0,0,33.69,3.84c5.62,0,11.25-.15,16.87-.44,5.25-.27,11.46.16,16.46-1.55a1.33,1.33,0,0,0,.94-.94c1-5.67-3.11-12.32-6.47-16.66-4-5.16-9.81-10.26-16.51-11.14-1.39-.18-1.35,1.78-.3,2.23Z" transform="translate(-269.72 -272.23)" fill="#1e1e1e"/><path d="M293.93,341.14c-.65-2.16-3.48-3.67-5.54-2.44a3.42,3.42,0,0,0-1.52,2.4c-.15.86-.13,2.37.6,3a.51.51,0,0,0,.79-.1c.69-1,0-2.52.86-3.43,1.25-1.28,2.82.76,3.81,1.36a.68.68,0,0,0,1-.76Z" transform="translate(-269.72 -272.23)" fill="#1e1e1e"/><path d="M352.91,342.9a10,10,0,0,1,1.35-.58,2.73,2.73,0,0,1,1.46-.17c.48.2.24.93.86,1.09a.78.78,0,0,0,.74-.2c1-1-.06-2.6-1.35-2.61a4.67,4.67,0,0,0-3.41,2.12c-.16.23.14.45.35.35Z" transform="translate(-269.72 -272.23)" fill="#1e1e1e"/><path d="M305.6,342.41c1.45-1.51,2.35-3.4,4.81-3.23a4.25,4.25,0,0,1,2.71,1.29c.66.67.87,1.42,1.76,1.85a1.17,1.17,0,0,0,1.69-.69c1-3.11-3.77-5.47-6.24-5.5-2.82,0-6.8,2.33-6.5,5.54a1.05,1.05,0,0,0,1.77.74Z" transform="translate(-269.72 -272.23)" fill="#1e1e1e"/><path d="M332.56,342.35c1.57-.36,2.07-2.35,3.66-2.93,2.13-.78,4,.69,4.85,2.54s3.38.21,2.55-1.49a6.82,6.82,0,0,0-7.3-4c-1.92.39-6.19,3.18-4.55,5.57a.72.72,0,0,0,.79.32Z" transform="translate(-269.72 -272.23)" fill="#1e1e1e"/><path d="M330.7,331.12c2.81-.64,5.3-2.11,8.19-2.57a14.74,14.74,0,0,1,4-.25c1.51.17,2.3,1.14,3.6,1.72.61.26,1.53.11,1.67-.68,1.4-7.88-15.83-2.88-18.45.05a1,1,0,0,0,1,1.73Z" transform="translate(-269.72 -272.23)" fill="#1e1e1e"/><path d="M318.34,330.14c-2-3.28-6.45-4.85-10.13-5.1-2.51-.17-8.63,0-8.62,3.51a1.5,1.5,0,0,0,2.52,1.05c2-1.58,5.69-1.4,8-1,2.6.46,4.58,1.79,6.91,2.86.83.38,1.89-.43,1.34-1.33Z" transform="translate(-269.72 -272.23)" fill="#1e1e1e"/><path d="M318.61,356.69c1.49,1.59,4.21,1.51,6.27,1.47a19.17,19.17,0,0,0,7.36-1.53c1.21-.54.32-2.33-.87-2.06a35.62,35.62,0,0,1-7,1.23c-1.85.06-3.9-.5-5.62.21a.41.41,0,0,0-.18.68Z" transform="translate(-269.72 -272.23)" fill="#1e1e1e"/><path d="M293.67,335.75a54.7,54.7,0,0,0,5.5-21l-2.12.87c4.69,4.32,13.17,8.57,19.64,5.92a1.36,1.36,0,0,0,.95-1.23c.2-2.92-3.61-5.21-5.48-7-.4.7-.81,1.39-1.22,2.09,7.08,1,12.75,7.59,20.05,7.37,1.61-.05,3.26-.43,3.41-2.37.19-2.63-3.65-4.72-5.29-6l-.89,2.15c3.54-.19,5.89,1.4,9.15,2.34a27.79,27.79,0,0,0,6,.82c9.68.7,7,10.61,6.48,17.35-.14,2,3,2,3.08,0,.27-5.63,2.82-15.84-3.73-19-2.67-1.27-5.75-.74-8.58-1.1-4.35-.56-7.95-3.14-12.42-2.95-1,0-1.78,1.4-.89,2.14,1.49,1.23,5.37,3.49,1.85,3.79-2.26.19-5.16-1.81-7.08-2.82-3.39-1.8-6.64-3.56-10.49-4.12-1.15-.17-2.2,1.13-1.22,2.09.58.56,3.26,2.43,3.38,3.31.31,2.14-2.3,1.15-4,.9a20.52,20.52,0,0,1-11-5.41,1.26,1.26,0,0,0-2.12.88A69.68,69.68,0,0,1,292,335c-.37,1,1.22,1.64,1.69.71Z" transform="translate(-269.72 -272.23)" fill="#1e1e1e"/><path d="M294.83,299c-7.17,3.48-10,10.84-10.89,18.37-.65,5.32-.09,10.95-1.72,16.11s-4.84,9.23-7.56,13.66c-3.64,5.95-6.93,14-3.48,20.82,1,1.9,2.6,4,5,3.41,2.59-.63,2.47-4.43,4.72-5L279,364.49c-.85,4.65,1,9.74,5.75,11.54,4,1.53,7.9-.68,7.16-5.13L289,372.13c2.2,3.94,6.86,8,11.49,8.62,3,.43,5.93-1.48,5.52-4.74l-2.53,1.45a22.54,22.54,0,0,0,11.18,3.84c2.16.17,2.15-3.21,0-3.38a19.14,19.14,0,0,1-9.49-3.36A1.68,1.68,0,0,0,302.6,376c.41,3.25-5.8-.38-6.28-.69a13.06,13.06,0,0,1-4.61-4.81c-.95-1.66-3.22-.47-2.93,1.24q-4,2.65-6-1.32a6.53,6.53,0,0,1-.79-5.11,1.59,1.59,0,0,0-1.93-1.93c-1.75.43-1.88,1.47-3.14,2.5-.25.41-.49.82-.71,1.25a3,3,0,0,1-2.62-2.48c-.77-1.71-.39-4-.08-5.82,1.22-7.22,6.36-12.58,9.61-18.89,6.53-12.67-.87-30.49,12.37-39.8a.64.64,0,0,0-.65-1.11Z" transform="translate(-269.72 -272.23)" fill="#1e1e1e"/><path d="M294.58,301.53c5,.18,7.67-5.21,12.48-6.28,6.25-1.38,13.4.67,19.67,1.32,7.35.76,15.22,1.63,21.5,5.89,5.51,3.74,8.11,9.69,10,15.86,1.56,5.16,2.62,10.47,4.67,15.47s5.93,9,8.18,13.95c2.59,5.72,5.31,14.9,3.82,21.17-.54,2.28-4.25,7.65-6.94,8.3s-2.68-2-4.07-3.28a1.68,1.68,0,0,0-2.6.33s-4.14,6.58-4.48,1.08a1.69,1.69,0,0,0-2.84-1.18c-1.51,1.3-3.37,3.45-5.34,4-3,.86-3.33-.39-5.56-.76-1.8-.29-4,1.53-5.46,1-2-.66-2.9,2.53-.88,3.2,1.37.46,1.7.18,3.1-.08a8.94,8.94,0,0,1,4.22-.14c.89.22,1.06.65,2.15.79,3.73.47,7.56-3.48,10.12-5.71l-2.84-1.18c.17,2.62.95,6,4.31,6,2.79,0,5-3.31,6.36-5.38l-2.6.34c1.62,1.53.14,4.12,2.82,5.22,1.9.78,3.79-.26,5.36-1.25,5-3.16,8.88-7.89,8.94-13.95a47.58,47.58,0,0,0-5.22-21.8c-1.89-3.54-4.67-6.46-6.43-10.08a64.53,64.53,0,0,1-3.84-11.35c-1.72-6.27-3.36-12.77-7.43-18-4.41-5.68-11.11-8.69-18-10.16a111.45,111.45,0,0,0-11.94-1.58c-4.62-.47-9.31-1.42-14-1.51a20,20,0,0,0-8,1.25c-3.35,1.38-5.77,6-9.27,6.46a1,1,0,0,0,0,2Z" transform="translate(-269.72 -272.23)" fill="#1e1e1e"/><path d="M319.3,292.65c-2.66-2.4-5.85-4.37-7.78-7.48-5-8.14,6.82-10.13,11.76-10,6.45.14,12.17,5,7.39,11.67-2.48,3.47-5.74,4.52-9.66,5.63a1.32,1.32,0,0,0,.35,2.59c5.93.11,11.7-4.54,13.6-10.06,2.31-6.75-2.82-11.74-9.27-12.56-4.92-.63-16.21,0-18.26,5.72-2.49,7,5.47,13.38,10.9,15.76.77.34,1.71-.59,1-1.26Z" transform="translate(-269.72 -272.23)" fill="#1e1e1e"/><path d="M295.18,306.28c-.93,2.06,2.14,4.16,3.38,5.4,3.19,3.18,6.56,6.07,11.1,6.9a1.08,1.08,0,0,0,.82-2,62.89,62.89,0,0,1-11.33-9.9l-1.29,1.68q6.43,3.27,12.75,6.79c.27-.65.55-1.3.82-2-5.26-1.55-10.26-7.63-14.22-11.36l-.81,1.95,15.28.7c1.23.05,1.55-2,.3-2.18-2.05-.28-10-.34-11.12-1.79-1.86-2.42,11.33-4.73,12.16-4.72-.09-.72-.19-1.45-.29-2.17a78.13,78.13,0,0,0-8.75,2.8,1,1,0,0,0,.27,2c5.5,0,11,1.55,16.32,3a.84.84,0,0,0,.45-1.62c-5.45-1.67-10.94-2.31-16.5-3.38v2c2.9-1,5.81-1.89,8.8-2.64a1.11,1.11,0,0,0-.3-2.17,20.21,20.21,0,0,0-9.8,2.18c-1.37.72-4.55,2.41-5,4.06a2.16,2.16,0,0,0,1,2.7c1.12.84,3.59.71,4.89.89l7.27,1c.09-.73.19-1.45.29-2.18l-15.28-.77a1.16,1.16,0,0,0-.8,2c4.63,3.88,9.3,10.06,15.26,11.81a1.08,1.08,0,0,0,.83-2q-6.31-3.52-12.75-6.79a1.08,1.08,0,0,0-1.3,1.68,64.82,64.82,0,0,0,11.76,10.24c.28-.65.55-1.3.83-2-3.7-.67-6.36-2.72-9.21-5-1.18-1-5.35-3.46-5.21-5,0-.33-.5-.48-.63-.17Z" transform="translate(-269.72 -272.23)" fill="#1e1e1e"/><path d="M302.89,306.36c5.56,1.2,11.11,2.53,16.7,3.58l.27-2c-5.83-.71-11.67-1.4-17.46-2.36a1,1,0,0,0-.73,1.74c6.34,3.84,13.75,4.88,20.58,7.55.19-.7.39-1.41.58-2.12-4.06-1.58-8.14-3.1-12.21-4.67-.19.69-.38,1.38-.56,2.07l8.23,3.22c3.13,1.22,7.67,2.1,9.15,5.49l1.86-1.44c-2.39-2.09-4.65-4.27-6.84-6.58l-1,1.78a19.15,19.15,0,0,0,6.89.73,1.09,1.09,0,0,0,.54-2,106.47,106.47,0,0,0-21.24-9l-.31,2.3c8.33-.1,16.51,1.09,24.71,2.4a1.25,1.25,0,0,0,.67-2.4l-21.93-6.49v2.4c8.94-1.42,17.75,0,26.58,1.52,1.56.27,2.23-2.1.66-2.39-5.91-1.1-11.77-2.35-17.58-3.9-.1.78-.21,1.56-.31,2.33a60.94,60.94,0,0,1,14.7,2.1c1.27.36,13.9,5.51,13.77,5.72-.91,1.39,1.26,2.6,2.2,1.29,2.54-3.57-6.22-6.13-8.14-6.91a64.22,64.22,0,0,0-22.53-4.57,1.19,1.19,0,0,0-.32,2.33c5.81,1.54,11.64,2.91,17.55,4l.66-2.39c-9.27-1.61-18.51-3-27.9-1.53-1.27.2-1.08,2.08,0,2.4,7.31,2.16,14.61,4.34,21.92,6.49.22-.8.45-1.6.67-2.4-8.43-1.31-16.83-2.51-25.38-2.34a1.18,1.18,0,0,0-.32,2.3,105.7,105.7,0,0,1,20.79,8.6l.54-2a16.35,16.35,0,0,1-6.33-.63,1.07,1.07,0,0,0-1,1.78c2.13,2.34,4.35,4.58,6.66,6.75.79.74,2.45,0,2-1.15-1-2.49-2.64-3.59-5.11-4.64-4.54-1.93-9.26-3.49-13.87-5.23-1.29-.48-1.83,1.58-.56,2.07,4.06,1.56,8.11,3.17,12.19,4.72,1.32.51,1.89-1.62.58-2.12-6.69-2.56-13.83-3.67-20.2-7.08l-.48,1.78c5.83.65,11.64,1.58,17.44,2.48,1.26.2,1.84-1.67.54-2-5.56-1.23-11.19-2.19-16.78-3.28-1.08-.21-1.55,1.43-.46,1.66Z" transform="translate(-269.72 -272.23)" fill="#1e1e1e"/><path d="M336.35,309.54c-.82-.38-1.31-.09-1.82.63a.85.85,0,0,0,0,.83c.67,1.35,2.17,1.91,3.43,2.64,2.32,1.34,4.66,2.66,7,4,.31-.73.61-1.46.92-2.18a144.46,144.46,0,0,0-18.55-4.84,1.26,1.26,0,0,0-.67,2.43c2.65.76,5.3,1.53,8,2.26a1.26,1.26,0,0,0,.67-2.43c-2.64-.77-5.29-1.51-7.95-2.26-.22.81-.44,1.62-.67,2.43,6.3,1.22,12.44,2.87,18.59,4.71a1.2,1.2,0,0,0,.92-2.18c-3.33-1.73-6.75-3.92-10.29-4.88.66.18,1.14-.83.48-1.14Z" transform="translate(-269.72 -272.23)" fill="#1e1e1e"/><path d="M322.09,314.87a38.9,38.9,0,0,0,6.37,4.67l.91-2.17c-3-1.05-6.06-2-9.08-3.08-1.32-.46-2.09,1.53-.93,2.22a32,32,0,0,0,9.37,4.1c1.28.28,2.27-1.63.94-2.25-1.85-.85-3.66-1.77-5.43-2.78-1.55-.89-3.21-2.27-5-2.55a.83.83,0,0,0-.93,1.2c.94,1.53,2.82,2.45,4.35,3.32,1.88,1.07,3.8,2,5.76,2.93.32-.74.63-1.49.95-2.24a29.46,29.46,0,0,1-8.8-3.83l-.93,2.22c3,1.05,6,2.13,9.09,3,1.26.37,2.14-1.57.92-2.17a46.33,46.33,0,0,1-6.57-3.92c-.76-.55-1.69.67-1,1.3Z" transform="translate(-269.72 -272.23)" fill="#1e1e1e"/><path d="M298.8,302.83a11.24,11.24,0,0,0-7.19,2c.35.45.69.9,1,1.34,1.33-1.3,2.65-2.62,4-3.93a.89.89,0,0,0-.63-1.51c-2.18.16-6,.7-6.8,3.29-.35,1.21-.19,2.28,1.22,2.6,1.14.25,1.71-.7,2.41-1.38s1.1-1.38,1.71-2c2.92-3,.47.48-.13,1.87-1.49,3.43-4,7.49-3.41,11.36a1.19,1.19,0,0,0,1.14.86c3.62.09,5.59-6.8,7-9.32l-2.09-.88c-1.58,4.09-3,8.21-4.23,12.43-.45,1.55,1.84,2.12,2.38.65l3.42-9.2-2.29-.63a30.69,30.69,0,0,1-4.11,7.81l2.22.29c-.75-4.48.76-8.82-.23-13.29a1.12,1.12,0,0,0-1.86-.49,49.69,49.69,0,0,0-4.53,5.7l2.15.91a26.17,26.17,0,0,1,1.76-5l-2-.86c-2.24,5.69-5.36,14-2.29,19.92a1.32,1.32,0,0,0,2.39-.31q1.2-5.94,2.42-11.89l-2.2-.61L287.77,325c-.38,2.07-1,3.67-.09,5.57a1.21,1.21,0,0,0,2.09,0c2.42-4.85,2.69-10.59,6-15l-2.15-.58c.57,4.79-2.47,10.67-3.87,15.24-.5,1.62,2.06,2.32,2.53.7.65-2.23,1.33-4.45,1.86-6.71.2-.87-1.09-1.52-1.51-.64-1.06,2.18-2,4.42-2.88,6.65l2.53.7c1.63-4.83,4.48-11.08,3.61-16.25-.18-1.06-1.61-1-2.11-.27-3.11,4.57-3.57,10.09-6.07,14.95h2.09c-.84-1.78.8-6.59,1.13-8.52l1.32-7.68c.25-1.42-1.86-2.06-2.2-.61q-1.36,5.91-2.74,11.81l2.38-.32c-2.77-5.16.33-12.93,2.19-18,.43-1.17-1.49-2-2-.86a33.5,33.5,0,0,0-2.12,5.51,1.18,1.18,0,0,0,2.15.91,45.66,45.66,0,0,1,4.07-5.32l-1.85-.49c1,4.36-.58,8.64,0,13a1.23,1.23,0,0,0,2.27.61,32.61,32.61,0,0,0,4.3-8.41c.5-1.46-1.75-2-2.29-.63l-3.51,9.18,2.38.65c1.2-4.21,2.53-8.36,4.06-12.48.45-1.22-1.47-2-2.09-.88-1.2,2.13-2.26,4.82-3.66,6.76-.67.93.7-2.08.87-2.56.6-1.62,1.35-3.19,2-4.78.88-2.05,2.52-4.34.94-6.3a1.05,1.05,0,0,0-1-.28,7.74,7.74,0,0,0-2.72,1.66c-2.88,2.51,0,1.41,2.42,1.15l-.63-1.52-3.94,4c-.66.67.21,1.9,1,1.34A13.61,13.61,0,0,1,298.8,304a.57.57,0,0,0,0-1.14Z" transform="translate(-269.72 -272.23)" fill="#1e1e1e"/><path d="M293.92,320c-.47,3.81-1,7.61-1.4,11.42h2.65c.28-3.61.53-7.22.89-10.83.13-1.26-2-1.56-2.22-.3a50.2,50.2,0,0,1-1.84,7.56,17.56,17.56,0,0,0-1.33,6.73l2.23-.93a12.58,12.58,0,0,1-2.89-6.26,2.55,2.55,0,0,0-1.21-2,1.26,1.26,0,0,0-1.82.75,33.81,33.81,0,0,0-1.24,5.24l2.45.33a28.3,28.3,0,0,0-.81-9.61,1.14,1.14,0,0,0-2.22.3c.16,3.75.18,7.5,0,11.25a1.23,1.23,0,0,0,2.07.86l1.43-.29v-2.22a5.25,5.25,0,0,1-2.55.55c-1.3.05-1.71,2.09-.32,2.37a5.43,5.43,0,0,0,4.17-.7,1.29,1.29,0,0,0,0-2.22,3.34,3.34,0,0,0-4.45.79l2.07.86c.08-3.75,0-7.5-.18-11.25l-2.22.31a27.77,27.77,0,0,1,.5,9c-.14,1.38,2.23,1.72,2.45.33a33.75,33.75,0,0,1,1.22-5.24l-1.82.74c.13.1.58,3.25.71,3.58a19.16,19.16,0,0,0,2.59,4.08,1.32,1.32,0,0,0,2.44-.66c0-4.69,2.22-9.3,2.77-14H293.8c-.36,3.62-.83,7.22-1.28,10.83-.2,1.69,2.43,1.67,2.65,0,.49-3.79.87-7.61,1.3-11.42.18-1.63-2.35-1.6-2.55,0Z" transform="translate(-269.72 -272.23)" fill="#1e1e1e"/><path d="M284.6,333.24c-2.15,3.2-1.48,6.86-2.77,10.38-1.38,3.74-4.19,6.9-6.43,10.16l2,1.18c1.27-2.88,2.52-5.72,3.57-8.69a.91.91,0,0,0-1.32-1c-5.74,3.74-6.09,14.19-5.36,20.23.19,1.52,2.57,1.59,2.44,0a68.21,68.21,0,0,1-.13-10.21,1.16,1.16,0,0,0-2.27-.3,45.12,45.12,0,0,0-.68,13,1.21,1.21,0,0,0,2.24.6,9.39,9.39,0,0,0,1.34-4.31c.48-3.67,1.05-6.65,3.06-9.86l-2.26-.61c-.39,3.57-.8,7.14-1.2,10.71-.16,1.45,2,1.53,2.4.33,1.57-4.3.92-9.23,3.81-13l-2.22-.6a11.77,11.77,0,0,1-.74,4.52l2.47.34a11.12,11.12,0,0,1,2.36-6.68l-2.26-.29a9.78,9.78,0,0,1,.52,4.35c0,1.6,2.28,1.52,2.44,0a10.61,10.61,0,0,0-.58-5,1.26,1.26,0,0,0-2.26-.29,14.54,14.54,0,0,0-2.74,7.92c-.09,1.45,2.08,1.66,2.47.33a16.48,16.48,0,0,0,.71-5.19,1.21,1.21,0,0,0-2.23-.61c-3,4-2.45,9-4.1,13.54l2.39.32c.4-3.57.79-7.14,1.19-10.71.14-1.27-1.68-1.55-2.26-.61a21.72,21.72,0,0,0-2.79,6.19c-.66,2.58-.15,5.66-1.6,8l2.24.61a42.7,42.7,0,0,1,.51-12.41l-2.27-.31a82.81,82.81,0,0,0,0,10.21l2.4-.32c-.68-5-.75-14.94,3.87-18.35l-1.33-1a44.2,44.2,0,0,1-3.85,8c-.68,1.1,1,2.48,1.84,1.42,2.36-3,5-6.26,6.46-9.82,1.55-3.74.67-7.86,2.11-11.63.27-.73-.82-1.09-1.21-.51Z" transform="translate(-269.72 -272.23)" fill="#1e1e1e"/><path d="M283,348.35a11.79,11.79,0,0,0,1.27,4,.4.4,0,0,0,.75-.2,11.71,11.71,0,0,0-.82-4.16.62.62,0,0,0-1.2.33Z" transform="translate(-269.72 -272.23)" fill="#1e1e1e"/><path d="M284.71,351a36.4,36.4,0,0,0-.72-7.2l-1.88.79a35.83,35.83,0,0,0,9.18,12.7c1.06.93,2.61-.6,1.56-1.56-1.71-1.57-3.46-3.09-5.24-4.58L286.54,353c3,1.09,6,2.27,8.94,3.57.3-.7.59-1.41.89-2.11-1.61-.63-3.22-1.25-4.85-1.86-1-.36-1.85.91-1.33,1.75.75,1.21,3.36,8.29-.31,8.32-.7,0-3.1-6.85-3.2-7.14-.3-.87-1.82-1.09-2,0a70.39,70.39,0,0,0-.82,11.23,1.16,1.16,0,0,0,2.31,0,61.26,61.26,0,0,0-1.69-12.85c-.26-1.08-1.64-.88-2,0-1.31,3.34-2.58,6.84-2.16,10.49.46,4,3.08,6.12,5.2,9.34.9,1.37,3.11.08,2.2-1.28-1.51-2.24-3.1-4.39-4.78-6.5-.72-.91-2,.09-1.81,1.05.54,2.4,4,8.59,7.29,5.81,1-.86,1-2.14.83-3.35-.48-4.15-2.72-7.41-2.62-11.85h-2.3a40,40,0,0,0,2.72,11.75c.46,1.13,2.33,1.1,2.29-.31a42.33,42.33,0,0,1,1-10.77l-2.07.27a19.07,19.07,0,0,1,2.57,10.16,1.1,1.1,0,0,0,2.2,0,18.4,18.4,0,0,0-2.81-11.31,1.15,1.15,0,0,0-2.07.27A44.42,44.42,0,0,0,287,369l2.29-.31a37.66,37.66,0,0,1-2.67-11.13,1.15,1.15,0,0,0-2.3,0,23.26,23.26,0,0,0,.8,6.74,21.5,21.5,0,0,1,1,3.13q1.63,2.26-.79,1.39c-1.57.25-2.28-.57-2.13-2.44l-2,.83a67.65,67.65,0,0,1,4.28,6.47l2.2-1.28c-1.63-2.39-4.14-4.37-4.87-7.26-.91-3.57.53-7.38,1.62-10.74h-2a32.81,32.81,0,0,1,1.37,12.3h2.31c0-3.67.25-7.3.53-11l-1.92.52c1.59,3,2,8.37,5.61,9.51a1.22,1.22,0,0,0,1.19-.32c3.4-3.24,2.89-8.65.64-12.36l-1.34,1.74c1.62.62,3.24,1.21,4.87,1.8,1.21.44,2.1-1.6.89-2.12-3.14-1.33-6.3-2.57-9.53-3.69a1.11,1.11,0,0,0-1.07,1.84c1.8,1.48,3.53,3,5.24,4.59l1.56-1.56a34.11,34.11,0,0,1-9-12.18c-.51-1.17-2-.24-1.88.79.33,2.4.45,4.84,1.81,6.9a.48.48,0,0,0,.89-.24Z" transform="translate(-269.72 -272.23)" fill="#1e1e1e"/><path d="M285.73,355.65a38.46,38.46,0,0,1,6.21,4.31l1.4-1.82a71.73,71.73,0,0,1-8.16-5.69l-1.33,1.73a66.14,66.14,0,0,1,6.18,4.3c3.25,2.58,5,4.53,4.32,9.15-.43,3.1-1.18,5.58.64,8.4.69,1.08,2.73.4,2.19-.92-1.42-3.46-2.83-6.92-4.35-10.35l-1.88,1.1c2.15,3.62,4.23,8.69,8.25,10.57a1.22,1.22,0,0,0,1.77-1.37,21.21,21.21,0,0,0-2.22-6.14c-.76-1.41-2.78-.17-2.13,1.24a34.21,34.21,0,0,0,3.78,6.32,1.22,1.22,0,0,0,2.22-.93,87.94,87.94,0,0,0-2.27-9.08l-2.25.95L301,374l2.17-1.27c-2.81-5.26-5.41-10.61-7.84-16.05l-1.83,1.83a10,10,0,0,1,3.43,3.8,1.34,1.34,0,0,0,2.32-1.35,39.1,39.1,0,0,0-2.42-4.57c-.66-1.07-2.6-.71-2.5.67.21,3,1.09,5.53,3.67,7.26.8.53,1.72-.5,1.28-1.28-1.17-2.05-2.08-3.35-2.27-6l-2.5.68a37.65,37.65,0,0,1,2.42,4.57l2.32-1.35a12.67,12.67,0,0,0-4.4-4.76c-1.24-.74-2.35.68-1.83,1.83,2.46,5.42,5.13,10.73,8,16,.79,1.44,2.83.17,2.17-1.27-1-2.18-2-4.35-3-6.52-.57-1.28-2.66-.37-2.25.94a83.68,83.68,0,0,1,2.31,9.07l2.22-.93a33.47,33.47,0,0,1-3.75-6.34l-2.13,1.24a20.42,20.42,0,0,1,2,5.54l1.78-1.36c-3.46-1.48-5.68-6.48-7.59-9.58a1.09,1.09,0,0,0-1.88,1.1,100.15,100.15,0,0,1,3.92,9.89l2.19-.93c-2.75-4.46,1.63-9.64-1.56-14.22-2.44-3.51-7-6.13-10.54-8.32-1-.64-2.3.91-1.33,1.73a64.51,64.51,0,0,0,8.54,6.13c1.32.79,2.32-1.12,1.17-2a30.48,30.48,0,0,0-6.73-4c-1-.42-1.88.93-.88,1.5Z" transform="translate(-269.72 -272.23)" fill="#1e1e1e"/><path d="M299,366.15a52.73,52.73,0,0,0,4.72,4.23c.39-.69.79-1.37,1.19-2.05-2.64-.77-4.15-4.2-5.26-6.49l-1.92,1.48a44.15,44.15,0,0,0,6.36,5c1.3.85,2.36-.94,1.53-2a35.74,35.74,0,0,0-2.85-3.18c-.79-.79-2.49,0-2,1.17,1.83,4.46,5.43,7.24,9.45,9.68v-2.15c-.08,0-2.63-1.43-2.92-1.58a17.71,17.71,0,0,0-2.52-1.22,1.75,1.75,0,0,0-2.12.51c-1.67,2.21,2.22,4.91,3.63,5.95l.72-2.66a2.72,2.72,0,0,1-1.86-.87c-1-.92-3,0-2.45,1.42a4,4,0,0,0,3.17,2.86l-1-1,0,.08.66-1.64-.07,0c-1.49.66-.42,3.22,1.12,2.65l.07,0a1.48,1.48,0,0,0,1-1.79c-.36-1.07-1.84-1-2.17-1.93L303,374.09a5.9,5.9,0,0,0,3.93,1.65,1.44,1.44,0,0,0,.72-2.66,23.66,23.66,0,0,1-2.76-2.13l-1.16.66c.6-.07,1.6.69,2.17.95,1,.45,2,.95,3,1.36s1.54.64,2.52.12a1.25,1.25,0,0,0,0-2.15c-3.41-2-6.93-4.32-8.38-8.17l-2,1.18c1,1.05,1.88,2.14,2.77,3.26l1.54-2a40.47,40.47,0,0,1-5.91-4.59,1.23,1.23,0,0,0-1.92,1.48c1.44,3,3.28,6.7,6.72,7.62a1.23,1.23,0,0,0,.94-2.23,51.68,51.68,0,0,0-5.09-3.75.92.92,0,0,0-1.11,1.44Z" transform="translate(-269.72 -272.23)" fill="#1e1e1e"/><path d="M298.92,375.09a5.06,5.06,0,0,0,2.78,3.09l1-2.46a20.91,20.91,0,0,1-2.81-1.09,1.37,1.37,0,0,0-2,1.17c.06,1.65,1.26,2.38,2.83,2.1a7,7,0,0,0,2.83-1.37c.85-.64,2.42-3,3.48-2.94,1.64.13,1.78-2.25.37-2.74a15.6,15.6,0,0,1-4.35-2.33l-.33,2.53c1.08-.3,2.71.5,3.74.82,1.4.43,2.79.91,4.17,1.41s2.29-1.4,1.36-2.34a31.18,31.18,0,0,0-6.06-4.73c-1.51-.93-2.79,1.36-1.37,2.34,2.63,1.83,5.21,2.25,8.1,3.38l-1-1c.35.87-.3,3.07-.42,4l2.49-1c-1.72-1.36-4.78-4.06-7.17-3.4a1.46,1.46,0,0,0-1,1c-.74,3,3.26,4.8,5.22,6.21l1.11-2.62a14,14,0,0,1-3.48-1.95l-1.1,2.6a23.64,23.64,0,0,0,6.16,1.23l-1.51-1.51a9.92,9.92,0,0,0,.18,2.93l3-1.26a16.29,16.29,0,0,0-.79-1.49,1.37,1.37,0,0,0-2.54.69,4.29,4.29,0,0,0,.52,2.45c.76,1.72,3.43.48,3-1.26a6,6,0,0,1-.3-2.06,1.53,1.53,0,0,0-1.51-1.51,11.49,11.49,0,0,1-5.4-1c-1.63-.65-2.26,1.72-1.1,2.6a17.29,17.29,0,0,0,4.16,2.26c1.62.62,2.31-1.75,1.1-2.63-.39-.28-4-2.5-3.87-3l-1,1c.78-.22,3.84,2.27,4.34,2.66a1.48,1.48,0,0,0,2.49-1c.18-1.53,1.11-4.27-.26-5.5-.73-.66-2-.55-2.92-.8a16.38,16.38,0,0,1-5.05-2.43l-1.37,2.34a29.44,29.44,0,0,1,5.45,4.37c.45-.78.91-1.56,1.36-2.35-2.63-.92-6.56-2.94-9.38-2.18a1.4,1.4,0,0,0-.33,2.52,17.86,17.86,0,0,0,5,2.63l.37-2.74a3.65,3.65,0,0,0-3.09,1.22c-.46.47-.78,1-1.22,1.52a4.14,4.14,0,0,1-1.34,1.19c-1.17.09-1.43.45-.77,1.07L298.55,377a18.3,18.3,0,0,0,3.47,1.34c1.71.47,2.38-2.34.71-2.59a3.67,3.67,0,0,1-2.4-1.45c-.54-.66-1.65.05-1.41.82Z" transform="translate(-269.72 -272.23)" fill="#1e1e1e"/><path d="M335.1,371.6l.41-.05-1-1c-.2,2.16-.19,4.34-.28,6.51l2.5-.68c-.78-1.4-.82-3.38-1.06-4.94s-2.69-1.11-2.56.35a53.35,53.35,0,0,1,.21,6.19c0,1.44,2.38,1.84,2.58.35l.12-.89-2.58-.35c-.18,2.77,2.71,3.67,5,3,3.16-1,6.28-4,8.53-6.27,1.14-1.18-.37-3.35-1.82-2.35a10.31,10.31,0,0,1-6.4,2c-1-.43-1.36-.39-1,.1a7.49,7.49,0,0,1,1.75-.8,23.62,23.62,0,0,1,3-.75c-.24-.84-.47-1.68-.7-2.52a28.81,28.81,0,0,1-6.35.7c.22.8.43,1.6.65,2.4,3-1.31,6.14-2.4,9-4a1.07,1.07,0,0,0-.82-1.94c-3.13.91-6.13,2.38-9.16,3.56a1.29,1.29,0,0,0,.34,2.52,25.79,25.79,0,0,0,7.05-.75c1.63-.4.94-2.88-.7-2.52S332,371.85,335,375c1.09,1.17,3.82,1.07,5.24,1a14.64,14.64,0,0,0,6.4-2c-.6-.78-1.21-1.56-1.81-2.35-1.32,1.19-2.62,2.39-4,3.47-.21.15-4.79,3.55-4.7,1.95s-2.42-1.63-2.63,0l-.12.89h2.63a55.69,55.69,0,0,0-.23-6.19l-2.56.35a22.11,22.11,0,0,0,1.25,5.59c.57,1.34,2.43.51,2.51-.67a23.34,23.34,0,0,0-.41-6.78,1,1,0,0,0-1.86-.25l-.22.38c-.28.48.06,1.28.69,1.2Z" transform="translate(-269.72 -272.23)" fill="#1e1e1e"/><path d="M341.31,369.41c.09,2.49-2.83,3.66-2.69,6.31a1,1,0,0,0,1.48.85c2.53-1.37,5.06-2.64,7.67-3.82L346.45,371c-1.74,2-3.45,4-5.16,6a1.14,1.14,0,0,0,1.1,1.88c3.37-1,6-2.89,8.68-5l-1.62-1.63a12.82,12.82,0,0,0-3.6,5.28,1.2,1.2,0,0,0,1.47,1.46,18.51,18.51,0,0,0,7-4.7c1.07-1.14-.5-2.6-1.67-1.67a20,20,0,0,0-4.37,4.81c-.79,1.18.92,2.37,1.9,1.47a23.14,23.14,0,0,0,4.55-5.73c.39-.7-.09-1.9-1-1.78-1.75.22-10,2.3-11.07.66-.14.52-.27,1-.41,1.55a50,50,0,0,0,7.56-5.63c.95-.83-.1-2.09-1.12-1.92a34.88,34.88,0,0,0-8.07,2.66l1.2,2.06a26.08,26.08,0,0,0,11.56-13.38l-2.27-.62-1.23,3.54,2.26.62a17.52,17.52,0,0,0,.34-4.69,1.19,1.19,0,0,0-2.2-.59,5.34,5.34,0,0,0-.87,2.17,1.19,1.19,0,0,0,2.17.92l1.31-2-2.22-.6c.19,5,.16,10-.07,15-.07,1.45,2,1.6,2.43.33a15.45,15.45,0,0,1,4.26-6.63L355.1,364c.27,3.39-.91,6.11-2.43,9.09a1.27,1.27,0,0,0,2.19,1.27,9.39,9.39,0,0,1,3.81-3.58l-1.93-1.1a14.09,14.09,0,0,1-1.13,5.53,1.38,1.38,0,0,0,1.69,1.69,15.82,15.82,0,0,0,3.77-2.09c-.53-.67-1.05-1.35-1.57-2-1.07,1.22-2.15,2.41-3.24,3.6a1.28,1.28,0,0,0,1.81,1.81c5.05-4.64,6.07-11.84,4.08-18.25s-5.85-3.39-9.3,0l2.19,1.28c.75-2,1.5-3.95,2.29-5.91.51-1.24-1.32-2.13-2.17-1.26-1.13,1.16-2.23,2.32-3.31,3.53l2.17.9a6.63,6.63,0,0,1,4.31-5.43l-1.7-.69a17,17,0,0,1,.33,6.85c-.17,1.24,1.6,1.82,1.93.53a15.5,15.5,0,0,0,0-8,1.18,1.18,0,0,0-1.7-.69c-3.31,1.57-5.91,3.47-5.68,7.43a1.29,1.29,0,0,0,2.17.9c1.15-1.14,2.25-2.31,3.35-3.5l-2.17-1.26c-.74,2-1.53,3.94-2.32,5.9-.51,1.28,1.32,2.11,2.19,1.27.46-.44,2.36-2.87,3.09-2.88,2.14,0,2.22,4.11,2.38,5.47.54,4.61-.44,8.71-3.91,12l1.81,1.81c1.08-1.2,2.16-2.4,3.26-3.58s-.3-2.88-1.57-2a10.24,10.24,0,0,1-3.19,1.67l1.69,1.69a17.17,17.17,0,0,0,1.05-6.26,1.3,1.3,0,0,0-1.93-1.11,15,15,0,0,0-4.71,4.52l2.19,1.27c1.71-3.39,3.05-6.5,2.74-10.36a1.27,1.27,0,0,0-2.13-.88,18.16,18.16,0,0,0-4.88,7.73l2.42.33c.21-5,.2-10,0-15a1.21,1.21,0,0,0-2.23-.61l-1.3,2,2.17.91c.2-.54.41-1.07.62-1.61l-2.21-.6a10.35,10.35,0,0,1-.23,4.07,1.17,1.17,0,0,0,2.26.62c.41-1.18.82-2.36,1.24-3.54.5-1.45-1.72-2-2.27-.62a23.67,23.67,0,0,1-10.49,11.94c-1.38.78-.17,2.65,1.2,2.06a45,45,0,0,1,7.48-2.5l-1.12-1.92a34.21,34.21,0,0,1-7.07,5.3,1.15,1.15,0,0,0-.41,1.55c2.3,3.69,9.59,1,13,.55l-1-1.78a21,21,0,0,1-4.21,5.21l1.9,1.47a17,17,0,0,1,4-4.36l-1.67-1.67a15.73,15.73,0,0,1-5.94,4.08l1.47,1.46a10.24,10.24,0,0,1,2.92-4.28c1.07-1.07-.5-2.57-1.62-1.63a20,20,0,0,1-7.66,4.5l1.09,1.88c1.71-2,3.43-4,5.11-6,.76-.91-.19-2.37-1.32-1.72-2.48,1.44-5,2.76-7.56,4l1.48.85c-.23-2.47,2.56-3.75,2.34-6.31-.1-1-1.66-1.06-1.62,0Z" transform="translate(-269.72 -272.23)" fill="#1e1e1e"/><path d="M357.43,358.35a19.15,19.15,0,0,1-2.49,8.4l2.12,1.24c.46-1,1.89-5,3.11-5.29l-1.2-.31c.43.46-2,3.7-2.2,3.91a10.82,10.82,0,0,1-3.41,2.46l2,.81c-.94-2.77-.05-5.23,1-7.81.46-1.18-1.27-2.07-2.08-1.21a97.53,97.53,0,0,0-6.91,8.15c-.94,1.24,1.08,2.74,2.13,1.64a13.51,13.51,0,0,0,3.25-6.06c.44-1.61-1.86-2.15-2.45-.67a18.84,18.84,0,0,1-4.07,6.27c-.72.75-.26,2.4.94,2.27,4.84-.55,7.33-5.28,11.87-6.21-.35-.47-.71-.93-1.07-1.39-1.16,1.73-3.68,5.33-2.82,7.55a1.4,1.4,0,0,0,1.28,1,2.2,2.2,0,0,0,1.84-.56c.52-.36,2.49-2,2.62-2.6-.4-.77-.67-.66-.81.32a11.08,11.08,0,0,0-.42,1.14,4.29,4.29,0,0,0,.07,2.33c.31,1.37,2.6,1.11,2.48-.33-.15-1.86,2.69-5.31.49-6.73a2,2,0,0,0-1.91-.12c-1.33.53-3.05,4-4.36,3.9l1.14.66c-.44-1,1.66-4.72,2-5.58a1,1,0,0,0-1.07-1.39c-4.09,1.05-7.17,5.14-11.37,5.38.32.76.63,1.51.94,2.27a20,20,0,0,0,4.64-7.48l-2.45-.67a9.43,9.43,0,0,1-2.72,4.81l2.13,1.65c2-2.66,4.1-5.26,6.33-7.76l-2.08-1.21c-1.16,3-2.09,6-1.18,9.19a1.38,1.38,0,0,0,2,.82c2.68-1.34,9.06-7.15,6-10.46a1.24,1.24,0,0,0-1.2-.32c-2.37.57-3.72,4.49-4.57,6.42-.63,1.43,1.5,2.68,2.12,1.24a21.86,21.86,0,0,0,1.79-9.64.71.71,0,0,0-1.42,0Z" transform="translate(-269.72 -272.23)" fill="#1e1e1e"/><path d="M362.51,371.52c0,1.17.09,2.33.16,3.49s2,1.69,2.35.31a15.2,15.2,0,0,1,1.65-4.77l-2.22-.6a17.92,17.92,0,0,1-.49,5.88,1.22,1.22,0,0,0,2.22.94,19.77,19.77,0,0,1,3.25-4.19l-2.09-1.22c-.7,1.84-1.46,3.65-2.21,5.47-.52,1.26,1.08,2,2,1.56,11.31-4.95,7-22.77,1.76-30.75-.75-1.15-3-.86-2.85.77.5,4.27,3.5,14.57-.14,18.07l2.47,1a43,43,0,0,1-.29-8.64h-2.67c.16,3.33.36,8-1.44,11l1.58-.64c-2.24-.5-1.93-8.84-1.87-10.67H361a114.62,114.62,0,0,0,.17,11.87c.12,1.43,2.45,2,2.73.37a54.64,54.64,0,0,1,1.72-8.15l-1.78.23a26.27,26.27,0,0,1,2.31,7.82c.21,1.33,2.28,1.21,2.57,0l2.19-9H368.2c.53,2.79,1,5.57,1.31,8.39.19,1.5,2.33,2,2.8.37.69-2.46,1.39-4.92,2.08-7.39l-2.76-.37a23.51,23.51,0,0,0,.61,6.27,1.41,1.41,0,0,0,2.75-.37,37.47,37.47,0,0,0-7.58-25,1.4,1.4,0,0,0-2.39,0l-.34,0a1.41,1.41,0,0,0-1.75,1.33,62.44,62.44,0,0,1-1.16,9.23h2.56a14.37,14.37,0,0,1-.35-5.42c.16-1.26-1.66-1.52-2.24-.61-1.11,1.78-2.23,3.56-3.3,5.36l2.29.62a6.05,6.05,0,0,1,1.14-4.47c.48-.82-.34-2.08-1.32-1.71a5.19,5.19,0,0,0-3.09,2.54c-.65,1.08.94,2.39,1.8,1.38,1.18-1.41,2.37-2.81,3.56-4.22l-1.91-1.11c-.69,2.19-4.06,8.56-1.6,10.62s4.3-1.84,5.41-3.3l-2.44-.66c0,2.39-.17,4.77-.38,7.16-.13,1.54,2.21,1.75,2.62.35q1.49-5,3-10h-2.64l.81,6c.22,1.63,2.59,1.08,2.71-.36a41.84,41.84,0,0,0-1.6-15.26l-2.24,1.31c6.6,6.27,14,20.95,6.09,29a1.58,1.58,0,0,0,2.24,2.23c9.19-9.25,1.45-25.73-6.44-33.1a1.35,1.35,0,0,0-2.24,1.3,41.57,41.57,0,0,1,1.43,14.55l2.71-.37c-.28-2-.55-4-.83-6-.19-1.41-2.29-1.18-2.64,0L362,360l2.62.35c.19-2.39.3-4.77.32-7.16a1.31,1.31,0,0,0-2.43-.66c-1.27,1.69-.85,1-.65-.66a32.26,32.26,0,0,1,1.3-4.74c.31-1-1.15-2-1.91-1.11q-1.77,2.12-3.56,4.22l1.8,1.39,1.73-1.44-1.31-1.72a9.9,9.9,0,0,0-1.59,5.65,1.24,1.24,0,0,0,2.29.62c1.11-1.78,2.18-3.59,3.25-5.39l-2.23-.6a19.62,19.62,0,0,0,.19,6.12,1.34,1.34,0,0,0,2.56,0,72.06,72.06,0,0,0,1.36-9.93L364,346.27c1.5.25,2.73.25,3.46-1.24H365a35,35,0,0,1,7.17,23.56l2.75-.37a18.83,18.83,0,0,1-.5-5.53,1.41,1.41,0,0,0-2.76-.37q-1.05,3.69-2.12,7.38l2.8.38c-.41-3.06-.9-6.09-1.5-9.12a1.39,1.39,0,0,0-2.66,0l-2.1,9h2.57a25.16,25.16,0,0,0-3.2-8.09,1,1,0,0,0-1.78.23c-.7,2.69-1.72,5.27-2.52,7.93l2.73.37c-.23-4-.29-7.9-.19-11.87,0-1.78-2.68-1.77-2.76,0-.16,3.5-.69,12.4,3.89,13.37a1.44,1.44,0,0,0,1.58-.64c2.05-3.44,1.88-8.54,1.69-12.4a1.34,1.34,0,0,0-2.67,0,37.26,37.26,0,0,0,.06,8.64,1.47,1.47,0,0,0,2.47,1c4.86-4.63,1.65-14.41,1.16-20.12l-2.85.77c4.12,6.69,8.71,22.41-.51,26.82l2,1.56c.64-1.85,1.26-3.7,1.95-5.53.44-1.21-1.26-2.06-2.09-1.22a22.57,22.57,0,0,0-3.58,4.73l2.23.94a20.19,20.19,0,0,0,.53-6.53c-.09-1.07-1.67-1.76-2.23-.6a24.24,24.24,0,0,0-1.9,5.34H365c-.26-1.14-.53-2.27-.82-3.39a.86.86,0,0,0-1.69.22Z" transform="translate(-269.72 -272.23)" fill="#1e1e1e"/><path d="M353.76,336.81c3.69-1.56,8.81-2.06,8.55,3.46a73.81,73.81,0,0,1-1.25,8h2.46c-.35-2.5-.67-5-.83-7.53-.08-1.28.16-3.12-.54-4.28-.93-1.55-3.3-2.55-4.93-1.83a1.12,1.12,0,0,0-.22,1.76c1.86,1.51,3.49,3,3.93,5.46s-.26,4.75-.86,7a1.19,1.19,0,0,0,1.73,1.33c1.83-1.11,1.78-3.12,1.93-5.08a105.77,105.77,0,0,0,.17-11.54l-2.25.3a59.7,59.7,0,0,0,3.56,8.11,1.18,1.18,0,0,0,2.13-.28,2.89,2.89,0,0,0,0-2.44c-.36-1.09-2.29-1-2.14.29,0,.51-.06,1-.08,1.53l2.12-.28a45.84,45.84,0,0,1-3.36-7.54c-.42-1.14-2.3-1.07-2.25.31.08,2.43.11,4.86,0,7.29,0,1.4.35,6.5-1,7.3l1.73,1.33c1.7-6.06,1.45-11-4-14.88v1.94c.17-.1,1.21.48,1.4.65,1.25,1.06.89,2.64.93,4.08.06,2.44.14,4.88.32,7.31.11,1.34,2.25,1.86,2.51.34.69-3.94,3-10.11.13-13.65s-7.73-2.43-10.83,0a.93.93,0,0,0,.94,1.6Z" transform="translate(-269.72 -272.23)" fill="#1e1e1e"/><path d="M330.39,310.53l2.22-.6a1,1,0,0,0,.27-1.95,44.48,44.48,0,0,0-8.82-2c-1.11-.14-1.36,1.72-.27,1.95a72.88,72.88,0,0,1,14.28,4.57c1.23.54,2.31-1.25,1.07-1.83A65.78,65.78,0,0,1,328,304.14l-.84,2,19.19,6c1.37.42,1.9-1.66.58-2.13a129.63,129.63,0,0,1-20.28-9.43l-.9,2.13q7.67,1.69,15.32,3.39a1.15,1.15,0,0,0,.61-2.21q-5.87-2.19-11.5-4.88c-.3.7-.6,1.4-.89,2.11q9.65,3.19,19.23,6.63c.2-.75.41-1.5.62-2.25A43.38,43.38,0,0,1,335.83,299c-.3.72-.6,1.44-.91,2.16a44.67,44.67,0,0,1,13.72,5.41l1.22-2.08A22.8,22.8,0,0,1,344,301l-1.17,2c2,.83,3.66,2.67,5.48,3.79a31.27,31.27,0,0,0,5.66,2.63l.64-2.32c-3.78-1.11-6-4.26-9.19-6.32-3-1.93-6.53-2.07-9.81-3.31-1.21-.45-2.06,1.54-.89,2.11,3.64,1.77,8.75,1.38,11.73,4.33,3.42,3.39,4.78,9.22,5.66,13.77l2-1.18c-4.68-3.72-7.19-9.73-12.88-12.17-.92-.39-2.17.27-1.82,1.4,1.28,4.13,4.56,6.24,8.24,8.2l1.26-2.17c-4.14-1.93-9.28-5.72-14.06-4.58a1.28,1.28,0,0,0-.88,1.54c1,4.92,8.24,6.48,11.84,9.18l1-2.28q-6.37-2-12.76-4c-1.53-.47-2.19,1.93-.66,2.39q6.4,1.94,12.76,4c1.46.47,2-1.49,1-2.29-2.67-2-9.9-4.06-10.67-7.69l-.88,1.55c3.48-.83,9.07,2.91,12.13,4.33,1.44.68,2.71-1.39,1.26-2.17-3-1.61-5.91-3.22-7.12-6.69l-1.51,1.52c5.38,2.12,7.71,8.19,12.11,11.63a1.22,1.22,0,0,0,2-1.18c-.93-4.68-2.47-10-5.54-13.82-3.4-4.2-8.58-3.34-13-5.63l-.89,2.11c4.5,1.81,8.33,2.23,12.18,5.58a17.79,17.79,0,0,0,6.79,4.14c1.51.44,2.08-1.8.64-2.32-4.15-1.51-7-4.64-10.85-6.29-1.13-.48-2.6.92-1.45,1.88a25,25,0,0,0,6.59,4c1.28.53,2.07-1.53.93-2.21a47.85,47.85,0,0,0-14.31-5.61,1.19,1.19,0,0,0-.91,2.16,45.54,45.54,0,0,0,13.89,6.7c1.46.42,2-1.76.62-2.25q-9.58-3.42-19.24-6.61c-1.22-.4-2.08,1.54-.89,2.11,4,1.88,8,3.57,12.06,5.1.2-.74.41-1.47.61-2.21q-7.67-1.69-15.31-3.43a1.18,1.18,0,0,0-.9,2.14,134.24,134.24,0,0,0,20.88,9.54c.19-.71.39-1.42.58-2.13L327.75,304c-1.26-.39-1.79,1.31-.84,2a63.43,63.43,0,0,0,11.16,6.49c.35-.61.71-1.22,1.07-1.83A77.74,77.74,0,0,0,324.32,306c-.09.66-.17,1.31-.26,2a43.54,43.54,0,0,1,8.29,1.91V308a6.94,6.94,0,0,0-2.68.84c-.95.43-.26,2.09.72,1.71Z" transform="translate(-269.72 -272.23)" fill="#1e1e1e"/><path d="M333.29,313.76c2.55,1.35,8.53,5.25,11.34,3.34a1.12,1.12,0,0,0,.49-1.22c-.64-2.7-5.05-3.18-7.28-3.75-4.88-1.26-9.81-2.05-14.27-4.54l-1.17,2a46.36,46.36,0,0,0,13.73,3.61c1.39.15,1.57-2,.32-2.36-3.26-1-6.85-2.64-10.26-2.83a1,1,0,0,0-.86.49L325,309a.71.71,0,0,0,.62,1.07c2.81-.26,7.51,2.24,10.17,3.11.11-.79.21-1.58.32-2.36a45.7,45.7,0,0,1-12.84-3.33c-1.22-.5-2,1.51-.89,2.12,4.06,2.2,8.42,3.18,12.89,4.22.61.14,6.43,1.31,6.44,1.81,0-.66-7.09-2.57-7.84-2.89s-1.3.66-.6,1Z" transform="translate(-269.72 -272.23)" fill="#1e1e1e"/><path d="M326.45,315a13.07,13.07,0,0,0,2.83,4.59,1,1,0,0,0,1.61-1.24,14.9,14.9,0,0,0-2.89-3.58,1.1,1.1,0,0,0-1.56,1.55,16.16,16.16,0,0,0,5,3.74c1.08.51,2.45-.92,1.38-1.78-1.95-1.57-4.49-3.57-7.06-3.83-.67-.07-1,.87-.54,1.31a16.8,16.8,0,0,0,2.87,1.9,34.08,34.08,0,0,1,3.13,2.22l1.37-1.78a14.74,14.74,0,0,1-4.61-3.33l-1.56,1.55a16,16,0,0,1,2.68,3.07l1.61-1.25a11.76,11.76,0,0,1-2.79-3.77.82.82,0,0,0-1.49.63Z" transform="translate(-269.72 -272.23)" fill="#1e1e1e"/><path d="M309.58,314.65a11.19,11.19,0,0,0,.32,1.17l1-1.36a12.66,12.66,0,0,1-2.46.08,1.15,1.15,0,0,0-1,1.71,12.29,12.29,0,0,0,5.21,4.2c1.2.52,2.54-.86,1.49-1.92-.65-.65-1.3-1.26-2-1.86-1.2-1.05-2.92.63-1.77,1.76a9.51,9.51,0,0,0,1.44,1.18l-.25-2c-.05.05-4.2-1.49-4.77-1.72a16.18,16.18,0,0,1-5.53-3.53l-1.59,2.06c2.42,1.6,6.22,4.17,9.29,4a1.24,1.24,0,0,0,1.06-.61c1.39-3.11-2.87-6.3-4.87-7.92l-1.18,2c3.3,1.38,7.42,3.24,11.07,3,.84-.06,1.36-1.28.47-1.71-3.37-1.65-7.38-2.17-10.9-3.6-1.1-.45-2.11,1.29-1.18,2s5,3.75,4.47,5l1.06-.61c-2.43.15-5.92-2.15-7.7-3.56-1.29-1-3.08.62-1.86,1.85a19.16,19.16,0,0,0,7.59,4.47c1.63.56,4.86,2.22,6.35.71a1.28,1.28,0,0,0-.26-2l-.94-.76-1.77,1.76c.7.59,1.37,1.19,2,1.83.39-.68.79-1.36,1.19-2a10.74,10.74,0,0,1-4.36-3.35l-.81,1.95a13.24,13.24,0,0,0,2.74-.25,1.08,1.08,0,0,0,.76-1.32,2.31,2.31,0,0,0-1.2-1.52.82.82,0,0,0-1.2.92Z" transform="translate(-269.72 -272.23)" fill="#1e1e1e"/><path d="M317.63,313.45a44.08,44.08,0,0,0,13.35,3.7,41.83,41.83,0,0,0,7.59.05c3.37-.28,7.05-1.54,10.39-1a1.08,1.08,0,0,0,.58-2.08,45,45,0,0,0-10.49-1.82,1.21,1.21,0,0,0-.84,2,16.64,16.64,0,0,0,11.47,4.8,1.22,1.22,0,0,0,.61-2.26,91,91,0,0,1-13.42-8.73l-.54,2.06c2.43-.55,6.44,2.36,8.45,3.35l7.82,3.87c.33-.78.66-1.56,1-2.34a70.44,70.44,0,0,1-18.95-9.39c-.1.79-.2,1.59-.31,2.39,2.88-.76,8.5,2.69,10.92,3.74,3.1,1.34,6.17,2.77,9.21,4.25l1.4-2.38a26.73,26.73,0,0,1-10.48-8.11L344,307.92a31.35,31.35,0,0,1,12.61,9.27l1.81-2.35a19.66,19.66,0,0,1-6.39-6.84c-.17.67-.35,1.33-.52,2,.17-.09,5.39,6.55,5.35,6.5a28.88,28.88,0,0,1,3.29,7.16l2.17-1.67c-3.43-1.84-4.5-6.24-7.63-8.59-1.14-.86-2.19.73-1.74,1.74,1.81,4.05,3.59,8.12,5.38,12.18l2.14-1.65c-3.81-3.19-6.41-7.18-8.86-11.44-.77-1.34-3.08-.46-2.55,1.07a47.64,47.64,0,0,0,5.5,11l2.27-1.75a21.53,21.53,0,0,1-5.94-9.6c-.44-1.45-2.88-1.25-2.75.38a15.2,15.2,0,0,0,2,6.57c1.05,1.85,4.69,5.61,4.55,7.81l1.07-1.41-.3.1c-1.79.58-1,3.43.78,2.83l.3-.11a1.51,1.51,0,0,0,1.08-1.41c.11-1.83-1.31-3.56-2.25-5-1.93-3-4.14-5.62-4.46-9.34l-2.75.37a24.83,24.83,0,0,0,6.59,10.89c1.15,1.11,3.22-.34,2.28-1.75a48.67,48.67,0,0,1-5.31-10.32l-2.55,1.07c2.68,4.41,5.33,8.65,9.34,12a1.38,1.38,0,0,0,2.15-1.66c-1.85-4-3.72-8.05-5.55-12.09l-2,1.55c3.25,2.59,4,7,7.69,9.14a1.49,1.49,0,0,0,2.17-1.67,27.76,27.76,0,0,0-6.62-11.7c-1.36-1.43-4.06-4.85-6.34-3.68a1.48,1.48,0,0,0-.52,2,23.16,23.16,0,0,0,7.39,7.95c1.49,1,2.85-1.13,1.81-2.34a34,34,0,0,0-14-9.82c-1.44-.56-2.08,1.36-1.34,2.31a27.9,27.9,0,0,0,11,8.53c1.6.7,3-1.61,1.4-2.38-4-1.91-8-3.72-12.12-5.41-3.1-1.28-6.7-3.62-10.1-2.72a1.32,1.32,0,0,0-.32,2.39,72.37,72.37,0,0,0,19.59,9.6c1.36.42,2.3-1.7,1-2.34-4.06-2-8.11-4-12.19-6-2.12-1-3.68-2-6-1.43a1.24,1.24,0,0,0-.54,2.06A94.15,94.15,0,0,0,349.07,319l.61-2.25a14.09,14.09,0,0,1-9.78-4.07c-.29.68-.57,1.36-.85,2a55.19,55.19,0,0,1,9.91,1.51l.29-2.12c-5-.41-9.87,1.42-14.9,1.38a44.32,44.32,0,0,1-16.19-3.29c-.71-.28-1.24.95-.53,1.26Z" transform="translate(-269.72 -272.23)" fill="#1e1e1e"/><path d="M354.3,324.54c-.39,2.5-.16,5-.38,7.53l2.36-.63a5.91,5.91,0,0,1-.6-2.82c0-1.65-2.39-1.6-2.53,0q-.34,3.83-.67,7.65l1.6-1.22-.26-.08.88.88c-.24-1.33.61-3.51.85-4.84l.93-5.11-2.32.3c1.7,3.33,1.93,7.09,4.39,10.05,1,1.15,2.71-.33,2-1.57a35.51,35.51,0,0,1-3.17-7.93l-2.54.7a36.24,36.24,0,0,0,4.7,8.19c.46.6,1.5,1,2.1.27,1.08-1.35.34-2.72-.07-4.28-.69-2.58-1.39-5.15-2.08-7.72l-2.61.72a53.26,53.26,0,0,0,4.64,10.61,1.46,1.46,0,0,0,2.65-1.11,57.32,57.32,0,0,0-3.45-10.47,1.36,1.36,0,0,0-2.52.68c.06.57.13,1.05.24,1.6a1,1,0,0,0,1.81.24,13.48,13.48,0,0,0,.6-1.48h-2.6c.91,3.43,2.19,6.77,3.13,10.2l2.65-1.12a55.09,55.09,0,0,1-4.54-9.87,1.35,1.35,0,0,0-2.61.72l1.35,5c.2.76.41,1.52.61,2.27.08.29.69,2.4.9,2.12h1.9a33.14,33.14,0,0,1-4.39-7.58c-.59-1.39-2.79-.39-2.41,1a38.16,38.16,0,0,0,3.49,8.53l2-1.56c-2.23-2.65-2.47-6.46-4-9.5a1.28,1.28,0,0,0-2.31.31q-.6,3.24-1.18,6.5c-.28,1.54-.89,3.24-.6,4.8a1.27,1.27,0,0,0,.89.88l.26.08a1.28,1.28,0,0,0,1.6-1.22c.22-2.55.45-5.1.67-7.65h-2.53a8.68,8.68,0,0,0,.94,4.09c.66,1.38,2.55.35,2.31-1-.43-2.4-.42-4.84-1-7.2-.13-.51-1-.57-1.09,0Z" transform="translate(-269.72 -272.23)" fill="#1e1e1e"/><path d="M286.56,332a9.05,9.05,0,0,0-2.56,3.33,1.33,1.33,0,0,0,2.3,1.35c.45-.65.91-1.29,1.36-1.93a8,8,0,0,1,1.29-1.65l-.56.33a5.89,5.89,0,0,0,.58-.24,1.09,1.09,0,0,0,.5-1.22l0-.11a1.27,1.27,0,0,0-1.18-.9c-1.17,0-1.72.9-2.34,1.74s-1.27,1.76-1.91,2.63l2.3,1.35a9.11,9.11,0,0,0,1.58-3.92.88.88,0,0,0-1.32-.76Z" transform="translate(-269.72 -272.23)" fill="#1e1e1e"/><path d="M288.14,332.69a4.24,4.24,0,0,0,1.88,3.64,1.06,1.06,0,0,0,1.2-.08,1.14,1.14,0,0,0,.38-1.14,4.4,4.4,0,0,0-.48-1.62,3.51,3.51,0,0,0-.54-.55,1.64,1.64,0,0,0-.69-.47.61.61,0,0,0-.77.58,3,3,0,0,0,.1.68,3.42,3.42,0,0,0,0,.55,8.62,8.62,0,0,1,.25,1.12l1.63-.93a3.6,3.6,0,0,1-1.78-1.94.61.61,0,0,0-1.19.16Z" transform="translate(-269.72 -272.23)" fill="#1e1e1e"/><path d="M294.41,336.5c3.87-4.71,5-13.74,3.82-19.57a1,1,0,0,0-1.82,0c-.59,3.36-.64,6.78-1.29,10.14-.58,3-1.73,5.9-1.92,8.93a.72.72,0,0,0,1.21.5Z" transform="translate(-269.72 -272.23)" fill="#1e1e1e"/><path d="M312.1,282.73c1.07-2.22,6-2.92,8.15-3.22a23.4,23.4,0,0,1,9,.57,1.16,1.16,0,0,0,.62-2.24c-7-2.74-15.89-2.58-21.8,2.49-.64.55.17,1.41.84,1.1,1.42-.67,2.34-1.77,3.71-2.56a14.69,14.69,0,0,1,7-1.57c2.12-.07,4.67-.15,6.63.76,1.05.49,1.89,1.24,3,1.7,1.38.58,2-1.68.62-2.26-1.7-.71-2.95-1.78-4.78-2.1a25.3,25.3,0,0,0-6.27,0,15.28,15.28,0,0,0-4.49,1c-2.11.86-3.83,3.16-5.89,3.81l.53,1.28c6.87-2.91,13.17-4.22,20.34-1.35l.62-2.24a24.94,24.94,0,0,0-12-.23c-2.44.58-6.78,1.57-7.31,4.43-.17.92,1.15,1.66,1.62.69Z" transform="translate(-269.72 -272.23)" fill="#1e1e1e"/><path d="M310.26,282a9.64,9.64,0,0,0,2.63,6.88,28.87,28.87,0,0,0,3.73,2.59c1.24.93,2,2.18,3.48,2.81s2.54-1.23,1.2-2.05a17.61,17.61,0,0,1-4.87-5c-1.41-1.93-3.29-4.14-3-6.65l-1.66.69c1.38,1.52,2,4.13,3.07,5.93a43.93,43.93,0,0,0,3.32,4.79c.75,1,2-.26,1.58-1.22a35.36,35.36,0,0,1-3.24-10.72l-1.83.25a49.86,49.86,0,0,0,5.85,11.76,1,1,0,0,0,1.76-1,37.57,37.57,0,0,1-2.71-11.3c-.12-1.12-1.82-1.18-1.79,0A39.18,39.18,0,0,0,320.41,293c.47,1.22,2.4.76,2-.56-1.13-3.89-1.2-7.61-1.5-11.59a.54.54,0,0,0-1.05-.14c-1.11,3.94-.5,8.4.54,12.29l2-.56c-1.7-4.21-2.26-8.45-2.91-12.9l-1.73.47c.59,4.14,1.07,8.2,2.71,12.08l1.76-1a52.71,52.71,0,0,1-5.82-11.23.93.93,0,0,0-1.79.49A40.74,40.74,0,0,0,318,291.81l1.58-1.22a38.42,38.42,0,0,1-3.78-5.54c-.89-1.59-1.42-3.49-2.5-4.94-.45-.61-1.59-.67-1.78.23-.6,2.91,1.18,5.36,2.75,7.68s3.31,4.74,5.86,6.29c.31-.73.61-1.45.92-2.17-1-.42-1.67-1.45-2.49-2.12a24.52,24.52,0,0,0-2.73-1.66,8.42,8.42,0,0,1-4.07-6.33c-.08-.93-1.5-1-1.47,0Z" transform="translate(-269.72 -272.23)" fill="#1e1e1e"/><path d="M320.25,279.05c1.06,3.41,2.51,6.64,1,10.22l2,.55a108.39,108.39,0,0,1,1.27-11.07h-2.17a32.32,32.32,0,0,1-.94,13.76l2.37.32c.13-4.25.63-10.25,3.44-13.7l-1.73-.46a18.75,18.75,0,0,1-.74,11.3l2.31.31a47.87,47.87,0,0,1,2.79-12.8h-2.25c.35,2.11.71,4.23,1.07,6.34l2.35-.65c-1.09-3.17-2.84-8.43-6.44-9.35a1.15,1.15,0,0,0-.89,2.09c1.83,1.17,5.47,1.77,6.7,3.48a4.55,4.55,0,0,1-.27,5.34,27.58,27.58,0,0,1-2.65,3l2,1.19a6,6,0,0,1,2-3.69l-1.34.18.24.18-.51-1.25c-.37,2-2.9,4-4.26,5.39l2,1.19a4.68,4.68,0,0,1,1.56-2.53L327.42,287a8.19,8.19,0,0,1-1.8,2.7,1.12,1.12,0,0,0,1.58,1.58,8.31,8.31,0,0,0,2.29-3.4c.45-1.11-1.14-1.84-1.89-1.1a9.71,9.71,0,0,0-2.32,3.48c-.49,1.21,1.23,1.93,2,1.19,1.67-1.53,4.35-4.19,4.68-6.53a1.18,1.18,0,0,0-.51-1.25l-.24-.19a1.12,1.12,0,0,0-1.35.17,8.89,8.89,0,0,0-2.74,4.61,1.24,1.24,0,0,0,2,1.19c2.15-2.09,5.4-5.42,4.64-8.74-.93-4.09-6.07-4.79-9-6.75-.29.7-.59,1.4-.88,2.09,2.41.67,4.06,5.91,4.7,7.8a1.22,1.22,0,0,0,2.35-.65l-1.17-6.31c-.23-1.23-1.91-1-2.25,0a57.62,57.62,0,0,0-2.9,13.42c-.13,1.39,1.91,1.5,2.32.31a20.82,20.82,0,0,0,.47-12.47,1.05,1.05,0,0,0-1.74-.46c-3.26,4.06-3.95,10.15-4.38,15.17-.12,1.38,2,1.59,2.36.32a33.51,33.51,0,0,0,.79-15c-.24-1.37-2.06-.83-2.21.3-.5,3.78-1,7.57-1.24,11.37-.09,1.32,1.74,1.37,2.15.29,1.51-4,.25-8-1.71-11.59a.7.7,0,0,0-1.27.53Z" transform="translate(-269.72 -272.23)" fill="#1e1e1e"/><path d="M297.6,302.45c1.24.73,2.26.24,3.64-.07,3.88-.87,7.72-1.67,11.66-2.19,1.58-.2,1.69-2.66,0-2.56-4.58.27-9.15.56-13.73.84l.33,2.43c5.26-1.16,10.53-2.29,15.79-3.47,1.5-.34.84-2.51-.63-2.27a54.24,54.24,0,0,1-10.66.4v2c9.56-1.27,18.9-1.64,28.34.63a1.22,1.22,0,0,0,.65-2.35c-9.64-2.54-19.51-1.58-29.26-.26-1.17.16-.8,1.92.27,2a65.86,65.86,0,0,0,11-.1c-.1-.77-.2-1.54-.31-2.31-5.28,1.09-10.55,2.23-15.82,3.35a1.24,1.24,0,0,0,.33,2.43c4.58-.25,9.16-.49,13.73-.75-.11-.84-.22-1.67-.34-2.51-2.59.37-5.17.79-7.72,1.37-1.2.28-5.18,2.11-6.22,1.65s-2.17,1.06-1,1.75Z" transform="translate(-269.72 -272.23)" fill="#1e1e1e"/><path d="M297.63,302c-.61,1.84,2.56,4.46,3.54,5.69l.75-1.81a5.15,5.15,0,0,1-4-1.59c-.65-.53-2.07-.28-1.93.8a28.72,28.72,0,0,0,2,7.5l2.35-1c-.73-1.39-1.51-2.74-2.3-4.1a1.23,1.23,0,0,0-2.22.29,6.35,6.35,0,0,0,2.45,7.61,1.28,1.28,0,0,0,1.87-.76c.25-1.33-.58-2.41-1.16-3.58l-3.4-6.91c-.55-1.11-2.09-.47-2.17.59-.29,4,1.05,10.12,5.49,11.34a1.2,1.2,0,0,0,1.34-1.74,8,8,0,0,0-5.32-4.14c-.79-.2-1.81.58-1.46,1.46a2.36,2.36,0,0,0,1.79,1.76c1.27.42,1.18-.65,3,.47a17.49,17.49,0,0,1,1.76,1.79c1.7,1.54,5.06,3.9,7.46,3a1.29,1.29,0,0,0,.9-1.19l.06-.51a1,1,0,0,0-.53-.92l-.42-.18a.85.85,0,0,0-1.23.94c.33-.6.06-.85-.83-.74a10.67,10.67,0,0,1-2.41-1,25.7,25.7,0,0,1-3.22-2.66,5.83,5.83,0,0,0-1.71-1.06c-.29-.09-2.27-.17-2.31-.26l-1.46,1.46a5.73,5.73,0,0,1,3.9,3.05c.44-.59.89-1.17,1.34-1.75-3.18-.87-4-6.36-3.79-9.05l-2.17.58,2.1,4.5c.34.74,2.15,3.44,2,4.14l1.87-.76a3.87,3.87,0,0,1-1.39-4.77l-2.22.29c.81,1.36,1.51,2.75,2.18,4.18s2.91.19,2.22-1.3a30.13,30.13,0,0,1-2.15-6.81L296.58,306c1.8,1.1,3.22,1.94,5.34,1.93a1.07,1.07,0,0,0,.75-1.81c-.51-.54-3.8-3.21-3.7-4s-1.12-.88-1.34-.18Z" transform="translate(-269.72 -272.23)" fill="#1e1e1e"/><path d="M300.13,309.68c3-1.72,6.64-1.05,9.71-2.72a1.27,1.27,0,0,0-.31-2.3,62.82,62.82,0,0,0-12.21-1.73v2.48a98.65,98.65,0,0,0,18.24-1.52c1.63-.28,1-2.45-.36-2.63a97.15,97.15,0,0,0-13.42-.77c.11.86.23,1.72.35,2.59a133.12,133.12,0,0,1,17.62-3.44c1.35-.19,1.18-2.26,0-2.57a37.89,37.89,0,0,0-7.48-1.21c.11.83.23,1.67.34,2.5,7.15-1.25,13.9,1.3,20.46,3.85.12-.9.24-1.8.37-2.69a127.54,127.54,0,0,0-18.74-.82,1.19,1.19,0,0,0-.32,2.33,56,56,0,0,0,17.42,3.28,1.3,1.3,0,0,0,.35-2.54,29.66,29.66,0,0,0-12.06-1.15c-2.31.27-8.4.88-9.73,3.37-2.77,5.18,11.31,5.81,13.75,6,1.49.13,1.82-2.31.35-2.62a61.32,61.32,0,0,0-13.59-1.2c-1.12,0-1.81,1.79-.62,2.3,5.91,2.53,12.09,3.28,18.44,3.81,1.5.12,1.81-2.29.36-2.62-4.86-1.09-9.71-2.22-14.53-3.47v2.17c3.64-.72,9.54,3.21,12.81,4.8l1-2.35c-4.72-1.95-8.56-5.16-12.34-8.51l-1.11,1.91c6,1.34,11.2,4.58,16.52,7.53,1.61.89,3.06-1.62,1.44-2.46-5.6-2.89-11.09-6.1-17.35-7.27-1.05-.2-2,1.07-1.12,1.91,4.09,3.78,8.08,7.24,13.27,9.37,1.34.54,2.31-1.74,1-2.35-4.15-1.92-10-5.73-14.7-4.75a1.13,1.13,0,0,0,0,2.17c4.83,1.2,9.63,2.52,14.42,3.87.12-.87.24-1.74.35-2.61-6-.49-11.87-1.08-17.49-3.41l-.33,2.43a61.26,61.26,0,0,1,12.88,1.3l.36-2.61c-1.8-.15-7.58,0-8.95-1.44-1.71-1.84.29-1.71,2.17-2.15a28.21,28.21,0,0,1,14.13.51c.11-.85.23-1.7.34-2.55a52.47,52.47,0,0,1-16.79-3c-.1.78-.21,1.56-.31,2.33a98.22,98.22,0,0,1,18.37,1.14,1.38,1.38,0,0,0,.73-2.65c-7.2-2.71-14.12-4.9-21.87-3.65-1.5.24-1,2.38.34,2.49a35.6,35.6,0,0,1,6.77,1.24v-2.57a131.44,131.44,0,0,0-17.61,3.46,1.32,1.32,0,0,0,.35,2.59,109.5,109.5,0,0,1,13.42.82l-.35-2.63a102.16,102.16,0,0,1-17.53,1.62,1.24,1.24,0,0,0,0,2.48,55.51,55.51,0,0,1,11.54,1.68l-.3-2.3c-3.17,1.7-6.7,1-9.59,3.38-.86.7.24,2,1.16,1.51Z" transform="translate(-269.72 -272.23)" fill="#1e1e1e"/><path d="M297.29,391c7.2,3.9,16.26,4.54,24.31,4.39,8.69-.17,18.21-1.11,26.54-3.7,1.53-.48,1.35-3.17-.4-2.95-8.16,1-16.07,3-24.33,3.36-8.79.39-16.84-1.27-25.42-2.77-1-.17-1.68,1.15-.7,1.67Z" transform="translate(-269.72 -272.23)" fill="#1e1e1e"/><path d="M313.27,376.54c2.91,2.24,8,1.86,11.52,2s7.54.06,10.67-1.71c1.58-.89.73-3-.86-3.18-3.63-.34-7.33.81-11.05.7-3.37-.09-7.31-.91-10.28.95a.72.72,0,0,0,0,1.22Z" transform="translate(-269.72 -272.23)" fill="#1e1e1e"/><path d="M323.13,378.51c-2.59-.65-3.73,3.53-3.43,5.45a3.69,3.69,0,0,0,1.93,2.77c1.3.63,2.58.11,3.74-.58,2.25-1.34,3.83-3.43,2.46-6a5.19,5.19,0,0,0-2.91-2.78,2.14,2.14,0,0,0-2.58,1.53,1.13,1.13,0,0,0,1.87,1.09c.66-.64,1.89,2,1.75,2.52-.19.77-1.16,1.3-1.77,1.67-.32.19-1,.67-1.44.56-.62-.16-.81-1-.8-1.51,0-.35.45-2.57.9-2.61,1.12-.1,1.51-1.76.28-2.07Z" transform="translate(-269.72 -272.23)" fill="#1e1e1e"/></svg>