<svg id="OBJECT" xmlns="http://www.w3.org/2000/svg" viewBox="0 0 94.8 133.6"><path d="M128.78,335.21c-.77,7.62-.82,15.6-3.91,22.75-2.68,6.22-8.71,9.12-15.22,10.36-10.83,2.07-24.4-.65-30.78-10.46-4.38-6.74-5-15.06-5.23-22.87-.06-2-3.2-2-3.15,0,.22,9,1.1,18.64,6.75,26.09,6.88,9.06,19.71,12.17,30.55,10.74,7.34-1,15.45-3.81,19-10.78,3.87-7.6,4.65-17.5,3.94-25.83a1,1,0,0,0-1.95,0Z" transform="translate(-53.3 -275.6)" fill="#1e1e1e"/><path d="M72.18,337.46a5.17,5.17,0,0,0-5.58-3c-2.85.39-4.53,2.79-4.94,5.49-1,6.64,4.3,12.74,10.51,14.16,1.61.37,2.3-2.11.69-2.47a11.18,11.18,0,0,1-8.27-7.26c-1.42-4.38,1.25-10.05,6-6.05.62.52,1.93.05,1.55-.9Z" transform="translate(-53.3 -275.6)" fill="#1e1e1e"/><path d="M131.24,339.24c2.86-1.53,5.93-1.68,6,2.47a10.1,10.1,0,0,1-1.28,4.74c-1.5,2.79-4.13,5.93-7.3,6.68-1.53.37-.88,2.73.65,2.36,5.49-1.35,10.31-8.2,10.26-13.78-.05-6-5.17-7.41-9.4-3.87-.8.67.23,1.87,1.09,1.4Z" transform="translate(-53.3 -275.6)" fill="#1e1e1e"/><path d="M99.32,351.18c2.3,1.4,8.43,1,9.54-2.08.74-2-.64-4.67-.75-6.73-.17-3.56.08-7.18,0-10.75a1.25,1.25,0,0,0-2.49,0c0,4.25-.27,8.72.22,12.94a15.86,15.86,0,0,1,.44,2.2c-.12,2.52-1.22,2.08-2.91,2.34-1.9.29-2.86.24-4.17,1.58a.32.32,0,0,0,.07.5Z" transform="translate(-53.3 -275.6)" fill="#1e1e1e"/><path d="M88.83,343.6A2.59,2.59,0,1,0,86.24,341a2.62,2.62,0,0,0,2.59,2.59Z" transform="translate(-53.3 -275.6)" fill="#1e1e1e"/><path d="M115.8,343.59c3,0,3-4.64,0-4.64s-3,4.64,0,4.64Z" transform="translate(-53.3 -275.6)" fill="#1e1e1e"/><path d="M100.88,358.25c1.92.43,4.61.51,6.4-.44a.69.69,0,0,0-.16-1.25,8.52,8.52,0,0,0-2.85-.22,30.05,30.05,0,0,0-3.15.12c-.93.12-1.35,1.55-.24,1.79Z" transform="translate(-53.3 -275.6)" fill="#1e1e1e"/><path d="M102.14,361.42a2.78,2.78,0,0,0,3-.16.56.56,0,0,0-.13-1,2.78,2.78,0,0,0-2.91.6.48.48,0,0,0,.07.57Z" transform="translate(-53.3 -275.6)" fill="#1e1e1e"/><path d="M110,369.19c-.75,2.54-.61,5.26-.62,7.87,0,2.32-.49,5,.77,7a.93.93,0,0,0,1.59,0c1.15-2.1.58-4.68.54-7,0-2.61.14-5.31-.52-7.87a.92.92,0,0,0-1.76,0Z" transform="translate(-53.3 -275.6)" fill="#1e1e1e"/><path d="M111.85,380.69c7,2.92,12.25,6.67,16.44,13.06a29.61,29.61,0,0,1,3.17,6.28c.67,1.89,1.67,3.76-.62,4.9-1.63.82-5.62.29-7.48.4-18.53,1.07-37.2,1.38-55.35-3l1.1,1.94c2.41-12.52,13.61-19,24.63-23.23a1.66,1.66,0,0,0,1.18-1.55c0-3.21-.06-6.42-.06-9.63a1.56,1.56,0,0,0-3.11,0c0,3.21-.06,6.42-.06,9.63l1.19-1.56c-12,4.63-24.2,11.84-26.82,25.5a1.61,1.61,0,0,0,1.11,2,147.33,147.33,0,0,0,33.68,3.84c5.63,0,11.26-.15,16.88-.44,5.25-.27,11.45.16,16.45-1.55a1.35,1.35,0,0,0,.95-.94c1-5.67-3.11-12.32-6.48-16.66-4-5.16-9.8-10.26-16.5-11.14-1.39-.18-1.35,1.78-.3,2.23Z" transform="translate(-53.3 -275.6)" fill="#1e1e1e"/><path d="M72.13,341.14c-.66-2.16-3.48-3.67-5.54-2.44a3.39,3.39,0,0,0-1.52,2.4c-.16.86-.13,2.37.6,3a.51.51,0,0,0,.79-.1c.69-1,0-2.52.86-3.43,1.24-1.28,2.82.76,3.81,1.36a.68.68,0,0,0,1-.76Z" transform="translate(-53.3 -275.6)" fill="#1e1e1e"/><path d="M131.11,342.9a9.46,9.46,0,0,1,1.35-.58,2.72,2.72,0,0,1,1.46-.17c.48.2.23.93.86,1.09a.78.78,0,0,0,.74-.2c1-1-.06-2.6-1.36-2.61a4.67,4.67,0,0,0-3.4,2.12c-.16.23.14.45.35.35Z" transform="translate(-53.3 -275.6)" fill="#1e1e1e"/><path d="M83.8,342.41c1.45-1.51,2.34-3.4,4.81-3.23a4.28,4.28,0,0,1,2.71,1.29c.66.67.87,1.42,1.75,1.85a1.18,1.18,0,0,0,1.7-.69c1-3.11-3.77-5.47-6.25-5.5-2.81,0-6.79,2.33-6.49,5.54a1.05,1.05,0,0,0,1.77.74Z" transform="translate(-53.3 -275.6)" fill="#1e1e1e"/><path d="M110.76,342.35c1.57-.36,2.06-2.35,3.66-2.93,2.13-.78,4,.69,4.85,2.54s3.38.21,2.55-1.49a6.83,6.83,0,0,0-7.3-4c-1.92.39-6.19,3.18-4.55,5.57a.71.71,0,0,0,.79.32Z" transform="translate(-53.3 -275.6)" fill="#1e1e1e"/><path d="M68,334.76c.22-3.91-.7-10.12,1.76-13.2,1.82-2.29,6.39-4.16,9.09-5.57,6.88-3.59,14.53-3.77,22.11-3.2,7.23.54,14.91.91,22,2.54,4.45,1,8.64,2.66,10.07,7.38,1.27,4.18.95,9.29.52,13.57-.19,2,2.87,1.94,3.06,0,.81-8.26,1-18.09-7.46-22.07-8.06-3.77-18.65-3.64-27.36-4.33-9-.71-18-.35-25.84,4.52-2.76,1.72-7.82,2.7-9.39,5.77-1.88,3.67-.54,10.73-.19,14.59a.82.82,0,0,0,1.64,0Z" transform="translate(-53.3 -275.6)" fill="#1e1e1e"/><path d="M67,335.94c4.21.83,8.12-.43,12.19-1.49,6-1.55,12-1.78,18.2-1.87,11.75-.18,23.73-.13,34.7,4.62,1.95.84,3.66-2,1.69-2.89-10.47-4.49-21.58-5.15-32.84-5-5.52.05-11.11,0-16.56,1-5.91,1-11.45,3.39-17.38,4.4a.68.68,0,0,0,0,1.3Z" transform="translate(-53.3 -275.6)" fill="#1e1e1e"/><path d="M69.79,318.94c1.72-7.32,2.28-14.66,9.4-19,5.79-3.51,13.82-4.83,20.43-5.3,14.08-1,31.2,5.95,31.28,22.34a1.54,1.54,0,0,0,3.07,0c0-17.52-18.07-25.92-33.44-25.06-7.86.45-17.23,2-23.85,6.56s-8.59,12.64-8.6,20.21a.87.87,0,0,0,1.71.23Z" transform="translate(-53.3 -275.6)" fill="#1e1e1e"/><path d="M102.7,292.62c-4-.76-8.63.08-11.64-2.63a1.66,1.66,0,0,1-.61-1c-.06-.72.71-1.23,1.4-1.45,3.57-1.17,7.51.46,10.42,2.84a29.93,29.93,0,0,1-1.7-13.26c.08-.81.74-1.9,1.41-1.43a1.21,1.21,0,0,1,.37.88c.62,4.71,1.06,9.45,1.32,14.19a37.17,37.17,0,0,1,1.69-8,12.59,12.59,0,0,1,4.82-6.43c1.11,2.53.3,5.47-.65,8.07a77.78,77.78,0,0,1-3.08,7.3,50.32,50.32,0,0,1,11.88-12.39c-.74,5.15-5.23,8.82-9.39,11.95A35.68,35.68,0,0,1,119.23,289c.87-.07,2,0,2.27.87.39,1.1-1.08,1.89-2.23,2.09a34.41,34.41,0,0,1-12.31-.15" transform="translate(-53.3 -275.6)" fill="#1e1e1e"/><path d="M102.57,291.22a25.65,25.65,0,0,1-9.25-10c-.17-.33-.33-.76-.08-1s.86-.09,1.22.18a31.57,31.57,0,0,1,6.2,7.07q1.26,1.76,2.51,3.53" transform="translate(-53.3 -275.6)" fill="#1e1e1e"/><path d="M70.14,333.51a119.4,119.4,0,0,1,1.25-13.91c0-.25-.22-.56-.48-.37-1.6,1.16-1.65,3.26-1.77,5.11a33.77,33.77,0,0,0,.79,9.19c0,.12.2.09.21,0Z" transform="translate(-53.3 -275.6)" fill="#1e1e1e"/><path d="M74.22,334.53c.81-5.25.42-10.65,1.46-15.87.07-.36-.37-.69-.64-.38-1.53,1.69-1.5,4-1.73,6.15a54,54,0,0,0-.47,9.92c.06.72,1.26,1,1.38.18Z" transform="translate(-53.3 -275.6)" fill="#1e1e1e"/><path d="M80.44,313.21c-1,2.25-2,5.84-1.28,8.3a.61.61,0,0,0,1.17,0,18,18,0,0,0,.72-4.15c.18-1.28.47-2.54.6-3.83a.65.65,0,0,0-1.21-.32Z" transform="translate(-53.3 -275.6)" fill="#1e1e1e"/><path d="M79,324.49c-1.29,2.81-.66,6.88.73,9.55a.33.33,0,0,0,.61-.17c0-1.63-.25-3.25-.35-4.89a28.1,28.1,0,0,0-.26-4.4.41.41,0,0,0-.73-.09Z" transform="translate(-53.3 -275.6)" fill="#1e1e1e"/><path d="M85.48,312.61c-1.91,5.74-.15,13.59.84,19.43.12.71,1.36.56,1.28-.17-.37-3.44-.65-6.86-.82-10.31-.15-3,.07-6.08-.81-8.95a.26.26,0,0,0-.49,0Z" transform="translate(-53.3 -275.6)" fill="#1e1e1e"/><path d="M93.11,330.81a26.12,26.12,0,0,0,.55-5.3,26.79,26.79,0,0,0,.09-5.37c-.12-.82-1.34-.71-1.54,0a21.45,21.45,0,0,0-.41,5.37,20.45,20.45,0,0,0,.33,5.3.51.51,0,0,0,1,0Z" transform="translate(-53.3 -275.6)" fill="#1e1e1e"/><path d="M92.38,311.85c-.07,1.36-.39,3.1.27,4.35a.7.7,0,0,0,1.21,0c.66-1.25.34-3,.27-4.35a.88.88,0,0,0-1.75,0Z" transform="translate(-53.3 -275.6)" fill="#1e1e1e"/><path d="M99.21,311c-.26,6.5-.38,13-.53,19.5a.87.87,0,0,0,1.74,0c0-6.5.06-13,0-19.5a.58.58,0,0,0-1.16,0Z" transform="translate(-53.3 -275.6)" fill="#1e1e1e"/><path d="M104.58,313.41c1.29,5.6,0,11.55,1.13,17.18.22,1,1.66.7,1.73-.24.25-3.27-.26-6.66-.4-9.94a36.07,36.07,0,0,0-.73-7.48c-.28-1.12-2-.64-1.73.48Z" transform="translate(-53.3 -275.6)" fill="#1e1e1e"/><path d="M112.38,312.42c.18,1.15.3,2.29.4,3.44a5.68,5.68,0,0,0,.59,2.61.58.58,0,0,0,1,0c.92-1.86.1-4.57-.27-6.53-.21-1.14-1.9-.64-1.72.48Z" transform="translate(-53.3 -275.6)" fill="#1e1e1e"/><path d="M113.65,320.35a49,49,0,0,0,.08,6.06c.11,1.61-.1,3.45.86,4.8a.72.72,0,0,0,1.24,0c.78-1.6.26-3.47.1-5.21a48.13,48.13,0,0,0-.88-5.84c-.18-.81-1.35-.58-1.4.19Z" transform="translate(-53.3 -275.6)" fill="#1e1e1e"/><path d="M120.53,313.64c.19,2.93.35,5.87.38,8.81s-.39,6,0,8.91c.12.95,1.58,1.36,1.83.24a36.08,36.08,0,0,0-.93-18.13c-.21-.65-1.29-.58-1.24.17Z" transform="translate(-53.3 -275.6)" fill="#1e1e1e"/><path d="M126.28,314.86c.45,3.33,1.16,6.62,1.43,10,.23,3-.15,6.12.55,9.06a.89.89,0,0,0,1.71,0c1.56-6.38-.55-13.16-2.27-19.23-.21-.75-1.53-.64-1.42.19Z" transform="translate(-53.3 -275.6)" fill="#1e1e1e"/><path d="M66.58,350.27c-2.07,2.88-4.46,3.46-7.33,5.1a6.24,6.24,0,0,0-2.77,2.46C55.36,360,56.15,361.77,58,363l.33-2.48c-9.66,2-3.92,19.6,5.52,13.66l-2-2c-3.23,5.65,3.22,8.94,8.08,7.5l-2-1.54c.62,5.95,5.52,10.47,11.67,8.79,1.59-.44,1.32-3-.4-2.94-4,.22-7.53-1.32-8.06-5.85a1.63,1.63,0,0,0-2-1.55l-4.69-2.92A1.48,1.48,0,0,0,62,371.9c-4.2,3.5-9.73-7.27-3-8.72a1.38,1.38,0,0,0,.32-2.48c-1.92-1.32,5.54-5.07,6.16-5.6a8.73,8.73,0,0,0,2.66-4.17c.32-1-1-1.41-1.58-.66Z" transform="translate(-53.3 -275.6)" fill="#1e1e1e"/><path d="M132.87,352.15a7.56,7.56,0,0,0,1,6.48c1.91,2.61,12.66,4.59,7.8,10.08a1.76,1.76,0,0,0,.35,2.72c-.06,1.88-.11,3.75-.17,5.63l-1.48,0c-.78.26-1.55-.07-2.3.26a2.89,2.89,0,0,0-1.59,1.34c-.89,1.26.07,2.68-1.63,3.88s-5.85,1-8,1.71c-1.5.52-1.34,2.89.38,2.87,3.3,0,8.49-.29,11.05-2.66a6.36,6.36,0,0,0,1.41-2.43c.3-.65,0-1.1.35-1.46a16.74,16.74,0,0,1,3.22-.2c7.34-1.33,5.33-8.9.48-12l.35,2.72c2.28-2.47,3.16-5.7,1.42-8.78-2.8-5-11.92-2.67-11.1-10,.1-.89-1.35-1.07-1.56-.21Z" transform="translate(-53.3 -275.6)" fill="#1e1e1e"/><path d="M58.31,366.81c.33,1.13.43,2.27.82,3.45q-1.2,3.36.58-.93.16-3,2.86-2.69a7.62,7.62,0,0,0,4.75-2.84,4.4,4.4,0,0,0,.54-5.29c-3.3-4.63-8.3,2.39-8.82,5.56a1.31,1.31,0,0,0,2.17,1.26c1.17-.93,1.18-1.7,1.71-3,.62-1.52-1.44-2.68,2-3.81,1.18-.39,3.44.6,4.51,1l-.81-2c2.37-.46,3.09.23,2.18,2.06a13.77,13.77,0,0,0-.15,2c0,3,1.92,5.13-3,5.91-1.36.22-2.23-.7-3.35.75-2.86,3.66,3.94,7.83,6.26,9.19l1-2.47c-1.56-.44-4.07-1.09-5.08-2.53q-2.13-1,.67-2.63,3.63-.36,3.81,3.78a1.18,1.18,0,0,0,.31,2.31,3.31,3.31,0,0,0,3.19-4.61c-1.13-3.31-5.53-4.46-8.64-4.06-2.15.28-4.66,1.4-3.88,4,1,3.35,5.92,5.48,8.9,6.31a1.35,1.35,0,0,0,1-2.46c-1-.56-6.29-3.44-5-5a25.82,25.82,0,0,0,2.7.28,4.26,4.26,0,0,0,3.81-2.84c.91-2.5-.06-6.36.21-8.91.19-1.72.51-2.85-.86-4.19-2.1-2.07-7.07-2.47-6.88,1.61.11,2.18,3.36,5.88,5,2.83a1.4,1.4,0,0,0-.82-2c-2.16-.87-5.3-1.75-7.51-.53-2.83,1.55-.86,5.42-3,6.92l1.91,1.47c.3-1.36.81-3.69,2.29-4.08q1.34-1.59.69.89a1.63,1.63,0,0,1-1,2.26c-.75.95-1.88,1.32-2.22,2.62s.33,3,1.81,3.11a2.11,2.11,0,0,0,2.07-2.82c-.69-2.11-3.91-2.23-5.69-2a4.88,4.88,0,0,0-1.34,9.37c1.67.77,2.81.17,3.28-1.54.7-2.56-1.34-5.66-3.16-7.18a.87.87,0,0,0-1.44.38c-.15.82-.15,1,.46,1.58a.59.59,0,0,0,1-.57Z" transform="translate(-53.3 -275.6)" fill="#1e1e1e"/><path d="M74.73,364.17a4.57,4.57,0,0,0,.89-4.41,5.91,5.91,0,0,1-.15-2.77l-1.34,1.33c1.88.07,3.91,3.57,4.55,5.07s1.51,3.66,1.26,5.15l-5.18,6.53,1.62.49a3.27,3.27,0,0,0,1.05,3.56q2.23,2.14-1.23.44a1.35,1.35,0,0,0-1.9,1.91c2.29,2.84,9.21,2.09,7.73-2.58-1.16-3.66-10.39-6.22-11.12-1.25-.7,4.81,7.66,5.33,9.56,1.84,2.57-4.71-4.86-8.78-8.69-6.54a1.45,1.45,0,0,0-.72,1.25c.13,5.95,9.65,5.63,11.85,1.08,2-4.13-4.21-11.16-7.13-6.75-2.11,3.19,4.54,6.84,6.54,2.71,2.39-4.93-2.6-15.35-8.19-15.58A1.36,1.36,0,0,0,72.8,357c-.19,3.24.59,7.27,3.34,9.38,1.48,1.13,3.8,1.36,4.29-.93.95-4.47-7.56-6.94-8.2-1.27-.18,1.61,2.3,1.57,2.5,0Z" transform="translate(-53.3 -275.6)" fill="#1e1e1e"/><path d="M80.18,381.83a3.48,3.48,0,0,1,2.37-1.7,11.92,11.92,0,0,1,2.07-.22l-1.74-1.09c-.67-1.14,0-2.5.79-3.34a3.29,3.29,0,0,1,2.06-1.11,1.79,1.79,0,0,1-1.32-1.24A4.08,4.08,0,0,1,84,371c.35-1.73,2.39-1,3.08,0a2.46,2.46,0,0,1,.7,2c-.54,1.51-.18,2.16,1.07,2s1.4.3.31,1.41a8,8,0,0,1-1.4,1.12l2.2,2.21a13.37,13.37,0,0,0,1.63-8.19l-3,.41c.51,2.35,1.27,5.15-1.64,5.87-2.16.53-4.45.58-6.63,1-1.59.3-1,2.43.35,2.59,3,.36,7.61.34,10.07-1.75s1.64-5.9.83-8.52c-.49-1.58-3.26-1.4-3,.41a9.81,9.81,0,0,1-1.31,6.56c-1,1.68,1.17,3,2.53,1.95,2.24-1.78,5-5.82,1.55-8.06-1.87-1.22-7.76.25-5.81,3.28,1.8,2.79,6-.49,5.61-3.09-.47-3.08-4.46-6.79-7.71-5.53s-2.78,6-1.31,8.34,5.67,2.8,6.86,0c1.61-3.81-4.13-3.92-6.16-2.52-2.68,1.86-4.22,6-1.69,8.66,2.18,2.29,8.25.72,6.21-2.91-.86-1.54-3.21-1.16-4.6-.91a6.38,6.38,0,0,0-4.74,3.17c-.82,1.51,1.45,2.85,2.3,1.35Z" transform="translate(-53.3 -275.6)" fill="#1e1e1e"/><path d="M117.71,375.54a16.05,16.05,0,0,1-.57-1.87c.11-1.81-.87-2.8-2.92-3a1.15,1.15,0,0,0-2.29,0c-.17,3.2-.08,7,3,8.91a5.62,5.62,0,0,0,4.1.61c1.23-.23,2.5-1.09,3.7-1.22,2-.21,4.5,1.76,4.44,3.89l.64-1.13c-1.27.92-3-.48-4-1.17l-1.08,2.58a3.71,3.71,0,0,1,2.7,2c.28-.7.57-1.4.86-2.11l-1.49.41a1.48,1.48,0,0,0,0,2.82c2.13.86,4.38-.23,4.49-2.58a1.19,1.19,0,0,0-2-.84,1.54,1.54,0,0,1-1.69.6v2.82l1.47-.46a1.45,1.45,0,0,0,.86-2.11,7.45,7.45,0,0,0-4.43-3.25,1.41,1.41,0,0,0-1.09,2.57c1.69,1.16,4.14,2.56,6.22,1.44,1.8-1,1.26-2.94.42-4.41-1.76-3.07-8.44-5.71-10.57-1.56-1.81,3.52,4.16,4.91,5.39,1.27a2,2,0,0,0-2-2.78c-2,.07-3.23,1.31-5.22.46-2.65-1.14-2.44-4.28-2.34-6.74h-2.29c-.05,2.29,1.21,4.64,3.78,4.72a3.38,3.38,0,0,0,3.49-4c-.3-1.52-2.06-3-3.61-2-2.18,1.45-.36,5.16.67,6.68.47.7,1.75.29,1.45-.61Z" transform="translate(-53.3 -275.6)" fill="#1e1e1e"/><path d="M128.91,382.51c-.21-.37-1.7-2.6-1.61-3l1.94-1.1q2.61,2.48,1,1.39a13,13,0,0,1-4.16-4.15,3.81,3.81,0,0,1-.59-2.9c-.3-.22-2.5,1.2-3.5.76-1.34.15-1.73-.68-1.18-2.5l.85-.18a12.09,12.09,0,0,1,2.16-.16c1,0,.69,0-1-.05l1.1-1a6.51,6.51,0,0,1,1.76,1.75c.76,1,2.53-.08,2.1-1.22-1.63-4.26-9.58-5.8-10.42-.12-.8,5.34,8,4.82,9.41.85,1.7-4.82-7.41-3.25-9.2-1.3a3.53,3.53,0,0,0,0,5.07c1.93,2.07,5.21,2.24,7.75,1.42,2-.65,4.65-2.29,4.55-4.72s-2.78-3.43-4.82-2.5c-5.92,2.7-1.06,10,2.19,12.57,2.19,1.69,5.08,2.95,7.84,1.94,1.85-.68,3.38-2.59,2.49-4.61-2-4.6-11.59-2.35-9.49,3s9.75-.47,4.56-4.87c-1.89-1.61-5.87-2.48-7.91-.56-2.27,2.16.86,5.62,2,7.45a1.28,1.28,0,0,0,2.22-1.29Z" transform="translate(-53.3 -275.6)" fill="#1e1e1e"/><path d="M125.15,372.29c-.26-5,4.41-3.43,5.78-6.58,1.18-2.72-1.21-4.45-3.72-3.16l2,1.17c-.19-3.58,3.87-6,4.22-9.69l-2.73.36a25.35,25.35,0,0,0,7.17,11.89c.31.31,2.51,2,.37.59l-1.74-1.46c-2-1.28-2.09-1.93-.35-2,2.63,1.82.14,5.95-.64,8.29q-.7,4.09-1.27.09a6.6,6.6,0,0,0,7.77,1c.15-1.78-2.88-2.22-3.14-.43-.76,5.15,7.08,2.82,4.19-1.44-3.12-4.58-11.16-.58-9.86,4.7,1.39,5.68,9.83,3,7.48-2.49-1.79-4.23-12.68-7.73-13.1-.94-.38,6,8.25,6.35,10.89,2.3s-1.72-13.71-7.06-10c-5.08,3.56,2,10.44,6.75,7.58s2.47-12.18-3.06-12.33a3.06,3.06,0,0,0-3.09,4.3c1,2.93,5.22,6.53,8.33,6.51,2.58,0,3.82-1.8,2.52-3.94-1-1.74-3.58-2.7-5-4.22a19.11,19.11,0,0,1-4.5-8.82c-.37-1.63-2.59-1.1-2.73.37-.38,3.76-4.37,5.66-4.16,9.69a1.37,1.37,0,0,0,2,1.17c2-1,4.5-3.15,2.92-5.62a2.56,2.56,0,0,0-4.32-.22,3,3,0,0,0-.46,2.16,7.25,7.25,0,0,0,.69,1.67c.66,1.92.55,1.22-.6,2.16-2.61,2.15-4.52,3.44-4.26,7.25.11,1.66,2.68,1.69,2.6,0Z" transform="translate(-53.3 -275.6)" fill="#1e1e1e"/><path d="M93,374.73c4.15,3.23,12.56,3.16,17.4,1.76a1.19,1.19,0,0,0-.63-2.29,30.44,30.44,0,0,1-8.52.43c-2.56-.24-5.25-1.22-7.81-1-.47,0-.92.69-.44,1.06Z" transform="translate(-53.3 -275.6)" fill="#1e1e1e"/><path d="M89.11,381.08c2.84,8.65,20.55,7.37,26.42,3.28a1.29,1.29,0,0,0-1-2.35c-8.31,2.41-16.7,4.22-24.12-1.69-.55-.44-1.57-.06-1.31.76Z" transform="translate(-53.3 -275.6)" fill="#1e1e1e"/><path d="M97.59,376.05a10.07,10.07,0,0,0-.68,4c-.07,1.46-.38,3.27.18,4.64.16.39.8.63,1,.13.63-1.34.42-3,.43-4.45a10.7,10.7,0,0,0-.52-4.29.26.26,0,0,0-.44,0Z" transform="translate(-53.3 -275.6)" fill="#1e1e1e"/><path d="M101.9,375.92c-.79,2.08-.73,4.43-.79,6.62,0,1.34-.3,2.74,1.12,3.32.54.22.9-.4.84-.85-.43-3,.45-6.12-.52-9.09a.34.34,0,0,0-.65,0Z" transform="translate(-53.3 -275.6)" fill="#1e1e1e"/><path d="M105.84,375.75c-1,2.33-1,6.63.69,8.66.49.6,1.33.06,1.38-.57.11-1.32-.48-2.68-.65-4s-.15-2.67-.44-4a.54.54,0,0,0-1-.13Z" transform="translate(-53.3 -275.6)" fill="#1e1e1e"/><path d="M85.74,349.17a4.44,4.44,0,0,0-1.13,1.61c-.26.59-.59,1.27-.21,1.88a.62.62,0,0,0,.84.22c.55-.34.6-.94.78-1.51s.37-1.14.52-1.74a.48.48,0,0,0-.8-.46Z" transform="translate(-53.3 -275.6)" fill="#1e1e1e"/><path d="M87.78,349.71c-.58.56-1.33,1.92-.49,2.58a.68.68,0,0,0,.76.09c.7-.3.74-1.36.85-2a.68.68,0,0,0-1.12-.65Z" transform="translate(-53.3 -275.6)" fill="#1e1e1e"/><path d="M115.3,349.84c-.14.87-.44,2.22.58,2.63a.47.47,0,0,0,.45-.12,1.12,1.12,0,0,0,.33-1.07,6.65,6.65,0,0,1-.06-1.26c0-.73-1.17-.92-1.3-.18Z" transform="translate(-53.3 -275.6)" fill="#1e1e1e"/><path d="M117.53,349.1a3.81,3.81,0,0,0,.07,2,1,1,0,0,0,.91.69.74.74,0,0,0,.48-.13.93.93,0,0,0,.47-.81,5.9,5.9,0,0,1-.08-1.51c.1-1.05-1.66-1.29-1.85-.25Z" transform="translate(-53.3 -275.6)" fill="#1e1e1e"/><path d="M70.52,314.47c9.51-4,17.92-6.7,28.34-7,10.15-.33,20.78.06,29.79,5.22a1.44,1.44,0,0,0,1.46-2.49c-9.46-5.46-20.58-5.91-31.25-5.55-9.73.33-21.67,1.5-29.29,8.21-.71.62,0,2,1,1.64Z" transform="translate(-53.3 -275.6)" fill="#1e1e1e"/><path d="M73.23,304.75c8.5-.66,16.82-2.55,25.38-2.94,8.27-.39,18.47-1.15,26.3,1.83,1.7.64,2.39-2,.75-2.7-7.72-3.1-17.94-2.26-26.1-1.89-8.71.39-18.33,1-26.56,4-.83.31-.8,1.75.23,1.67Z" transform="translate(-53.3 -275.6)" fill="#1e1e1e"/><path d="M80.35,298.84a136,136,0,0,1,19-2.08c5.86-.14,11.58.81,17.41.92A.86.86,0,0,0,117,296c-11.43-2.89-25.62-1.18-36.85,2a.45.45,0,0,0,.24.86Z" transform="translate(-53.3 -275.6)" fill="#1e1e1e"/></svg>