<svg id="OBJECT" xmlns="http://www.w3.org/2000/svg" viewBox="0 0 78.02 112.73"><path d="M183.29,124.21c-1,11.86-1.92,26.4,3.49,37.41,4.89,10,15.53,14.8,26.24,15.38s22.66-2.86,27.07-13.34c5-11.82,4.2-25.06,3.41-37.56-.13-2-3.27-2-3.15,0,.62,10.4,1.3,21.16-1.49,31.32-1.66,6.05-4.09,10.89-10.09,13.59A34.2,34.2,0,0,1,213,173.83c-11.16-.62-21-6.24-24.9-17-3.71-10.25-2.24-21.9-2.88-32.59a1,1,0,0,0-2,0Z" transform="translate(-173.71 -101.36)" fill="#1e1e1e"/><path d="M184.35,142.35a5.17,5.17,0,0,0-5.58-3c-2.85.39-4.53,2.8-4.94,5.5-1,6.64,4.3,12.73,10.51,14.16,1.61.37,2.3-2.11.69-2.48a11.16,11.16,0,0,1-8.27-7.25c-1.42-4.38,1.25-10.06,6.05-6.05.61.51,1.92,0,1.54-.9Z" transform="translate(-173.71 -101.36)" fill="#1e1e1e"/><path d="M243.41,144.13c2.86-1.54,5.93-1.68,6,2.46a10.07,10.07,0,0,1-1.28,4.74c-1.5,2.8-4.13,5.93-7.3,6.69-1.53.36-.88,2.73.65,2.35,5.49-1.34,10.31-8.2,10.26-13.78-.05-6-5.17-7.4-9.39-3.87-.81.68.22,1.88,1.08,1.41Z" transform="translate(-173.71 -101.36)" fill="#1e1e1e"/><path d="M211.49,155.07c2.3,1.4,8.43,1,9.54-2.08.74-2-.64-4.68-.75-6.73-.17-3.57.08-7.18.05-10.76a1.25,1.25,0,0,0-2.49,0c0,4.26-.27,8.73.22,12.95a15.86,15.86,0,0,1,.44,2.2c-.12,2.51-1.22,2.08-2.91,2.34-1.9.29-2.86.24-4.16,1.58a.32.32,0,0,0,.06.5Z" transform="translate(-173.71 -101.36)" fill="#1e1e1e"/><path d="M201,145.84a1.94,1.94,0,1,0-1.94-1.94,2,2,0,0,0,1.94,1.94Z" transform="translate(-173.71 -101.36)" fill="#1e1e1e"/><path d="M228,145.51a1.74,1.74,0,0,0,0-3.48,1.74,1.74,0,0,0,0,3.48Z" transform="translate(-173.71 -101.36)" fill="#1e1e1e"/><path d="M207.72,161.42c2.11,1.27,4.89.85,7.29.85a44.74,44.74,0,0,0,8.5-.6c.82-.17.52-1.27-.19-1.35a73.37,73.37,0,0,0-8.9-.18c-2.25,0-4.68-.38-6.7.71a.33.33,0,0,0,0,.57Z" transform="translate(-173.71 -101.36)" fill="#1e1e1e"/><path d="M214.61,165.62a2.77,2.77,0,0,0,3-.16.56.56,0,0,0-.13-1,2.74,2.74,0,0,0-2.9.6.47.47,0,0,0,.07.57Z" transform="translate(-173.71 -101.36)" fill="#1e1e1e"/><path d="M222.17,174.08c-.75,2.53-.61,5.25-.62,7.87,0,2.31-.49,5,.77,7a.92.92,0,0,0,1.59,0c1.15-2.09.58-4.67.54-7,0-2.62.15-5.32-.52-7.87a.92.92,0,0,0-1.76,0Z" transform="translate(-173.71 -101.36)" fill="#1e1e1e"/><path d="M224,185.57c6.95,2.93,12.25,6.67,16.44,13.07a29.38,29.38,0,0,1,3.17,6.28c.67,1.89,1.67,3.75-.62,4.9-1.63.82-5.62.29-7.48.4-18.53,1.07-37.2,1.37-55.35-3l1.1,1.95c2.41-12.52,13.61-19,24.63-23.23a1.68,1.68,0,0,0,1.18-1.56c0-3.21-.06-6.41-.06-9.62a1.56,1.56,0,0,0-3.11,0c0,3.21-.06,6.41-.06,9.62.4-.52.79-1,1.19-1.55-12,4.63-24.2,11.83-26.82,25.5a1.6,1.6,0,0,0,1.11,1.94A146.79,146.79,0,0,0,213,214.08c5.63,0,11.26-.15,16.88-.44,5.25-.27,11.45.16,16.45-1.55a1.36,1.36,0,0,0,1-1c1-5.66-3.11-12.32-6.47-16.65-4-5.16-9.81-10.27-16.51-11.14-1.39-.18-1.35,1.78-.3,2.22Z" transform="translate(-173.71 -101.36)" fill="#1e1e1e"/><path d="M184.43,146.65c-1.14-1.26-3-2.81-4.84-2.51-1.22.19-2.8,1.77-2,3.06a.4.4,0,0,0,.44.18c.95-.16,1.19-1.42,2.19-1.31a6.82,6.82,0,0,1,3.07,1.7.79.79,0,0,0,1.12-1.12Z" transform="translate(-173.71 -101.36)" fill="#1e1e1e"/><path d="M243.68,148.81a1.83,1.83,0,0,1,1.81-.43c.56.16.91.64,1.45.85a.9.9,0,0,0,1.14-.87,2.57,2.57,0,0,0-2.53-2,2.93,2.93,0,0,0-2.71,1.84c-.28.51.44,1.13.84.65Z" transform="translate(-173.71 -101.36)" fill="#1e1e1e"/><path d="M194.63,144.93c1.86-1,2.94-2.63,5.25-2.85,2.58-.25,4.57,1.09,6.09,3,.6.77,1.85-.22,1.34-1a8.22,8.22,0,0,0-7.19-3.86c-2.36.08-5.83,1.45-6.35,4a.59.59,0,0,0,.86.66Z" transform="translate(-173.71 -101.36)" fill="#1e1e1e"/><path d="M222.57,145.31c1.56-1.31,3-3,5.13-3.17,2.43-.2,3.66,1.44,4.52,3.44.43,1,2.13.29,1.78-.75-2-6.11-9.88-6.07-12.59-.42a.74.74,0,0,0,1.16.9Z" transform="translate(-173.71 -101.36)" fill="#1e1e1e"/><path d="M219.51,137c4.39.23,8.79-.22,13.18-.11,1.59,0,8-.3,8.94.71,1.24,1.3-.06,5.63-.56,6.91-2,5-8,7.34-13,5.58-5.58-1.94-6.82-8.09-7.14-13.33-.12-1.82-3-1.79-2.82,0,.63,6.22,2.09,13.56,8.58,16.12,5.24,2.06,12.16.37,15.65-4.13,2.15-2.77,5.12-11.47,1.31-13.86-2.57-1.62-8.07-1-10.91-1a75.89,75.89,0,0,0-13.47,1c-1.26.23-.88,2.08.29,2.14Z" transform="translate(-173.71 -101.36)" fill="#1e1e1e"/><path d="M211.75,134.83a76,76,0,0,0-13.47-1c-2.85,0-8.35-.58-10.92,1-3.8,2.39-.83,11.09,1.32,13.86,3.49,4.5,10.41,6.19,15.64,4.13,6.49-2.56,8-9.9,8.58-16.12.18-1.78-2.7-1.82-2.81,0-.29,4.66-1.3,10.56-5.93,12.92-5.17,2.64-12.17.16-14.26-5.17-.5-1.28-1.8-5.61-.56-6.91.85-.89,6.52-.63,8-.68,4.7-.16,9.42.33,14.12.08,1.15-.06,1.56-1.9.29-2.14Z" transform="translate(-173.71 -101.36)" fill="#1e1e1e"/><path d="M210.69,137.4c1.81-.1,3.33-1,5.21-.68,1.62.23,2.93,1,4.33-.17a1.24,1.24,0,0,0-.25-1.92c-1.31-1-4-1.08-5.56-.94a6.31,6.31,0,0,0-4.68,2.06,1.11,1.11,0,0,0,.95,1.65Z" transform="translate(-173.71 -101.36)" fill="#1e1e1e"/><path d="M200.76,185.77a70,70,0,0,0,7.54,8.15c1.48,1.49,3.88,5.18,6.1,5.7,1.64.38,3.37-1.88,4.32-2.75a69.93,69.93,0,0,0,7.9-8.77,1.54,1.54,0,1,0-2.43-1.87,58.11,58.11,0,0,1-5.71,6.82c-2.23,2.26-2.92,3.68-5.63,1.45-3.8-3.13-6.81-7.11-10.86-10-.72-.51-1.76.51-1.23,1.23Z" transform="translate(-173.71 -101.36)" fill="#1e1e1e"/><path d="M182.63,129.22a43.4,43.4,0,0,0-1.17,10.72,1.07,1.07,0,0,0,2.13,0c-.08-3.53.11-7.09-.15-10.61a.41.41,0,0,0-.81-.11Z" transform="translate(-173.71 -101.36)" fill="#1e1e1e"/><path d="M198.39,112c.22,13.7,11.31,23.55,23.13,28.54a1,1,0,0,0,1.19-1.54c-3.67-4.36-8.7-8.69-7.7-15l-1.76.23a28.43,28.43,0,0,0,20.41,13.58,1.17,1.17,0,0,0,.89-2.12,20.89,20.89,0,0,1-6.2-5.9l-1.52,1.52c6.24,2.85,13.84,5.31,18.57,10.47,1,1.15,2.78-.57,1.71-1.71-5-5.34-12.67-7.66-19.16-10.68-.91-.43-2.22.52-1.52,1.52a23.76,23.76,0,0,0,6.95,6.78l.9-2.11a26.79,26.79,0,0,1-19.37-12.32c-.4-.63-1.63-.65-1.76.23-1.05,7.17,4,11.47,8,16.73l1.35-1.35c-11.65-5.42-20.86-13.8-23-27-.1-.61-1.08-.46-1.07.15Z" transform="translate(-173.71 -101.36)" fill="#1e1e1e"/><path d="M197.92,111.46c-1.49,6.25-3.37,11.8-7.58,16.8-2.8,3.33-6,6.25-7.14,10.57-.3,1.15,1.48,2,2,.84,2.35-5.33,6.84-8.91,9.77-13.84a25.26,25.26,0,0,0,3.76-14.26c0-.45-.7-.59-.81-.11Z" transform="translate(-173.71 -101.36)" fill="#1e1e1e"/><path d="M178.9,140.34c.88-5.36.57-10.94,1-16.35.4-4.48,1-9.66,3.78-13.37,3.87-5.19,11.81-5.29,17.71-6a63.12,63.12,0,0,1,17.2-.3c5.73.84,13.49,1.79,18.1,5.44,9.1,7.21,10,21.77,10.26,32.38,0,1.88,3,1.88,2.91,0-.32-11.44-1.73-24.68-10.2-33.29-4.49-4.57-11.65-5.43-17.67-6.54a64.71,64.71,0,0,0-20.6-.18c-5.28.7-11.77.86-16.36,3.84-4.11,2.66-5.9,7.76-6.78,12.34-1.33,6.89-2,15.11-.91,22.07a.79.79,0,0,0,1.52,0Z" transform="translate(-173.71 -101.36)" fill="#1e1e1e"/><path d="M177.42,155.52a101.61,101.61,0,0,0-2.56,15.72c-.29,2.66-.45,4.83,1.13,7.06a1.15,1.15,0,0,0,2.07-.27l1.92-5.12H177.8c.37,2,.79,7.54,4.09,6.7,1.15-.29,1.89-2.88,2.83-2.84-.47,0,2.11,2.6,2.32,2.66.88.28,1.64-.2,2.42-.41l.57-.68a2.22,2.22,0,0,1,2.2,1.34,6.09,6.09,0,0,0,1.2.59c1.77.47,2.58-.66,4.48-.67,2.69,0,4.83.73,7.61.05a1.19,1.19,0,0,0-.32-2.33c-2.65.16-5.79-1-8.22-.52-1.2.23-1.75.65-3,.35s-1.82-1.49-3-1.69-1.73.76-2.46.75c-1.62,0-2.09-2.82-4.29-2.43-.79.14-1,.64-1.6,1.11-.91.65,0,1.35-1.31,1-1.11-.31-1.17-2.7-1.34-3.58-.23-1.2-1.83-.95-2.18,0l-1.92,5.12,2.06-.27c-2.25-3.17-.53-7.93-.06-11.4a82.71,82.71,0,0,0,1-10,.76.76,0,0,0-1.49-.2Z" transform="translate(-173.71 -101.36)" fill="#1e1e1e"/><path d="M247.22,153.59c-1.13,3.81-.79,8-.8,11.91,0,4.59,0,9.17,0,13.76l2.53-.69c-.73-1.11-1.46-2.21-2.21-3.3a1.31,1.31,0,0,0-2.36.3,6.92,6.92,0,0,0-.72,2.34l2.17-.57-1.17-1.3a1.31,1.31,0,0,0-1.84,0c-2,2.52-1.12,1.2-3.67.9-2.16-.25-3.75,1.07-5.34,2.36l2.05.26c-1.2-2.44-2.34-2-4.61-2-2.83,0-4.7-1.35-7.59.46-1.44.9-.12,3.18,1.33,2.28-.29.18,8.22-.17,8.62.62a1.32,1.32,0,0,0,2,.27c4.52-3.71,3.5-.05,6.3-.55,1.24-.22,2-1.87,2.7-2.72h-1.84l1.17,1.29a1.31,1.31,0,0,0,2.17-.57,6.9,6.9,0,0,1,.71-2.34l-2.36.31c.68,1.13,1.38,2.25,2.1,3.37a1.36,1.36,0,0,0,2.52-.68q0-6.88-.11-13.76c-.05-4,.27-8.09-.9-11.91a.47.47,0,0,0-.9,0Z" transform="translate(-173.71 -101.36)" fill="#1e1e1e"/><path d="M189.93,120.47v-.2a.86.86,0,0,0-1.72,0v.2a.86.86,0,0,0,1.72,0Z" transform="translate(-173.71 -101.36)" fill="#1e1e1e"/><path d="M180.9,119c-.9,3.38-1.78,6.78-2.63,10.17-.24.94,1.18,1.64,1.63.69,1.82-3.87,3.63-7.74,5.58-11.56l-1.45-.39c-.32,4-2.06,7.69-3.45,11.43-.38,1,1.16,1.58,1.7.72a89.39,89.39,0,0,0,5.38-10.49l-1.66-.7c-.84,2.76-1.71,5.51-2.65,8.24a1,1,0,0,0,1.72,1c3-3.18,3.8-7.48,6.48-10.82l-1.77-1a114.59,114.59,0,0,1-4.6,11.12c-.63,1.31,1.3,2.46,2,1.14,2.33-4.68,4.75-9.33,7.29-13.9l-2.05-.56c-.12.48-.24,1-.37,1.43-.57,1.3,1.2,2.44,2,1.14s1.59-2.68,2.38-4l-2-.55c0,5.2-2.91,12.12-5.5,16.56-2,3.39-6.88,4.29-7.56,8.35-.12.72.48,1.68,1.34,1.34,2.78-1.1,3.93-3.85,5.33-6.38a70.23,70.23,0,0,0,5.34-12.34c.36-1.1-1.24-1.71-1.83-.77a172.5,172.5,0,0,1-12,16.79l1.72,1a39.09,39.09,0,0,1,1.92-6.91c.42-1.15-1.38-1.87-2-.83-1,1.82-2.1,3.57-3.23,5.31l1.94.82c.47-2,1-3.89,1.52-5.84l-2.07-.57a45.69,45.69,0,0,0-1.16,9.89,1.15,1.15,0,0,0,2.12.58l.73-1.2-2.08-.27.22,1.43c.13.93,1.31,1,1.88.5,2.8-2.31,2.63-5.8,5.94-8.14,1.06-.75.12-2.46-1-1.77a10.2,10.2,0,0,0-3.29,2.8c-1.2,1.63-1.6,4.22-3.2,5.51l1.88.5c-.06-.48-.13-1-.2-1.44-.14-1-1.61-1-2.07-.27-.25.4-.49.8-.74,1.19l2.13.58a47.92,47.92,0,0,1,1-9.32c.26-1.33-1.74-1.92-2.07-.57-.48,2-1,3.91-1.5,5.85a1.07,1.07,0,0,0,1.94.82,45.7,45.7,0,0,0,3.25-5.31l-1.95-.82a66.06,66.06,0,0,0-1.84,6.93c-.19.91,1,1.86,1.72,1a157.88,157.88,0,0,0,12.28-17.23l-1.83-.77a69.91,69.91,0,0,1-3.82,9.57c-1.13,2.26-2.83,6.84-5.5,7.58l1.34,1.34c.46-2.24,4.56-4,6.06-5.82a19.6,19.6,0,0,0,2.64-4.84c2-4.63,4.37-9.73,4.45-14.83a1.1,1.1,0,0,0-2-.56l-2.45,4,2,1.14a4.62,4.62,0,0,0,.61-2.57,1.11,1.11,0,0,0-2.05-.55c-2.33,4.68-4.8,9.3-7.35,13.87l2,1.14a87.55,87.55,0,0,0,4.68-11.7c.39-1.22-1.27-1.72-1.94-.81-2.46,3.37-3.33,7.61-6.26,10.64l1.72,1a61.28,61.28,0,0,0,2.42-8.31.91.91,0,0,0-1.76-.48,46.66,46.66,0,0,1-5.33,10.25l1.7.71c1.48-3.89,3.12-7.71,3.22-11.92a.78.78,0,0,0-1.45-.39c-1.9,3.83-3.88,7.61-5.78,11.44l1.63.69q1.15-5.13,2.26-10.28a.7.7,0,0,0-1.35-.37Z" transform="translate(-173.71 -101.36)" fill="#1e1e1e"/><path d="M181,123.14a103,103,0,0,1,6.66-15.27l-1.86-.79a17.91,17.91,0,0,1-3.79,6.49l1.68,1c1-4.2,5-5.32,8.66-6.34-.25-.61-.51-1.22-.77-1.83a17.69,17.69,0,0,0-7.85,14c0,.94,1.49,1.45,1.89.51,1.86-4.41,4-10.92,8-13.67,2.61-1.8,0,.32-.5.8a14.73,14.73,0,0,0-1.56,1.87,15.11,15.11,0,0,0-2.29,5.21,1,1,0,0,0,1.77.74c.92-1.61,4.72-9.15,7-8.74-.15-.56-.29-1.11-.44-1.66a19.88,19.88,0,0,0-4.25,9.18,1.08,1.08,0,0,0,2,.82q2.67-4.26,5.33-8.54l-1.92-.8c-1.39,5-5.13,9-5.16,14.39a1.1,1.1,0,0,0,2.2,0c.29-5,3.71-9.06,5-13.84a1,1,0,0,0-1.91-.8l-5.37,8.51,2,.83a19.57,19.57,0,0,1,3.74-8.55,1,1,0,0,0-.6-1.45,3.51,3.51,0,0,0-3.64,1.32c-2.24,2.29-3.64,5.78-5.58,8.36l1.76.74a13,13,0,0,1,3.33-6.25c.6-.6,2.2-1.37,2.44-2.31a2,2,0,0,0-2-2.56c-2.07-.19-3.85,1.87-4.88,3.36a71.66,71.66,0,0,0-6.15,12l1.88.51a16,16,0,0,1,6.84-12.25,1,1,0,0,0-.77-1.83c-4.42,1.17-8.87,2.87-10.07,7.74a1,1,0,0,0,1.68,1,18.93,18.93,0,0,0,4.34-7.37,1,1,0,0,0-1.87-.78,56,56,0,0,0-6.2,15.94.67.67,0,0,0,1.3.36Z" transform="translate(-173.71 -101.36)" fill="#1e1e1e"/><path d="M197.88,105.38a64.9,64.9,0,0,0,2.42,7.42,1.14,1.14,0,0,0,2.19-.6c-.38-2.49-.78-5-1.17-7.46l-2,.86c2.54,3.38,2.82,7.77,5.29,11.21a1.12,1.12,0,0,0,2-.86,26.76,26.76,0,0,0-4.29-11.36c-.55-.84-2.07-.59-2,.54a52.85,52.85,0,0,0,10,27.53,1.14,1.14,0,0,0,2-1.15c-2.35-4.18-4.65-8.39-7-12.56a.8.8,0,0,0-1.38.81A45.7,45.7,0,0,0,213.67,132a.8.8,0,0,0,1.25-1,65.29,65.29,0,0,1-4.33-13.49c-.17-.82-1.59-.65-1.49.2a45,45,0,0,0,6.19,18.35c.63,1,2.29.07,1.64-1a42.11,42.11,0,0,1-6.31-17.39l-1.49.21a64.53,64.53,0,0,0,4.41,13.89l1.26-1A34.87,34.87,0,0,1,205.26,119l-1.38.81c2.12,4.31,4.3,8.59,6.42,12.9l2-1.15a54.37,54.37,0,0,1-9.8-26.38l-2,.54a23.36,23.36,0,0,1,4,10.58l2.07-.56c-2.46-3.44-2.77-7.8-5.29-11.22a1.12,1.12,0,0,0-2,.86c.37,2.49.74,5,1.13,7.47l2.19-.6a68.64,68.64,0,0,0-3.37-7.35.68.68,0,0,0-1.24.53Z" transform="translate(-173.71 -101.36)" fill="#1e1e1e"/><path d="M200.09,103.9c7.39,2.27,11.34,8.3,15.3,14.48a134.82,134.82,0,0,0,12.35,15.83l1.51-2c-5.71-2.71-10-10.39-13.91-15.2-3.63-4.46-7.35-8.65-12.24-11.76-1.09-.7-2.2.85-1.35,1.76,7.56,8,7.82,20,13.62,29.17.84,1.3,2.94.08,2.08-1.22-6.1-9.27-6.45-21.15-14.12-29.53-.45.58-.9,1.17-1.36,1.75,5.66,3.75,9.74,9.09,13.94,14.32,3.5,4.36,6.87,10.4,12.08,12.85a1.25,1.25,0,0,0,1.51-2c-6-6.76-10.66-14.1-16.06-21.27-3.36-4.45-7.49-7.94-13.18-8.54-.74-.07-.84,1.06-.17,1.26Z" transform="translate(-173.71 -101.36)" fill="#1e1e1e"/><path d="M205.17,110.42a101.45,101.45,0,0,0,4.42,15.25c1.19,3.39,2.1,7.86,5,10.23a.92.92,0,0,0,1.43-1.11c-4.2-7.83-6.51-16.55-10.18-24.64-.17-.39-.71-.1-.64.27Z" transform="translate(-173.71 -101.36)" fill="#1e1e1e"/><path d="M206.88,110.92a75.58,75.58,0,0,0,5.82,10.24,1.19,1.19,0,0,0,2,0l.09-.18a1.23,1.23,0,0,0-.42-1.63l-.23-.14a1.19,1.19,0,0,0-1.44.18c-1.16,1.36-.55,3.67-.53,5.31l2.2-.59a11.28,11.28,0,0,1-1.4-6.68l-2.16.58c1.87,2.6,3.81,5.14,5.88,7.58,1.81,2.13,3.48,4.65,6.28,5.37a.94.94,0,0,0,.91-1.57,87.48,87.48,0,0,1-11.06-12.55,1.18,1.18,0,0,0-2.17.59,13.89,13.89,0,0,0,1.68,7.86,1.19,1.19,0,0,0,2.2-.59c0-.86,0-1.73,0-2.59.17-1.36.12-1.7-.13-1l-1.44.18.23.14-.42-1.62-.09.19h2c-2.33-3.19-4.61-6.41-7-9.57a.51.51,0,0,0-.88.52Z" transform="translate(-173.71 -101.36)" fill="#1e1e1e"/><path d="M204.4,104.09c3.88,2.63,7.94,4.18,11.27,7.72,2.82,3,5,6.5,7.43,9.8,4.55,6.23,9.79,10.23,16.66,13.71l1.29-2.2c-4.9-2.44-10.5-4.57-14.73-8.1-3.65-3-5.68-7.39-9.07-10.62-.53-.5-1.61,0-1.32.77,3.91,10.64,14.52,15.33,23.83,20.15,1.46.76,2.75-1.44,1.29-2.2-4.37-2.26-8.65-4.49-12.09-8.1-3.21-3.35-5.6-7.37-8.43-11-3.76-4.82-9.39-10.56-16-10.36a.25.25,0,0,0-.12.45Z" transform="translate(-173.71 -101.36)" fill="#1e1e1e"/><path d="M208.43,104.07c3,1.86,6.44,2.84,9.41,4.89a45.85,45.85,0,0,1,8.37,7.74c5.26,6,9.41,13,15.08,18.71,1.21,1.21,3-.63,1.88-1.88-6.14-6.64-11-14.39-17.41-20.79-4.21-4.22-10.83-9.87-17.21-9.11a.24.24,0,0,0-.12.44Z" transform="translate(-173.71 -101.36)" fill="#1e1e1e"/><path d="M216.15,108.62c3.17,5.29,7.53,10,11.63,14.54,3.43,3.82,7.53,9.54,12.47,11.37a1.17,1.17,0,0,0,1.13-1.94c-4.23-3.87-8.47-7.66-12.42-11.83s-7.73-8.89-12.31-12.52c-.27-.21-.7.05-.5.38Z" transform="translate(-173.71 -101.36)" fill="#1e1e1e"/><path d="M212.2,104.07c6.33,4.28,13.9,7,19,12.82a89.75,89.75,0,0,1,12.07,18.76c.8,1.58,3.32.48,2.84-1.2-4.24-14.76-15.27-27.29-30.31-31.52-.12.85-.23,1.71-.35,2.57,9.26-.64,19.3,1,23.6,10.28,3.41,7.39,4.22,16.44,5.88,24.34.4,1.93,3.38,1.12,3-.82-2-9.18-2.71-21.11-8.73-28.76-5.74-7.29-15.17-7.84-23.71-7.66a1.32,1.32,0,0,0-.35,2.57c13.76,4.67,24.77,15.41,28,29.83l2.84-1.2c-3.6-7-7.92-14-13.46-19.69-5.29-5.41-13-8.48-20-11.06-.45-.16-.67.5-.31.74Z" transform="translate(-173.71 -101.36)" fill="#1e1e1e"/><path d="M247.85,139c-.24-6.64.08-16.66-5.15-21.62a.64.64,0,0,0-1,.61c.52,3.6,2.32,6.92,3,10.53s1,7.14,1.57,10.7c.15.92,1.65.7,1.62-.22Z" transform="translate(-173.71 -101.36)" fill="#1e1e1e"/><path d="M221.06,106.92c4.6,1.81,8.85,2.44,12.42,6.31s3.79,8.8,5.79,13.39c.55,1.27,2.31.29,2.1-.89-1-5.73-2.81-11.56-7.33-15.48-3.27-2.83-8.61-5.53-13-4a.35.35,0,0,0,0,.66Z" transform="translate(-173.71 -101.36)" fill="#1e1e1e"/><path d="M179,156.54c-1.17,3.59-1.37,7.66-1.71,11.41-.22,2.43-1.34,5.63-.07,7.88a.75.75,0,0,0,1.36-.18c1.29-5.39,1-11.42,4.15-16.17l-1.47-.62a75.63,75.63,0,0,0-1.6,17.62c0,.88,1.44,1.17,1.61.22,1-5.54,1.71-11.09,2.3-16.69.11-1.06-1.6-1.08-1.67,0a127.31,127.31,0,0,1-2.21,16.26l1.6.21c0-5.87.94-11.58,1.55-17.4.08-.85-1.11-1-1.5-.41-3.17,4.93-2.81,11.07-4.19,16.59l1.36-.18c-1.22-2.2.69-7.52,1-9.86a40.64,40.64,0,0,0,.75-8.51.66.66,0,0,0-1.3-.17Z" transform="translate(-173.71 -101.36)" fill="#1e1e1e"/><path d="M180.1,158c.67.8,1.74,1.42,2.36,2.19.95.18,1.22.72.79,1.64-.14.89-.29,1.79-.45,2.68a37.36,37.36,0,0,0-.63,9.67,1,1,0,0,0,2,0c.12-3.76.41-7.52.66-11.28H183c-.06,3.9-.17,7.81-.17,11.71,0,.84,1.28,1.29,1.67.46,2-4.25,1.57-10,1.69-14.58h-1.75c.34,4.95.64,9.9,1,14.84a.94.94,0,0,0,1.88,0q.13-6.78.13-13.56a1,1,0,0,0-1.91,0c0,.45,0,.91,0,1.36a1,1,0,0,0,2,0,8,8,0,0,0-1.42-4.81c-.44-.69-1.78-.49-1.68.46a29.69,29.69,0,0,0,1.53,7.28.46.46,0,0,0,.9-.13,39.82,39.82,0,0,0-.65-7.39l-1.51.88a4.38,4.38,0,0,1,.85,3.71h2l0-1.36h-1.91q.21,6.78-.1,13.56h1.88c-.21-5-.51-9.92-1.12-14.84-.13-1.08-1.81-1.15-1.75,0,.19,3.81.91,10.47-1.49,13.67l1.67.45c.11-3.9.12-7.81.18-11.71a.9.9,0,0,0-1.8,0c-.25,3.76-.47,7.53-.84,11.28h2a32.81,32.81,0,0,1,.39-7.79c.25-1.69,1-3.9.82-5.65-.23-2.16-3-2.56-4.59-3.61-.56-.36-1.06.42-.67.87Z" transform="translate(-173.71 -101.36)" fill="#1e1e1e"/><path d="M186.39,164a74.59,74.59,0,0,0-.19,12.77,1.15,1.15,0,0,0,2.3,0c0-3.45.23-6.89.4-10.33l-2,.27a23.53,23.53,0,0,1,1,7.83,1.06,1.06,0,0,0,2.11,0,31.68,31.68,0,0,1,.73-6.51h-2a38.19,38.19,0,0,1,1,7.3,1.16,1.16,0,0,0,2.31,0c.35-4.51-1.42-8.53-3.3-12.52l-1.93,1.12q1.66,3.21,3.3,6.44c1.12,2.22,2.93,4.75,3,7.28l2.47-.67a46.54,46.54,0,0,0-3.66-6.3,1.22,1.22,0,0,0-2.25.61,9.06,9.06,0,0,0,1.6,5.66,1.22,1.22,0,0,0,2.2-.29,15.6,15.6,0,0,0,.72-6.54l-2.34.63a34.6,34.6,0,0,0,4.87,7.78l1.58-2c-2-1.22-2.54-3.85-4.24-5.4a1.28,1.28,0,0,0-1.81,1.82,13,13,0,0,0,9,4.27c1.59.12,1.63-2.07.35-2.58l-4.6-1.78c-.23.84-.46,1.69-.7,2.54,1.85.5,3.66,1.05,5.47,1.67,1.44.49,2.26-1.65,1-2.4-2.59-1.56-5.23-3.06-7.84-4.61-1.35-.8-2.46,1.2-1.21,2.08a29.73,29.73,0,0,0,5,2.9c.44.2.89.39,1.35.56s4,1.13,1,.23a1.31,1.31,0,0,0-.7,2.53c1.88.59,5.78,0,4.42-2.94-.38-.83-1.1-1.05-1.89-1.39a41.11,41.11,0,0,1-7.93-4l-1.21,2.08c2.58,1.59,5.13,3.22,7.73,4.8l1-2.4c-1.81-.62-3.62-1.18-5.47-1.68-1.67-.46-2.25,1.94-.7,2.54l4.6,1.78c.12-.86.24-1.72.35-2.58a9.9,9.9,0,0,1-7.18-3.47l-1.81,1.82c1.92,1.78,2.4,4.41,4.74,5.82a1.3,1.3,0,0,0,1.57-2,31.57,31.57,0,0,1-4.54-7.2c-.53-1.08-2.48-.61-2.34.63a14,14,0,0,1-.54,5.9l2.21-.29a7.32,7.32,0,0,1-1.27-4.44l-2.25.61a41.76,41.76,0,0,1,3.46,6.42c.55,1.23,2.5.57,2.48-.67,0-2.36-1.17-4.15-2.29-6.19-1.58-2.88-3.16-5.76-4.71-8.65-.69-1.29-2.53-.16-1.93,1.12,1.71,3.68,3.17,7.28,2.92,11.4h2.31a30.59,30.59,0,0,0-1.34-7.84,1,1,0,0,0-2,0,34.85,34.85,0,0,0-.86,7.05H190a25.54,25.54,0,0,0-1.16-8.38,1,1,0,0,0-2,.28c-.18,3.44-.32,6.89-.65,10.33h2.3c-.24-4.26-.49-8.51-.6-12.77a.76.76,0,0,0-1.51,0Z" transform="translate(-173.71 -101.36)" fill="#1e1e1e"/><path d="M223.8,177.37a13.73,13.73,0,0,0,4.16,1.17c1.38.15,1.66-2.1.33-2.4a7.83,7.83,0,0,1-2.14-.82c-.1.75-.19,1.5-.29,2.25,2-.58,6.77-.41,7.51-2.86a1.17,1.17,0,0,0-1.43-1.43,9,9,0,0,0-4.34,2.15c-1,.89.36,2.73,1.48,1.91,2-1.43,4-2.86,6-4.27l-1.45-1.88c-1.58,1.33-3.18,2.66-4.76,4-.8.67-.23,1.76.55,2.08,1.88.76,4.06-2.18,5.27-3.23l-2-1.18c-.24,1.43-.48,2.87-.73,4.3-.18,1.11,1.15,2.19,2.06,1.2,1.69-1.87,1.38-4.24,2.26-6.46l-2.45-.33a20,20,0,0,0,.5,5.61,1.29,1.29,0,0,0,2.47,0,13.52,13.52,0,0,0,.93-5.14l-1.5,1.14.18.06-.78-.77,0,.18a1.05,1.05,0,0,0,1.9.25,1.35,1.35,0,0,0,0-1.46c-.64-1.13-2.07-.47-2.21.6a19.93,19.93,0,0,1-1,4.46h2.47a20.47,20.47,0,0,1-.48-4.93c0-1.48-2-1.58-2.44-.33-.64,1.68-.35,4-1.6,5.38l2,1.2c.23-1.44.47-2.88.7-4.32a1.23,1.23,0,0,0-2-1.18,35.27,35.27,0,0,1-2.89,2.55c.19.69.37,1.38.55,2.08q2.35-2,4.69-4.07c1-.88-.34-2.67-1.45-1.87-2,1.42-4,2.83-6,4.22l1.48,1.92a6.57,6.57,0,0,1,3.23-1.62l-1.44-1.44c-.1.36-5.29,1-5.91,1.11-1.12.15-1.1,1.74-.3,2.24a7.14,7.14,0,0,0,2.73,1.06l.32-2.4a20,20,0,0,1-3.43-.48c-1-.25-1.76,1.29-.73,1.75Z" transform="translate(-173.71 -101.36)" fill="#1e1e1e"/><path d="M235.89,168.45a39.78,39.78,0,0,0-1.1,8.9,1.28,1.28,0,0,0,1.9,1.09c2.3-1,1.39-6.79,1.4-8.76a1.22,1.22,0,0,0-2.43,0,50.47,50.47,0,0,0,.63,8.69,1.24,1.24,0,0,0,2.38,0c.78-4.37.78-8.89,1.07-13.31h-2.4c0,3.74.06,7.48.11,11.23a1.23,1.23,0,0,0,2.46,0c.28-4.88.78-9.79,1.32-14.65H239c-.05,4.41,0,8.82.07,13.23a1.2,1.2,0,0,0,2.39,0c.3-4.83.59-9.65.9-14.48H240c.17,4.61.25,9.21.13,13.82h2.48c0-.73-.08-1.47-.13-2.2a1.08,1.08,0,0,0-2.16,0c-.07.73-.13,1.47-.19,2.2-.12,1.58,2.45,1.61,2.48,0,.11-4.61.07-9.21-.25-13.82a1.18,1.18,0,0,0-2.36,0c-.3,4.83-.62,9.65-.93,14.48h2.39c0-4.41-.08-8.82-.23-13.23a1.12,1.12,0,0,0-2.23,0c-.41,4.77-.85,9.58-1.51,14.32l2.42.33c0-3.75,0-7.49-.17-11.23a1.2,1.2,0,0,0-2.4,0c-.23,4.2-.24,8.52-1.05,12.65h2.38a56.75,56.75,0,0,1-.58-8h-2.43c0,.66,0,6.47.06,6.45l1.6,1.22c.1-2.87.2-5.82.1-8.69a.78.78,0,0,0-1.53-.21Z" transform="translate(-173.71 -101.36)" fill="#1e1e1e"/><path d="M241.43,159.23c-.52,5.61-.07,11.48.32,17.09a1.25,1.25,0,0,0,1.86,1.07c1.5-1.07,1.12-3.37,1.14-5,.06-4.2-.27-8.28.89-12.38l-2.34-.32c.22,5.44.21,10.95,1.28,16.31a1.21,1.21,0,0,0,2.37-.32c-.27-6.1,0-12.22-.12-18.33H244.6l.07.5a1.06,1.06,0,0,0,2.11,0l.05-.5c.13-1.4-2.21-1.45-2.23,0-.06,6.11.2,12.22-.06,18.33l2.37-.32a128.24,128.24,0,0,1-1.22-15.67,1.2,1.2,0,0,0-2.34-.31,28.46,28.46,0,0,0-.95,7.59c0,.81.53,8,0,8.28l1.86,1.07c-.1-5.72-.17-11.67-1.2-17.31-.17-1-1.51-.62-1.59.22Z" transform="translate(-173.71 -101.36)" fill="#1e1e1e"/><path d="M240.59,172.6c-.07,1.56-.15,3.1-.14,4.67a1,1,0,1,0,2-.27l-.06-.26a1,1,0,0,0-1.91.26v.27l2-.27c-.32-1.52-.7-3-1.09-4.5a.38.38,0,0,0-.74.1Z" transform="translate(-173.71 -101.36)" fill="#1e1e1e"/><path d="M192,206.36q.38.18.78.33a2.05,2.05,0,0,0,2.06-.55l.07-.08-1.29.54a2,2,0,0,0,2-1.36,1.44,1.44,0,0,0,0-.77l-.14-.34.11.25a2.29,2.29,0,0,0-1-1.19l.9,1.58a2.41,2.41,0,0,0-.8-1.83,2.18,2.18,0,1,0-2.64,3.42Z" transform="translate(-173.71 -101.36)" fill="#1e1e1e"/><path d="M206.42,207.26a2.18,2.18,0,0,0,2.16-2.15,2.2,2.2,0,0,0-2.16-2.16,2.16,2.16,0,0,0,0,4.31Z" transform="translate(-173.71 -101.36)" fill="#1e1e1e"/><path d="M221.4,206.9a2.16,2.16,0,0,0,2.74-1.77,2,2,0,0,0-.21-1.24,2.63,2.63,0,0,0-.29-.37,1.68,1.68,0,0,0-.4-.3c-.13-.06-.05,0,.25.2l.61,1.48v-.07a2.12,2.12,0,0,0-3.44-1.68,2.11,2.11,0,0,0-.81,2,2.2,2.2,0,0,0,1.54,1.78Z" transform="translate(-173.71 -101.36)" fill="#1e1e1e"/><path d="M235.69,206.15a2.08,2.08,0,1,0-2.07-2.08,2.1,2.1,0,0,0,2.07,2.08Z" transform="translate(-173.71 -101.36)" fill="#1e1e1e"/><path d="M201.28,200a2.38,2.38,0,0,0,.32-1.13,1.33,1.33,0,0,0-.15-.68c-.14-.33-.12-.28.05.14a2.17,2.17,0,1,0-3.63,2.11,2.18,2.18,0,0,0,3.41-.44Z" transform="translate(-173.71 -101.36)" fill="#1e1e1e"/><path d="M214.78,200.86l.1-.09a1.18,1.18,0,0,0,0-1.65l-.1-.1a1.3,1.3,0,1,0,0,1.84Z" transform="translate(-173.71 -101.36)" fill="#1e1e1e"/><path d="M230.06,198.79a2.93,2.93,0,0,0-.31-.7,2.18,2.18,0,0,0-1.88-1.08,2.43,2.43,0,0,0-1.6.64,2.11,2.11,0,0,0-.63,1.48,2.24,2.24,0,0,0,.63,1.52,1.41,1.41,0,0,0,.51.42c.62.26.69.29.19.09a2.12,2.12,0,0,0,3.09-2.37Z" transform="translate(-173.71 -101.36)" fill="#1e1e1e"/><path d="M187.1,200.76a2.19,2.19,0,1,0-2.19-2.19,2.24,2.24,0,0,0,2.19,2.19Z" transform="translate(-173.71 -101.36)" fill="#1e1e1e"/><path d="M241.69,201.43a2.15,2.15,0,1,0-2.14-2.15,2.19,2.19,0,0,0,2.14,2.15Z" transform="translate(-173.71 -101.36)" fill="#1e1e1e"/><path d="M186.32,209.75a1,1,0,0,0,0-1.9,1,1,0,0,0,0,1.9Z" transform="translate(-173.71 -101.36)" fill="#1e1e1e"/><path d="M198.91,211.57a2.19,2.19,0,1,0-2.19-2.18,2.2,2.2,0,0,0,2.19,2.18Z" transform="translate(-173.71 -101.36)" fill="#1e1e1e"/><path d="M213.82,213l.08,0a2.19,2.19,0,1,0-2.13-3.66l-.06.06a2.23,2.23,0,0,0-.34,2.63,2.2,2.2,0,0,0,2.45,1Z" transform="translate(-173.71 -101.36)" fill="#1e1e1e"/><path d="M226.72,209.19l0,.05a2.11,2.11,0,1,0,3.64,0l0-.05a2.1,2.1,0,0,0-3.6,0Z" transform="translate(-173.71 -101.36)" fill="#1e1e1e"/><path d="M243.56,211.79c2.59,0,2.6-4,0-4s-2.59,4,0,4Z" transform="translate(-173.71 -101.36)" fill="#1e1e1e"/><path d="M186.51,210.37c2.54,0,2.54-3.94,0-3.94s-2.54,3.94,0,3.94Z" transform="translate(-173.71 -101.36)" fill="#1e1e1e"/><path d="M194,193.86a1.39,1.39,0,1,0-1.39-1.39,1.41,1.41,0,0,0,1.39,1.39Z" transform="translate(-173.71 -101.36)" fill="#1e1e1e"/><path d="M205.92,190.58l.29.24a2,2,0,0,0-2.42-.31,3.27,3.27,0,0,0-.85.85,2.15,2.15,0,0,0,.17,2.42,2.17,2.17,0,0,0,2.29.78,2.25,2.25,0,0,0,1.52-1.52,2.18,2.18,0,0,0-1-2.46Z" transform="translate(-173.71 -101.36)" fill="#1e1e1e"/><path d="M222,194.36a1.59,1.59,0,1,0-1.59-1.59,1.62,1.62,0,0,0,1.59,1.59Z" transform="translate(-173.71 -101.36)" fill="#1e1e1e"/><path d="M232.81,194.74a2.14,2.14,0,1,0-2.15-2.14,2.19,2.19,0,0,0,2.15,2.14Z" transform="translate(-173.71 -101.36)" fill="#1e1e1e"/></svg>