<svg id="OBJECT" xmlns="http://www.w3.org/2000/svg" viewBox="0 0 84.36 125.28"><path d="M293.56,124.21c-1.05,11.86-1.92,26.4,3.49,37.41,4.89,10,15.53,14.8,26.24,15.38s22.66-2.86,27.07-13.34c5-11.82,4.2-25.06,3.41-37.56-.13-2-3.27-2-3.15,0,.62,10.4,1.3,21.16-1.49,31.32C347.47,163.47,345,168.31,339,171a34.2,34.2,0,0,1-15.75,2.82c-11.16-.62-21-6.24-24.9-17-3.71-10.25-2.24-21.9-2.88-32.59a1,1,0,0,0-1.95,0Z" transform="translate(-282.03 -88.8)" fill="#1e1e1e"/><path d="M294.62,142.35a5.17,5.17,0,0,0-5.58-3c-2.85.39-4.53,2.8-4.94,5.5-1,6.64,4.3,12.73,10.52,14.16,1.6.37,2.29-2.11.68-2.48A11.16,11.16,0,0,1,287,149.3c-1.42-4.38,1.25-10.06,6.05-6.05.62.51,1.93,0,1.54-.9Z" transform="translate(-282.03 -88.8)" fill="#1e1e1e"/><path d="M353.68,144.13c2.86-1.54,5.94-1.68,6,2.46a10.07,10.07,0,0,1-1.28,4.74c-1.5,2.8-4.13,5.93-7.3,6.69-1.52.36-.88,2.73.65,2.35,5.49-1.34,10.31-8.2,10.26-13.78-.05-6-5.17-7.4-9.39-3.87-.81.68.22,1.88,1.08,1.41Z" transform="translate(-282.03 -88.8)" fill="#1e1e1e"/><path d="M321.76,155.07c2.3,1.4,8.43,1,9.54-2.08.74-2-.64-4.68-.74-6.73-.18-3.57.07-7.18.05-10.76a1.25,1.25,0,0,0-2.5,0c0,4.26-.27,8.73.23,12.95a17.42,17.42,0,0,1,.43,2.2c-.12,2.51-1.22,2.08-2.91,2.34-1.9.29-2.86.24-4.16,1.58a.32.32,0,0,0,.06.5Z" transform="translate(-282.03 -88.8)" fill="#1e1e1e"/><path d="M311.27,145.84a2,2,0,0,0,1.94-1.94,2,2,0,0,0-1.94-1.94,1.94,1.94,0,0,0,0,3.88Z" transform="translate(-282.03 -88.8)" fill="#1e1e1e"/><path d="M338.22,145.51a1.74,1.74,0,0,0,0-3.48,1.74,1.74,0,0,0,0,3.48Z" transform="translate(-282.03 -88.8)" fill="#1e1e1e"/><path d="M318,161.42c2.12,1.27,4.89.85,7.3.85a44.7,44.7,0,0,0,8.49-.6c.82-.17.52-1.27-.18-1.35a73.58,73.58,0,0,0-8.91-.18c-2.25,0-4.68-.38-6.7.71a.34.34,0,0,0,0,.57Z" transform="translate(-282.03 -88.8)" fill="#1e1e1e"/><path d="M324.88,165.62a2.77,2.77,0,0,0,3-.16.56.56,0,0,0-.13-1,2.75,2.75,0,0,0-2.9.6.47.47,0,0,0,.07.57Z" transform="translate(-282.03 -88.8)" fill="#1e1e1e"/><path d="M332.44,174.08c-.75,2.53-.61,5.25-.62,7.87,0,2.31-.48,5,.77,7a.92.92,0,0,0,1.59,0c1.15-2.09.58-4.67.55-7,0-2.62.14-5.32-.53-7.87a.92.92,0,0,0-1.76,0Z" transform="translate(-282.03 -88.8)" fill="#1e1e1e"/><path d="M334.29,185.57c6.95,2.93,12.25,6.67,16.44,13.07a29.38,29.38,0,0,1,3.17,6.28c.67,1.89,1.67,3.75-.62,4.9-1.63.82-5.62.29-7.48.4-18.53,1.07-37.19,1.37-55.35-3,.37.65.74,1.3,1.1,1.95,2.41-12.52,13.61-19,24.63-23.23a1.68,1.68,0,0,0,1.18-1.56c0-3.21-.06-6.41-.06-9.62a1.56,1.56,0,0,0-3.11,0c0,3.21-.06,6.41-.06,9.62.4-.52.79-1,1.19-1.55-12,4.63-24.2,11.83-26.82,25.5a1.61,1.61,0,0,0,1.11,1.94,146.79,146.79,0,0,0,33.68,3.85c5.63,0,11.26-.15,16.88-.44,5.25-.27,11.46.16,16.45-1.55a1.34,1.34,0,0,0,.95-1c1-5.66-3.11-12.32-6.47-16.65-4-5.16-9.81-10.27-16.51-11.14-1.39-.18-1.35,1.78-.3,2.22Z" transform="translate(-282.03 -88.8)" fill="#1e1e1e"/><path d="M294.7,146.65c-1.14-1.26-3-2.81-4.84-2.51-1.22.19-2.8,1.77-2,3.06a.4.4,0,0,0,.44.18c.95-.16,1.19-1.42,2.19-1.31a6.82,6.82,0,0,1,3.07,1.7.79.79,0,0,0,1.12-1.12Z" transform="translate(-282.03 -88.8)" fill="#1e1e1e"/><path d="M354,148.81a1.83,1.83,0,0,1,1.81-.43c.56.16.91.64,1.45.85a.9.9,0,0,0,1.14-.87,2.57,2.57,0,0,0-2.53-2,2.93,2.93,0,0,0-2.71,1.84c-.28.51.44,1.13.84.65Z" transform="translate(-282.03 -88.8)" fill="#1e1e1e"/><path d="M312,186.07c5.2,7.27,19.15,6.54,25.21,1,1.06-1-.52-2.53-1.56-1.56-3.56,3.28-8.33,4-13,3.35-3.74-.5-6.58-2.55-10.1-3.51-.4-.11-.84.37-.57.75Z" transform="translate(-282.03 -88.8)" fill="#1e1e1e"/><path d="M317.16,133.72c-1.8-1.61-4.56-1.7-6.88-1.84s-4.81-.41-6.28,1.54a1.41,1.41,0,0,0,.22,1.72c1.59,1.46,4,1,6.06,1.09,2.2.13,4.56.7,6.59-.32a1.41,1.41,0,0,0,.29-2.19Z" transform="translate(-282.03 -88.8)" fill="#1e1e1e"/><path d="M333.84,135.89c1.82.73,4.08.27,6,.24s4,.61,5.2-.93a1.59,1.59,0,0,0,.24-1.86c-1.1-1.94-3.48-1.57-5.44-1.56s-4.7,0-6.38,1.25a1.59,1.59,0,0,0,.38,2.86Z" transform="translate(-282.03 -88.8)" fill="#1e1e1e"/><path d="M304.9,144.93c1.86-1,2.94-2.63,5.25-2.85,2.58-.25,4.57,1.09,6.09,3,.6.77,1.85-.22,1.34-1a8.22,8.22,0,0,0-7.19-3.86c-2.36.08-5.83,1.45-6.35,4a.59.59,0,0,0,.86.66Z" transform="translate(-282.03 -88.8)" fill="#1e1e1e"/><path d="M332.84,145.31c1.57-1.31,3-3,5.13-3.17,2.43-.2,3.66,1.44,4.52,3.44.44,1,2.13.29,1.78-.75-2-6.11-9.88-6.07-12.59-.42a.74.74,0,0,0,1.16.9Z" transform="translate(-282.03 -88.8)" fill="#1e1e1e"/><path d="M290.77,139c-.45-4.93-1-9.85-1.56-14.77a1.49,1.49,0,0,0-1.45-1.44q-3.93-.25-1-5.33a3.66,3.66,0,0,0,.93-.56c.07-.23.4-.59.51-.88,1.17-3.25-4.07-5.83.68-9.07,1.6-1.09,3.06-.62,4.33-2.22.77-1,.85-2.65,1.52-3.73,2.25-3.66,6.39-4.31,10.19-2.95a1.34,1.34,0,0,0,1.5-.61c2.86-5.51,12.45-8.69,16.7-2.79a1.42,1.42,0,0,0,1.93.5c5.22-3.83,11.55-3,15.61,2a1.43,1.43,0,0,0,1.39.37,7.25,7.25,0,0,1,9.44,7,1.38,1.38,0,0,0,1.35,1.35l4.44,6.91a1.39,1.39,0,0,0,.62,1.53c1.82.94,3.73,3.76,3.21,5.92-.24,1-2.1,2.68-2.74,3.44a8.66,8.66,0,0,0-2.12,3.21c-1.49,4.35-1.43,9.58-1.29,14.1.06,2.21,3.51,2.22,3.44,0-.12-4-.36-8.8.82-12.63.88-2.83,3.47-4,4.42-6.74,1.38-4-.71-7.81-4.37-9.64l.62,1.53c1.52-5.46-1.52-9.65-7.05-10.33l1.35,1.35a10.17,10.17,0,0,0-3.66-8.21c-2.75-2.17-5.54-1-8.31-2.09-1.36-.51-2.69-2.26-4-3a13.36,13.36,0,0,0-4.52-1.44,13.53,13.53,0,0,0-10,2.92l1.93.5c-4.56-6.12-13.81-5.44-19.09-.38-1.86,1.79-1.4,1.9-3.94,1.86a12.22,12.22,0,0,0-5.38.83c-3.55,1.56-3.9,4.14-5.94,6.88-1.82,2.43-5.07,2.21-6.5,5.39a7.27,7.27,0,0,0-.59,4.11c.13.74,1.41,2.61,1.26,3.19s-2.43,2-2.84,2.91a5.61,5.61,0,0,0-.37,3.36c.63,2.76,3,4.06,5.62,4.3l-1.44-1.44c.67,5,1.29,10.07,2.05,15.09.2,1.35,2.52,1.05,2.4-.32Z" transform="translate(-282.03 -88.8)" fill="#1e1e1e"/><path d="M290.83,124.56c4.69,3.72,11.08,1.16,14.35-3.18l-2.37.31c2.78,3.32,6.42,7,11.17,6.42,4.15-.52,6.74-4.15,8.47-7.62l-2.49.32c5.75,6,17.36,10.63,21.42.23l-3,.4c4.67,7.71,14,9.05,20.91,3.45,1.68-1.36-.71-3.73-2.38-2.38-5.27,4.29-12.2,3-15.68-2.74a1.67,1.67,0,0,0-3,.4c-3.07,7.93-12.26,2.17-16-1.6a1.6,1.6,0,0,0-2.49.32c-1.55,3.14-3,5.5-6.84,5.46s-5.56-2.18-7.93-4.8a1.52,1.52,0,0,0-2.37.3c-2.38,4.49-6.7,4.61-11,3.4-.71-.2-1.4.8-.76,1.31Z" transform="translate(-282.03 -88.8)" fill="#1e1e1e"/><path d="M288.89,125.89a51.6,51.6,0,0,0,1.53,10.78c.33,1.35,2.6,1.11,2.48-.33a39.59,39.59,0,0,1,.93-11.27l-1.94.26c1,1.63,0,5.68-.24,7.5a27.25,27.25,0,0,1-.62,4.49,4.59,4.59,0,0,0-.49,2l2.28-.31-.33-.84a.83.83,0,0,0-1.59,0l-.32.84c-.55,1.47,2.08,2.11,2.28.31.29-2.49.93-5,1.11-7.54.15-2.2.92-5.51-.25-7.51a1.07,1.07,0,0,0-1.94.26,100,100,0,0,0-1.41,11.83h2.53a52.09,52.09,0,0,0-1.82-10.75,1.12,1.12,0,0,0-2.19.3Z" transform="translate(-282.03 -88.8)" fill="#1e1e1e"/><path d="M355.15,127.26c-1.23.79-1.4,2.11-1.5,3.5a40.21,40.21,0,0,0,0,7.36h1.95q-.18-4.55-.3-9.1l-1.81.25c.27,1.78.22,3.62.59,5.38a.79.79,0,0,0,1.52,0,17.65,17.65,0,0,0-.33-5.88c-.16-1-1.85-.78-1.82.25.1,3,.16,6.07.2,9.1a1,1,0,0,0,1.95,0c.41-3.4-.26-6.83.39-10.2.09-.47-.4-1-.86-.66Z" transform="translate(-282.03 -88.8)" fill="#1e1e1e"/><path d="M290.05,124.14a2,2,0,0,1-.8-.4.91.91,0,0,0-1.43.18.93.93,0,0,0,.55,1.34,1.19,1.19,0,0,0,.59.1.84.84,0,0,0,.59-1.42,1.77,1.77,0,0,0-.7-.44l-.24,1.8a8.64,8.64,0,0,0,1.44-.23.49.49,0,0,0,0-.93Z" transform="translate(-282.03 -88.8)" fill="#1e1e1e"/><path d="M287.74,121.69a7.31,7.31,0,0,0,9.43.23.89.89,0,0,0-.68-1.61c-2.4.64-6.38,2.32-7.71-.4q-1.81-2.55,2.82-2.06,3.47.2,2.94-3.74a1,1,0,0,0-.83-1.46c-5.13.2-4.18,10.78,3.47,6a1,1,0,0,0,0-1.68c-1.58-.81-5.44-1.8-5.83-3.45,1.67-2.7,3.45-3.61,5.32-2.75a4.16,4.16,0,0,0,1.76.58c1.35.14,2.48,0,3-1.51,1.69-4.59-6.8-6.59-9.62-6.62.22.54.45,1.07.67,1.61,1.74-2,3.7-3.91,6.26-4.22,2.83-.34,4.53,1.74,5.73,4.13.44.86,2,.24,1.59-.67-.85-2.06-4.43-7.34-7.3-5.5-2.07,1.33-.78,5.85,1.68,5.83,2.77,0,2.73-4.4,1.11-5.92-3.11-2.91-8.53,3-10.41,5a1,1,0,0,0,.67,1.62c.87.08,9.35,1.69,3.9,3.13-.33.09-2.32-.68-3-.63a4.07,4.07,0,0,0-3.7,2.29c-2.06,5,4.07,7.15,7.15,8.75V117l-2.49-2.43-.93-1.23c-.6,1.5-2.16,8.57,1.38,8.14,3.11-.37,1.09-4.5-.76-5.19-2.08-.76-8.33.48-8.1,3.64.36,4.78,9.25,2.8,11.66,2.06l-.86-1.48a6.08,6.08,0,0,1-7.69.3c-.52-.34-1.16.47-.67.86Z" transform="translate(-282.03 -88.8)" fill="#1e1e1e"/><path d="M306.58,110.16c-2.44,2.14-4.94,6.84-1,9.16,2,1.19,3-.21,4.88-.4a41,41,0,0,0,4.29.46q-2.47,3.9-6-.25c-1.19-1.16-1.91-2.8-3-4.07-2.71-3.26-6.3-4.19-9.77-1.24a4.57,4.57,0,0,0-1.9,3.86c.26,2.55,2.81,2.7,3.79,4.81l.67-1.65-4.1-3.93a.83.83,0,0,0-.41-1.54c-6.57.81-.47,9.47,5.11,7.64a1.16,1.16,0,0,0,.68-1.66c-1-2.14-2.37-1.66-2-4.34.56-3.84,3.83-3,6.15-.59a36.78,36.78,0,0,1,2.22,3c2.06,2.59,4.79,4.5,8.29,3.57,6.85-1.82.05-8.23-4.77-6-4.26,2,.09,11.88,4.9,5.73,1.24-1.58,2.32-4.25.74-5.92a3.41,3.41,0,0,0-3.13-.85c-.54.07-1,.44-1.56.5l-1.28.69q-4.55-3.47-1.4-5.54c1-.9-.46-2.3-1.44-1.44Z" transform="translate(-282.03 -88.8)" fill="#1e1e1e"/><path d="M306.4,115.28c2.52-3.17,4.91-7.64,3.79-11.83-.19-.71-.78-1.42-.91-2.09-1.27-1.15-.91-2.18,1.1-3.09q2-3.73,1.9-1L311.92,96c1.31-2.73,3-3.57,5-2.55,1.12.25,7.48,3.65,4.08,5.28l1.45.38q4.59.7,3.24,4.44a4,4,0,0,1-1.52,4.08l-7.61-.36a6.1,6.1,0,0,1-.58-5c.15-.71-.36-1.7-1.23-1.6-4.05.49-17.87-.33-15.33,7.05,2,5.91,9.7,4.64,13.92,2.35l-1.51-.62c.27,1.79,8.48,1.78,10.42,2.29a1.16,1.16,0,0,0,.62-2.24c-3.52-1-19.87-3.53-17.11,4.9a3.72,3.72,0,0,0,5,2.16c3.15-1.08,3.47-4.52,3.13-7.38a1,1,0,0,0-1.54-.88,14,14,0,0,1-3.64,1.33h-3.44q-3-5.49.69-5.45c2.19-1,6.44-.74,8.84-1l-1.22-1.6c-2,9.55,10.11,13.9,14.13,4.83,1.47-3.32.6-8.42-3-10-2.6-1.18-5.27.69-4.12,3.54a1.08,1.08,0,0,0,1.55.63c7.34-3.34-4-9.78-7.57-10-6.94-.49-6.14,10.29-.74,11.29a3,3,0,0,0,3.68-3c.12-3.09-3.79-5-6.37-5.14s-5.48,1.63-5.58,4.52a6.68,6.68,0,0,0,1.08,3.18c2.2,4.78,1.41,8.43-1.49,12.83-.52.78.71,1.76,1.31,1Z" transform="translate(-282.03 -88.8)" fill="#1e1e1e"/><path d="M323.94,117.82l2,1.54a1.2,1.2,0,0,0-.32,2.34c2.76,1.13,6.81,4.1,9.72,2.31,3.07-1.89,3.42-6.63,3.7-9.78.13-1.45-2.11-1.68-2.48-.34a10.48,10.48,0,0,1-.78,2.31q-1.05,4-5.17-2.27c-.22-4.45,4.78-4,7.21-4.55-2.66.58-8.3.34-8.37-3.68l2.69-5.43a5,5,0,0,1,5.2-.76c-.08-.63-.16-1.26-.25-1.89q-8.36,4-2.15-3.38a19.83,19.83,0,0,1,3.39,2.37c4,4.7-.09,8.18-2.54,11.23a1.1,1.1,0,0,0,1.55,1.55c3.64-3.21,7-8.41,3.89-13.12-2-3.09-7.56-6.5-11.32-4.76-2.87,1.33-3.2,4.74-1.56,7.17,2.5,3.69,7.41,3.2,10.45.64a1.21,1.21,0,0,0-.25-1.89c-5.19-2.43-12.68,2.3-11.57,8.32s9.59,8.6,14.14,4.69a1.27,1.27,0,0,0,.33-1.25c-1-2.72-4.84-2.74-7.2-2.11a8.66,8.66,0,0,0-6.4,7.91c-.16,2.86,1.15,6.39,4.4,6.71,4.11.41,5.89-3.94,6.75-7.14l-2.49-.33c-.22,2.78-.17,7.55-4.09,7.7-1.62.07-4.64-1.89-6.16-2.53-.11.78-.21,1.56-.32,2.34,5-.41,5.47-7,.53-8.26-4.34-1.07-8,5-3,5.91a.81.81,0,0,0,.43-1.57Z" transform="translate(-282.03 -88.8)" fill="#1e1e1e"/><path d="M343.28,107.09c1.08-.83.16-7.55,3.94-5,2.55,1.71,2,2.77.43,5-2.71,3.85-.86,2.16-3.36,1.64-1-.2-1.89-.74-2.85-1-2.33-.59-5.74-1.08-7.75.66a4,4,0,0,0-1.39,2.9c-.15,1.73,1.86,4.15-1.11,4.61-2.07.32-4.82-3.5-5.37-5.09-.4-1.19-.09-2.64-.47-3.79a3.81,3.81,0,0,0-.94-1.76c-3.13-2.85-11.82-.77-10.42,4.42a4.75,4.75,0,0,0,1.94,2.53,22.81,22.81,0,0,1,3.31,2.71c2.39,2.6,0,.44-.37-.87-1-3.33-.78-10.12,3.13-11.65l1.23-.77,4.68,3.26a18,18,0,0,1,4.2-.4,11.45,11.45,0,0,1,4.2.64.74.74,0,0,0,.39-1.42c-3.35-1.08-14.14-2.78-12.42,3.72a1.1,1.1,0,0,0,1,.8c4,.09,7.27-3.67,4.84-7.46-3-4.67-9.23-1.25-11.85,2-2.86,3.51-3.49,12,.06,15.33,2,1.84,6.68,1,5.11-2.24S313.32,113,314,117.63c.59,4,6.26,2.6,7.91.26a3.53,3.53,0,0,0-.09-4.59c-.74-1-3.12-1.56-3.56-2.39q5.16-5.77,4.83-1.2a9.9,9.9,0,0,0,.38,1.78c1.5,4.74,7.13,8.73,12,6.21a1.18,1.18,0,0,0,.59-1c0-.93-.64-1.94-.64-2.76-1.23-2-.32-3.35,2.73-4.22a12.79,12.79,0,0,1,3.38.63c2.23.67,4.71,2.92,7.22,2.45,2.86-.52,4.38-3.72,4-6.4-.47-3.09-4.58-8.71-8.13-8.47-2.92.19-3.7,4.06-2.79,6.39,1,2.49,4,3.27,5.7,1,1.47-2,.24-6.37-2.48-6.67-5.36-.58-4.32,13.14-.68,9.8.71-.65-.26-2-1-1.35Z" transform="translate(-282.03 -88.8)" fill="#1e1e1e"/><path d="M346.93,117.46a10,10,0,0,0,1.63-.84c1.27.28,1.45.61.53,1a8.3,8.3,0,0,1-1.28.84,1.8,1.8,0,0,1-2.77-.29c-1.24-.18-1.8-.85-1.69-2a6.78,6.78,0,0,1,.16-2.33,3.72,3.72,0,0,1,4.61-1.9,5.36,5.36,0,0,1,2,1c.85.41.74.62-.34.65a5.27,5.27,0,0,1,.75-3.47q1.62-2.67,4-.4l.23-1.26c.4-.18.77,3.26.73,3.66-.13,1.11,1.49,1.16,1.83.25.83-2.24-.19-7.46-3.62-6.45-2.79.82-1.05,5.36,1.27,5.64,3.35.4,1.7-3.79,0-4.8-3.09-1.84-6.36,1.08-7.18,4-.72,2.58-.3,7.62,3.45,7.35,3.07-.22,3.28-3.93,1.71-5.89-2.23-2.77-6.82-4-9.79-1.74-2.62,2-2.94,6.79-.83,9.29,2.47,2.92,7.88,1,9.63-1.89a2.47,2.47,0,0,0-.54-3.4c-1.84-1.28-3.89.29-5.54,1-1.28.58-.17,2.46,1.1,1.88Z" transform="translate(-282.03 -88.8)" fill="#1e1e1e"/><path d="M350.73,104.81c2.29-2.51,5.77-1.53,7.27,1.27,1.18,2.22.92,4.86.22,7.18a4.18,4.18,0,0,1-3.42,3.63q-2.83-.49-3.54,3.22a4.14,4.14,0,0,1-4.66-2.31q1.14-1.65.15,2.9c-1.11-.42-1.6,1.2-.76,1.8a3.42,3.42,0,0,0,5.51-2.13c.42-2.85-3-5.6-5.76-5.14s-1.64,3-.44,4.59a6,6,0,0,0,7.55,1.78c5.59-3.25-.84-10.89-3.3-6.92-1.44,2.33,1.26,4,3.17,4.28,4.17.65,6.43-1.33,7.6-5.12s1-8.23-2.12-10.9a5.24,5.24,0,0,0-8.19,1.31c-.24.45.35,1,.72.56Z" transform="translate(-282.03 -88.8)" fill="#1e1e1e"/><path d="M347.31,122.06c-.54,3,2.37,4.52,5,3.64,3.41-1.14,5.24-4.71,6.53-7.79h-2.12c.21.91.5,3.86-.64,4.47l-2.42-.26c.17-.52.34-1,.52-1.56a2.66,2.66,0,0,1,2.92-1.39q1.72-.18.27,1.14c-.48,1.21-.7,1.37-.66.47a2.1,2.1,0,0,1,1.06-2.39c2.43-1.23,1.36,2,1.06,3.25a.72.72,0,0,0,1,.81c2.07-1.33,2.77-4.59.54-6.18a3.86,3.86,0,0,0-5.37,1.43c-1.09,1.83-1.12,5.41,1,6.52a3.86,3.86,0,0,0,5.31-3.44c-.33-6.45-10.57-4.36-10,1.73a3.28,3.28,0,0,0,4.68,2.9c2.93-1.4,3.49-5.29,2.8-8.09-.28-1.16-1.75-.93-2.12,0a17.85,17.85,0,0,1-2.05,3.89,8.76,8.76,0,0,1-1.36,1.49c-.81.71-4.82,2.9-4.6-.45,0-.8-1.28-1-1.42-.19Z" transform="translate(-282.03 -88.8)" fill="#1e1e1e"/><path d="M354.69,125.76c.28,1.93,2.39,2.33,4.06,2.36,2.31.06,4.39-1,4.95-3.34.8-3.43-1.47-13.15-6.76-11.36a1,1,0,0,0-.24,1.83c.94.65,2,.92,2.77,1.82a8.43,8.43,0,0,1,1.58,4.49c.19,1.52.38,3.49-1.34,4-.8.26-3.25.62-3.74-.39-.37-.78-1.39-.17-1.28.54Z" transform="translate(-282.03 -88.8)" fill="#1e1e1e"/><path d="M358.23,113.57a4.26,4.26,0,0,1,4.73,1.48c.87,1.39.84,4.25.61,5.87-.31,2.16-2.62,3-4.51,3.34-1.54.28-2.71-.18-4.18-.33a.85.85,0,0,0-.85.84c0,2.85,3.83,2.41,5.73,2,2.7-.53,6-2.08,6.43-5.11.41-2.75.36-6.85-1.79-8.92a5.25,5.25,0,0,0-6.74-.55c-.66.45-.28,1.6.57,1.35Z" transform="translate(-282.03 -88.8)" fill="#1e1e1e"/><path d="M357.5,127.56c-.46,2.08-.91,4.14-1.23,6.25a21.06,21.06,0,0,0-.54,5.73c.09.68,1.15,1.26,1.52.41,1.55-3.53,1.43-8.4,1.67-12.2a.73.73,0,0,0-1.42-.19Z" transform="translate(-282.03 -88.8)" fill="#1e1e1e"/><path d="M357.49,140.55c2-4.41,3.84-10.9,3-15.78-.14-.84-1.36-.71-1.57,0-.75,2.43-.71,5.1-1.19,7.61s-1.26,5-1.81,7.51c-.2.89,1.13,1.59,1.56.66Z" transform="translate(-282.03 -88.8)" fill="#1e1e1e"/><path d="M351.13,119.25l-2.67-2.54L347.2,118q.1,6.17-2.76,2.81c-.61-.56-1.19-1.15-1.75-1.76-.34-.71-2.31-2.23.64-2.24.27,0,1.71,1,2.14,1.21a10,10,0,0,0,3.5.7.47.47,0,0,0,.44-.33A96.3,96.3,0,0,0,352.54,107a1,1,0,0,0-.93-1.23,3.8,3.8,0,0,0-2.11.67c-2,1.1-3.22,2.12-5.58,2.5-4.36.68-8.73.06-13.07.47a.61.61,0,0,0-.16,1.19c4.05,1.08,8.65.73,12.78.25a16.87,16.87,0,0,0,4.17-.84c1.44-.55,2.75-2,4.23-2.34l-1.23-.93c-.11,1.94-.32,9.92-2.67,10.89-2.05.83-4.61-3.12-6.77-3.16-3.13-.06-2.28,2.8-1,4.49,1.81,2.41,5.79,6.88,9.24,4.56,3.09-2.08.93-5.48-1.3-7.1-.81-.58-1.65.52-1.27,1.27a5.66,5.66,0,0,0,3.84,3.16c1,.31,1.39-1.2.43-1.56Z" transform="translate(-282.03 -88.8)" fill="#1e1e1e"/><path d="M311.55,186.37c-1.1,8.18-.79,16.74-.92,25a1.21,1.21,0,0,0,2.41,0c.32-8.23,1.11-16.76.46-25a1,1,0,0,0-1.95,0Z" transform="translate(-282.03 -88.8)" fill="#1e1e1e"/><path d="M300.81,191.19c1.19,4.31,3.45,8.3,4.9,12.54.46-.59.91-1.18,1.36-1.78a9.33,9.33,0,0,0-6.43,2.1,1.59,1.59,0,0,0-.31,2.45c1.58,1.57,2.67,3.46,4.49,4.74.85.58,1.73-.38,1.58-1.21-.43-2.37-2.23-4.05-3.87-5.73-.1.81-.21,1.63-.32,2.44a14,14,0,0,1,5.23-2,1.41,1.41,0,0,0,.84-2.06c-1.88-4.05-3.39-8.46-6.09-12.05-.49-.64-1.63-.3-1.38.59Z" transform="translate(-282.03 -88.8)" fill="#1e1e1e"/><path d="M335.58,185.78a107.47,107.47,0,0,0-.12,26.88c.2,1.45,2.2.88,2.35-.32a107.61,107.61,0,0,0-.66-26.77c-.14-1-1.47-.59-1.57.21Z" transform="translate(-282.03 -88.8)" fill="#1e1e1e"/><path d="M344.5,191.76a40.05,40.05,0,0,0-2.79,5.65c-.67,1.57-1.86,3.52-2.06,5.19-.34,2.82,4.24,3.64,6.19,4.52l-.51-1.93c-.8,1.44-1.6,2.88-2.36,4.35-.85,1.66,1.62,3.13,2.52,1.47.8-1.45,1.53-2.92,2.28-4.4a1.44,1.44,0,0,0-.84-2.07c-1.09-.46-3.84-1.07-4.21-2.59-.16-.65.9-2.35,1.13-2.95a61.86,61.86,0,0,0,2.27-6.55.89.89,0,0,0-1.62-.69Z" transform="translate(-282.03 -88.8)" fill="#1e1e1e"/></svg>