<svg id="OBJECT" xmlns="http://www.w3.org/2000/svg" viewBox="0 0 78.02 128.73"><path d="M460.77,142.1c-.63,10.82-.79,24-12.13,29A34.64,34.64,0,0,1,418.76,170c-9.3-5.11-12.3-15.18-12.91-25.14-.31-4.91-.24-9.85-.2-14.76,0-2.45-.48-5.23.41-7.56,1.33-3.48,5-5.84,8.24-7.32,7.17-3.31,15.38-3.73,23.15-3.68,4.8,0,10-.14,14.68,1.34,10.63,3.39,8,20.81,8,29.25a1.58,1.58,0,0,0,3.15,0c0-9.1,2.33-26-7.63-31.26-4.84-2.58-11.14-2.44-16.45-2.52-8.46-.12-17.26.22-25.18,3.51-4.22,1.76-8.61,4.55-10.64,8.83a10.24,10.24,0,0,0-.92,3.55c-.72,6.64-.25,14,.18,20.62.61,9.49,3.07,19.4,10.92,25.52s18.55,7.72,28,6c6.81-1.25,13.75-4.27,17.3-10.5,3.94-6.93,4.12-16,3.79-23.74A1,1,0,0,0,460.77,142.1Z" transform="translate(-393.52 -85.35)" fill="#1e1e1e"/><path d="M404.17,142.35a5.18,5.18,0,0,0-5.58-3c-2.85.39-4.53,2.8-4.94,5.5-1,6.64,4.3,12.73,10.51,14.16,1.61.37,2.3-2.11.69-2.48a11.16,11.16,0,0,1-8.27-7.25c-1.42-4.38,1.25-10.06,6-6.05.62.51,1.93,0,1.55-.9Z" transform="translate(-393.52 -85.35)" fill="#1e1e1e"/><path d="M463.23,144.13c2.86-1.54,5.93-1.68,6,2.46a10.07,10.07,0,0,1-1.28,4.74c-1.51,2.8-4.13,5.93-7.3,6.69-1.53.36-.88,2.73.65,2.35,5.49-1.34,10.31-8.2,10.26-13.78-.05-6-5.17-7.4-9.4-3.87-.8.68.23,1.88,1.09,1.41Z" transform="translate(-393.52 -85.35)" fill="#1e1e1e"/><path d="M431.31,156.07c2.3,1.4,8.43,1,9.54-2.08.74-2-.64-4.68-.75-6.73-.17-3.57.07-7.18,0-10.76a1.25,1.25,0,0,0-2.49,0c0,4.26-.28,8.73.22,12.95a15.86,15.86,0,0,1,.44,2.2c-.12,2.51-1.22,2.08-2.91,2.34-1.9.29-2.87.24-4.17,1.58a.32.32,0,0,0,.07.5Z" transform="translate(-393.52 -85.35)" fill="#1e1e1e"/><path d="M420.82,148.49a2.59,2.59,0,1,0-2.59-2.59,2.62,2.62,0,0,0,2.59,2.59Z" transform="translate(-393.52 -85.35)" fill="#1e1e1e"/><path d="M447.79,148.48c3,0,3-4.64,0-4.64s-3,4.64,0,4.64Z" transform="translate(-393.52 -85.35)" fill="#1e1e1e"/><path d="M432.86,163.14c1.93.42,4.62.51,6.41-.44a.69.69,0,0,0-.16-1.25,8.52,8.52,0,0,0-2.85-.23c-1.05,0-2.11,0-3.15.13s-1.35,1.55-.25,1.79Z" transform="translate(-393.52 -85.35)" fill="#1e1e1e"/><path d="M434.13,166.3a2.76,2.76,0,0,0,3-.15.56.56,0,0,0-.14-1,2.75,2.75,0,0,0-2.9.6.47.47,0,0,0,.07.56Z" transform="translate(-393.52 -85.35)" fill="#1e1e1e"/><path d="M442,174.08c-.75,2.53-.61,5.25-.62,7.87,0,2.31-.49,5,.77,7a.92.92,0,0,0,1.59,0c1.15-2.09.58-4.67.54-7,0-2.62.14-5.32-.52-7.87a.92.92,0,0,0-1.76,0Z" transform="translate(-393.52 -85.35)" fill="#1e1e1e"/><path d="M443.84,185.57c7,2.93,12.25,6.67,16.43,13.07a29.42,29.42,0,0,1,3.18,6.28c.67,1.89,1.67,3.75-.62,4.9-1.63.82-5.62.29-7.48.4-18.53,1.07-37.2,1.37-55.35-3,.36.65.73,1.3,1.1,1.95,2.4-12.52,13.61-19,24.63-23.23a1.68,1.68,0,0,0,1.18-1.56c0-3.21-.06-6.41-.06-9.62a1.56,1.56,0,0,0-3.11,0c0,3.21-.06,6.41-.06,9.62.4-.52.79-1,1.19-1.55-12,4.63-24.2,11.83-26.82,25.5a1.6,1.6,0,0,0,1.11,1.94,146.79,146.79,0,0,0,33.68,3.85c5.63,0,11.26-.15,16.88-.44,5.25-.27,11.45.16,16.45-1.55a1.36,1.36,0,0,0,.95-1c1-5.66-3.11-12.32-6.48-16.65-4-5.16-9.8-10.27-16.5-11.14-1.39-.18-1.35,1.78-.3,2.22Z" transform="translate(-393.52 -85.35)" fill="#1e1e1e"/><path d="M416.79,187.41c.34,6.28,9.5,8.56,14.46,9.23,8.14,1.09,16-.54,22.58-5.42,1.68-1.23-.4-3.61-1.67-2.17-4.42,5-12.5,6-18.84,5.57a26.23,26.23,0,0,1-8.79-2c-3-1.32-4.49-3.5-6.82-5.59a.55.55,0,0,0-.92.38Z" transform="translate(-393.52 -85.35)" fill="#1e1e1e"/><path d="M404.11,146c-.65-2.16-3.47-3.67-5.53-2.44a3.43,3.43,0,0,0-1.53,2.4c-.15.86-.12,2.38.61,3a.52.52,0,0,0,.79-.11c.69-.95,0-2.52.86-3.42,1.24-1.29,2.82.76,3.81,1.36a.68.68,0,0,0,1-.77Z" transform="translate(-393.52 -85.35)" fill="#1e1e1e"/><path d="M463.1,147.79a8.45,8.45,0,0,1,1.35-.58,2.73,2.73,0,0,1,1.46-.18c.48.21.23.94.86,1.09a.77.77,0,0,0,.74-.19c1-1.05-.07-2.6-1.36-2.61a4.67,4.67,0,0,0-3.4,2.12c-.16.23.14.44.35.35Z" transform="translate(-393.52 -85.35)" fill="#1e1e1e"/><path d="M417.87,112.55c1.32,9.86,14.19,10.92,22.17,11.33.67,0,.7-.9.15-1.11a83.82,83.82,0,0,0-11.58-3,17.42,17.42,0,0,1-5.07-1.65c-2.33-1.35-3.2-3.72-4.64-5.84-.27-.4-1.11-.31-1,.28Z" transform="translate(-393.52 -85.35)" fill="#1e1e1e"/><path d="M419.56,112.93c2.26,3.24,4.85,6.27,8.66,7.69s8.07.84,12,1.22c1.56.15,1.82-2.29.36-2.68a75.17,75.17,0,0,1-11.76-4.36c-.3.73-.61,1.46-.92,2.19,10.1,2.77,21.14,5.25,31.65,3.73,1.48-.22,1-2.47-.34-2.52-10.5-.41-20.49-.3-30.67-3.52a1.2,1.2,0,0,0-.93,2.19,59.1,59.1,0,0,0,12.25,4.92l.36-2.68c-3.19-.34-6.49.12-9.63-.55-4.11-.88-7-3.69-10.15-6.33-.47-.4-1.32.12-.92.7Z" transform="translate(-393.52 -85.35)" fill="#1e1e1e"/><path d="M420.44,112.93a60,60,0,0,0,9.33,6c1.42.75,2.68-1.39,1.26-2.17a30.35,30.35,0,0,1-8.34-6.56l-1.2,2.07a135.22,135.22,0,0,0,17.84,4.67,1.43,1.43,0,0,0,.76-2.75A84,84,0,0,0,428,110.44a1.37,1.37,0,0,0-.73,2.64c5.3,1.58,10.61,3.06,16,4.15,3.78.77,8.42,2.29,12.17,1a1.28,1.28,0,0,0-.68-2.47c-4.4.89-10-.92-14.36-1.9-4.19-.94-8.35-2-12.43-3.38-.25.88-.49,1.76-.73,2.64a116.19,116.19,0,0,1,12.08,3.86l.76-2.75a114,114,0,0,1-17.94-4.31c-1.26-.42-2,1.21-1.21,2.07a28.65,28.65,0,0,0,8.83,7l1.26-2.17c-3.3-1.54-6.51-3.23-9.71-5-.69-.38-1.56.61-.88,1.15Z" transform="translate(-393.52 -85.35)" fill="#1e1e1e"/><path d="M433.38,112.75c5.59,3.68,14.27,4.9,20.86,5.07,1.53,0,1.93-2.43.37-2.73a156.81,156.81,0,0,1-17.84-4.38l-.33,2.49c3.68-.07,7,1.7,10.43,2.67a59.24,59.24,0,0,0,8.54,1.62c1.86.23,1.91-2.79,0-2.95-6.51-.57-12.52-3.51-19-3.87-1.47-.08-1.66,2.07-.34,2.48q8.77,2.75,17.77,4.62c.12-.91.25-1.82.37-2.72-3.65.06-7.29-.67-10.9-1.13-3.26-.42-6.62-.57-9.68-1.85-.4-.17-.62.46-.28.68Z" transform="translate(-393.52 -85.35)" fill="#1e1e1e"/><path d="M418.37,111.74c-2.35.82-4.38,2.74-6.51,4-2.6,1.58-5.39,2.7-8.07,4.1a1.19,1.19,0,0,0,.92,2.17,36.7,36.7,0,0,0,8.3-4.29c2.11-1.37,4.72-2.94,6.06-5.11a.62.62,0,0,0-.7-.9Z" transform="translate(-393.52 -85.35)" fill="#1e1e1e"/><path d="M404.54,121.07c1.9-6.18,4-12,10.56-14.44a44.06,44.06,0,0,1,15.9-2.37,50.27,50.27,0,0,1,15.33,2.6,22.51,22.51,0,0,1,7.86,4c2.61,2.27,2.92,5,3.8,8.18a1.47,1.47,0,0,0,2.83-.78c-1.74-6.26-3.19-9.77-9.62-12.55a51.16,51.16,0,0,0-21.08-4c-12,.21-27.35,4.38-26.76,19.29a.6.6,0,0,0,1.18.16Z" transform="translate(-393.52 -85.35)" fill="#1e1e1e"/><path d="M405.8,118.83a23.77,23.77,0,0,1,12.75-12.59c-.35-.59-.69-1.19-1-1.78-3.14,3.31-7.67,5.11-9.72,9.4a1,1,0,0,0,1.72,1,56.63,56.63,0,0,1,7.56-7.61l-1.58-.92a41.44,41.44,0,0,1-1.38,5.8,1,1,0,0,0,1.87.79,38.52,38.52,0,0,0,2.62-6.21l-2.07-.28c-.15,1.51-.21,3-.28,4.53s2.22,1.47,2.28,0a23.48,23.48,0,0,0-.19-4.19,1.14,1.14,0,0,0-2.1-.57c-.11.18-.23.36-.35.54-.54.83.52,1.82,1.34,1.34l.55-.34-1.69-1a24.44,24.44,0,0,1,.16,4.19h2.28c.06-1.51.13-3,.11-4.53a1.06,1.06,0,0,0-2.07-.28,28.34,28.34,0,0,1-2.36,5.73l1.88.79a29.43,29.43,0,0,0,1.26-6.09c.08-.86-1.06-1.18-1.62-.67-2.67,2.5-5.09,5.27-7.78,7.75l1.56,1.2c2-4,6.49-5.72,9.5-8.9.66-.69,0-2.21-1-1.77-6,2.53-11.79,7.7-13,14.41a.43.43,0,0,0,.83.23Z" transform="translate(-393.52 -85.35)" fill="#1e1e1e"/><path d="M414.6,109A25.11,25.11,0,0,1,410,113.9c-1,.76-3.57,2-1.69,3.34a1.27,1.27,0,0,0,1.29,0c3.09-1.56,4.57-4.7,6.32-7.47.56-.88-.78-1.62-1.36-.8Z" transform="translate(-393.52 -85.35)" fill="#1e1e1e"/><path d="M417.52,106.07a16,16,0,0,0,1.17,6.32c.37,1,2.11,1,2-.27a40.7,40.7,0,0,0-1.42-7.06l-1.82.77a18.55,18.55,0,0,0,13.16,11,1.2,1.2,0,0,0,1.16-2,36,36,0,0,0-4.87-3.83c-1.77-1.15-6.16-2.45-6.33-5l-1.42,1.08c2.58.36,5.08,2.8,7.39,4a31.63,31.63,0,0,0,7.39,2.81c2.5.58,5.91,1.46,7.56-1a1.21,1.21,0,0,0-.71-1.76c-5.62-1.75-12.66-2.89-17.45-6.39-.19.68-.37,1.36-.56,2,6.77-.41,14.47,2.13,21.06,3.49,1.44.3,2.06-1.89.61-2.22-7-1.6-14.58-1.49-21.38-3.42a1.1,1.1,0,0,0-1.07,1.83c4.46,4.21,12.46,5.2,18.15,7-.24-.59-.48-1.17-.71-1.76-1.72,2.58-11.31-2.33-13.24-3.38-2.21-1.21-4.21-3.06-6.74-3.4a1.14,1.14,0,0,0-1.13,1.13,4.39,4.39,0,0,0,2,3.84c3.2,2.44,6.7,3.84,9.79,6.65l1.16-2a17.61,17.61,0,0,1-12.08-9.67c-.52-1-2.12-.3-1.82.77a50.54,50.54,0,0,1,1.37,6.8l1.84-.78a16.53,16.53,0,0,1-1.86-5.7c-.11-.67-1.15-.49-1.15.16Z" transform="translate(-393.52 -85.35)" fill="#1e1e1e"/><path d="M421.23,106.09c11.29-.61,21.49,2,31.51,7.06,1.6.8,2.6-1.78.93-2.21l-1-.26c-.45-.11-1,.33-.82.83.12.3.23.61.35.92l1.78-1.37c-9.79-6-21.64-7.74-32.84-5.84-.49.09-.38.89.11.87Z" transform="translate(-393.52 -85.35)" fill="#1e1e1e"/><path d="M429.41,104.93a41.56,41.56,0,0,1,13.87,3.38c4,1.8,7.14,4.58,10.76,7,1.06.7,2-.79,1.27-1.65-5.85-7.21-17-10.14-25.9-9.74a.51.51,0,0,0,0,1Z" transform="translate(-393.52 -85.35)" fill="#1e1e1e"/><path d="M444,110.85a15.79,15.79,0,0,1,5,4.92c1,1.42,2.23,2.84,4.08,2a1,1,0,0,0,.2-1.49c-1.3-1.2-2.45-2.52-3.75-3.71a18.92,18.92,0,0,0-4.76-3c-.89-.42-1.66.85-.78,1.34Z" transform="translate(-393.52 -85.35)" fill="#1e1e1e"/><path d="M449.56,107.71a43,43,0,0,1,5.42,4.48,13.93,13.93,0,0,1,1.91,2.6c.57,1,.77,2.2,1.39,3.2.46.74,1.92.76,2.07-.27.75-5.19-6-9.31-9.84-11.24-.74-.37-1.69.65-.95,1.23Z" transform="translate(-393.52 -85.35)" fill="#1e1e1e"/><path d="M420.87,104.75c7.28,0,13.88-.61,21.16.8,3,.57,6,1.26,8.94,2,6.22,1.52,8.59,5.33,9.21,11.52.21,2.07,3.48,2.08,3.25,0-.39-3.67-1.15-8-3.75-10.84-2.8-3.09-7.67-3.44-11.52-4.23-8.43-1.73-19.43-3.94-27.44.21a.3.3,0,0,0,.15.56Z" transform="translate(-393.52 -85.35)" fill="#1e1e1e"/><path d="M452.06,116a21.38,21.38,0,0,0,5.44,2.74c.25-.91.51-1.82.76-2.73-.91-.29-1.82-.62-2.75-.83V118c1.68-.65,1.69-2.11,0-2.77s-2.51,2.14-.76,2.77c.89.32,1.84.54,2.75.79,1.77.48,2.53-2.32.76-2.73a20.63,20.63,0,0,0-5.88-.79c-.35,0-.66.51-.32.78Z" transform="translate(-393.52 -85.35)" fill="#1e1e1e"/><path d="M400.28,139.93c1.84-5.86.36-11.88.92-17.89.8-8.62,6.5-12,14-14.42,1.08-.35,1-2.26-.29-2.11-6,.75-12,4.11-14.7,9.69-3.58,7.36-1.46,16.65-1.65,24.5a.87.87,0,0,0,1.71.23Z" transform="translate(-393.52 -85.35)" fill="#1e1e1e"/><path d="M406.5,110.93c-4.72,3.45-6.15,8.68-6.72,14.3a76.11,76.11,0,0,0-.7,11.48c.1,1.82.49,3,2.24,3.79a1.32,1.32,0,0,0,1.95-1.12c.26-7.68,2-14.75,3.72-22.18.28-1.19-1.55-2.11-2.07-.88-3,7.2-4.05,15.31-4.24,23.06l1.64-1.24c-1.86-.76-.38-11.13-.23-12.91.43-5,1.72-9.47,5.31-13.14.56-.57-.2-1.67-.9-1.16Z" transform="translate(-393.52 -85.35)" fill="#1e1e1e"/><path d="M466.15,141.78c1.14-3.52.68-7.42.68-11.09a69.43,69.43,0,0,0-.35-10.2c-.71-4.87-2.8-10.3-7.71-12.16-1.22-.46-2,1.26-1.22,2.1,4.64,4.74,5.88,9,6.17,15.58.23,5.1-.58,10.94,1.14,15.77a.67.67,0,0,0,1.29,0Z" transform="translate(-393.52 -85.35)" fill="#1e1e1e"/><path d="M459.48,115.3c1.3,8.54,1.44,17.78,3.62,26.11a1.29,1.29,0,0,0,2.52-.34c.49-8.51-2.13-18.11-4.11-26.33-.32-1.35-2.23-.75-2,.56Z" transform="translate(-393.52 -85.35)" fill="#1e1e1e"/><path d="M465.84,140.57a69.7,69.7,0,0,0-.36-8.55c-.16-2.29-.1-4.55-1-6.67-.28-.63-1.19-.37-1.37.18-.78,2.45-.26,5.11,0,7.63a40.06,40.06,0,0,0,1.27,7.61.77.77,0,0,0,1.51-.2Z" transform="translate(-393.52 -85.35)" fill="#1e1e1e"/><path d="M412.75,105.67c-5-.53-13,1.51-12.4-6.33.42-5.34,6.36-9,11-10.36a14.74,14.74,0,0,1,3.92-.73c1.88,0,5,.93,6.22,2.39,1.75,2.07,1,6.13-.18,8.25-2.8,5.14-8.41,5.4-13.36,6.73-1,.27-1.15,2,0,2.2,7.42,1.14,16-3.73,17.34-11.44a10.19,10.19,0,0,0-2.22-8.55c-2.68-3-6.72-2.75-10.33-2-6.74,1.36-15.34,6.73-15.17,14.56.18,8.68,9,9,15.44,7.15a1,1,0,0,0-.25-1.85Z" transform="translate(-393.52 -85.35)" fill="#1e1e1e"/><path d="M412.6,103.85c-3.07.17-5.42.63-8.15-1-2.56-1.5-2.51-1.59-2-4.47.41-2.16.65-2.41,2.17-3.65,3.44-2.81,9.2-6.57,13.91-6.06,2.85.3,2.76,1.67,1.33,3.74a39.48,39.48,0,0,1-4.25,5.23c-3.19,3.27-6.78,4.8-10.66,7-.7.39-.43,1.65.42,1.57,6.71-.62,12.37-7,16-12.16,1.13-1.6,3.66-4.51,2-6.58-1.52-1.88-5.74-1-7.77-.58A27.82,27.82,0,0,0,405,91.78c-2.17,1.57-4.93,3.37-5.31,6.25-1.12,8.25,7.24,9.4,13.12,7,.58-.24.58-1.23-.16-1.19Z" transform="translate(-393.52 -85.35)" fill="#1e1e1e"/><path d="M412.64,89.49a18.23,18.23,0,0,0-11.8,16.34,1,1,0,0,0,1.92.52,39.49,39.49,0,0,1,14.88-17.1c-.45-.44-.89-.89-1.34-1.34-3.46,5.72-9.31,9.44-12.72,15.2-.7,1.19,1,2.11,1.81,1,3-4,7.1-9.79,11.93-11.65l-1.3-1c-.44,4.74-6.07,9.25-9.36,12.28l1.66,1.66c1.33-1.61,2.74-3.18,4.21-4.67.86-.86,4.73-5.13,5.88-4.65L417.56,95c0,1.1-2.89,3.56-3.6,4.39-1.21,1.42-2.43,2.83-3.63,4.25a1.24,1.24,0,0,0,1.5,1.94,16.81,16.81,0,0,0,9.35-11.31L418.74,94c-.22,2.77.1,10-4.74,8.6l.33,2.51c2.16-1.15,5.52-2.3,7.18-4.16a1.36,1.36,0,0,0,0-1.88l-.18-.19a1.35,1.35,0,0,0-1.61-.21l-.19.11a1.33,1.33,0,0,0,1.34,2.29l.19-.11-1.61-.2.18.19V99c-1.47,1.61-4.75,2.64-6.69,3.66a1.39,1.39,0,0,0,.33,2.52c7,1.93,7.73-6.49,8-11.25a1.25,1.25,0,0,0-2.44-.33,13.83,13.83,0,0,1-8.21,9.84l1.5,1.94c1.95-2.32,3.88-4.65,5.82-7,.89-1,2.05-2,2-3.41a1.18,1.18,0,0,0-.84-1.11c-1.9-.6-3.45,1.21-4.8,2.36-2.71,2.32-5.05,5-7.56,7.52-1.08,1.09.52,2.63,1.66,1.66,3.88-3.29,9.57-8.49,9.75-13.94a1,1,0,0,0-1.54-.88c-5.35,2.33-8.94,8.14-12.79,12.25l1.65,1.27c3.66-5.55,9.22-9.5,12.6-15.26.48-.82-.5-1.89-1.34-1.34A44.33,44.33,0,0,0,401,105.31l1.92.52A18,18,0,0,1,413.24,90.9c.78-.37.22-1.73-.6-1.41Z" transform="translate(-393.52 -85.35)" fill="#1e1e1e"/><path d="M415.79,147.29c1.45-1.5,2.34-3.4,4.81-3.22a4.32,4.32,0,0,1,2.71,1.28c.66.68.86,1.43,1.75,1.85a1.18,1.18,0,0,0,1.7-.68c1-3.11-3.77-5.48-6.25-5.5-2.81,0-6.79,2.33-6.49,5.54a1,1,0,0,0,1.77.73Z" transform="translate(-393.52 -85.35)" fill="#1e1e1e"/><path d="M442.75,147.24c1.57-.36,2.06-2.36,3.66-2.94,2.13-.77,4,.7,4.85,2.54s3.37.22,2.55-1.49a6.82,6.82,0,0,0-7.3-4c-1.92.39-6.19,3.18-4.55,5.57a.73.73,0,0,0,.79.32Z" transform="translate(-393.52 -85.35)" fill="#1e1e1e"/><path d="M412.32,138.29c2.82-.73,5.11-2.18,8.14-2.15,2.75,0,5,1.73,7.6,1.71a1.34,1.34,0,0,0,1.14-2c-1.44-3.08-6.19-3.79-9.27-3.64-3.29.16-7.14,1.47-8.86,4.44a1.12,1.12,0,0,0,1.25,1.63Z" transform="translate(-393.52 -85.35)" fill="#1e1e1e"/><path d="M441.82,137.67c2.37.37,4.58-.64,6.92-.93a7.6,7.6,0,0,1,4,.36,6.35,6.35,0,0,0,2.62.87,1.35,1.35,0,0,0,1.28-1.69c-.39-2.67-4.07-3.3-6.32-3.24-2.87.09-6.93.86-8.91,3.08-.42.47-.33,1.43.4,1.55Z" transform="translate(-393.52 -85.35)" fill="#1e1e1e"/><path d="M438.24,121.09c3.88,2.26,11.57.43,14.95-2.1a.59.59,0,0,0-.29-1.1c-2.38,0-4.63,1.06-6.93,1.57-2.54.57-5.15.42-7.65,1a.35.35,0,0,0-.08.63Z" transform="translate(-393.52 -85.35)" fill="#1e1e1e"/><path d="M429.12,117.53c3.12,4.31,9.62,4.84,14.47,5.56,5.22.77,11,1.25,15.3-2.39.67-.57-.19-1.4-.86-1.12-8.35,3.54-20.59,2-28.47-2.49-.26-.15-.64.17-.44.44Z" transform="translate(-393.52 -85.35)" fill="#1e1e1e"/><path d="M418.05,111.43a14.86,14.86,0,0,1-6.37,8.32c-2.95,1.8-6.38,2.39-9.38,4a.47.47,0,0,0,.24.87c6.55-.41,16.6-5.4,16.44-13.1a.48.48,0,0,0-.93-.13Z" transform="translate(-393.52 -85.35)" fill="#1e1e1e"/><path d="M402.82,155.54c-1.42,2-1,4.72-1,7.1-.08,3.13-.22,6.3,0,9.43a1.2,1.2,0,0,0,2.39,0c.15-3.14,0-6.29.05-9.43,0-2.38.58-5-.71-7.1a.38.38,0,0,0-.65,0Z" transform="translate(-393.52 -85.35)" fill="#1e1e1e"/><path d="M463,155.34c-1.44,2.53-1.18,5.55-1.22,8.4,0,3.72.09,7.44.3,11.16.08,1.55,2.51,1.56,2.42,0-.19-3.47-.27-6.94-.22-10.41,0-3,.66-6.24-.47-9a.45.45,0,0,0-.81-.11Z" transform="translate(-393.52 -85.35)" fill="#1e1e1e"/><path d="M463.15,178.06A2.11,2.11,0,1,0,461,176a2.15,2.15,0,0,0,2.11,2.11Z" transform="translate(-393.52 -85.35)" fill="#1e1e1e"/><path d="M402.6,176.2a2.16,2.16,0,0,0,2.14-2.13,2.14,2.14,0,1,0-2.14,2.13Z" transform="translate(-393.52 -85.35)" fill="#1e1e1e"/><path d="M412.89,190.2c-1.6,1.93,0,4.4,2.15,4.93s5.36.09,6.5-2.09c.52-1-.86-2.24-1.66-1.28a4,4,0,0,1-3.38,1.52,3.09,3.09,0,0,1-1.79-.4c-.71-.52-.59-1.38-.52-2.14a.77.77,0,0,0-1.3-.54Z" transform="translate(-393.52 -85.35)" fill="#1e1e1e"/><path d="M420.46,192.05a5.37,5.37,0,0,0,1.46,7c2.4,1.59,5,0,6.35-2.12a1,1,0,0,0-1.54-1.2c-1.17,1.18-2.51,3-4.17,1.3-1.26-1.26-1-3.26-1.44-4.87a.37.37,0,0,0-.66-.09Z" transform="translate(-393.52 -85.35)" fill="#1e1e1e"/><path d="M428,195.08c-1.07.71-.75,2.24-.25,3.26a5.56,5.56,0,0,0,3.19,2.77,5.46,5.46,0,0,0,6.82-4.09,1.14,1.14,0,0,0-2.19-.6c-.64,1.86-2.61,3.25-4.55,2.14-1.46-.84-1.27-2.58-2.47-3.48a.57.57,0,0,0-.55,0Z" transform="translate(-393.52 -85.35)" fill="#1e1e1e"/><path d="M436.48,196.27c.14,2.46,2.65,5.4,5.34,4.86,2.43-.49,4.73-3.34,3.92-5.84-.36-1.11-2.23-1-2.14.29.1,1.47-1.08,3.76-2.89,3.2-1.33-.41-2.29-2.17-3.41-3a.55.55,0,0,0-.82.47Z" transform="translate(-393.52 -85.35)" fill="#1e1e1e"/><path d="M444.72,194.83c-.46,3.15,3.25,4.26,5.71,3.34s4.45-4.24,3-6.77a1,1,0,0,0-1.89.51c0,1.48.14,2.83-1.29,3.76-1.17.77-3.36.78-3.84-.84-.23-.75-1.55-.9-1.68,0Z" transform="translate(-393.52 -85.35)" fill="#1e1e1e"/><path d="M451.72,192.15a5.11,5.11,0,0,0,3.47,2.6c1.29.25,3.43.25,3.45-1.53a1,1,0,0,0-1.76-.73c-.78.82-3.24-.5-4-1.25a.75.75,0,0,0-1.18.91Z" transform="translate(-393.52 -85.35)" fill="#1e1e1e"/><path d="M431.77,200a20.59,20.59,0,0,0-.61,6c-.05,1.55-.44,3.62.14,5.1a1.06,1.06,0,0,0,1.28.72l.19-.07a.79.79,0,0,0,.58-.75c-.21-3.53.55-7.5-.21-11-.16-.73-1.16-.62-1.37,0Z" transform="translate(-393.52 -85.35)" fill="#1e1e1e"/><path d="M438.13,198.91c-.77,2.05-.52,4.33-.5,6.49a44.46,44.46,0,0,0,.26,6.63c.2,1.33,2,.83,2.17-.3a45.68,45.68,0,0,0,0-6.82c-.07-2,.06-4.11-.73-6a.61.61,0,0,0-1.16,0Z" transform="translate(-393.52 -85.35)" fill="#1e1e1e"/><path d="M435.41,205.4a1.84,1.84,0,0,0,0-3.67,1.84,1.84,0,0,0,0,3.67Z" transform="translate(-393.52 -85.35)" fill="#1e1e1e"/><path d="M435.89,207.44l-.15-.05a1.22,1.22,0,1,0,0,2.35l.15-.05a1.18,1.18,0,0,0,0-2.25Z" transform="translate(-393.52 -85.35)" fill="#1e1e1e"/></svg>