<svg id="Layer_1" data-name="Layer 1" xmlns="http://www.w3.org/2000/svg" viewBox="0 0 4640.84 4587.37"><path d="M4136.34,4763.06c126.79-41.07,249.6-92.79,374.26-139.55,83.71-31.4,164.35-70.92,250.88-94.8,5.62-1.56,11.15-4.67,16.77-4.77,12.13-.23,26.94-6.14,34.94,7.37,9.23,15.6-4.1,24.88-13.37,34.66-34.5,36.43-76.75,62.58-118.72,89-20.15,12.66-37.69,23.79-35.85,53.41,1.64,26.16-27.85,34.26-47.81,57.53,36.43-10.28,65.62-18.58,94.85-26.74,9.35-2.61,19.09-4.07,28.15-7.43,13.28-4.93,27.31-5.16,34.14,7,8.66,15.46-2.93,28.32-14.32,37.58-37.88,30.82-79.88,55.48-123.24,77.6-142.42,72.66-289.88,133.39-441.32,184.52Q4097,5065,4018,5090.86c-11.51,3.77-22.4,4.44-12.82,22.43,7.83,14.7-3.84,27.61-13.95,38.56-28.67,31-66.49,47.39-104.39,62.66-130.52,52.58-267.52,78-405.85,100.77-242.64,39.87-486.84,36.87-731,32.44-84-1.52-168.27-11-252.22-20.59-86.69-9.92-173.12-20.51-258.83-36.84.64-14.06,12.76-13.36,21.29-15,97.75-18.36,194.75-39.82,290-68.68,7.47-2.26,15.25-3.77,22.59,1,2.45,18.6,14.49,21.83,31.15,22.07,99.55,1.45,198.78-4.14,297.81-13,125.33-11.25,250.23-26.52,373.63-51.37,70.67-14.24,140.94-31.14,208.1-58.45,7.23-2.93,14.66-5.49,21.33-9.58,5.76-3.53,12.62-7,10.9-15.42s-9.18-9.68-15.94-10.2c-24.36-1.89-48.69-2-72.94,2-19.35,3.18-39,5-58.12-.21-22.22-6-25.56-18.93-10.27-36.24q37.26-42.19,92.88-51.14c42-9.89,78.46-32.69,117.41-49.71,19.41-8.48,36.75-21.92,58.61-24.61,42.36-7,83.49-19.38,124.64-30.95,118.42-33.3,234.61-73.69,351.18-112.88C4113.7,4764.37,4124,4755.47,4136.34,4763.06Z" transform="translate(-807.92 -762.84)" fill="#fdc6cd"/><path d="M4611.2,3081.94c-.82,12.54,1.1,25.17-3.71,37.56-3.08,7.93-6.08,18.48,2.46,24.13,9.7,6.4,15.88-3.52,21.83-9.38,25.7-25.31,50.55-51.5,76.73-76.31,127.66-121,268.12-224,426.12-302.22,3.5-1.73,6.86-4,10.56-5,18.08-4.68,39.36-19.91,53.61-.14,13.31,18.48-2.36,37.64-14,52.71-62.71,81.39-127.37,161.29-189.33,243.24-80.3,106.19-158.08,214.21-215.08,335.44-3.73,7.92-7.8,15.72-10.8,23.91-12.06,32.86-11.59,31.63,22.81,40.56,32.75,8.5,61.78,24,76.68,57.28,32.26,29.83,20.68,67,12.92,100.66-10.77,46.71-36.54,87.78-61.74,128.29-85.13,136.82-190.95,254.79-321.07,350.44-87.21,64.53-174.37,129.13-256,200.77-7.22,6.34-14,13.62-23.89,16.11-24.62-.23-49.09-2-73.29-6.64-17.42-16.14-3.56-27.83,6.35-39.14,55.16-63,114.27-122.45,165.21-189.13,27.82-36.43,55.75-72.83,75.75-114.27,10.29-21.32,18.35-42.37-6.77-62.59-17.72-14.26-.26-28.81,8.84-39.72,40-47.93,77-98.09,112.42-149.43,19.35-28,38.68-56.26,52.66-87.55,6-13.35,13.85-28.89,1.94-41.07-12.62-12.92-29.31-6.08-43.84-.2-21,8.48-38.72,22.29-56.92,35.43-9.83,7.09-18.07,18.62-32.84,16-8-15.75,2.6-28.49,8.11-41.11,39.75-91.12,83.8-180,139.06-263,5.31-8,11.46-15.6,13.87-26.41-39,28-145.85,229.75-179,336.78-4.51,23-17.77,40.27-36.29,53.65-16.49,11.9-29.63,27.51-45.4,40.08-12.56,10-24.74,13.51-28.55-8.5,1.83-25.38,14.69-48,16-74,2.79-55.44-11.8-106.41-35.11-155.33-21.4-44.9-42.76-89.9-68.94-132.36-5.1-8.28-10.45-16.55-11.9-26.52-1.65-12.46,2.92-22.81,10.93-32,73-83.86,151.19-161.79,248.15-218.43a287.93,287.93,0,0,1,80.89-32.3c19.9-4.6,38.94-2,55.94,9.23C4607,3058.3,4617.83,3066.3,4611.2,3081.94Z" transform="translate(-807.92 -762.84)" fill="#d3e7f9"/><path d="M4611.2,3081.94c-13.34-28.7-36.72-39.85-68.1-33-57.36,12.46-104.73,44.51-150.13,79-64.14,48.74-120.84,105.65-173.46,166.67-7.22,8.37-14.2,15.91-12.83,27.82-9.94,2-14-5.86-17.68-12.05-37.76-63.14-82.69-121.43-123.1-182.76-25.62-38-56.31-72.31-80.62-111.23a144.4,144.4,0,0,1-15-31.66,10.68,10.68,0,0,1,1.59-7.91c42.86-74.16,99.27-138.51,151.73-205.48,99-126.31,204.62-247.09,318.45-360.36,23.92-23.81,49-47,80.88-61.34,56.88-25.55,108.46-.46,122.7,60.48,1.65,7-2.62,17.37,7.66,20,11.22,2.87,14-7.76,19-14.63,50.62-69.06,103.92-135.85,165.27-195.92,10.7-10.48,22.28-18.94,36.07-24.27,33.34-12.89,64,7.65,65.46,43.36.8,20.35-7.72,37.79-16.15,55.44-73.92,154.87-161.6,302.5-239.75,455.16-12.4,24.23-20.71,41.67,12.58,56.88,23.18,10.59,28.44,35.15,23.2,60.09-10.84,51.53-42.63,93.46-65.06,139.65C4641.25,3032,4625.54,3056.62,4611.2,3081.94Z" transform="translate(-807.92 -762.84)" fill="#f6e6ee"/><path d="M2572.27,5209.09a2781.23,2781.23,0,0,1-329,77.54c-1.6.28-2.89,2.4-4.31,3.66-57.31.92-113,15-169.76,20.69-45.19,4.55-90.21,11.63-135.5,14-22.39,1.16-44.09,6.64-66.46,6.65-42.27,0-54.65-8.06-68.58-48.3-4.11-11.9-12.78-10.17-21.12-10.21-39.93-.21-79.87-.06-119.8-.12-10.66,0-21-.39-31.58-3.91-19-6.35-38.67-12.92-42.89-34.69-4.77-24.61,13.79-38.92,30.35-52.7,9.25-7.7,25.08-7.75,27.16-23.7,11.35-7.92,24.35-6.23,36.65-4.92,105.27,11.22,210.92,11.62,316.59,12,18.38.06,36.86,1.58,55-2.57,54.35,5.87,108.36-1.15,162.43-4.68,22.32-.28,43.51,7.1,65.37,10.18,36.59,5.15,38.8,3.92,43.47-33.18.6-4.77,1.15-9.55,1.36-14.37-3.07-28.75-2.24-56.91,12.35-83,21.95-15.73,48.93-18.93,73.08-29.23,110.11-38.48,217.12-85.14,327.22-123.66,68.83-24.09,137.7-47.91,208.64-65.21,14.19-3.46,28.42-7.07,43-1.84,21.07,14.15,15,31.42,4.41,48-10,15.58-24.69,27.15-38.44,41.14,142.73-61.19,282.16-126.8,422.62-190.18,51.45-16.31,100.76-38.2,150.92-57.84,20.66-9.19,42.48-14.19,64.72-17.54,10.21-1.54,20-.13,25.62,9.65,6,10.49-.28,18.86-7,26.13-16.49,18-33.62,35.2-53.3,49.86q-201,149.79-425.36,261.49c-42.68,21.37-83.71,46-128.06,64.06-129.74,58.26-261.4,111.58-396.85,155.2C2594.59,5210.87,2583.75,5218.24,2572.27,5209.09Z" transform="translate(-807.92 -762.84)" fill="#d0e3f7"/><path d="M1906.36,3549.69l97.62,52.73c14.38-7,23.53,4.82,34.17,10.07,23.36,11.54,47.2,22.25,69,36.7q61.6,36,126.17,66.46c14.65,8.34,30.21,15,44.47,24.12,29.85,18.14,63.66,28,94,45.12,11.71,6.6,24.85,11.2,31.61,24.27,28.31,56.53,58,112.76,63.12,177.28,2.62,33.2,11.47,67.79-11.35,98.3-34.7-6.59-63.1-27.28-93.41-43.25-38.55-20.3-77.3-40.34-114.82-62.59,67,38.68,135.87,73.73,203.86,110.54-4.05,38.79-25.67,67.18-54.14,91.55-13.08,4.5-25-1-36.81-5q-280.51-95.23-511.17-281.19c-9-7.3-23.49-12.16-20.69-28.62,17.07-7.93,31.63,3.76,47.27,6.48,16.3,2.84,29,1.38,33.62-17.2,3.82-15.4,15.85-26.27,22-40.38,13.34-10.34,23.59-.31,34,5.7,40,23.12,81.44,43.9,119.78,70-11.22-7.22-23.83-12.28-32.73-22.88-28.52-27.6-47.75-59.12-57.89-99-16.36-64.29-46.1-123.68-82.56-179.38-5.33-8.14-11.82-15.82-14.36-25.31C1895.2,3557.06,1892.71,3547.77,1906.36,3549.69Z" transform="translate(-807.92 -762.84)" fill="#262d64"/><path d="M3110.26,2308.37c4.51,19.79-6.56,41.74,8.28,60.11,11.76,10.14,13.82,25.11,18.62,38.53,11.48,32.12,33.44,58.31,48.87,88.18,1.57,15.72-8.89,24.51-19.48,32.87-23.28,18.38-46.05,37.4-69.57,55.49-56.63,46.18-112.46,93.66-180.38,123.17-15.44,6.7-31.66,18.25-48.53,2.06-13.48-28.43-40-50.48-41.63-84.75,6.72-13.21,18.39-7.76,28.48-7.18,72.74,4.14,110.93-23.25,130.48-93.8,10.87-39.25,17-79.63,27.73-115.49-52.66,75.75-116.4,141.83-213.33,166-13.61,3.35-27.17,6.9-41.32,6.88-32.58,1.22-64.93.92-95.33-13.4-6.08-2.75-11.54-6.23-14.49-12.58-24.71-38.74-54.73-73.77-74.31-116.22-22.44-48.66-36.64-99.35-47.5-151.35-1.65-7.92-2.37-15.62,7.24-19.39,7.35-7.48,16.39-6.35,25.45-5.09,23.46,5.57,47,10.81,71.4,9.5,9.64-.52,20.18.17,24.43-11.17,3.93-10.53-1.18-18.77-8.89-25.54-16.44-14.46-31.19-28.86-21.06-54.31,4.56-11.45-11.12-11.1-14.75-18.47-7-13.79-5.86-28.38-3.48-42.76,2.45-14.81,11.46-24.48,26.53-27.21,13.85-2.5,24.64,2.91,32.51,14.4,8.34,12.17,12.88,26,17.68,39.77,8.76,25.06,20.88,47.91,41,66,32,28.91,80.46,31.72,115.34,6.31,9.24-6.73,16.36-17,29.24-17.73,8.32,2.15,11.5,9.7,16.46,15.52,17.15,20.14,40.11,25.38,59.12,13.78,20.22-12.35,28.35-37.58,19.72-61.25-1-2.73-2.61-5.24-3.52-7.95-4.42-13.2-26.54-20.17-18.08-36.31,9.43-18,31.75-15.72,49-20.85a33.83,33.83,0,0,1,22.8,1.27c13.72,18.17,29.47-3.68,43.87,2.15,16.53,10.12,19.47,25.85,17.55,43.31-1.17,10.66-2.65,21.28-3.86,31.94-2.95,26,2.69,48.18,24.88,64.2C3105.29,2266.69,3098.56,2289.46,3110.26,2308.37Z" transform="translate(-807.92 -762.84)" fill="#febead"/><path d="M1042.62,3474.45c10.45-81,46.83-142.07,130.1-165.28,42.47-11.83,85.76-16.88,129.44-5.23,2.15,4.45-14.55,2.64-3.39,9.84,7.39,4.76,13,10.62,15.79,19.1,36.46,81.51,43.53,169.37,52.54,256.13,12.25,117.91,15.74,237,41.29,353,13.95,63.34.43,114.68-43,160.33-15.37,5.55-24.24-5.15-31.89-14.7-115.65-144.34-223.63-293.3-278-473.57-10.43-34.55-18.62-69.72-19.69-106C1035.49,3496.47,1034.48,3484.45,1042.62,3474.45Z" transform="translate(-807.92 -762.84)" fill="#4e548a"/><path d="M1042.62,3474.45c.79,124,48.15,233.31,108.12,338.24,59.1,103.42,127.38,200.48,206.87,289.42,29.3,20.08,47.41,50.67,71,76.08,37.57,40.43,71.82,83.9,111.12,122.81,32.81,44,68.81,85.68,99.47,131.36,41.35,62.68,80,127.24,127.92,185.4-5.16,32.65-25.11,52.22-55.43,62.64-26.26-1.07-43.66-21.7-66.61-30.12-51.11-34.05-105.21-63.21-157.54-95.27-20.82-12.76-44.66-23.83-39-54.9,4.87-26.58,25.82-40,64.5-43a17.84,17.84,0,0,0,10.29-3.6c-7.52-17.36-19.9-32.12-34.13-43.88-57.06-47.14-108.56-100.74-168.6-144.38-7.55-5.48-17-10.84-13.71-23.16-13.09-41.19-46.16-68.88-70.78-101.92-121-162.38-217.91-337.4-286.9-528-21.85-60.33-43.33-120.63-54.81-183.88-4.77-26.29-14.43-57,16.11-73.35,30-16.11,46.36,11.31,62.34,29.44,18.5,21,35.08,43.94,48.17,69.05C1025.91,3462.74,1028.87,3474.22,1042.62,3474.45Z" transform="translate(-807.92 -762.84)" fill="#f9ebf3"/><path d="M2402.34,1850.43c31.9,2.33,59.95-4.94,81.62-31.65-64.23-18.44-98.42-45.38-111.44-88.78,29.76,7.84,57.76,26.2,90.52,8.48-24.46-18.36-44.07-40.25-56.37-67.62-12.09-26.89-16-55.09-11.35-93.45,10,20.86,17.46,33.58,28.72,43.4,43.33,37.76,105.23,18.5,118.91-37.38,3.23-13.18,4.35-26.86,7.21-40.15,17.45-81.06,99.33-112.32,166.75-64,20.11,14.41,34.34,34.17,50,52.67,37,35.67,79.84,65.09,115.27,102.13,37,38.7,53.71,85.37,35,139.47-3.75,15.85-20,22.74-26.31,36.75-2.11,5.36-3.95,10.9-9.58,13.81-18.8-3.51-36,2.52-53.45,8.26-31.91,10.49-63.34,23.74-98.15,20.69-48.58-12.72-92.25-2-132.64,26.71-18.21,12.92-36.43,26.16-58,33.33-14.81,4.93-16.54,16.6-17.75,30.08-1,10.8,6.07,26.17-12.41,30.17-.46-2.84-.31-5.95-1.46-8.48-7.39-16.3,7.09-39.12-8.09-49.76-12.92-9-32.94-7.94-49.81-11.33-27.41-1.64-45.74-18.38-62.15-37.9-4.3-5.1-8.55-12-3-18.23C2390.83,1840.35,2396.23,1849.8,2402.34,1850.43Z" transform="translate(-807.92 -762.84)" fill="#1a2157"/><path d="M1906.36,3549.69c-8.88,4.92-5.56,10.16-1.27,16.61,14.51,21.78,26.27,45.49,40.26,67.23,30.07,46.74,47.3,98.22,60,150.66,8.47,34.87,35.75,54.06,51.53,82.14-28.21.65-46.51-20.77-69.59-31.52-24.62-11.48-47-27.17-64.76-36.11-9.12-6.47-9.45,0-7.87-3.56.35-.78,1.66-.94,2.62.43,4.71,6.75,17.48,6,16.63,17.83.37,23.7-19.38,39.36-24.89,61.21-1.86,7.42-16.18,11.44-28.24,7.29-17.18-5.92-35-9.93-52.58-14.76-28.84-4.77-45.31-28.27-63.66-46.3-38.51-37.84-74.5-78.45-106.6-122.16-8.21-11.18-15.73-22.56-7.28-37,14-7.69,23.24.4,32.73,8.22-21.36-18.21-47.71-28.3-72.79-40.61-40.34-46.05-75.17-96.56-115.49-142.65-17-21.34-36.36-40.74-52.5-62.68-19.54-26.57-30.71-55.66-18.55-89.2,142.19,41.69,274.47,106.66,406.05,173.18C1856,3521,1881,3535.72,1906.36,3549.69Z" transform="translate(-807.92 -762.84)" fill="#343a72"/><path d="M1307,4242.13c42.45,36.79,84.64,73.89,127.44,110.28,34.76,29.56,69.82,58.69,98.22,94.8,2.91,3.71,7.62,6.88,5.53,12.42-2.21,5.84-7.94,4.66-12.58,4.81-8.78.29-17.57.29-26.36.14-24.79-.42-37.8,16.11-44.35,35.84-7.35,22.15,10,32.91,26.7,42.73q76.68,45.14,152.9,91.06c4.78,2.88,8.37,7.75,12.51,11.7-16.77,11.53-34.61,21.38-51.19,33.26-20.16,14.46-28.56,31.13-15.11,54.85,5.17,9.12,10.82,19.24,1.46,29.54-83.93-40.15-159.61-92.94-227.59-155.81-47.89-44.3-84.51-96.42-82.89-166.75.71-30.62-23.08-47-43.71-61.92-75-54.36-145.12-114-208.44-181.62-23.36-24.93-43.34-52.38-57.75-83.57-6.74-14.58-12-30.08.21-43.66,12.8-14.23,28.91-8.6,43.18-2.05,87.49,40.18,171.34,86.79,250.07,142.42C1271.71,4222.25,1286.93,4236.2,1307,4242.13Z" transform="translate(-807.92 -762.84)" fill="#d3e6f8"/><path d="M1845.18,2887.23c15.68-22.5-2.09-42.68-4.44-63.92-4.72-42.61-26.44-70.12-67.28-86.37-38.72-15.41-75.43-36.05-112.47-55.44-42.76-22.38-78.57-53.33-89.86-101.74-7.29-31.23-5.5-63.16-35.36-86.24-14.1-10.91-5-29.52,6.08-41.62,21-22.84,41.4-46.65,70.55-60,17.24,2.65,31.6-7.55,47.52-10.89,38.57-8.07,46.8-5.19,68.46,27.57,1.59,2.41,4.78,3.05,7.82,3.21,19.33,2.12,43.06-4.81,50.71,22.37,5.48,19.5-9.4,38.71-38.14,51.14a28.06,28.06,0,0,1-8.43,1.76c-57.43,10.56-88.28,52.13-101.9,76.09,12.26-24,44.12-63,99.25-75.45,44.37,12.31,59.08,37.86,41.89,72.64-51.55-1.77-85.16,24.33-106,70.18,15.1-13.51,30.65-26.29,48.47-35.9,11.54-6.22,23.33-9.25,36.16-4.22,22.29,9.06,44.76,9,68.6,5.95,31.71-4.09,63.86-5.58,95.42-10.79,57.61-9.52,74.6-46.6,45.56-96.63-8.29-14.29-18.81-27.25-25.92-42.19-4.83-10.14-13.31-19.81-7.3-32.52,6.3-10.28,8.57-24.11,25.59-23.82s23,11.87,29.52,24.18c10.46,19.76,21.62,39.16,31.94,59,8.67,16.67,12.61,33.29,7.2,53.05-11.75,42.94-23.61,86.2-30.25,130.11-8.53,56.33,16.76,104.43,46.34,150.17,23.75,33.83,23.16,44.79-5.83,72-44.06,41.32-97.55,65.79-154,84.69a35.41,35.41,0,0,1-20.1.72c-13.77-4.69-15-16.6-15.25-28.22C1849.37,2919.63,1846.62,2903.51,1845.18,2887.23Z" transform="translate(-807.92 -762.84)" fill="#febeab"/><path d="M4622.58,926.2c19.29,30.09,23.25,65.58,33.81,98.64,18.64,58.32,35.2,117.33,51.25,176.43,29.27,107.85-9.2,180-116.37,210.53-184,52.43-368.75,102.19-553.25,152.85-80.53,22.12-160.95,44.68-241.9,65.17-62.26,15.76-138.57-23.29-164.18-82.59-29-67.23-41-139.8-63.37-209.14-8.36-25.87-15-52.28-22.47-78.45,7.77-19.42,20.47-34.16,42.33-35.43,20.55-1.19,36.19-6.1,40.53-29.12.9-4.79,5.55-7.84,11.32-4.79,9.71,44.76,14.24,90.68,30.26,134-.64,15.84,6.87,29.2,13.39,42.9,6.89,31.42,16,62.25,25.13,93,24.66,82.83,75.38,112.16,160.18,91.13,95.42-23.66,189.42-52.53,283.64-80.53,109.58-26.43,216.55-62.38,326-89.46C4520.59,1371,4561.6,1358,4588,1319.9c19.58-27.9,24.75-58,17.55-91.53-15.52-72.42-39.85-142.36-58.51-213.87-2.91-11.13-8.74-22-3.6-34,18.38-13.63,38-25.41,49.73-46.86C4598.76,923.43,4609.79,916.72,4622.58,926.2Z" transform="translate(-807.92 -762.84)" fill="#f9a9b1"/><path d="M4493.9,4078.13c138.67-102.2,250.22-229,336.84-377.26,26.7-45.72,54.51-92.47,50.33-149.82-1.24-17-3.72-32.59-12-47.3,9.71.65,18.32-1,22.93-11a6.77,6.77,0,0,1,7.27-2.57c18.35,16.92,45.75,18.24,63.24,36.66,8.88,19.23,7.62,39.06,2.78,58.83-2.68,10.92-6,21.17,9.92,24-15.09,28-24.58,59.09-47.22,82.74-12.71-8.74-15.17,4.85-17.44,10.22-8.67,20.44-23.27,36.48-36.23,53.79-4.1,5.68-11,7.79-15.92,12.37-5.21,4.82-9.17,10.22-6.28,17.8,2.24,5.89,6.67,9.7,13,9.73,8.38,0,11.09-6.47,13.31-13.11,1.8-5.42,2.24-11.47,7.13-15.47,10.44-5.18,8.73-18.61,17.26-26.05,12.56,12.62,14.76,26.44,10.15,42.92-23.77,85.06-63.73,162.3-112.7,235.2-18.39,27.36-37.67,54.13-56.5,81.2-6.23,8.95-10.73,18.53-9.77,29.86-5.47,21.78-27.16,26-42,36.42-49.25,34.61-99.25,68.17-148.47,102.85-8.77,6.18-18.19,11.23-28.81,13.74-6.62,1.54-13.19,2.62-19.59,5.53-29.42,13.38-48.28,2.73-47.32-28.7a799.6,799.6,0,0,1,14.31-130.59C4466.3,4109.18,4483.05,4095.32,4493.9,4078.13Z" transform="translate(-807.92 -762.84)" fill="#faeff5"/><path d="M1424.1,3334.72c-2.29,49.9,21.42,87.92,55,121.76,8.56,8.64,20.69,15.2,21.23,29.74-6,22.16-3.88,44.08,2,65.88,5.7,24.35,36.3,25.1,44.61,47,2.76,16.24,3.27,32.9,13.27,47.35,6.35,9.17,7.6,20.53,4.85,31.06-8.32,31.93-1.51,62.22,9.87,91.56,10,25.64,15.18,52.34,21.77,78.77,1.42,5.7,4.26,12,2,17.21-20.9,48.75,9.71,83.72,32.62,120,27.65,43.79,62.1,82.69,95.92,121.62,51.59,59.39,61.59,128,52.33,202.31-17.27,11.87-19.7-7.41-24.49-14.08-25.72-35.84-47.34-74.37-68.84-112.92,51.66,93.83,108.63,183.78,188.67,256.73,2.13,1.95,2.92,5,3.44,7.9-11.67,26.64-39.87,38.51-55.24,61.86-36.76,24.61-51.24,62.23-40,104.45,1.27,4.74,2.34,9.31.48,14.08-11.48,8.2-14.11-4.16-20.12-8.67-54.67-52.73-88.16-120.45-129.34-182.74,5-64.17-3.85-127.71-9.89-191.27-2-20.73,1-40.55,1.93-60.81s1.69-40.73-4-60.76c-2.35-8.24-5.28-17.24,4.34-23.52,8.87-2.79,14.33,2.5,21.16,10.28-11.57-16.25-24-29.52-22.73-48.93,8.08-10.64,9.52-19.22-1.45-30.74-14.19-14.89-17.61-38.94-39.54-47.86-21.23-21.33-34.1-47.48-43.84-75.49-.33-15.63-2.75-30.67-8.38-45.53-22.74-60-43.12-120.64-55.58-183.94-5.9-30-9-59.77-6.47-89.75,6.52-76.06-33.22-128.76-85.64-175.61-28.87-24.88-51.2-55.83-77-83.6l-26.59-18.67c6.88-7.35,15.37-2.66,21.77-5.44C1343.81,3310.26,1383.83,3323,1424.1,3334.72Z" transform="translate(-807.92 -762.84)" fill="#31376e"/><path d="M3931.19,2045.67c-33.73-43.77-30.21-77.78,13.12-112.42,10.25-8.19,13.41-18.11,16.44-29.59,11-41.75,54.31-72.3,96.84-69,27.07,2.12,43.94,17.49,43.85,44.34-.06,18.73,4.67,27.35,24.61,24.66,45.07-6.06,65.81,26.78,74.23,62.53,2.46,10.46,0,23,17.28,19.09,20.6,11.53,35.37,6.08,50-12.4,15.36-19.35,36.62-32.29,62.11-35.54,37.29-4.76,63.57,18.88,66.42,56.36,2.15,28.16-12.2,52.26-18.07,81,30.18-6.11,36-30.32,47.18-49.83,5.54-9.67,9.14-28.23,25.65-9.32-2.72,68.26-61.87,132-127.78,136.54-14.83,1-25.89,6.07-35.1,17.55-8.52,10.63-17.94,20.63-30.18,27.38-46.54,18.26-93.61,30.08-143.13,11.64-18.54-10.26-19.55-26.6-16.75-45.23,5.37-35.81-3.81-66.41-30.91-92.38-28-26.85-58.64-35.55-95.85-24.39C3958.28,2050.57,3944.06,2061.11,3931.19,2045.67Z" transform="translate(-807.92 -762.84)" fill="#feb67c"/><path d="M2881.9,1823.81q.42-8.34.85-16.7c17.6-18.68,40.12-17,62.44-14.38,82.82,9.85,160.09,38,236.26,70.67,74.27,31.81,142.94,73.48,211.51,115.52,13.21,11,27.68,20.91,39.38,33.38,31.71,33.79,26,62.47-16.35,82.18-39.8,18.51-82.44,27.65-125.83,32.34-26,2.81-49.52,3.86-62.85,33.89-9.24,20.82-29.72,35.32-52.3,43.89-4.88-13.12,4.54-21.95,9.74-32,22.8-43.88,29.87-89.77,17.68-138.06-8.24-32.66-31.93-55.68-58.36-57.17-30.66-1.73-54.45,17.55-66.26,53.8-9,25.94-2.64,56.83-25.2,78.38-11.69-.85-23.44,38.89-35.06-.06a24.94,24.94,0,0,1-6.23-10.91c-4.74-21.65,4.11-49.34-26.49-59.49-21.7-10.94,5.38-16.63,2.59-25.6-8.49-30.55-30.12-51.63-51.91-72.43-23.51-22.42-42.89-47.58-53.45-78.62C2877.76,1849.84,2871.91,1836.73,2881.9,1823.81Z" transform="translate(-807.92 -762.84)" fill="#0c1245"/><path d="M1840.46,1770.15c-19.06-19.8-42.1-35.34-56.67-60-31.34-53-25-111.66,18.58-151.66,26-23.88,57.86-25.83,90.39-21.73,9.2,1.16,16.38,3.11,23.72-4.45,59.22-61,112.88-36.64,169.91,0,46.18,29.63,69.45,77.54,99.2,120.38,32.24,46.55,17.74,109.51-7.8,142.46-40.1,51.71-91.35,81-158.56,77.32-11.38-14.78,3.09-20.19,10.75-26.58,39.7-33,41-47.07,5.31-84.19-10.9-11.34-19.54-24.09-28-37.15q-19.66-30.35-52.84-15.1c-10.65,4.89-21.91,9.34-30.28,17.27C1900.29,1749.3,1868.46,1755.89,1840.46,1770.15Z" transform="translate(-807.92 -762.84)" fill="#f9c6d1"/><path d="M2102.88,2906c16.38,36.66,34.48,72.68,48.48,110.23,7.84,21,15.15,21.09,28.9,7.26,29.8,15.81,43.15,41.77,45.89,74.35-14.42,16.91-12.09,35.84-6.78,55.18,13.91,50.67,23.38,102.23,26.87,154.6,5.34,80-7.58,156.7-46.06,228.06-16.51,17.8-40.61,15.74-61.07,23.33-39.93,8.68-78.85,11.52-111.7-19.77-37-26.33-67.44-58.45-88.23-99.17-1.22-18.68,14.06-22.17,26.28-25.89,81-24.61,114-89.61,134.5-162.82,23.59-84.33,9.55-170.5,6-256-.84-20.17-12-34.5-29.58-44C2070.84,2927.87,2083.8,2915.14,2102.88,2906Z" transform="translate(-807.92 -762.84)" fill="#fe6a50"/><path d="M4517.39,4277.19q84.48-56.73,169-113.48c16-10.77,31.81-21.87,47.71-32.81,7.46-2.17,15-4.08,22.35-6.58,14-4.77,28.67-11,40.6,2.72,12.38,14.27,9.4,31.09,2.89,46.8-16.61,40.07-42.71,74-71.54,105.8-76.19,84.06-168.89,149.18-254.24,222.78-57.72,49.79-117.8,95.5-181.45,136.62-47.37,30.61-97.23,57.33-150.14,77.67-11.44-17.15,1-28.68,10.25-40.22,12.49-15.58,28.89-27.67,41.73-44.28-10.36-2.66-21.25,5.95-29.76-3.49.86-15.66,14.9-19.42,24.76-26.22,61.06-42.09,127.39-75.83,188.33-118.16,18.43-12.8,37.44-25,53.21-41.06,19.7-20,16.22-35.42-9.55-46.76-30-13.19-32.85-25.07-7.65-44.46C4447.59,4326.11,4477.32,4294.41,4517.39,4277.19Z" transform="translate(-807.92 -762.84)" fill="#d0e4f8"/><path d="M2331.43,5122.87c-11.34,59.58-11.38,59.83-71.48,50.45-15.32-2.39-30.32-6.84-45.46-10.35-33.92,1.4-64.12-13.68-95.75-22.09-118.4-31.48-238-57.15-358.61-78.7-11.61-2.07-23.19-2-34.87-1.51-94.62-17.28-190.63-21.84-286-31.75-17.13-1.78-35.15-1.86-49.71-13.67l1.08-29c.93-35.71,16.5-62,49.6-77,138.38,12.42,274.56,37.62,409.45,70.27,58.17,14.29,116.43,28.27,173.83,45.53,90.2,22.82,180,47.11,268.76,75C2307,5104.64,2322,5109,2331.43,5122.87Z" transform="translate(-807.92 -762.84)" fill="#e6457b"/><path d="M3931.19,2045.67c11.12,4.77,21-.31,30.58-4.58,75.35-33.72,163.53,42.72,143.21,128-3.49,14.63-1.47,24.13,8.57,33.48,10.75,30.66,3.39,56.4-27.39,81.21-17.18,13.86-30.19,28.28-37,50-5.45,17.32-15.46,33.84-35.64,39.44-12.13-8.76-21.8-.32-32.19,4.37-40.37,18.22-80.79,18.47-120.42-1.74-39.08-19.94-46.47-51.48-21.34-86.93.55-.79,1.66-1.56,1.63-2.31-1.24-32,5.65-58.67,41.89-67.92,4.43-1.13,4.63-7.73,2.93-12.89-19.44-59.08-4.9-108.58,41.81-149.26C3930.23,2054.36,3930.12,2049.34,3931.19,2045.67Z" transform="translate(-807.92 -762.84)" fill="#f7e9f0"/><path d="M2881.9,1823.81c.06,44.54,24.56,76.59,53.93,106.35,24.8,25.13,53.09,48,58.41,86.41-37.2,18.92-78.36,21.23-118.42,28.08-6.83,1.17-14.58.46-19.51-4.26-33.31-32-74.37-21.92-113.61-21.67a181.76,181.76,0,0,0-20.27,1.54c-7.37.9-11-15.78-19-4-6.54,9.61-.74,18.57,4.43,27,8.29,9.47,6.09,24.25,16.63,32.57,6.4,4.19,14.6,4.15,20.76,8.87,11.07,10,8.24,22.43,6.9,35-2.65,25,2.95,32.26,26.38,26.13,18.53-4.85,37.26,5.87,54.61-4.34A12.36,12.36,0,0,1,2844,2136c13,3.51,15.81,13.65,16.7,25.13-1.84,35.47-24.22,54.4-55.09,63.69-32.77,9.87-61.6-.19-84.8-25a130.66,130.66,0,0,1-32.31-61.39c-10.69-48.06-33.81-64.08-78.67-55.48-2.86.55-5.77-.53-8.54-1.46a19.88,19.88,0,0,1-5.09-7.41c-2.89-22.38-18.27-29.42-38.16-32.1-12.89-1.75-27.48,2.53-38-9.25q-2.89-26.19-5.8-52.39c18.91-12.8,41.42-8.26,62.06-11.73,62.79-10.57,104.61-48,136.88-99.38,5.2-8.27,9.59-16.9,17.79-22.7,44.56.27,84.78-17,125.09-32.54C2870.32,1808.53,2877.26,1809.84,2881.9,1823.81Z" transform="translate(-807.92 -762.84)" fill="#febcad"/><path d="M2015.33,1869c33.67-7.83,69.85-5.72,100.21-26.64,53-36.54,101.39-87.23,71.15-178.1-1.19-3.58-.77-7.71-1.1-11.59,16.17-2.07,25.24,8.48,33,19.78,10.92,16,20.56,32.79,31,49,10.11,15.67,21.16,28.82,42,32.17,28.36,4.55,48,22.39,63.19,46.88,22.09,35.65,22.91,35.14,55.6,24.13,4.83,11-19,13.28-8.11,25.77-5.41-.85-13.7-4.27-15.7-2-6.41,7.14,2.07,12.07,6.11,16.55,15.74,17.43,37.29,26.67,56.75,38.85-30,102-179.45,127.06-249.91,40.58-15.79-19.37-31.12-21.58-55.34-14.51-49.23,14.36-91.24-8.92-129.8-36.69-11-7.93-21-13.29-34.29-12.34C1987.32,1863.3,2000.5,1863.71,2015.33,1869Z" transform="translate(-807.92 -762.84)" fill="#f7e9f0"/><path d="M2226.76,3093.61c-17.34-22.16-25.38-50.49-46.5-70.14C2287.11,2911,2410,2820.6,2550.35,2754.2c4.81,9.3,0,17.16-4.5,24.46-42.37,68.47-57,145.72-72.08,223.06-6.87,35.27-8.13,71.17-14.66,106.39-1,1.73-2.71,4.15-3.9,3.74-40.16-13.9-72.63,4.34-105,24.31a95.42,95.42,0,0,1-46.51,14.44c-24.58-6.51-43.77-23-65-35.63C2231.18,3110.46,2225.92,3103.43,2226.76,3093.61Z" transform="translate(-807.92 -762.84)" fill="#fe8d58"/><path d="M1617.44,2384.86c-23-26.73-35.34-59.82-53-89.74-24.13-40.86-46.87-82.55-70.68-123.61-8-13.83-14.15-27.62-10.44-44,7.74-5.6,14.31-13,24.78-14.07,67.92-7.14,134.81-23.44,203.59-22.73,24.57,8.72,43.38,23.67,52.5,49,3.38,16.14,9.46,30.87,22.54,41.84,7.62,7.66,15.5,15.9,18.22,26.13,2.85,10.76,5.23,18.18,18.21,12.94,11.67,14.29,20,30.54,27.55,47.22-11.66,11.85-6.55,21.22,2.25,32.78,15.47,20.31,34.65,39.38,34.08,68a15.45,15.45,0,0,1-8.07,1.93c-32-22.24-62.78-23.12-95.85.22-16,11.33-35.86,18.42-55.93,22.37-21.77-20.82-46.94-21.19-74-13.14C1641.64,2383.35,1630.36,2390.86,1617.44,2384.86Z" transform="translate(-807.92 -762.84)" fill="#282f67"/><path d="M2455.33,3110.77c0-81.77,18.32-160.39,40.34-238.51,11.95-42.44,32.47-80.55,54.68-118.06,22.08-19,48.39-30.46,74.59-42.14,31.68,11.05,50.89,37.47,73.58,59.66.14,6.31-2.47,11.72-5.44,17-90.66,150-140.71,313.87-166.56,486.1-2.25,15-1.56,31.47-13.8,43.56-12.48,2.75-17.7-6-21.79-14.82-26.4-57-40-117.09-41.43-179.88C2449.38,3118.76,2451.89,3114.42,2455.33,3110.77Z" transform="translate(-807.92 -762.84)" fill="#1d255d"/><path d="M3539.52,2355.29c15.41,3.88,31.23,6.59,46.14,11.9,31.35,11.17,58,30,69.25,62.19,15.34,43.93,41.76,80.79,67.73,118.26,7.19,10.37,14.6,20.66,20.81,31.62,24.15,42.64,20,69-17.3,115.62-4.11,8.42-11.24,13-20,15.52a26.51,26.51,0,0,1-9-.31c-41.69-9.15-84.27-13.92-125.46-25.6-23.21-16.43-39.66-39.95-61.09-58.4-21.23-18.28-43.28-23.44-70.27-14.43-71.31,23.81-139.75,54.86-209.85,81.69-10.92,4.18-21.49,9.45-33.08,11.59-5.9,1.1-12.82.93-15.42-5.11-2.67-6.23,2.44-11,7.32-14.41,8-5.57,16.74-10,25.34-14.59,30.16-16,60.94-30.78,91.41-46.14,81-40.13,160.27-83.75,241.35-123.82,39.73-19.63,43.42-37.78,18.33-73.51a231.92,231.92,0,0,1-33.18-70.41c-.14-.49,1.09-1.51,1.84-2.08C3535.85,2353.81,3537.59,2354,3539.52,2355.29Z" transform="translate(-807.92 -762.84)" fill="#8e2e6c"/><path d="M1436.07,4915.19c-26,16.78-32.25,46.15-45.49,71.07-87.28-58.43-173.13-118.41-234.61-206.3-10.72-15.32-18.54-31.61-10.19-48.82,9.21-19,28.56-20.46,48-20.75,106.28-1.61,206.74,26.89,306.7,58.21,2.55,29,2.25,58.43,15.07,85.59-.32,3.84-.72,8.57-4.26,10.08C1482.87,4876.39,1462.09,4899.65,1436.07,4915.19Z" transform="translate(-807.92 -762.84)" fill="#d1e5f8"/><path d="M4622.58,926.2c-16.37-1.6-25.16,8.07-30.93,21.45-9.07,21-25,31.43-47.65,31.91-13.2-3.92-18.55-17.14-29-24.36-36.82-40.65-82.52-37.44-129.5-25.7-87.59,21.91-173.48,49.92-260.61,73.56-87.51,20.37-173,48-259.55,71.77-49.82,13.71-99,29.88-149.71,40.29-8.7.17-17.19-2.36-25.92-1.92-13,.65-26.19.16-31-14.78-4.61-14.21,3.13-23.9,14.94-30.93,172-49.14,343.84-98.61,515.94-147.3,93.54-26.46,185.95-57.27,281.22-77.16C4530,830.67,4597.88,869.21,4622.58,926.2Z" transform="translate(-807.92 -762.84)" fill="#fdae8d"/><path d="M2075.34,2947.43c34.59.18,38.74,27.5,39.25,50.79,1.8,81.94,14.22,163.7-3.93,246-10.68,48.48-34.25,87.31-62.82,125.74-20.19,27.15-44.27,45-77.6,50.91-12.4,2.21-24.72,6.28-31.06,19.15-32.49-44.65-54.49-94.25-69.59-147.13,49.09-20.69,88.61-54.74,128-89.57,22.85-20.24,30.83-39.93,22-71.6-11.1-39.83-5.59-83.21-19.31-123.29C2017.53,2978.62,2047.29,2964.08,2075.34,2947.43Z" transform="translate(-807.92 -762.84)" fill="#fe8356"/><path d="M4013.5,2373.15c15.82-20.44,35.76-38.62,35.76-67.55,0-6.32,4.25-10.62,10-13.1,39.51-17.07,55-48.65,54.3-90,49.79,15.95,97.37,1.7,145.09-10.59,8.54.1,14.17,5.73,20.08,10.7,28.43,23.91,61.17,37.07,98.19,39.87,8.56.65,17.79.09,23.6,8.57-21.8,3.3-33.91,15.79-42.93,36.33-26.07,59.36-74.94,97.93-127.55,132.36-64.55,38.07-179.08,13.39-216.5-46.65Z" transform="translate(-807.92 -762.84)" fill="#f7c9d5"/><path d="M2912,1775.6c19.28-77.66-17.15-130.34-76.53-173.77-26.49-19.38-53.89-38.64-68.59-69.9,59.18-12.07,118.74-12,178.55-6.21,4.49.44,9.21-1.42,13.82-2.21,39.6-2.6,76.35,5.21,108.57,29.64q-1.31,4.42-2.59,8.85c13.29,18.09,14.78,39.68,16.91,60.69,6.27,61.79,4.68,123.36-7.61,184.43-5.89,9.52-15.53,7.61-23.48,5.8-42.42-9.67-84.84-19.34-127.14-29.48A21.25,21.25,0,0,1,2912,1775.6Z" transform="translate(-807.92 -762.84)" fill="#c43874"/><path d="M3539.52,2355.29c9.19,27.46,21.45,53.23,38.28,77.06,20.49,29,15.21,51.64-15.59,69.47-16,9.24-33.06,16.53-49.5,25q-101.19,51.95-202.27,104.06c-8.52-13.69,3.5-21.77,9.28-30.8,9.82-15.32,11.82-30.38,4.33-47a262.78,262.78,0,0,1-13.76-38.5c-8.38-30.53-23.15-38.18-54.37-30.13-16.33,4.21-31.32,18.08-50,7.9-4.18-18.86,13.17-21.68,23-28.21,63.86-42.49,131.32-78,204.52-102,10-3.28,20.67-5.46,29.15-12.47C3488.49,2348,3514.42,2346,3539.52,2355.29Z" transform="translate(-807.92 -762.84)" fill="#a53171"/><path d="M1887,2367.1c-14.57-23.81-25.5-49.64-45.79-70.17-11.22-11.35-19.84-28,9.49-29.11q41.92,73.2,83.87,146.38c12.21,30.72,32.78,56.79,47.83,85.89,17.4,33.63,7.53,72.95-28.08,83.95-62,19.14-126.48,27.14-191.74,16.53-3.64-.6-6.94-3.25-10.4-5-7.81-21.61,10.14-26.82,22.6-35.52,13.41-32.71,6-46.23-38.5-70.06q-7.29-2.79,0-5.43c11.2-7.23,22.71-14,33.51-21.82,10.26-7.4,14.1-17.92,10.68-30.38-3.74-13.65-14.89-12.54-25.54-12.42-8.63.1-17.26-.08-25.89-.14-5.08-9-7.79-18.08-1.27-27.6,26.15-22.28,59.42-31.68,89.48-46.08,20.52-9.84,45.31-.58,60.51,21.07,9.28,4.68,10.85,14.65,15.45,22.18C1892.74,2381.78,1882.82,2376.39,1887,2367.1Z" transform="translate(-807.92 -762.84)" fill="#171e58"/><path d="M1389.5,5015.25q136.39,13.89,272.8,27.76c22,2.23,44.39,2.54,64.7,13.12,25.73,42.2,69.13,53.71,112.73,64.85,56.78,14.51,115,21.64,172.27,33.65,13,2.73,27.61,2.16,37.45,13.85-4.61,4.63-10.58,4.23-16.36,4.3-124.26,1.46-248.48,1.71-372.27-11.61-6.73-.73-13.38-2.12-20.06-3.2-62.63-12.16-126.54-18.7-186.7-41.86C1406.06,5097.62,1386.38,5066.66,1389.5,5015.25Z" transform="translate(-807.92 -762.84)" fill="#d13e78"/><path d="M4400.5,2251.09c-55.86.85-104.91-14.62-141.86-59.14,21-27.93,42.69-45.91,83.45-50.2,52.59-5.54,80.16-52.74,98.7-100.66,3.11-8,4.18-16.84,6.2-25.29,17-15.57,38.22-21.39,60.15-24.66,32.78-4.89,58.52,5.54,73.84,36.5C4587.29,2144.54,4514.46,2234.71,4400.5,2251.09Z" transform="translate(-807.92 -762.84)" fill="#fe7a54"/><path d="M2694.88,2771.37c-27.78-14.5-45.83-40.48-70-59.3-30.25-65-22-119.88,23.72-157.65l12.76,4.89c-20.93,83,42.38,159.47,130.89,157.48,17.38-.39,34.87,1.62,52-2.41,9.3-1.64,18-5.63,27.08-8,15.09,11.07,27.8,0,40.34-5.33,64.89-27.67,118.48-72.3,172.41-116.35,2.93-2.4,6.4-4.14,9.63-6.19,8.67,17.12-4.2,29.44-10.46,42.65-8.67,18.29-11.61,35-4.6,55.47,16.09,47-1.56,76.6-49.2,89.15-10.66,2.81-24-.3-30.6,12.67-34.42,17.8-72.82,17.69-109.69,24.3-9.43,1.7-19.39,0-28.78,3.15a43,43,0,0,1-9.79,1c-40.88-4.81-82.62-3-122.49-15.7C2715.53,2787.22,2701.51,2785.5,2694.88,2771.37Z" transform="translate(-807.92 -762.84)" fill="#c93773"/><path d="M2004,3005.3c12.56,29.89,19.8,60.7,17.81,93.45-.64,10.53-1.82,21.51,3.65,31.48,16.38,29.82,9,54.56-17.51,73.58-37.43,26.83-63.76,68.17-110.76,82.91-9.28,2.91-17.89,6.26-27.62,6.2-32.81-82.89-52.47-169-63.3-257.33,4.58-4.73,10.5-4.66,16.3-4.1,53.37,5.18,104.51-3.29,153.78-24.3C1985.06,3003.48,1994.34,2998.75,2004,3005.3Z" transform="translate(-807.92 -762.84)" fill="#fe975c"/><path d="M4581,2027.64c-26.56-24.73-55.29-39.29-92.95-24.83-13.25,5.09-25.47,14.83-41,13-13-9.34-10.66,4-13.47,9.25-10.48,19.55-16.57,42.25-37.71,54.16-8.25,4.65-18.06,11.59-26.81,3.46-8.47-7.89.39-16.31,3.84-23.64,8.75-18.62,13.39-37.68,16.36-58.32,6.42-44.65-40.07-71.47-81.29-49.53-17,9-32.66,19.92-43.89,37.23-14.31,22.06-28.4,20.3-46.46-3.1,41.29-106.25,124.44-152.93,227-127.43C4519.32,1876.48,4581.48,1953.81,4581,2027.64Z" transform="translate(-807.92 -762.84)" fill="#fe995d"/><path d="M3070,1811.18c6.34-83.21,11.52-166.39-4.76-249.17,83.58,40.56,155.39,92.46,182.91,187.79,13.5,46.74,9.6,94.32,8.35,141.83-22.07,4.21-38.43-11-56.2-18.69-37.24-16.11-73.79-33.63-112.52-46.11C3080.14,1824.35,3069.93,1823.18,3070,1811.18Z" transform="translate(-807.92 -762.84)" fill="#df3e74"/><path d="M4165.7,4628.49l46.95-9.64c-13.14,24.87-32.09,37.65-47,53.57-12,12.79-24.51,24.75-23.12,44.29-9.71,14.43-4.91,30.8-6.19,46.35-116.78,43.38-235.1,82.13-354.63,117.16-43.56,12.76-87.53,24.15-131.31,36.15-7.94,2.18-16,9.33-23.77-.28,1.55-7.46,7.4-11,13.22-14.62,71-44.12,146-81.36,216-127.14a44.52,44.52,0,0,1,16.3-6.12c30.66-6.89,58.34-21.54,85.45-36.18,60.65-32.75,123.24-62,181.73-98.72C4147,4628.48,4155.24,4620.83,4165.7,4628.49Z" transform="translate(-807.92 -762.84)" fill="#b9d9f2"/><path d="M2407.76,937c-17.89-29.22-13.28-55.15,16.77-66,70.84-25.46,142.6-48.45,214.46-71,24.93-7.81,42,8.43,56.57,26.43,2.55,2.94,6.47,5,8,8.4,28.31,63,57.47,125.75,78.71,191.38,11.33,35-15.07,61-63.12,69.93a22,22,0,0,1-13-4.64c-4.91-7-3.6-14.95-2.15-22.44,12.87-66.62-69.36-132.92-145.07-95.94-11.09,5.42-21.07,18.87-36.44,9.66-7.66-14.56-5.09-30.08-4.33-45.4,7.56-41.91-3-53.41-43.58-47.32A141,141,0,0,0,2407.76,937Z" transform="translate(-807.92 -762.84)" fill="#1c3071"/><path d="M1107.87,2472.55c47.49,8.29,79,36.27,93.66,81.19,15,45.89,5.09,88.34-27.07,124.43-64.12,71.95-160.05,69.44-225.12-5.31,5.75-9.24,15.66-10.7,24.94-12.9q102.21-24.23,122.94-127.12C1104.51,2513.39,1092.34,2490.5,1107.87,2472.55Z" transform="translate(-807.92 -762.84)" fill="#f0d9e3"/><path d="M2004,3005.3c-49.72,19.78-99.45,39-154.65,36.1-14.65-.78-29-1.7-43.08-5.82-24.89-22.55-39.45-48-22.81-82.09,28.76-1.88,56.69,6.91,85.32,6.69,57.08-15.5,108-42.71,156.21-76.91,30.33-21.49,33.43-45.68,19.9-76.38,40.56-2,58.66,15.48,58.78,56.19,0,14.32-5.62,28.52-.81,42.91q-13.78,20.72-27.54,41.44C2056.16,2972.38,2027.77,2986,2004,3005.3Z" transform="translate(-807.92 -762.84)" fill="#d43c74"/><path d="M2015.33,1869c-12,3.13-24.61,4.43-35.17,11.84-21.11.3-42,1.93-63-4.39-62.41-18.78-79.45-41.59-76.7-106.28,5.07-5.75,9.63-15.88,15.29-16.54,35.23-4.14,57-31.58,85.75-46.72,37.76-19.91,58.9-13.79,78.68,24,7.56,14.46,19.51,24.1,30.09,35.38,28.32,30.17,25.58,57.1-8.69,80C2031.81,1852.77,2021.77,1858.73,2015.33,1869Z" transform="translate(-807.92 -762.84)" fill="#e64a7f"/><path d="M1512,4857.05c-16.57-27.82-25.55-56.63-11.53-88.44,27.17,2,52,13.33,78.07,19.63,8.16,2,18.55,9.14,23.34.08,4.94-9.34-6.88-13.83-13.43-19-2.24-1.75-4.22-3.85-6.31-5.79,1.23-12.5-4.22-22.7-11.36-32.18-9.62-12.8-9.18-27.74.32-37.79,20.87-22.09,42.09-45.42,75.87-47.68,24.46,3.4,40.35,25.16,64.16,29.95,10,3.51,21,6.08,20,20.35-16.74,23.51-37,44.74-43.17,74.71-6.93,33.8,3,46.59,37.24,49.46,15.27,1.28,34.88-8.77,44.63,12.88-10,10.46-23.25,9.45-35.65,9.06-65.61-2.07-130.21,6-194.45,18.23C1530.17,4862.38,1520.46,4864.47,1512,4857.05Z" transform="translate(-807.92 -762.84)" fill="#bcd8f0"/><path d="M3071.12,2027.5c12.27-40.09,36-59.48,71.79-58.66,30.58.7,58.77,26.2,67.41,62.54,15,63,1.26,120.52-35.3,173.22-18.24,13.29-32.68,31.8-54.8,39.72a17.54,17.54,0,0,1-8.35,3.27c-12.67-1.83-23.13-6.73-21.58-21.76,3.28-31.84-.64-63.89,3.42-95.66,2.6-20.39-9.44-76.89-19.91-94.53C3072.45,2033.37,3072.49,2030.08,3071.12,2027.5Z" transform="translate(-807.92 -762.84)" fill="#f25571"/><path d="M1102.39,2537.46c-7.4,60.54-58.34,115.71-118.85,128.6-11.37,2.42-22.8,4.54-34.2,6.8-96.7-5.09-147.9-58.89-139.68-146.78,12.89-2.82,16.33,8,21.38,15.53,10.88,16.29,23.69,31.13,39.64,42,31.31,21.27,63.34,20.76,94.31-2,17.48-15,26.85-35.28,37-55.12,6.16-12.07,11.76-24.53,21.4-34.41,14.92-15.29,43.14-20.19,61.85-10.16C1108.9,2494.6,1106.94,2515.74,1102.39,2537.46Z" transform="translate(-807.92 -762.84)" fill="#fe7e56"/><path d="M1102.39,2537.46c.27-22.85.58-46.39-28.55-52.48-28.83-6-47.23,6.73-59.73,33.29-12.14,25.79-21.1,54.44-47.32,71.16-10.9-6.49-23.19-8.14-35.31-10.8-14.74-3.23-27.6-9.22-25.34-28.2,10-11.66,21.46-4.66,32.39-2.19,28.17,6.38,39.76.39,43-26.71,2.46-20.64,10.82-48.67-10.08-59.39-20.21-10.36-30.43,18-44.51,29.74-16.71,13.91-24.49,34.12-32.47,53.83-23.72,2.87-39.69-8.52-48.62-29.07-10.51-24.16-1.94-56.18,18.66-75,16.75-15.31,37-26.08,57.11-35.13a497.82,497.82,0,0,0,81.71-46c59,14.79,86.12,59.41,104.56,112.08C1105.64,2494.15,1113.62,2516.62,1102.39,2537.46Z" transform="translate(-807.92 -762.84)" fill="#fda26a"/><path d="M3462.58,2349.63c-14.27,25.36-42.83,25.1-65.24,33.68-69.48,26.59-132.29,64.17-192.5,106.91-5.15,10.85-12.6,13-22.47,5.93-31.64-37.38-54.42-79.18-63.83-127.67A2249.7,2249.7,0,0,1,3462.58,2349.63Z" transform="translate(-807.92 -762.84)" fill="#6c2361"/><path d="M4928,3692.44c11.76-29.85,22.36-60.37,47.22-82.75,40.57-25,82.46-33.65,127-10.3,34.95,18.35,70.19,72.81,42.29,133.27-7.05.27-13.37-2.48-19.33-5.56-17.67-9.12-29.38-4.47-41.87,11.38-40.19,51-103.2,46.93-138.68-7.59a34.52,34.52,0,0,1-4.73-10.51c-.81-3.2.27-6.77-2-9.67a13,13,0,0,1-4.83,10.06C4924.76,3712.52,4929.82,3701.87,4928,3692.44Z" transform="translate(-807.92 -762.84)" fill="#fdaf7a"/><path d="M4740.84,1579.75c-.19,47-38.65,85.6-84.74,85.07-41.61-.47-73.85-36.18-74-81.93-.14-44.91,39.1-87.3,81.06-87.56C4708.12,1495,4741,1530.82,4740.84,1579.75Z" transform="translate(-807.92 -762.84)" fill="#83d0f4"/><path d="M1330.85,2841c.29,42.65-32.24,76.67-74.09,77.49-43.39.85-80.38-34.81-81.24-78.33-.83-41.93,32.71-78.9,72.53-79.93C1291.34,2759.11,1330.55,2797.35,1330.85,2841Z" transform="translate(-807.92 -762.84)" fill="#77c3e8"/><path d="M1003.31,2360.47c-12.66,25.39-35,35.42-60.92,44.14-22.38,7.53-42,23.22-63,35-26.75,15.08-32.87,39.37-29.12,67.17,3.57,26.56,25.3,31.5,46.58,36.22,6.36-2.91,9.42.67,11.64,5.91,2.66,17.71,14,23.8,30.66,23.46,12.64-.25,26.32-1.44,27.6,17-54.53,39.66-108.07,6.42-140.13-40.61-5.34-7.84-6.89-18.47-17-22.74-13.12-90.82,49.23-160.86,140.4-174.74C968.44,2348.54,986.86,2349.87,1003.31,2360.47Z" transform="translate(-807.92 -762.84)" fill="#fdb586"/><path d="M2730.93,1846.58c-25.88,78.27-100,131-187.76,133.45-9.65.27-19.31.25-29,.36l-5.34-7c-6.51-47.67,21.73-67.12,60.55-85.94,40.51-19.63,74.93-51.83,124.64-47.5C2706.71,1841,2719,1842.38,2730.93,1846.58Z" transform="translate(-807.92 -762.84)" fill="#ac5a79"/><path d="M2718.85,1091.53c8.26-2.79,16.83-4.9,24.72-8.5,33.26-15.22,42.26-36.4,27.82-70.84-25.86-61.66-54-122.38-75.83-185.66,24.31-4,37.71,7.76,47,29.37,25.07,58,51.79,115.33,77.07,173.26,13.1,30,1.23,58.09-32,69.86-68.63,24.28-138.06,46.29-207.11,69.38-16.5,5.52-30.63,5.79-37.52-14-.67-11.18,8.56-10.89,15.42-13.37,39.45-10.34,77-26.3,115.51-39.45C2688.68,1096.59,2703.28,1092.24,2718.85,1091.53Z" transform="translate(-807.92 -762.84)" fill="#e0e9f4"/><path d="M5074.71,1587.56c25.19,40.12,23.07,78.82-6,109.13-27.15,28.33-67.7,34.47-101.54,15.37-35.41-20-51.85-60.65-41-101.46a10.73,10.73,0,0,1,5.55-1.08c14.45,1.53,21.57,22.25,38.17,16,13.29-5,16.75-20.68,26.54-29.79C5020.34,1573.54,5047.29,1577.66,5074.71,1587.56Z" transform="translate(-807.92 -762.84)" fill="#feaa6f"/><path d="M4013.52,2373.13c33.64,29.45,73.54,44.91,116.43,56,35.36,9.17,66.62-8.13,100.07-9.38-12.72,41.95-34.54,74.93-79.66,88.59-68.15,20.63-136.81-29-136.89-100.16C4013.46,2396.51,4013.51,2384.82,4013.52,2373.13Z" transform="translate(-807.92 -762.84)" fill="#f6e6ee"/><path d="M3673.62,1067.49c-17.78,35.14-16.72,36.87,21.75,37.82,6.63.17,13.22,1.7,19.83,2.6.56,2,1,4.72-.35,5.47-32.57,18.47-53.78,48.31-76.72,76.4-3.82,31.69-19.48,45.9-53.27,42-17.73-2-24.26,20.42-38.77,27.85C3523.38,1165.58,3571.67,1092.81,3673.62,1067.49Z" transform="translate(-807.92 -762.84)" fill="#fbb19f"/><path d="M4962.54,3526.87c-23.59-7.81-49.56-10.94-65.57-33.57-6-13.66,2.17-23,11.61-29.36,25.38-17.14,40.45-37.74,31.09-70.07-1.32-4.57,2-9.19,5.45-12.77,1.92-.22,3.84-.58,5.77-.65,54.18-1.87,84.63,18.1,88,57.67C5042.73,3484,5013.42,3518.05,4962.54,3526.87Z" transform="translate(-807.92 -762.84)" fill="#feaf74"/><path d="M2367.55,1371.93c29.15,1.44,60.14-9.18,83.9,20.17,25.9,32,27.92,72.39,1.36,101-28,30.25-74.2,31-110.55,1.77,3.23-13.22,14.52-20.19,23-29.28,21.67-23.31,23.68-39.59,8.11-68C2369,1389.75,2359.36,1382.76,2367.55,1371.93Z" transform="translate(-807.92 -762.84)" fill="#fdb076"/><path d="M2407.76,937c8-34.41,37.72-41.86,64.93-52.47,15.13,18.25,31.56,35.05,52.52,46.75l.06,56.51c5.29,16.8-5.28,24-18,30-21.84,3.37-43.71,6.31-65.76,1.7C2428.89,992.54,2414.93,966.16,2407.76,937Z" transform="translate(-807.92 -762.84)" fill="#69c0e6"/><path d="M2520,2032.78c19.48-1.91,38.13,1.07,57.38,5.18,22.16,4.73,28.93,15,23.75,35.66-22.52,11-43.76-8.57-66-2.7a35.16,35.16,0,0,0-24.54,7.25c-12.1,9-24.93,20.58-20.43,35.56,4.15,13.82,20.37,4.1,31.06,5.78,7.59,1.19,15.51-.18,23.31.54,14.14,3.13,24.72,7.59,7.78,21.79-14.5,9.54-31,10.33-47.52,10.16-18.27-.19-22.08,8.9-15.79,24.22,11.53,28.1,31,48.69,59,61,9,3.66,17.32,8.38,24.29,15.12,4.11,4,9,8.88,5.55,14.7s-10.34,3.11-15.91,3.22l-27.81-2.79c-70.06-38.51-98.75-99.31-79.34-166.66C2464.65,2066.38,2488.46,2046.05,2520,2032.78Z" transform="translate(-807.92 -762.84)" fill="#1c1f59"/><path d="M1131.31,1989.09c-.24-34,18.61-55.13,49.91-55.85,34.46-.79,61.35,23.89,61.37,56.32,0,31.27-24.34,55.56-55.58,55.43C1156.66,2044.86,1131.52,2019.64,1131.31,1989.09Z" transform="translate(-807.92 -762.84)" fill="#81cbed"/><path d="M4933.11,3720.77c1.52-6.29-2-13.6,6.23-21.47,3.85,23.57,19.58,36.2,36.08,49.53,34.3,27.71,75.68,23.81,101.52-11.88,23.14-32,35.66-32.75,67.56-4.29l-.57,11.31c-2.62,27.09-24,39.2-43.89,49.71-36.87,19.44-75.55,28.3-114.56,3.79-21.91-16.52-41.74-34.57-52.79-60.86C4930,3730.18,4930.91,3726,4933.11,3720.77Z" transform="translate(-807.92 -762.84)" fill="#fd9163"/><path d="M4985.48,3797.47c64.41,16.49,118.22,1.6,158.45-53.5,42.89,20.38,45.3,33.45,3.08,67.6-29.35,23.74-66.45,35.6-103.87,42.85C5011.13,3860.62,4980.47,3829.72,4985.48,3797.47Z" transform="translate(-807.92 -762.84)" fill="#f5d9df"/><path d="M2027.41,3539.22c36,14.1,72.42,24.58,111.36,12.43-6.37,36-9.82,73-34.67,102.73l-100.12-52C1997.34,3576,2020.64,3560.67,2027.41,3539.22Z" transform="translate(-807.92 -762.84)" fill="#e7e8f4"/><path d="M3070,1811.18c63.26,24.31,125.63,50.69,186.52,80.46,47.07,26.56,95.61,50.86,136.4,87.28-31.66-5.35-54.25-28.2-81.11-42.7-101.07-54.55-204.43-103.35-317.48-127.33-36.52-7.74-74.18-17.33-111.61-1.81,5.26-14.66,21.82-18.84,29.29-31.48C2965.94,1782,3017.79,1797.45,3070,1811.18Z" transform="translate(-807.92 -762.84)" fill="#752a69"/><path d="M3708.84,2706.4c3.18-7.75,9.45-10.83,17.32-11.51,100.17,78,181.14,172.83,245.72,281.9l4.34,10.37c-13.88,7.52-18.77-4.79-25-12.13-25.45-29.85-49.71-60.71-75.77-90.06-43.64-51.19-87-102.67-139.07-145.79C3725.25,2730,3712.15,2722.23,3708.84,2706.4Z" transform="translate(-807.92 -762.84)" fill="#2e215a"/><path d="M5074.71,1587.56c-11.54.2-23.2,1.54-34.59.35-21.55-2.24-35.53,5.31-47.26,24.38-21.77,35.39-24.32,34.76-55.15,6.86-3.53-3.19-7.67-5.71-11.53-8.54,6.45-35.33,30.15-54.8,63-60.48C5024.37,1544.05,5054.18,1556.87,5074.71,1587.56Z" transform="translate(-807.92 -762.84)" fill="#fdbe8f"/><path d="M2367.55,1371.93c2.32,17.81,20.81,26.6,23.45,45.25,5.76,40.61-23.48,57.52-48.73,77.73-26.77-14-31.57-39.18-26.63-64.28C2321.15,1402.73,2334.84,1377.81,2367.55,1371.93Z" transform="translate(-807.92 -762.84)" fill="#fdc49c"/><path d="M1823.15,2220.6c-9.4,3.25-19,11.12-22.74-7.59-1.93-9.72-10.26-18.18-15.69-27.21-14.25-11.55-18-29.44-26.71-44.3-5-22.91-27.68-29.07-41.36-43.76-51.16-10.27-100,9-150.15,11.65-25.74,1.36-50.86,11.15-77.07,5.51,11.2-21.11,33.46-17.78,51.25-20.74,47.72-7.94,96-12.63,144-18.84q57.08-7.4,84.27,43.06C1787.18,2152.37,1805.1,2186.52,1823.15,2220.6Z" transform="translate(-807.92 -762.84)" fill="#171e58"/><path d="M2441.47,1019.48c22.41-6.42,45.63-5.43,68.52-7.47,6.8,15.17-.91,30.25-.43,45.46.88,28.12,6.64,53.51,29.81,72,5.27,7.68,21,4.26,20,18.64-6.11.37-12.07,1.16-16.34,6.29-31.41,4.13-51.51-9.42-62.75-38.67C2467.86,1083.47,2454.45,1051.56,2441.47,1019.48Z" transform="translate(-807.92 -762.84)" fill="#1f2771"/><path d="M5108.9,1883.5c.32,22.37-20.48,44.39-41.61,44-18.52-.29-44.54-25.06-45.24-43.06-.87-22.33,18.73-43.33,41.34-44.29C5086.76,1839.2,5108.56,1859.94,5108.9,1883.5Z" transform="translate(-807.92 -762.84)" fill="#f7d0db"/><path d="M5448.74,3698c-.5,18.78-22,40.26-39.39,39.32-18-1-37.5-23-36.66-42,1.06-24.07,13.67-37.93,37.9-38.93C5433.73,3655.45,5449.4,3673.27,5448.74,3698Z" transform="translate(-807.92 -762.84)" fill="#dbeaf8"/><path d="M1377.47,1463.39c-.93,22.51-11.7,36-35.23,36.77-25.29.78-41-13.88-41.16-37.52-.17-24.42,13.51-38.88,36.44-38.51C1362.87,1424.55,1377.6,1439,1377.47,1463.39Z" transform="translate(-807.92 -762.84)" fill="#d4e4f6"/><path d="M4945.12,3381.1c.31,5.73-.95,12.13,1.18,17.08,12.86,30-.58,49.3-24.91,64.85-11.42,7.3-22.15,15.43-24.41,30.27a24.26,24.26,0,0,0-4.95-.52C4865.74,3437.56,4888.4,3389.88,4945.12,3381.1Z" transform="translate(-807.92 -762.84)" fill="#fdc7a2"/><path d="M4961.53,1013.74c21.19.08,40.63,18.54,39.83,37.84-.86,20.52-19.57,38.55-40.16,38.7-19.66.14-39.74-19.75-39.37-39C4922.25,1029.48,4939,1013.66,4961.53,1013.74Z" transform="translate(-807.92 -762.84)" fill="#f280a0"/><path d="M3067.86,1553.15l-108.57-29.64c2.41-41.71,50.28-54.8,82.93-27.86C3059.55,1510,3071.57,1528.54,3067.86,1553.15Z" transform="translate(-807.92 -762.84)" fill="#6e266d"/><path d="M4212.93,1864.08c-22.86-.52-36.49-15.87-35.82-39.93.67-24.26,15.43-34.91,37.21-35.71,20.32-.74,38.1,20.15,37.25,40.71S4234.31,1864.56,4212.93,1864.08Z" transform="translate(-807.92 -762.84)" fill="#fdb380"/><path d="M2147,1413.34c-18.33-1-31.5-12.51-31.4-36s13.18-35.28,36.31-36c24.48-.73,35,12.19,35,35.83S2175.77,1413.29,2147,1413.34Z" transform="translate(-807.92 -762.84)" fill="#fcb782"/><path d="M1868.8,2960.18c-29.32,9.06-57.77,6.94-85.32-6.69,12.17-29.91,36.57-48.42,61.7-66.26,19,10.67,9.87,29.11,12.29,44.37C1859.11,2942,1851.63,2956,1868.8,2960.18Z" transform="translate(-807.92 -762.84)" fill="#fc7254"/><path d="M1255.14,2262.75c.19,29.7-11.81,43.63-33,43.89-19.32.24-32.91-11.9-33.14-33.16-.22-21,12.35-33.16,32.11-34.17S1254.83,2247.7,1255.14,2262.75Z" transform="translate(-807.92 -762.84)" fill="#ed6390"/><path d="M4809,2051.29c-27.8-.59-34.64-13.72-34.22-34.3.42-20.11,9.25-31,29.74-30.37,21.75.61,35.15,12.22,34.35,33.94C4838.11,2041.05,4823.34,2049.82,4809,2051.29Z" transform="translate(-807.92 -762.84)" fill="#f8cfdc"/><path d="M4860.55,4039.19c45.41-64.86,109.45-108.09,172.82-152.13C4979.45,3942,4917.4,3987.71,4860.55,4039.19Z" transform="translate(-807.92 -762.84)" fill="#faeff5"/><path d="M2151.23,2125c.77,20-11.27,29.95-28.46,29.46-16.5-.46-29.81-10.49-30.38-29.21-.61-20.4,13.28-31.36,31-31.3C2140.64,2094.05,2150.29,2107.25,2151.23,2125Z" transform="translate(-807.92 -762.84)" fill="#fbc097"/><path d="M1727.82,2392.25q.63,13.8,1.27,27.6c-1,0-2.54.46-2.84,0-28.23-40.53-37-43-89.62-23.74-9.55,3.5-18.2,9.09-24.23-4.26l5-7c18.52-7.8,36.84-16,57.27-18C1697.68,2364.71,1716.52,2370.38,1727.82,2392.25Z" transform="translate(-807.92 -762.84)" fill="#ed918a"/><path d="M4885.62,3767.77c1.92,15.88,2.83,32.2-15.62,38.89-12.36,4.48-19.72-6.32-25.46-14.74-10.57-15.52,2.19-30.32,29.81-35.48Q4880,3762.11,4885.62,3767.77Z" transform="translate(-807.92 -762.84)" fill="#b7d9f6"/><path d="M1489.43,2114.9c64-8.12,128-16.65,192.15-24,11.63-1.33,25.29-4.92,35.07,6.83-78.36,5.38-156.32,13.85-233.34,29.77C1482.16,2121.76,1485.93,2118.4,1489.43,2114.9Z" transform="translate(-807.92 -762.84)" fill="#8789bb"/><path d="M3014.3,835.64c9.84,1.09,18.77,5.26,19.58,16.5.88,12.26-7,20.14-18.79,20.83-11.08.65-18.17-7.32-18.5-17.76S3002.49,837.34,3014.3,835.64Z" transform="translate(-807.92 -762.84)" fill="#8ec0e4"/><path d="M3111,2243l9.18,1.31c-6.36,20.87-9.29,42.27-10,64-21.74-15.17-15.6-38.35-17-59.35C3097.87,2243.14,3103.33,2239.73,3111,2243Z" transform="translate(-807.92 -762.84)" fill="#281c40"/><path d="M2942,797.18c-10.54-.15-16.82-5.28-18.09-15.32s3.2-17.67,13.43-18.86c11.34-1.32,18.91,5.74,19.73,16.47C2957.79,788.83,2952,795.75,2942,797.18Z" transform="translate(-807.92 -762.84)" fill="#8ac0e1"/><path d="M3871.08,4774.69l-244.45,141.4q-70.89,33.84-141.78,67.67c-8.77,4.19-17.3,9.12-27.62,7.76-13.87-10-28.27-4.16-42.22-.8-103.4,24.94-207.94,43.75-313.13,59.29-26.13,3.86-52.58,2.06-78.69,6.31-8.55,1.39-20.45,3.58-22.47-11.06,195.11-93.37,383.57-198.05,556.16-329.4,16.95-12.9,31.77-28.67,47.14-43.57,5.26-5.1,13.15-10.8,7-19.69-5.29-7.6-13.84-6.26-21.46-4.34-20.6,5.19-41.08,10.85-61.61,16.33-14.3-3.9-5.67-12.31-2.72-18.06,9.7-18.86,23.9-34.62,37.15-51,38.79-28.42,74.95-60,109.93-93,12.13-1.13,21.85-7.81,31.89-13.8,62-37,123.57-74.62,186.81-109.46,11.05-6.09,21.75-13.5,35.52-10,14.51,13.59,3.49,25.45-3.85,35.91-24,34.24-46.9,69.3-72.64,102.33-5.77,7.4-12.26,14.49-17.7,27.06,22-4.76,38.84-11.76,48.09-28.9,17.2-31.88,51.31-39.93,78.4-57.73,9-5.89,16.61-.54,19.69,9.92,4.76,16.19,7.05,31.9-1.43,48.09-19.15,36.56-26.13,73.36-12.11,115,12.16,36.14-10.17,63.28-37.06,85.25-14.53,11.87-29.75,22.66-27,44.69C3896.15,4765.41,3882.4,4768.52,3871.08,4774.69Z" transform="translate(-807.92 -762.84)" fill="#f69ea3"/><path d="M3000.72,5045.26c31.41,8.51,63.31,1.26,93.53-3,114.45-16.23,228.53-35.64,340.4-65.73,14.26-3.83,23.07-2.07,22.58,15-32.33,9.84-65.64,17.41-88,46.68-4.91,6.44-17.83,9.08-14.21,19.18s15.28,11,25.14,10.47c32.91-1.66,65.78-5,98.69-5.26,18.77-.17,46.38-10.1,50.7,19.08,3.61,24.46-23.25,24.58-39.1,30.82-91.37,36-186.51,57-283.2,73.53-77.26,13.23-155,22.56-232.56,32.72-43,5.63-86.68,10.53-130,12.28-85.45,3.44-170.87,9.89-256.58,7.31-26.5-.8-28.43-9.8-15.87-29.24,80.24-22.41,157.82-52.53,235.14-83.11C2872.34,5100.31,2936.32,5072.26,3000.72,5045.26Z" transform="translate(-807.92 -762.84)" fill="#fbbac1"/><path d="M4170.69,4942c108-57.32,220.65-103.45,337.43-139.59C4398,4854.75,4288.14,4907.51,4170.69,4942Z" transform="translate(-807.92 -762.84)" fill="#fbf5f7"/><path d="M3898.44,5006c1.65-16,15.55-17.17,25-21.91,75.49-38,152.26-72.91,234.52-94.05,6.41-1.65,14-6.44,17.57,2.51,3.85,9.71-5,10.63-11.45,12.56-88.6,26.63-172.75,64.51-257.23,101.58C3904.71,5007.58,3901.61,5006.28,3898.44,5006Z" transform="translate(-807.92 -762.84)" fill="#faf6f6"/><path d="M4071,3123.14l135.66,199.26c23.68,44.39,48.18,88.37,70.82,133.3,28.54,56.62,50.95,114.84,47.57,180.49-1.44,27.9-11.68,52.65-18.8,78.62-11.74,49.44-48.4,80.63-83.72,112.24a291.93,291.93,0,0,1-68,45.06c-30.05,14.1-58.83,30.94-90.3,42-60.17,23.78-122.21,41.06-185.59,53.73-23.52,5.19-46.54,13-70.93,13.7-64.09,11.23-128.34,20.87-193.61,21.11-37.55-22.76-47.78-61.9-59.74-100,11.94-26,34.95-36.52,60-46.7,90.17-36.57,160.42-96.22,206.83-183,19.1-35.68,21.12-73.84,21.21-112.73a22.47,22.47,0,0,1,14.26-9.45c98.49-21.07,195.28-19.43,288.91,22.28,11.56,5.16,23,10.53,35,14.68,2.72.94,5.51,1.83,11.89-2.42-44.32-39.59-77.39-90.19-131.24-117.6-41.75-21.26-85-16.08-127.55.24-11.51,4.41-22.11,13.31-35.87,8.62-8.42-12.56-.51-23.24,6.33-31.53,34-41.25,49.71-92.72,77.94-137.06,21.52-33.8,34.12-72.2,56.61-105.52,12.1-17.92,19-38.21,17.43-60.8C4055.55,3132.24,4052.59,3118.46,4071,3123.14Z" transform="translate(-807.92 -762.84)" fill="#fe5e53"/><path d="M4153.9,3867.11c62.51-39,117.23-85.88,152.37-152.3,1.35,5.83,5,14.36,10.54,7.92,28.62-33,74.58-49.94,89.08-95.88,8.64,1.11,14-10.81,23.58-5.95,26.94-18.92,51.12-41.9,81.72-55.43,5.34-2.37,10.43-6.37,16-7.06,15.1-1.88,33.2-8.49,44,5.05,10.05,12.56,6.37,29.6-.5,44.4-22.64,48.73-53.47,92.4-85.16,135.36-29.91,40.54-61.3,80-92.25,119.76-8.14,10.45-13.54,17.15,4.65,25,18.81,8.08,16.31,26.91,10.83,43.41-17.17,51.72-51.13,93.5-83.37,135.85-53,69.58-113.74,132.49-172.93,196.71-6.25,6.78-11.08,13.5-10.1,23.11-7.6,12.38-21.44,13.1-33.13,15.7a559.15,559.15,0,0,0-133.87,48.69c-6.07,3.11-12.47,5.49-19.53,5-17.8-12.8-3-24.2,3.1-33.7,30-46.69,58.59-94.21,83.38-143.89,46.64-93.45,87.3-189.07,103.92-293.19C4147.29,3878.82,4149.06,3872.35,4153.9,3867.11Z" transform="translate(-807.92 -762.84)" fill="#f5e6ed"/><path d="M3871.08,4774.69l25.3-22.94c5-9.68,12.61-16.83,20.86-23.85,25.39-21.61,48.52-44.62,55.19-79.77,3.55-18.72,20.28-27.59,34.74-37.5,76.17-52.23,153.46-103,217.28-171,7.32-7.79,15.25-15.05,21.43-23.83,35-49.71,30.8-79.34-13.85-108.22-4.55-2.94-10.71-5.75-7.64-13.39,35.7-37.1,75.76-69.22,116.39-100.55,50.64-39.05,102.05-77.09,153.12-115.56-32.3,55-32.35,117.1-39.36,177.75a39,39,0,0,0,12.62,34c8.86,8.18,17.52-2.78,25-8,8-5.59,16.6-4.47,25.25-4.68-34,27.2-68.09,54.21-101.75,81.78-6.34,5.19-16.12,10.42-12.68,20.87,2.89,8.78,12.12,8,19.94,8.76,15.37,1.47,24.62,11.38,29.05,25,4.51,13.83-3.26,23.95-13.18,33-44.72,40.94-97.51,70.15-148.52,101.81-42,26-85.76,49.13-124.55,80.08-65.45,35.23-130.65,70.92-196.44,105.5C3937.87,4750.5,3907.1,4769.11,3871.08,4774.69Z" transform="translate(-807.92 -762.84)" fill="#f6e7ee"/><path d="M4224.39,4294.23c64.75,38.07,69.75,80.93,16.88,138.84-64.25,70.38-141.87,124.1-220.42,176.44-23.36,15.56-41.09,31.27-48.72,60.85-10,38.9-44.64,59.57-75.75,81.39-7.21-16.23-3.87-27.9,11.5-38.86,17.14-12.23,34.41-25,44.89-44.82,8.81-16.65,12.67-34.28,4.62-50.43-18.22-36.55-8.82-72.25,7.37-103.44,11.79-22.7,11-41.09,3.91-66.75-26.72,26.23-69.46,27.61-84,68-4.51,12.51-19.78,15.63-30.47,21.28-9.9,5.23-25.74,14.92-34.15,3.82-7.64-10.08,9.67-16.29,15.31-24.48,27-39.14,54.82-77.72,82.45-116.43,6.18-8.66,14.43-16.58,7.8-28.66,1.36-19.88,17.49-14.55,29.06-17,58.79-32.85,121.76-54,187.65-66.91Q4183.36,4290.61,4224.39,4294.23Z" transform="translate(-807.92 -762.84)" fill="#f4a7ab"/><path d="M4429.47,3620.9c-8.84-1.9-10.83,23.34-23.58,5.95,3.65-38.79,23.61-71.93,39.33-106,36.27-78.54,76.41-155.25,126.07-226.47,6.17-8.85,11.21-25.88,25.41-15.92,13.57,9.52-.51,21.75-6,29.81-63.65,93.71-113.1,194.78-157.06,298.77C4431.79,3611.48,4430.84,3616.28,4429.47,3620.9Z" transform="translate(-807.92 -762.84)" fill="#f9fcfd"/><path d="M4071,3123.14c-6.61,1.07-11.87,4.51-9.46,11.57,10.1,29.53-5.88,52.33-18.69,76-23,42.42-47.63,84-69,127.29a1271.14,1271.14,0,0,1-77.62,136.43c-13.51,26.2-41.91,31.59-64.43,44.61-14.71,8.5-30.88,15.08-46.16,23-31.49,1.78-45.59-26.15-68.1-39.78-33.39-31.59-71.4-58.54-97.83-97.17-7.06-14.65-7.54-30,5.82-39.92,35.31-26.3,51.73-65.68,71.09-102.2,44.18-83.35,87.88-167.06,125.68-253.62,6.26-14.35,14.94-27.32,22-41.18,11.25-21.92,21.27-43.71,12.28-69.54-2.8-8.06-2.61-17.87,6.85-23.21,8.25-4.65,11.6,4.76,17.52,6.92,27.94,26,48.94,58,73.91,86.55,6.08,7,9,18.07,21.2,18.21C4000.82,3037.36,4042,3076,4071,3123.14Z" transform="translate(-807.92 -762.84)" fill="#fe7154"/><path d="M2988.19,4822.07c-42.7-1.68-81.94,14.18-121.34,26.44-122.19,38-241.79,83.36-360.25,131.77-32.2,13.16-65.62,23.31-98.47,34.83-18.3-12-39.19-21-49.85-42.09,5.24-22,24.15-29.58,41.53-37.5,69-31.43,136.82-65,200.85-105.84,62.25-39.71,123.56-80.74,181.68-126.36,8.36-6.57,15.92-14.55,27.63-14.85,53-11.8,94.81-43.8,131.61-80.41s82.07-57.34,126.77-80.09c2.56-1.31,5.66-.78,8.46.14,12.43,12.81,25.4,3.63,37.87.43,37.3-9.56,72.78-26.46,112.19-27.65a92.92,92.92,0,0,1,14.15,3.63c26.22,9.22,30.44,19.94,16.33,43.57a703.66,703.66,0,0,1-89.52,118.63c-43.11,46.31-88.93,90-134.18,134.21C3021.36,4812.94,3008.42,4826,2988.19,4822.07Z" transform="translate(-807.92 -762.84)" fill="#8dbadb"/><path d="M2988.19,4822.07c50.6-21.11,80.54-66.93,118.27-102.58,51.29-48.47,99.32-101.05,136.95-161.95,23.08-37.35,24.14-36.69-14.79-51.24,5.39-10,15.2-12.26,25.11-14.4,29.66-6.59,59.78-6.78,90-6.42,68.27.81,107.88,43.53,103.61,111.84-.92,14.74-4.91,28.7-9.44,42.54-3.91,40.76-32.82,62.3-63.58,82.43-47.26,22.68-94.16,46.18-141.88,67.86-87.55,39.77-175.6,78.43-263.4,117.66-11.3,5-22.32,10.74-43.25,12.17,21-20.07,37.42-35,53-50.85C2991.92,4855.81,2999.7,4840.68,2988.19,4822.07Z" transform="translate(-807.92 -762.84)" fill="#a5d7f3"/><path d="M2331.43,5122.87c-72.27-27.17-146.78-46.86-221.28-66.6-29.61-7.85-59.07-16.26-88.59-24.41-15.09-15.15,2.3-17.38,9.54-20.7,40-18.33,75.75-43.83,113.86-65.31,64.43-36.32,125.33-78.54,190.4-113.82,16.17-8.76,29.82-12.42,33.57,12.25.18,39.62-7.33,78.37-13.07,117.33-7.56,25.2-.24,53.83-17.56,76.79C2331.53,5066.19,2322.33,5093.79,2331.43,5122.87Z" transform="translate(-807.92 -762.84)" fill="#fcecf1"/><path d="M2049.45,5168.48c-87.43-16.17-176.19-26-261.17-53.81-29.25-9.57-56.33-22.85-61.28-58.54,15.6-13.49,31.6-2.58,46.81.22,135.54,25,270.45,52.9,402.4,93.37,12.9,4,25.53,8.81,38.28,13.25C2159.71,5171.89,2104.88,5179.14,2049.45,5168.48Z" transform="translate(-807.92 -762.84)" fill="#fcfbfc"/><path d="M3374.29,4722.29c14-14.86,29-28.92,41.53-44.91,6.42-8.2,18.88-15.51,12.95-29.74,4.27-7.12,11.1-10.69,18.72-12.61,33.84-8.54,66-21.67,97.92-35.51,7.07-3.07,14.32-6.18,22.22-2.41-12.87,18.55-25.68,37.14-38.64,55.62-2.72,3.89-6.52,7.36-1.08,11.86C3477.54,4686.05,3427.72,4709,3374.29,4722.29Z" transform="translate(-807.92 -762.84)" fill="#dba5ae"/><path d="M2338.3,5038.4c2.22-25.51,2.64-51.29,11.21-75.87,6.09,1.65,8.2,7.45,12,11.47,15.83,13.38,36.53,21.23,46.61,41.11Z" transform="translate(-807.92 -762.84)" fill="#c7b8d0"/><path d="M1653.54,3660.47c-1.41,10.84-.8,20.44,6.75,30.06,50.4,64.22,103.36,125.92,168,176.61,72.38,67,154.89,120,239.78,169,94.54,54.52,193.19,100.79,297.42,134.2,10.09,3.23,20.7,4.81,31.07,7.16,10-5.82,13.66-.53,15,8.67-1.86,10.51-9.68,16.59-17.34,22.53-49.22,38.14-100.7,73.32-148.24,113.66a31.58,31.58,0,0,1-18.63,7.6,36.44,36.44,0,0,1-12.91-1.72c-84.15-38.35-165.68-81.56-243.11-132.29-14.58-4-27.24-10.83-34.88-24.52-27.33-48.95-70.71-82.75-112.54-117.62-57-47.5-110.35-98.76-161.61-152.23-39.39-41.08-61.66-89.36-58.33-147.79,1.21-21.38-.45-42.7-3.92-64-3.11-19.12-5.38-39.5,15.12-52.51C1633.32,3636,1646.54,3643.14,1653.54,3660.47Z" transform="translate(-807.92 -762.84)" fill="#141b51"/><path d="M2273.78,3743.94a151.36,151.36,0,0,1-41.68-21.47c-13.65-11.64-10.48-25.41-5.81-40,19.33-60.3,43.61-118.79,64.88-178.38,14-22.63,41.46-22.54,60.78-36.22,39.17-19.42,78.53-38.41,116.53-60.18,10.75-6.16,23.49-20.68,37.84-3.92,2.28,43.43-8.43,86.05-7.67,129.37-9.08,31.92.49,66.16-12,97.62-30.25-15.21-52.15,3.68-75.29,18.3-39.57,25-76,54.21-112.68,83.06C2291.28,3737.94,2285.44,3747.12,2273.78,3743.94Z" transform="translate(-807.92 -762.84)" fill="#f5e7ee"/><path d="M2408.26,4189.13c-.17-7.66-4.24-11.4-11.75-11.68,20.51-28,43.07-54.86,51.65-89.75-.14-1.18-.29-2.37-.43-3.55,23.25-30.21,13.45-64.66,10.78-97.36-4.55-55.71-27.23-105.92-52.91-154.83-4-7.54-5.94-16.13-8.83-24.23,28.32-.32,50.86,17,76.51,24.91,10,5.57,20.83,9.21,31.59,13,64.4,30.26,130.49,55.7,200.22,70.93,8.94,11.34-1.79,18.75-5.44,27.6-59.47,62.19-118.91,124.23-192,171.59-19.9,12.91-35.68,32.4-54.71,47.34C2437.34,4170.52,2428.77,4190.13,2408.26,4189.13Z" transform="translate(-807.92 -762.84)" fill="#182057"/><path d="M2472.73,3838c-26.54-7.05-51.37-18.37-76-30.31l-123-63.79c55.77-46.87,112.9-91.77,177.31-126.66,18.74-10.15,29.55-10.38,27.51,15.12,16.69,23.72,6,50.61,8.82,75.93,1.6,37.49-7.5,74.34-6.77,111.81A22.61,22.61,0,0,1,2472.73,3838Z" transform="translate(-807.92 -762.84)" fill="#d0e1f6"/><path d="M2296.45,3501.31c-5.66,41.52-27.11,77.73-39.44,117-8.06,25.72-16.84,51.27-26.74,76.32-4.11,10.4-1.05,18.72,1.83,27.81-44.25-19.71-86.73-42.78-128-68.09,13.69-33.52,15.94-70.91,34.67-102.73l58.91-17.92C2228.19,3515.6,2259.9,3501.09,2296.45,3501.31Z" transform="translate(-807.92 -762.84)" fill="#fcfcfd"/><path d="M2447.73,4084.15a4.78,4.78,0,0,0,.44,3.55c-18,1.73-30.83-10.57-44.94-17.95-61-31.89-121.3-65.19-179.68-102.08C2300.66,4001.92,2375.2,4041.08,2447.73,4084.15Z" transform="translate(-807.92 -762.84)" fill="#acb2da"/><path d="M1934,3813.4,1894,3787.23l3.7-6.71,159.2,85.82,53.09,32.48-4.38,7.88Z" transform="translate(-807.92 -762.84)" fill="#aab1dc"/><path d="M2146.65,3923.07c17.13,1.93,32.53,6.65,45.21,26.15C2169.93,3945.76,2156.39,3937.77,2146.65,3923.07Z" transform="translate(-807.92 -762.84)" fill="#b3b5dc"/><path d="M3182.37,2496.15c8.24.85,15.47-2.12,22.47-5.92,18.68,3.51,33.21-8.72,49.69-13.42,36.22-10.34,54.71-.31,62.51,35.64a9.39,9.39,0,0,0,.65,2.81c24,40.19,24.17,78.88-7.25,115.59l-126.32,64.25,3,7c34.64-13.67,69.25-27.45,104-41,46.15-18,93.17-34,138.32-54.24,40.66-18.21,72.29-4.59,98.77,23.8,15,16.08,30.73,31.57,45.36,48-16.51,9.67-35.38,10.71-53.45,14.74-54.78,2.5-109.88,2.52-162.45,21.7-32.77-10.07-63.42,4-94.19,10.13-76,15.07-152.07,30.38-227.45,48.64-11.93,2.89-24.5,8-35.9-2.11,6.46-19.34,25.34-10.2,37.84-15.81,33.85-15.19,51.34-37.27,36.09-69.08-16.21-33.83-3.36-57.36,10.19-84.14,3.9-7.71,6.43-16.12,9.59-24.2,23-18.77,46.12-37.27,68.72-56.46C3170.85,2515,3183.55,2510.7,3182.37,2496.15Z" transform="translate(-807.92 -762.84)" fill="#b73371"/><path d="M2742.53,2086.52c-7.57-3.63-17.42,1.83-23.94-6,3.69-19.54,23.08-12.19,34-19.58,9.57-6.48,20.89-10.24,32.64-11.71-25.85,3.84-51.8,5.66-77.94,4-5.15-6.93-11.65-13.26-15.1-21-4.4-9.8-7.37-22.23,5.91-27.13,3.76-1.39,23.75-21.35,19.81,7.44,0,.16,4.68,1.93,6.5,1.23,26.5-10.19,54-3.19,80.92-4.73,14.08-.8,28.85,1.94,37.69,12.37,15.73,18.58,32.33,18.31,54,12.77,31.82-8.13,64.73-12,97.18-17.68,2.43,5.5,4.11,10.35-5,11.11-2.7.23-11.62-3.22-6,6.11-7.75,19.76-27.49,13-41.63,18.55-6.14,2.41-13.09,2.86-19.7,4.08-33.13,6.08-33.14,6.07-27.25,40.06a113.19,113.19,0,0,1,2,20.06c-.34,31,2.12,62.93-26.07,85.44-65.59,79.45-164.14,40.5-190.59-41.93-5.28-16.47-12.37-32.36-18.61-48.53-5-13.08-14.83-16.74-27.94-14.41-13.62,2.41-19.94,10.71-20.22,24.14s-.47,27.15-.7,40.72c-19.8,15.39-21.22,14.76-32.92-14.36-8.09-27.29-1-49.53,22.29-66.3,45.57-19.92,76.93-5.4,90,43.08,8.23,30.52,18.47,59.34,44.5,79.64,45.81,35.71,103.57,15.8,117.74-40.57.9-25.9.22-51.74-9-76.32-6.56-17.56-18.88-23.14-37-15.54a207.81,207.81,0,0,0-31.07,15.67C2765.28,2094.76,2753.85,2096.28,2742.53,2086.52Z" transform="translate(-807.92 -762.84)" fill="#271f4a"/><path d="M2800.09,2567.41c100.11-29.48,167.16-98.81,222.65-184-17.48,69.22-16.3,143.73-60.11,203.82-26.94,36.93-69.28,39.48-111.41,37.21-7.24-.39-14.87-7.24-21.71,1C2804.8,2613.68,2802.83,2590.35,2800.09,2567.41Z" transform="translate(-807.92 -762.84)" fill="#c2627c"/><path d="M2848.08,2719.2c-115.27,25.4-195.87-31.19-199.66-133.17-.43-11.42,1.52-21.27,13-26.72,31.66,12.61,65,13.62,98.36,13.93,13.36,48.35,36.14,91.05,74,124.92C2840.15,2703.83,2846.94,2709.75,2848.08,2719.2Z" transform="translate(-807.92 -762.84)" fill="#7e2a66"/><path d="M2870.57,2202c13.09-27.35,20.61-56,19.5-86.52,33,1.55,63-11.85,94.39-18.58,10.85-2.33,22.19-8.28,32.78,1.13.1,3.84.21,7.68.31,11.52-11.64.41-23,1.54-34.48,4.61-35.91,9.57-36.06,9-18.09,36.72,19.51,30.1,15.44,60.89-11.06,83.7-17.27,14.86-46.16,13-66.9-2.52C2876.36,2224.07,2876.92,2211.46,2870.57,2202Z" transform="translate(-807.92 -762.84)" fill="#fc909a"/><path d="M2584.77,2143.47c6.83,9.79,5.13,32.38,27.74,18.5,16.58,2.37,36,.24,16.38,27.58-7.17,10,3.24,28,17.25,35.68,15.55,8.5,23.16,20.13,18.63,37.84-5.48,21.47-23.19,15.85-37.93,16.53-22.25,1-43.8-2.9-65-9.38,3.8-3.25,23.08,3.1,8-11.61-7.22-7.05-15-15.31-26.55-16.09-12.84-17.64-7-33.3,5.08-48.3,11.21-8.83,21.69-17.95,23.61-33.65C2572.94,2153,2576.26,2146,2584.77,2143.47Z" transform="translate(-807.92 -762.84)" fill="#f9858c"/><path d="M2630.84,2360.76l-6.17-11.32c-8.29-17.54,2-19,16-20.37,58.39-5.62,115.56-17,170.14-39.34,7.49-2.33,14.28-6.25,21.33-9.56,8.87-4.18,19.35-10.38,26.4-.26,6.43,9.22-1.16,18.61-7.2,26.27-22.8,28.94-56.23,41.34-88.38,55.24-28.11,12.16-58.57,15.23-88.69,17.39C2657.91,2380,2640.62,2378,2630.84,2360.76Z" transform="translate(-807.92 -762.84)" fill="#fcf8f9"/><path d="M2630.84,2360.76c23.37,15,48.55,10.18,73.6,6.68,49.19-6.86,93.84-24.73,132.34-56.4,9.35-7.68,19.81-15.85,19.94-30.76-17.21-5-28.86,10.46-44.12,11.32q-2.28-2.08-1.64-4.31c.42-1.49.88-2.24,1.36-2.24,11.3-5.61,22.42-11.65,34-16.66,7.39-3.21,16-3.41,22.17,2.08,7.54,6.67,7.14,16.41,2.52,24.22-6.86,11.59-14.28,23.3-23.57,32.91-41.07,42.47-91.34,68.89-149.24,79.45C2661.71,2413.7,2638.05,2396.22,2630.84,2360.76Z" transform="translate(-807.92 -762.84)" fill="#d53e43"/><path d="M3111,2243l-17.8,6c-30.84-15.42-37.7-37.7-26-91.39,4.25-19.51,3.72-36.09-14.61-48l18.51-82.09c13.52,10.88,27.23,21.54,40.5,32.72,7.76,6.53,15.55,15.6,8.13,25.15-28.54,36.72-17.91,79.39-20.18,120.14-.27,4.86,1,10.6-1.08,14.42C3090.09,2235,3102.65,2237.67,3111,2243Z" transform="translate(-807.92 -762.84)" fill="#fc7d8c"/><path d="M2848.08,2719.2c-40-29.17-67.41-68.1-85.79-113.48-4-10-11.58-20.94-2.53-32.48l40.33-5.83c12.7,17.89,14.59,41.27,29.42,58.09q21,40.45,41.92,80.92C2869.32,2721,2857.69,2718.28,2848.08,2719.2Z" transform="translate(-807.92 -762.84)" fill="#5b255b"/><path d="M2812.32,2285.05c.09,2.18.19,4.37.28,6.55-51.56,27.32-108.31,33.67-164.88,40.55-11.36,1.38-24.83-1.14-23,17.29-12.63-9.45-19.65-21.73,2.69-23.2C2691.35,2322.05,2752,2304.9,2812.32,2285.05Z" transform="translate(-807.92 -762.84)" fill="#e57f71"/><path d="M1307,3328.05c33.82,17,50.81,50.73,76.11,76.19,57.43,45.35,71.2,108.74,72.39,176.94,1,55.79,2.86,112.73,29.39,162.11,23.49,43.71,27.44,92.92,49,136.36-3.36,14.13,4.34,25.72,9.23,37.78,3.55,8.74,9.61,16.68,4.29,26.74-27.43,45.47-11,93.56-6.11,139.95,7,66,12.65,131.61,2.58,197.68-1.31,8.61-1,17.65-8.44,24-63.5-64.22-122.25-132.59-177.85-203.72,20.81-37.81,59.53-67.81,48.87-119.1-10.43-50.17-19.41-100.65-24.58-151.73-5.25-51.92-12.3-103.7-16.08-155.71-7.29-100.48-18.52-200.29-41.74-298.49C1320.07,3360.11,1305.41,3346.92,1307,3328.05Z" transform="translate(-807.92 -762.84)" fill="#3d4379"/><path d="M1535.46,4305.83c-4.17-34.27,6.5-67.59,6.14-101.76-.64-60.35-10.63-119.67-16.71-179.43-3.15-31-6.12-62.84,20.6-87.19,12.91,5.38,13.94,19.42,21.22,28.89,5,6.44,5.84,20.5,20,12.46,15.6-.52,21.28,11,27.49,22.25,5.59,10.15,9.74,22.55,18.22,29.33,17.4,13.91,7.3,21.61-3.55,30.61-9.05,2.38-10-7.43-14.33-9.71,6.4,16,22.33,29.25,19.56,50.13-6.67,1.2-11.17,3.92-7.71,11.7,14.62,32.8,7.62,66.07,4.54,99.94a259.07,259.07,0,0,0,5.18,77.83c9.81,44.62,4.18,89.84,9.53,134.47.9,7.52-5.48,9.34-11.59,10.23Z" transform="translate(-807.92 -762.84)" fill="#343a72"/><path d="M1728.86,4693.26l-17.74-17.4c25.13-12.18,43-30.95,52.29-57.54l18,10.3c25.9,4.87,50.14,15.18,75.2,22.88,31.13,6.39,40.19,31.43,45.36,57.32,5.63,28.19-14.35,41.57-36.23,52.27C1816,4746.9,1769.2,4726.57,1728.86,4693.26Z" transform="translate(-807.92 -762.84)" fill="#c6c0d9"/><path d="M2788.71,1647.85c-17.53-18.78-32.43-39.65-31.68-67.41Z" transform="translate(-807.92 -762.84)" fill="#666a9d"/><path d="M2696.38,1727.73c17.61,18.65,25.36,41.19,25.44,66.79q-13.76-32.48-27.52-64.94Z" transform="translate(-807.92 -762.84)" fill="#626698"/><path d="M2694.3,1729.58c-16.43-15.94-31.47-34.35-57.82-32.76,28.16-5.65,48.39,4.09,59.89,30.91Z" transform="translate(-807.92 -762.84)" fill="#5f629a"/><path d="M2824.09,1710.63c13.94,8,19.89,21.48,19.48,38.12Z" transform="translate(-807.92 -762.84)" fill="#666597"/><path d="M1617.46,3638.37c-3.25,8-13.24,13.63-11.24,23.05,10.9,51.45-2,104.75,12.89,155.91,8.64,29.79,25.14,54.69,46.06,76.55a2209,2209,0,0,0,205.39,189.32c27.1,22,51.77,47.39,68.24,78.95,8,15.23,19,24.82,36,27.11,43.58,64.13,79.17,132.13,100.3,207.18-.06,6.26-1.32,12.11-5.64,16.94-4.16,2.81-9.05,4.55-13.7,3.29-57-15.42-108.22,3.46-158.94,25.88a26.67,26.67,0,0,1-11.23,2.25c-46-29.27-75.06-74.42-108.11-115.81-3.43-4.29-5.28-10.49-2-16.46-4.49-40.05,2.18-80.41-9.22-120.68-15.4-54.34-55.72-90.31-88.29-132-35.28-45.2-73.57-88.24-91.74-144.19-4.73-14.53-5.58-26.49,2-43.11,10.35-22.58-4.17-48.79-11.16-71.82-13-42.76-32.93-83.46-18.76-130.07,1.74-5.73.48-15.66-3.43-19.26-17-15.65-13.65-35.3-13.51-54.57,4.31-3.57,8.8-3,13.37-.6-2.3-3.32-6.18-4.1-9.52-5.49-19-7.94-33.37-22.7-50.56-33.26-1.93-18.19-8.47-35.76-6.35-54.56.94-8.36,1.62-15.57,11.9-16.67,42.67,42.88,79.35,90.49,111.78,141.46C1615.83,3630.25,1620.79,3632.22,1617.46,3638.37Z" transform="translate(-807.92 -762.84)" fill="#272f67"/><path d="M1617.46,3638.37l-5.4-10.69c31.85,4.49,56.85,21,82.72,43.68-20,6.26-28.14-10-41.24-10.88Z" transform="translate(-807.92 -762.84)" fill="#aeafd0"/><path d="M1736.35,3695.6c15.7.78,29.12,5.81,44.07,21.21C1758.21,3716.09,1746.23,3707.85,1736.35,3695.6Z" transform="translate(-807.92 -762.84)" fill="#aeaed6"/><path d="M1818.57,3740.66c14.48-.57,26.65,3.13,38.55,21.79C1836.79,3758.77,1826.31,3752.37,1818.57,3740.66Z" transform="translate(-807.92 -762.84)" fill="#b5b8da"/><path d="M1774.78,2560.1c-1.83,15.47-22.71,18.82-22.6,35.52-25.76-5.41-40.29,14.68-58,26.54-10.85,7.28-19.65,17.64-33,22.4C1680.09,2580.51,1727.6,2545.47,1774.78,2560.1Z" transform="translate(-807.92 -762.84)" fill="#f97d81"/><path d="M1736.33,2484.61a12.86,12.86,0,0,0-.06,5.42c-51.67,19.79-86.1,57.49-110.09,106C1625.63,2547.76,1682.19,2490.54,1736.33,2484.61Z" transform="translate(-807.92 -762.84)" fill="#ef7978"/><path d="M4154.69,1478.94c-93.23,26.69-186.11,54.71-279.79,79.72-93.29,24.91-147.22-6.26-173.93-99.31-8.88-31-24.22-60.85-21.44-94.59,31.17.25,49.82,24.48,73.85,38.44,18.36,31.85,50.31,42.67,82.48,53.15,81.68,49.4,192.77-1.56,220.13-100.25,10.28-37.08,8-72.88-4.48-108.64-3.51-10-8.55-19.76-6-31,15.77-9.31,37.38-5.89,49.81-22.69,10.1-.93,16.47,5.66,23.31,11.38,8.85,9,17.08,18.75,27,26.39,56.14,43.4,62.88,102.54,56.16,167.27C4198.16,1433.52,4176.66,1456,4154.69,1478.94Z" transform="translate(-807.92 -762.84)" fill="#db4b80"/><path d="M4154.69,1478.94c-8.72-12.12,5.19-15,9.58-19.94,45.41-51,45.73-147.92-.64-197.87-17.12-18.43-35.27-35.9-52.95-53.81,27.65-9.68,48.49,9,71.87,17.15,22,7.54,40.61,20.72,58.17,35.55,26.62,16.28,52.25,34.14,79.89,48.79,15.19,8,26.88,6.33,38.39-7.51,27.43-33,55.39-65.46,78.86-101.63,16.93-26.1,29.21-27,50.73-4.44,29.28,30.68,42.94,69.27,51.54,109.83,7.31,34.53,6.93,34.56,34.22,14.3,6.08-4.52,11.75-11,20.71-6.22,1.47,4.36,1.44,8.51-1.59,12.27-25.92,40.48-69,51.46-111,63.23C4373.36,1419.25,4264,1448.9,4154.69,1478.94Z" transform="translate(-807.92 -762.84)" fill="#3e80b2"/><path d="M4095.55,1195.2c-8.36,25-24.51,29.79-47,18.1-18.05-1.82-23.57-21.16-38.45-27.44-13.76-21.16-32.65-32.78-58.55-31.42-28.56-6.61-57.3-12-86.76-9-48.85,4.81-86.49,27.43-110.25,71.19-12.56,23.11-17,47.14-9.81,73.25,3.75,13.6,10.45,28-.41,41.86-25.45,1.35-50.9,4.47-76.35.13-20.91-45-32-92.15-29.84-142,12.24-40,41.51-63.87,77.07-81.87,91.18-25.54,182.1-52,273.63-76.22,45.71-12.08,89.68-31.13,137.39-35.44,1.93,11.27-6.15,17.6-12.41,24.68-45.62,51.63-51.83,99.79-20.51,160.56C4095.54,1185.85,4097.37,1190.21,4095.55,1195.2Z" transform="translate(-807.92 -762.84)" fill="#df588d"/><path d="M3668,1331.82c25-10.68,50.57-9.49,76.33-3.34,14.7-7.57,27.17,9.3,43.22,3.64.5-14.77-7-27.6-11-41.15-6.46-22.28-5.69-42.84,14.54-57.62s40.25-9.69,59.54,3c14.61,9.64,28.45,20.18,40.3,33.19,4.15,23.52-11.5,37.78-25.73,51.74-20.06,19.68-43.71,35-67.41,50-17.19,10.85-32.75,23.74-48.7,36.18l-69.57-42.72C3670.48,1355.6,3656.73,1348.1,3668,1331.82Z" transform="translate(-807.92 -762.84)" fill="#ebc5d2"/><path d="M4593.47,1325.41l-.33-13.23c13.56-74.53-9.19-143.65-31.6-212.84-14-43.26-21.22-88.71-42.2-129.75-3.56-7-4.44-14.87-.61-22.47,12,8,17.68,21,25.28,32.44,25.42,82.68,50.33,165.53,70,249.81C4622.19,1264.34,4616.61,1296.88,4593.47,1325.41Z" transform="translate(-807.92 -762.84)" fill="#3e5c9e"/><path d="M1881.23,4438.3c31.35-9.1,60.36-24.72,92.82-31.17,32.31-6.42,63.37-3.57,94.48,5.15,15.41,22,36.08,42,27.89,73.09-18.08,12.57-38.78,10.42-59.06,10.6-57.21,2.76-103.84,30.16-147.86,63.64-31.22-7.16-47.49-32.2-65.63-55,7.74-29.15,37-38.54,54.15-59.1C1877.94,4442.58,1877.47,4439.5,1881.23,4438.3Z" transform="translate(-807.92 -762.84)" fill="#fcb3a6"/><path d="M1823.87,4504.6c24.3,13.59,39.12,38,61.42,53.85,30.33,17.24,56.88,37.62,62.83,75.26-25.43,34.88-60.53,30.63-96.27,23.81-23.42-9.77-51-9.37-70.42-28.9-25.21-40.94-5.63-75.89,15-110.58C1802.46,4507.82,1812.57,4504.71,1823.87,4504.6Z" transform="translate(-807.92 -762.84)" fill="#10164b"/><path d="M1529.61,3883.91c-24.52-64.59-51.52-128.39-72.44-194.13-9.44-29.69-9.35-63.25-9.1-95,.56-71.54-15.67-136.43-65-190.52,41.64,18.4,102.49,108.44,96.35,159.71-9,75,9.94,143.89,31.44,213.21,8.61,27.76,19.13,54.93,29.16,82.22a114,114,0,0,1,7.14,48.54C1532,3906.76,1530.65,3895.44,1529.61,3883.91Z" transform="translate(-807.92 -762.84)" fill="#343a72"/><path d="M1881.23,4438.3l-3.23,7.22c-41-26.28-69.45-64.68-98-102.76-38.64-51.43-71.28-106.68-102-163.1-2.6-4.78-6.31-9.84-.63-21.87,35.39,53,60.73,107.92,98.17,154.74C1803.68,4360.4,1843.9,4398.13,1881.23,4438.3Z" transform="translate(-807.92 -762.84)" fill="#acadd4"/><path d="M1529.61,3883.91l17.57,24c9.43,25.72,23,49.11,39.55,70.88.61,4.71,3.11,10.44-1.76,13.51-6.81,4.29-11.46-2.23-13.91-6.46-9.14-15.78-17.14-32.21-25.57-48.4C1543.49,3918.62,1517.77,3906.84,1529.61,3883.91Z" transform="translate(-807.92 -762.84)" fill="#b3b7d6"/><path d="M1634.12,4101.41c-6.59-23.2-26-41.23-30.32-68.17,19,3.37,15.21,21.17,25.09,27.75,3.78,24,24.53,40.44,25.48,67.22Z" transform="translate(-807.92 -762.84)" fill="#b4b6d3"/><path d="M1494.73,3557.45c31.41,7.24,51.06,34.73,81.06,45-14,7.36-23-4.72-34.35-5.66C1527.3,3582,1501.62,3580.87,1494.73,3557.45Z" transform="translate(-807.92 -762.84)" fill="#abaed4"/><path d="M3017.24,2098c-26.28,6.32-53.19,10.77-78.6,19.57-17.58,6.09-32.77,8.66-48.57-2.12,1-20.57-20.7-44.12-6.71-58.41,11.56-11.81,38.27-8.47,58.12-12.59,14.05-2.91,27.85-7.07,41.76-10.67,16.84-2.76,27.54,1.21,29.55,21.13C3014.23,2069.26,3019.63,2083.21,3017.24,2098Z" transform="translate(-807.92 -762.84)" fill="#fcb3ab"/><path d="M2296.45,3501.31c-33.15,10.1-63.86,27.64-98.77,32.42-7.18-12.14,4-19.74,8-28.49,32.92-73,38.16-149,29-227.59-5.61-48.29-17.26-95.05-27.57-142.29-3.59-16.46-7.58-37.7,19.67-41.75,19.74,25.68,51.87,33.65,75.95,53.14,21.28,6,30.21,23.17,37.56,41.72,10.22,25.77,13,53.13,15.05,80.26a1354.13,1354.13,0,0,1,.16,204.31C2337.9,3486.85,2315.23,3490,2296.45,3501.31Z" transform="translate(-807.92 -762.84)" fill="#d94559"/><path d="M1851.85,4657.52c33.81-2.43,70,2.6,94.23-30,3.49-7.91,10.11-9.36,17.78-8.7,57.53,1.53,74.74,48,97.77,88.16-.49,3.59,4.51-1,.84.32-.18-25.56,17-42.06,31.26-60.14,14.24-11.07,30.87-15.76,48.37-18.2a35.87,35.87,0,0,1,8.75,1.05c23.68,5.8,42.11,19.58,57.6,37.88,10.54,14.12,19.41,29.51,23.51,46.47,4.91,20.25,16.45,25.41,35.95,24.41,16.57-.84,35.61-5.73,48,12.22.69,8.74-5.78,12.12-12.1,14.27-56.91,19.37-104.06,56.57-155.6,85.64-55.05,31-110.16,62-166.19,91.14-22.26,11.59-44.93,23.54-71.55,22.52-11.25-.44-20.64,4.35-28.3,12.79-8.31,9.15-17.7,15.39-30.63,8.72-99-18.63-198-37.91-297.15-55.57-39.11-7-78.86-10.34-118.32-15.35,18.25-28.59,46.29-44.4,75.92-58.14,78.81-17.41,158.46-26.29,239.25-23.7,6.81.22,13.72.27,19.13-5.06,37.32-5.08,63-24.75,76.81-60.15,2.45-6.27,10.22-8.24,16.62-10.42,40.57-33.65,39.21-35.57,19.68-80.86C1875.91,4659.3,1859.22,4668.51,1851.85,4657.52Z" transform="translate(-807.92 -762.84)" fill="#fcfafb"/><path d="M1851.54,4986.11c1.94-.17,4.66.44,5.7-.61,39.44-40.22,99.79-30,144.29-61.35,43.34-30.52,92.6-52.7,139.48-78.13,57.72-31.32,110.15-72.48,173.51-93.31,27.72-8.81,48,5.37,60.22,42.14-1.45,15.92,8.33,35-12.7,45.45-3.95-19.47-12.64-7.48-20.14-3-66.64,39.72-132.86,80.14-200,118.91-37.77,21.8-73.06,48.21-114.2,63.84-7.22,2.75-9.73,4.9-6.1,11.82Z" transform="translate(-807.92 -762.84)" fill="#fddde5"/><path d="M2742.53,2086.52c13.07,7.85,22.62-.29,33.28-6.43,19-10.94,39.29-28.26,61.19-15.77,22.19,12.64,23.36,38.58,22.31,62.43-.55,12.35,2.74,25.36-5.2,36.71-.82-9.6-.72-19.65-11.66-24.41-7.36-11.4.76-25-5.17-36.65-2.78-5.45-5.75-10.66-12.83-8.89-5.56,1.38-6.89,6.71-6.79,11.61.33,15.61-6.06,34.56,18.17,39.13,1.27,6.38,2.53,12.77,5.16,26.07-21.29-24.22-42.16-20.76-65-15-27,6.88-38.87-5.54-32.77-33C2746,2109.85,2750.26,2098.38,2742.53,2086.52Z" transform="translate(-807.92 -762.84)" fill="#f99c9d"/><path d="M2584.77,2143.47c-10.32,17.82-.9,47.3-31.43,53.17-18.86-18-13.17-37.87-4.18-57.92,14.9-14.41-2.41-10-7.44-12.73-29.12-9-33.79-37.26-10.35-62.62,24.69-6.4,46.64,6,69.77,10.25q.36,3.84.74,7.69C2593.75,2101.36,2577.85,2119.28,2584.77,2143.47Z" transform="translate(-807.92 -762.84)" fill="#f3a4a5"/><path d="M2835.83,2144.25h-30.24c4.78-12.65,10-22.9,4.47-34.65-6.4-13.68-.09-23.35,12.87-26.95,15.48-4.29,20.1,8,23.09,19.62a53.2,53.2,0,0,1-3.57,36.78Z" transform="translate(-807.92 -762.84)" fill="#783b56"/><path d="M2707.3,2053.25c28.27-14.47,59.06-4.49,88.79-9.29-24,16.86-49.11,30.12-77.5,36.55C2707.68,2074.39,2712.18,2061.88,2707.3,2053.25Z" transform="translate(-807.92 -762.84)" fill="#e17e83"/><path d="M2355.48,3473c-6.84-9.46-5.43-20.37-5.62-31.06-1.2-67.12,3.44-134.38-6-201.31-5-35.37-14.28-68.39-41.2-93.92,37.11-6.6,64.78-34.22,100.29-44.85,19.79-5.92,37.05-7,52.33,8.88,4.74,62.2,12.15,123.87,39.21,181.2,4.22,8.94,4,22.08,18.48,23,8.41,30.07,7.91,58.93-11.5,85.24C2451.37,3421.57,2406.75,3454,2355.48,3473Z" transform="translate(-807.92 -762.84)" fill="#fe5e4f"/><path d="M1616.34,2133.09c20.54-.14,50.28,28,51,48.24.57,16.16-30.83,44.72-49.43,45-27.31.35-58.45-29-58.24-54.86C1559.84,2150.35,1585.05,2133.3,1616.34,2133.09Z" transform="translate(-807.92 -762.84)" fill="#1b234a"/><path d="M1758,2141.5c12.84,12.39,17.36,29.79,26.7,44.3C1765.43,2177.29,1761.77,2159.36,1758,2141.5Z" transform="translate(-807.92 -762.84)" fill="#7e8ab2"/><path d="M1887,2367.1l17.86,37.39-4.85,2.69-22.2-39.94Z" transform="translate(-807.92 -762.84)" fill="#8e8eb8"/><path d="M2501.52,3400.25q5.74-42.61,11.5-85.24c25.05-188.53,72.23-369.69,176.85-531.75,15.5-2.79,22.27,10,31.12,18.18,26.37,24.37,56.89,40.59,91.33,50.34,17.52,4.95,28.21,2.82,29.35-18.45.61-11.52,3.27-23.28,11.63-32.49l7-1.32c22.78-.72,17.31,16.56,17,28.63-.87,31.51-1.41,32,30.51,29.23,68.62-6,133.31-28.23,198.29-49.08,56.62-18.17,111.76-40.9,169.6-55.33,34.34-8.56,37.76-4.6,38.09,30.48.39,41.32,12.74,80.54,26.2,119.3,4.89,46.26,13.16,92.24,11.4,139-20.78,35.67-47.12,64.22-90.42,72a72.09,72.09,0,0,0-29.43,12.7c-83.13,60.57-175.95,104-266.51,151.43-24.14,12.65-45.76,29.82-70.59,41.49-19.92,9.36-28.36,25.14-27.58,47.14.61,17.51,1.16,35.13-.86,52.62-.92,8-3.22,15.68-12.58,17.63-7.74,1.62-13.25-2.43-16.94-8.73-9.74-16.65-23.18-15.1-37.84-8.08a861.46,861.46,0,0,0-153.62,95c-29.94,23.06-64.25,37.14-99.71,47.21-29.16,8.27-41-.29-54.53-28.87C2489,3488.5,2497.3,3444.54,2501.52,3400.25Z" transform="translate(-807.92 -762.84)" fill="#fe985d"/><path d="M2853.3,2800.84c-2.05,17.3-4.14,34.59-6.11,51.9-1.72,15.07-11.38,12.45-21.5,10.16-44.52-10.11-84.53-28.36-116.19-62.47-5.88-6.34-13.05-11.48-19.63-17.17l5-11.89c38.15,14.55,77.27,24.57,118.43,23.61C2827.12,2794.67,2840.21,2797.26,2853.3,2800.84Z" transform="translate(-807.92 -762.84)" fill="#fa5c4a"/><path d="M3881.06,2882.34c-14.37-5.23-24.93-3.11-17.85,14.7,9.59,24.11,3.09,44.17-7.79,65.87-63.33,126.31-121.69,255.16-193.57,377.08-5.56,9.43-12.66,17.61-22.26,22.51-20.19,10.28-21.66,25.35-13,43.79-17.51,4.85-25-9.94-35.94-18.18-67.91-69.06-107.74-152.36-123.45-247.28-13.38-80.82-23.92-161.94-12.59-244.14,1.34-9.68,1.24-19.52,7.15-27.93,7.2-6.91,11.06-15.68,14.68-24.86,37.22-94.44,123.34-146.79,226.66-138.06a31.3,31.3,0,0,0,5.71.56C3772.26,2759.16,3830.31,2817.18,3881.06,2882.34Z" transform="translate(-807.92 -762.84)" fill="#fe985d"/><path d="M3703.14,2705.84c-65.38,7.49-127.95,21.58-177.65,69.71-19.54,18.92-30.93,41.75-40.23,66.58-3.84,10.26-3,24.14-17.09,28.57-9.3-9.73-8-21.83-5.85-33.14,8.66-45.17,23.36-88.46,43-130,3.77-8,8.85-15.22,18.05-18,14.87-12.27,32.41-12.16,50.2-10.81C3616.89,2687,3660.84,2692.5,3703.14,2705.84Z" transform="translate(-807.92 -762.84)" fill="#f25d50"/><path d="M4518.73,947.12c38.42,84.26,57.69,174.55,81.8,263.24,9.24,33.94,11.58,69.1-7.39,101.82-48.39,42-48.15,41.89-63.86-20.9-9.05-36.19-23.12-69.79-50.38-96.86-13.19-13.1-22.13-12.51-31.6,3.54-24.28,41.16-57,75.89-86.45,113.13-12,15.2-22.82,16.1-37.17,7.46-29.1-17.53-58-35.44-86.94-53.19,9.69-33.32,34.89-55.45,57.37-79.56,28.14,1.45,39.72,25.25,55.47,42.55,11.83,13,18.91,11.48,25-3.29,24.72-60.18,60.52-114.72,87.77-173.54.77-10.85-6.48-15.59-14.84-19.26-113.81-49.89-227.93,29.42-242.52,127.33-1.94,13,2,25.08,3.32,37.59,2,18.49-1.95,33.23-24.87,33.56-24.66-6.49-47-20.21-72.71-23.42l-15.15-12.12c-49.26-56.78-37.47-143.58,30.66-199,94.42-29.81,189.14-58.86,285.74-80.55C4451.22,906.89,4489.69,914.42,4518.73,947.12Z" transform="translate(-807.92 -762.84)" fill="#6fc9f2"/><path d="M3333.34,2900.36c-18.46-41.1-31-83.63-25.34-129.17,2.21-17.82-3.8-16.8-17.61-13.75-58.11,12.85-113.16,35.26-169.25,54.07-77.51,26-155.24,49.55-236.87,58.15-27.34,2.88-17.84-16.52-17.19-29.16.75-14.39,13.46-30.18-6.77-41,42.37-7.33,84.74-14.54,127.05-22.11,4.44-.79,8.51-3.72,12.74-5.66q104.87-21.91,209.71-43.89c39.67-8.37,79.17-17.62,119-25.24,10.18-2,23.95-7.34,29.23,9.38,5.45,8.65,1.39,15.61-3.88,22.38-39,26.76-21,66.42-21.83,101.29-.27,11.9,3.52,24.81,7.5,36.85C3341.07,2882.6,3342.25,2892.67,3333.34,2900.36Z" transform="translate(-807.92 -762.84)" fill="#fb5c4e"/><path d="M2536,1138c-41.74-35.14-40.55-79.14-26-125.93,5.65-7.76,13.33-14.21,15.3-24.25,60.86-49.66,133.39-42.52,171.71,16.2,18,27.56,19.22,56,9,86.14-45.6,15-90.47,32-135.94,47.36C2558.94,1141.24,2547.37,1141.17,2536,1138Z" transform="translate(-807.92 -762.84)" fill="#f6e2e9"/><path d="M2625.41,862.18c26.07-33.35,54.61-31.13,73.56,6.29,7.44,14.7,12.21,30.75,19.78,45.36,11.13,21.52,5.51,34.87-17.26,41.75C2646.13,955.47,2621.38,925.07,2625.41,862.18Z" transform="translate(-807.92 -762.84)" fill="#f9fcfc"/><path d="M2536,1138c39-6.62,75.25-22.24,111.67-36.42,19.35-7.54,37.87-12.84,58.37-11.42l12.86,1.4a1356.19,1356.19,0,0,1-159.49,56.62C2554.87,1137.14,2541.18,1147.29,2536,1138Z" transform="translate(-807.92 -762.84)" fill="#bdc7dd"/><path d="M2525.21,931.29C2495,930,2480,911.56,2472.69,884.55c16.81-10.69,32.94-8.37,46.12,5.31C2529.93,901.41,2536,915.51,2525.21,931.29Z" transform="translate(-807.92 -762.84)" fill="#edf7f9"/><path d="M2625.41,862.18c1.44,3.59,4.44,7.35,4.09,10.76-5.44,53.36,31.69,69.33,72,82.64-32.56,16.56-53.73-5.49-72.1-25.08S2607.89,886.05,2625.41,862.18Z" transform="translate(-807.92 -762.84)" fill="#bdd3dd"/><path d="M1863.8,4757.72c-6.79,9.33-17,17.76-19.77,28.16-10.5,40.16-37.56,48.4-73.67,42.41-18.51-.18-37-.14-55.54-.61-27-.69-43.11-19.84-37.73-46.35,7.12-35.07,21.7-66.25,51.77-88.07Z" transform="translate(-807.92 -762.84)" fill="#a1c7e4"/><path d="M908.53,2549,896.89,2543c-6.06-10.12-6.1-18.4,1.91-29,15.35-20.36,33.19-38.11,51-56.08,16.42-16.6,29.82-13.71,36.62,7.81,8.42,26.63,7.33,53.95-3.88,79.78-6.49,15-20.06,17.29-34.69,13.52C934.73,2555.67,922.69,2548.19,908.53,2549Z" transform="translate(-807.92 -762.84)" fill="#fe7e56"/><path d="M5028.79,3738.16c-31-.13-47.73-12.19-48.31-34.79-.71-27.56,14.44-40.59,48.09-41.35,5.85-.14,11.84.55,17.53-.47,31.92-5.72,35.46-2.7,33.63,30C5078,3722,5060.26,3738.29,5028.79,3738.16Z" transform="translate(-807.92 -762.84)" fill="#fe8f5c"/><path d="M2549.16,2138.72c3.92,19.12-4.92,39.18,4.19,57.93-13.19,13.14-11.76,29.48-10,45.88-33.31-13.84-55.21-37.68-64.5-72.87-4.27-16.18-2.18-25.76,18.29-24.74C2514.54,2145.8,2532.27,2144.56,2549.16,2138.72Z" transform="translate(-807.92 -762.84)" fill="#f3f1f4"/><path d="M2531.37,2063.37c-6,22.44-17.37,45.76,10.36,62.62-13.56.85-27.14,1.38-40.66,2.61-27,2.45-29-.36-17.94-26.75C2492.16,2080.22,2504.84,2063.09,2531.37,2063.37Z" transform="translate(-807.92 -762.84)" fill="#f6f4f7"/><path d="M3567.63,4597.11c-44.57,21.58-90.11,40.49-138.87,50.51,5.55-23.36,12.58-46.27,10.8-71.05-3.15-44.07-31.53-75.89-75.28-82.8-38-6-75.12,1.82-112.55,5.42-122.95-69.37-183.64-180.45-210.59-314.2,9.19-25.47,33.14-38.54,49.07-58.37,73.23-82.72,148.82-163.58,208.15-257.49,20.69-32.76,41.38-65.66,55.25-102.21,35.86-72.05,57-147.51,54.69-228.73-.26-9.21-.08-20,11.87-23.92,12.36,7.54,12.89,21.06,16.15,32.95,15.13,55.33,30.14,110.69,48.8,165,16.47,55.23,43,106.41,64.63,159.54,4,9.72,11.29,18.57,8,30.21,15,32.59,28.3,66.06,51.36,94.24,44,36.67,87.64,73.87,133.51,108.32,27,20.31,19.28,50.84,21.44,78.38.07,45.8,2.13,91.64-3.95,137.21-11.6,55.58-30.06,108.65-59.13,157.66-6.87,11.57-13.12,24.24-27.56,28.78A440,440,0,0,1,3567.63,4597.11Z" transform="translate(-807.92 -762.84)" fill="#272e66"/><path d="M3673.4,4506.51c33.74-47.51,58.27-99.22,70.65-156.35,2.11-9.71,6.58-17.88,12.4-25.6,22.94-25.3,45.08-51.37,70.84-74,46.51-15.16,84.15-41.82,116.14-79.56,51.36-60.62,87.91-128.1,110.46-204.07,5.83-19.64-1-41.47,12.19-59.26l87.82-40.56c-1.88,59.11-20.25,114.32-40.56,168.94a1381.72,1381.72,0,0,1-154.89,299.85c-3.44,5-9.85,10.54-3.77,18.05-8.12,8.35-22.46,6.08-29.06,17-78.49,36.13-149.62,85.16-224.42,127.75C3692.72,4503.54,3685.79,4515.13,3673.4,4506.51Z" transform="translate(-807.92 -762.84)" fill="#d2bed1"/><path d="M3557.73,3901.92c-29.52-60.85-60.09-121.27-77.65-187.09,19.36-23.71,47.16-35.21,72.71-49.87,12.5-7.17,25.69-13.13,38.42-20,45-23.88,93-40.71,140.42-59,20.54-9.07,42.29-14.18,63.94-19.65,16-1,30.92-16.15,47.95-3.76,19.32,55.25-4.35,103.16-33.37,145-49.25,71-112.28,129-196.82,156.36C3589.73,3871.57,3575.42,3888.13,3557.73,3901.92Z" transform="translate(-807.92 -762.84)" fill="#fe8958"/><path d="M4066.08,3907.67c1.8,89.4-40.43,162.24-88.77,232.24-32.82,47.53-71.69,88.89-127.08,111.59-8.53,3.5-14.78,8.62-23.39,2.28-4.07-6.6-2.22-13.35.43-19.54,33.62-78.33,36-162.13,43.07-245.11.82-9.63.17-19.53,7.12-27.54C3941.3,3947,4003.77,3927.62,4066.08,3907.67Z" transform="translate(-807.92 -762.84)" fill="#beb0cc"/><path d="M3843.52,3562.59l-46.74,11.22c-3.91-10.86-11.39-20.4-12.09-32.45,19-28.34,55.77-27.15,79.72-47.7,9.29-8,21.18-12.93,31.88-19.26,25.43-5.89,47.68-19.8,74.09-24.89,56-10.79,101.32,5.47,140.68,43.64,28.67,27.8,56.67,56.29,84.7,84.74,5.78,5.87,15.51,12.38,7.49,21.82-6.56,7.73-14.62.42-21.14-2.77-70.79-34.7-145.07-55.72-224.32-51.48C3919.45,3547.51,3880.63,3550.45,3843.52,3562.59Z" transform="translate(-807.92 -762.84)" fill="#d44258"/><path d="M3877.46,3961.59c-2.89,99.82-4.33,199.89-50.62,292.19-19.64,27.4-38.65,55.41-70.39,70.78-15.61-14.19.39-28.85-.2-43.37-1.43-34.67-.06-69.44.18-104.17,33-49.42,35.7-105.89,38.08-162.51.64-15.05-3.44-32.06,14.12-41.5Z" transform="translate(-807.92 -762.84)" fill="#0c1048"/><path d="M3808.63,3973c-14.29,37.17-3.77,76.74-11.24,114.71-6.56,33.31-8.73,68-41,89.29,6.53-43.18-14.66-68.7-49.7-91.73-36.65-24.1-73-50.84-97.64-89.12C3676,3991.82,3742.62,3985.08,3808.63,3973Z" transform="translate(-807.92 -762.84)" fill="#c1325e"/><path d="M3732.08,3592.33l-140.21,57.5c-8-5.26-10.09-13.87-12.6-22.19-24.3-80.72-43.69-162.72-64.08-244.46-2.1-8.42-4.25-17-1-25.7,7.45-6,15.41-3.66,21.51,1,19,14.58,42.18,19.14,63.58,27.94q13.66,9.92,27.34,19.83c27.42,34.07,63.42,59.19,93.76,90.21C3735.27,3527.09,3727.47,3560.46,3732.08,3592.33Z" transform="translate(-807.92 -762.84)" fill="#af305e"/><path d="M3732.08,3592.33c-21.28-29.83-8.09-63.86-11.69-95.85,22.85,12.92,38.66,35.93,64.3,44.87,4.08,10.81,25.95,15,12.09,32.46Z" transform="translate(-807.92 -762.84)" fill="#160f3d"/><path d="M3046.88,4183.34c21.82,81.65,45.71,162,105.62,226.27,30.61,32.85,67.29,58.48,99.23,89.58l-23.11,7.11c-48.33,6.89-93.93,24.05-140.27,38.14-20.33,6.18-12.74-6.7-13.12-15.09-27.79-62.08-64.75-87.18-118.33-78.88-26.94,4.17-52.77,12.86-77.53,24.42-7.92,3.7-15.57,7.94-23.42,11.77-4.37,2.19-9,5.5-13.56,5.14-41.3-3.23-63.77,24.23-89,50.53-72.21,75.25-147.47,147.41-231.64,209.55-30.19,22.29-63.72,37.63-100.59,45.06-16.18,3.25-32.67,6.6-48.36-2.5-6.15-11.53,1.09-19.91,6.77-28.66,9.92-15.28,19-30.95,21.64-49.4,6.9-29.64,28.65-48.71,49-68.83,18.23-18.29,43.6-24.76,64.36-39.26,102.84-71.82,197.17-154.46,296.12-231.21,9.19-7.13,18.71-13.91,27.31-21.81,64.52-49.85,121.08-108.86,184.3-160.21C3029.41,4189.25,3035.07,4179.64,3046.88,4183.34Z" transform="translate(-807.92 -762.84)" fill="#131a4f"/><path d="M2372.47,4791.91c77.23,6.15,135.07-34.27,189.87-80.42,77.36-65.14,150.47-134.85,218.47-209.78,8.33-9.18,17.07-15.74,30.15-13.56,15,2.5,28.68-2.51,42.33-7.63,2.7,1.07,5.27,2.51,8,3.45,59.33,20.5,73,52.14,44.63,108.34-21.33,42.25-53.55,75.24-93.5,100.63-33.84,17.16-60.44,44.39-91.34,65.7-94.13,64.91-189.67,127.08-295.33,172.35-23.61,10.12-50.06,17.95-64.23,43-7.84.19-11.21-4.29-12-11.47q6.26-61.12,12.52-122.24c9.86-15.27,3.22-32.48,5.7-48.62C2369.42,4789.65,2371,4789.83,2372.47,4791.91Z" transform="translate(-807.92 -762.84)" fill="#9ea4cd"/><path d="M2812.42,4692.94c22.35-30.87,55.74-51.67,76.24-84.37,9.45-15.07,17.11-30.74,21.52-47.73,8.59-33.12-3.78-54.78-36-65.11-8.63-2.76-20.84-.66-20.93-15.2,48.38-26.61,97.78-48.32,155.16-33.51,44.36,11.45,68.52,41.06,66.78,82.33-3.92,2.85-7.44,6.72-11.81,8.38-59.36,22.54-104.47,65.26-151.68,105.37-24.36,20.7-52.88,35.72-81.61,49.84C2824.39,4695.76,2818.31,4701.34,2812.42,4692.94Z" transform="translate(-807.92 -762.84)" fill="#77a3ca"/><path d="M2842,4359.27c-62.33,50.62-124.23,101.78-187.13,151.69-48.59,38.56-96.72,77.75-148.94,111.64-16.11,10.45-36.71,13.13-49.27,29.26-29.13-34.77-55.23-71.91-84.06-107-20.68-25.14-46.46-43.67-70.64-64.43-17.6-15.11-34.86-20.17-52.29.54-3.1,3.67-8.59,4.18-13.66,3.5-67.37-22.35-75.48-65.36-54.31-107.47,10.33-20.56,25.89-38.36,44.5-52.77,35.22-18,62-47.6,94.65-69.29,30.33-20.13,58.36-43.75,87.41-65.83,14.55-8.5,24-24.13,41-29.26,59.27,22.28,116.13,48.58,164.8,90.54,30.95,26.67,70.62,41.1,100.83,69.11,6.57,1.71,13.67-.67,20.05,2.54,17,34.63,43.79,45,80.34,33.19C2824.12,4352.38,2834.19,4350.79,2842,4359.27Z" transform="translate(-807.92 -762.84)" fill="#262d64"/><path d="M2069.74,4394.52c-21.57-62.06-52.12-119.89-83.23-177.5-4.71-8.74-13.66-16.08-11.67-27.76,76.44,51.39,158.88,92.07,240.32,134.52,1.73,10.06-7.22,12.49-12.53,17.45-17.05,15.94-33.28,32.68-39.22,56.09-6,23.62-22.42,31.17-43.71,27.32C2099.93,4421.06,2072.14,4427.93,2069.74,4394.52Z" transform="translate(-807.92 -762.84)" fill="#f0dbe4"/><path d="M2069.74,4394.52c14.82,27.74,41.92,22.2,65.72,22.84,20.82.56,16.18-19.11,22.16-31.38,12.63-25.91,30.4-48.85,57.54-62.2l11.05.47c3.82,8.28-2.72,12.39-7,17.4-8.86,10.36-18.51,20.13-26.45,31.15-26.58,36.92-19.64,69.37,19.07,92.7,9.05,5.46,18,11.11,27,16.67,8.11,17.29-7.61,26.27-13.85,38.32-4.88,9.42-11.25,18.17-17.46,26.89a36.18,36.18,0,0,1-9.25,8.63c-9.22,5.16-19.08,6.85-26.12-2.26-21.3-27.54-50-47.37-73.8-72.24-6.73-24.45-26.09-43.47-29.76-69.24Q2069.13,4403.4,2069.74,4394.52Z" transform="translate(-807.92 -762.84)" fill="#b2badb"/><path d="M2490.78,3533.27c27.3,28.36,41.31,28.54,78.81,13.46,61.06-24.56,108.65-69.89,164.74-101.83,23.67-13.48,48-26,72.72-37.39,15.23-7,28.74-3.46,34.57,14.48,1.92,5.91,3.42,11.9,11.24,9.67,7.19-2,6.51-8.88,6.58-14.58.18-16.58,1.7-33.35-.25-49.69-3.43-28.88,11.33-42.82,34.41-57.32,88.94-55.84,188.34-92.57,275.19-151.76,37-25.23,72.81-50.86,118.16-60.5,15-3.17,30.18-14,36.87-30.93,4.29-10.88,12.93-16.68,23.32-20.56,18.67,13.79,15.49,32.88,12.64,51.9-21.54,6.54-31.14,22.85-39.14,42.84-19.33,48.31-28.43,98.86-36.79,149.71-1.41,8.58-1,17.55-5.94,25.29a20.2,20.2,0,0,1-15.53,6.89c-85.24,0-142,49.6-192.51,110.2-8.12,9.76-15.91,19.72-28.87,23.46-53.18-3.91-106-10.63-159.72-10-125.32,1.48-224.85,54.13-305.82,146.55-23.15,26.43-42,55.94-60.39,85.88-8.22,13.42-15.08,30.5-35.77,29.83q-.35-38.23-.7-76.47C2491.92,3600.49,2477.63,3565.19,2490.78,3533.27Z" transform="translate(-807.92 -762.84)" fill="#fd7d55"/><path d="M2479.3,3708.87c17.46-10.64,26.42-28.27,36.29-44.95,71.75-121.23,173.3-202.72,314.85-222.24,61.12-8.43,124.46-7.07,186.17,6,8.51,1.81,17.25,2.57,25.88,3.82,5.74,13.36-3.61,22.4-10.53,30.75-27.69,33.39-49.11,71.13-75,105.77-34.1,49.9-67.43,100.32-102.33,149.67-7.84,11.07-14.27,23.51-28,29-34.61,8.32-69.4-1.31-104.5,1.79-71.88,6.33-136.27,29.64-195.41,69.74-7.79,5.28-14.05,14-25.36,11.83-10.57-1.61-21-3.53-28.7-12Z" transform="translate(-807.92 -762.84)" fill="#fe5c54"/><path d="M2842,4359.27c-12.94-2.42-24.86,2.9-36.78,5.93-37.47,9.5-61.28-1.91-74.32-41.09-12.26-17.84-10.59,8.09-17.93,5.71-13.84-19.73-35.94-28.11-55-40.85-52.89-35.29-102.69-75-160.16-103.73-16-8-40.81-1.6-48.55-25.37,25.63-25.51,53.7-47.76,83-69.18,54.64-40,102.38-88.1,149.44-136.69,4-4.11,8.9-7.31,13.39-10.93,21.68-.11,27.22,19.73,36.82,32.45a133.28,133.28,0,0,0,45.8,39c40.38,21.18,80.65,43.07,113.4,75.38,18.46,18.21,45.12,21.13,63.72,38.15-.6,9.82-7.44,15.72-14.47,20.68-29.23,20.68-54.39,46.35-83,67.71,19.7-14.09,37.29-30.79,56.07-46,9.16-7.43,17.65-15.4,30.77-13.15,28.74,19.74,65.43,17.3,97.27-3.54,15.81-10.34,27.39-32.67,52.32-23.09q-23.43,26.34-46.84,52.7c-55.33,48.54-111,96.74-165.76,145.88C2868.74,4340.33,2855.53,4349.88,2842,4359.27Z" transform="translate(-807.92 -762.84)" fill="#31386e"/><path d="M3093.72,4130.64c-21,1.78-35.62,16.83-48.41,29.65-26.32,26.36-58.8,13.09-88,19-11.75,2.38-7.54-16.74-17.58-20.1,1.9-22.12,24.73-25.34,34.4-38.46,4.18-3.4-1.66-5.19,1.33-2.67.73.61.49,1.83-1.18,2.5-7.06,2.85-10.5,15.09-21.28,8.28-32.16-6.67-56.64-25.59-81.38-46.3-24.24-20.28-51.12-39.23-79.88-51.83-37.52-16.43-62.32-43.84-84.67-75.63-3.21-4.56-8-8-12-12-.25-9.71,7.85-14.92,12-22.26,33.67-51.36,66.61-103.27,112-145.65,24.48-7.43,45.65-1.33,64.8,15,17.06,14.58,36.12,27,56.63,35.34,68,27.7,124.1,75.33,187.7,110.27,10.6,5.83,15,17.77,25,23.92,31.59-10.09,47.14-38.39,68.3-60.09,33.12-34,61-72.41,91.63-108.61,13.87-8.19,23.34-27.66,44.42-17.47-21.22,58-56.41,108.22-92.08,157.35-50,68.84-108.26,131.13-164.5,194.94C3099.1,4127.94,3096.15,4129.06,3093.72,4130.64Z" transform="translate(-807.92 -762.84)" fill="#3b4177"/><path d="M2818.73,3779.19c-29.18,38.87-58.59,77.59-87.4,116.74-7,9.56-14.12,18.6-24.29,24.88-74-7.59-140.39-37.49-205.6-70.74,59.35-54.68,131.34-78.85,209.86-88.94,39.69-5.11,79,2.58,118.46-.22C2834.52,3772.1,2822.15,3772.94,2818.73,3779.19Z" transform="translate(-807.92 -762.84)" fill="#9e2a5b"/><path d="M3358.68,3099.28q-5.78-26.47-11.54-53l-13.8-146q-.68-15-1.37-30c-2.28-47.55-6.27-95.33,18.94-139.13q3.56-9.62,7.11-19.25c14.08-21.88,37.83-17.13,57.78-18.69,35.7-2.8,71.28-15.94,107.53-3.87-28.09,57.45-53.48,115.74-55.16,181.23-13.69,59.62-10.7,119.9-5.06,179.91,9.44,100.61,28.42,198.58,91.7,281.77,14.12,18.56,29.62,36.07,44.48,54.06-34.59,8.75-56-18.18-82.86-30.5-27.63-8.57-43.62-31.17-61.2-51.53-44.65-51.67-73-112.19-93.82-176.56C3358.44,3118.68,3355.32,3109.2,3358.68,3099.28Z" transform="translate(-807.92 -762.84)" fill="#18215a"/><path d="M1401.26,3599c16.93,54.84,36.41,108.41,64,161.58C1434.55,3747.72,1391.77,3641.21,1401.26,3599Z" transform="translate(-807.92 -762.84)" fill="#a9aecf"/><path d="M1477.47,3798.1c16,9.42,18.51,25.81,22.39,41.6C1486.92,3828.92,1477.31,3816.35,1477.47,3798.1Z" transform="translate(-807.92 -762.84)" fill="#c1c0dd"/><path d="M3749.1,1407.49c1-13.47,10.77-19.48,20.79-26.18,24.23-16.21,47.67-33.6,71.79-50,22.44-15.23,39.72-34.23,48-60.54-2.65-29,10.25-51.57,29.26-71.7,51.7,8.55,66.41,60.47,45,90.5-23.69,33.18-48.78,65.36-71.06,99.61-12.7,19.5-25.38,39.08-38.55,58.33-6.16,7.12-13.17,12.24-23.35,9.59C3794.09,1456.37,3767.52,1438.65,3749.1,1407.49Z" transform="translate(-807.92 -762.84)" fill="#fcfcfd"/><path d="M3831,1457.13l18.46-9.83c26.18-2.29,52.19-5.81,77.62-12.58,73.54-19.59,118.37-91.38,104.24-166.13-3.45-18.24-8.93-35.83-14.42-53.49-3.09-9.9-8.74-20-2.19-30.74,18.12,1.65,22.8,19,33.89,28.94,3.84,23.92,15.7,45.14,19.5,69.75,17.14,110.84-69.85,215.39-196.3,199C3855.67,1479.92,3839.49,1473.69,3831,1457.13Z" transform="translate(-807.92 -762.84)" fill="#bc3c79"/><path d="M4296.18,1189.46l-59.44,75.9c-17-12.74-33.83-25.74-53.33-34.62,11-7.74,23.26-13.61,17.92-31.8-24.86-84.63,62.77-169.49,131.2-185,45.14-10.21,86.35-2.09,127.39,15.27,13.38,5.65,18.53,13.5,10,26.88-38.14,20.94-74.64,44.13-105.15,75.71-5.45,5.63-12.39,9.75-20.46,9.79C4312.36,1141.77,4301.81,1163.06,4296.18,1189.46Z" transform="translate(-807.92 -762.84)" fill="#5baddb"/><path d="M4014.66,1184.36c13.32,45.22,35.15,88.49,24.07,138.52-14.73,66.56-62,113.79-130.25,124-19.29,2.9-39.37,14.16-59.07.37,20.07-45.67,52.9-83.08,80.42-123.92,6-8.83,12.72-17.14,19.5-25.38,27.42-33.3,31.61-62.58-28.27-95.67-.89-25.66,12.13-42.41,34.18-53.38C3985.78,1142.75,4003.16,1158.61,4014.66,1184.36Z" transform="translate(-807.92 -762.84)" fill="#e8a7be"/><path d="M3955.24,1149c-14.18,16-26,33.52-34.18,53.38l-31.38,68.47c-19.63-2.92-28.6-21.64-44.76-30.19-17.56-9.29-34.14-14.88-51.36-1.85-16.43,12.43-16.42,29.28-10.35,47.23,6.45,19.08,12.51,38.3,19.39,59.45-22.69,1.13-40-9.84-58.3-17-1.6-8.54-2.1-17.47-5-25.56-29.48-83.11,45.47-158.47,118.4-165.38C3890.64,1134.43,3923.76,1136.44,3955.24,1149Z" transform="translate(-807.92 -762.84)" fill="#bf3d79"/><path d="M2145,4634.11c-16.91,3.67-33.39,8.59-48.66,17-18.76,10.57-30.13-6.52-44.26-12.36-9.87-4.08-16.85-13.08-24.93-20.1-12.24-10.65-24.09-16.76-37.42-1-6.85,8.07-16.29,10.2-26.57,6.22l-17.11,3.76c-16-26.76-42.69-44.15-60.76-69.11,40.29-43.22,91.48-63.27,148.94-70,40.87,39.08,72.94,85.56,108.45,129.14C2146.3,4622.05,2147.91,4628.1,2145,4634.11Z" transform="translate(-807.92 -762.84)" fill="#b4316f"/><path d="M2145,4634.11c-27.23-43.93-65-79.6-94.9-121.47-5.59-7.84-10.6-16.09-15.88-24.15l64-7c31.08,12.1,53.43,35.13,72.76,60.87,7.53,10,13.48,15.46,25.39,9.1,2.88,28.56-21.1,71.33-46.68,83.23l-2.42.15Z" transform="translate(-807.92 -762.84)" fill="#402158"/><path d="M2372.47,4791.91l-2.38.17-2.35-.4c-11.87-21-23.88-41.83-53.23-39-18.25-15.32-39.67-8.66-58.75-5.25-18.9,3.38-25-4-27.76-19.25-3.86-21.5-13.94-40.21-25-58.57,16.9-38,46.16-60.6,86.53-69.37,51.35,25.7,87.24,67.45,118.16,114.33C2409.44,4746.52,2382.86,4765.52,2372.47,4791.91Z" transform="translate(-807.92 -762.84)" fill="#862969"/><path d="M2291.63,4604.87c-39.09,8.52-63,37.87-88.61,64.77-15.55-15-32.61-27.7-53.27-34.93,17.76-26.51,39.84-50.6,46.69-83.23l5.74-4.2C2238.34,4556.63,2272.7,4568.77,2291.63,4604.87Z" transform="translate(-807.92 -762.84)" fill="#b4316f"/><path d="M1963.18,4623.81c7-2.12,16.19.75,20.51-8,15.21-30.6,31.73-18.17,48.62-1.74,18.21,17.71,38.36,32.16,64.05,36.95l-37.27,63.25C2034.09,4676.36,2020,4626.92,1963.18,4623.81Z" transform="translate(-807.92 -762.84)" fill="#f8989a"/><path d="M1605,2196.46c-15.58-8.42-20.37-18.16-15.49-31.74,1.58-4.4,7-9.71,10.7-6.56C1612.38,2168.51,1602.8,2181.63,1605,2196.46Z" transform="translate(-807.92 -762.84)" fill="#6c7a99"/><path d="M4296.18,1189.46c-10.3-21.41,13.08-58.41,37.06-54.49,16.32,2.66,22.72-5.54,32.07-13.7,31.31-27.34,60.95-57.55,104.6-65.14-32.32,58.76-65.55,117.08-92.38,178.62-8.59,19.7-15.73,21.38-29,3.91C4333.93,1219.49,4319.45,1199.64,4296.18,1189.46Z" transform="translate(-807.92 -762.84)" fill="#fafdfe"/><path d="M3350.91,2731.28q-9.48,69.55-18.94,139.13c-13.06-36.36-9.23-74.18-9.95-111.65C3321.62,2738.4,3339.45,2738.48,3350.91,2731.28Z" transform="translate(-807.92 -762.84)" fill="#f48b67"/><path d="M3357.52,3773.56c-18.15-.14-27.44,15.88-41.67,22.89-7.52-12.18,2.09-20.43,7.57-28.8,13.44-20.52,23.7-42.65,34.57-64.47,4.21-8.44,10.67-17,4.93-27.31-13.5-11.17-26.33-3.2-38.15,2.4-50.69,24-97.83,18.9-142.66-14.5-50.53-37.65-113.81-50.1-166.64-83.49-11.3-7.14-24.45-3.27-36.69,1.38-8.73,3.31-17.24,10.16-27.43,3.86l91.13-134c29-26.84,51.25-59.83,82.63-84.81,44.46-35.4,92.62-55.33,150-49.68,53.73-1.73,86.34,31.09,110.88,72.25,21,35.23,29.81,75.71,37.4,116,.75,4-.24,7.63-4,10-3.12,39.46-5.17,79-9.61,118.35C3404,3684.35,3378.89,3728.35,3357.52,3773.56Z" transform="translate(-807.92 -762.84)" fill="#585e93"/><path d="M3419.37,3515.22q-10.17-38-20.32-76.06c-17.34-65-59.15-105.25-124-122.12,3-70.52,20-137.65,48.14-202.21,7.32-16.79,16.59-26.37,35.44-15.55,25.53,78,56,153.37,113.78,214.16,14,14.77,29.28,28.37,44,42.5q37.72,146.94,75.44,293.89l-111.79,65C3452.19,3650.62,3439.54,3581.78,3419.37,3515.22Z" transform="translate(-807.92 -762.84)" fill="#fe5f52"/><path d="M3646.14,4384.47c-73.53-34.83-191-343.46-169.86-446.93C3504.73,4097.24,3541.81,4253.66,3646.14,4384.47Z" transform="translate(-807.92 -762.84)" fill="#adb5db"/><path d="M3461.65,3912q-9.95-60.06-19.88-120.12l9-1.53A831.83,831.83,0,0,1,3472.61,3910Z" transform="translate(-807.92 -762.84)" fill="#9eb0d2"/><path d="M3434.1,3755.58,3409,3666.2c20.3,26.48,25.7,57.51,34.2,87.57Z" transform="translate(-807.92 -762.84)" fill="#bcbdda"/><path d="M2291.63,4604.87c-25.36-26.1-59.7-38.26-89.44-57.59,6.28-25,31.14-39.62,36.58-65.12,36.22-31.8,36.45-32.08,76.35-1.13,55.29,42.89,95.79,99.11,137.11,154.46,3.15,4.21,3,10.86,4.44,16.38-21,17.29-38.53,37.23-49,62.74q-36.48-37.53-73-75C2321.75,4626.31,2307.63,4614.41,2291.63,4604.87Z" transform="translate(-807.92 -762.84)" fill="#fdaca2"/><path d="M2680.64,4350.86c-73.12,67.06-151.28,128-235.9,180.49C2520.82,4468,2601.18,4410.17,2680.64,4350.86Z" transform="translate(-807.92 -762.84)" fill="#b8bbe5"/><path d="M2713,4329.82c7.25-16.8,7.25-16.8,27.84-26.39,6.64,11.7-6.8,13.74-9.91,20.68Z" transform="translate(-807.92 -762.84)" fill="#b9bce2"/><path d="M2951.35,3585.52c34-22.24,64-17,99.24,3.64,52.37,30.69,111.27,48.85,162.28,84.06,32,22.09,70.85,17.12,105.77-.85,14.28-7.35,28.47-11.64,44.58-10.51,10.08.71,7.16,6.45,5.91,12-12.36,51-42.6,92.74-71.24,135.07-41,60.65-93.7,111.18-144.72,163.08-55.76-50.23-118-90.63-185.16-124-33.74-16.77-68.33-32.22-96.41-58.67-15-14.09-34.63-9.85-52.87-10.17-1.61-9.28,8.49-11.49,11-18.27Z" transform="translate(-807.92 -762.84)" fill="#454a81"/><path d="M2953,4128.85c13.89-3.59,19.34-21.26,44.27-23.4l-57.54,53.75-99.7,77-5.58-6.77Z" transform="translate(-807.92 -762.84)" fill="#b8bae3"/><path d="M2804,4254.29c-1.52,15.53-10.56,23.09-26.56,27.47C2778.61,4262.65,2794.34,4261.21,2804,4254.29Z" transform="translate(-807.92 -762.84)" fill="#c5c7ea"/><path d="M3153.17,3972c-2.22-9.25,4-14.14,9.77-19.49,86.34-79.85,157.85-170.69,206.19-278.66,14.25,8.81,1.88,18-1.39,24.62-16.37,33.11-34.42,65.39-51.89,98-40.74,55.39-85.49,107.28-135.31,154.74C3172.18,3959.14,3164.81,3968.39,3153.17,3972Z" transform="translate(-807.92 -762.84)" fill="#b8bbe3"/><path d="M3089.94,4024.81c5.2-17.63,18.64-26.38,38.41-38.26C3120.83,4010.85,3104.91,4017.41,3089.94,4024.81Z" transform="translate(-807.92 -762.84)" fill="#b7bae2"/><path d="M3022.54,4080.19c4.73-13.4,13.47-21.9,31.81-27.52C3046.64,4070.3,3036.2,4077.12,3022.54,4080.19Z" transform="translate(-807.92 -762.84)" fill="#c4c9ed"/></svg>